<?xml version="1.0" encoding="UTF-8"?>
<svg id="Livello_1" data-name="Livello 1" xmlns="http://www.w3.org/2000/svg" xmlns:xlink="http://www.w3.org/1999/xlink" viewBox="0 0 572.03 459.11">
  <defs>
    <style>
      .cls-1 {
        fill: #339dd8;
      }

      .cls-1, .cls-2, .cls-3, .cls-4, .cls-5, .cls-6, .cls-7, .cls-8, .cls-9, .cls-10, .cls-11, .cls-12, .cls-13, .cls-14, .cls-15, .cls-16, .cls-17, .cls-18, .cls-19, .cls-20, .cls-21, .cls-22, .cls-23, .cls-24, .cls-25, .cls-26, .cls-27, .cls-28, .cls-29, .cls-30, .cls-31, .cls-32 {
        stroke-width: 0px;
      }

      .cls-2 {
        fill: #fdfdfe;
      }

      .cls-3 {
        fill: url(#linear-gradient);
      }

      .cls-4 {
        fill: #48ade2;
      }

      .cls-5 {
        fill: #cf761d;
      }

      .cls-6 {
        fill: #e4f4fb;
      }

      .cls-7 {
        fill: #f2cec7;
      }

      .cls-8 {
        opacity: .21;
      }

      .cls-8, .cls-12, .cls-14 {
        fill: #e3f3fc;
      }

      .cls-9 {
        fill: #fefdfe;
      }

      .cls-10 {
        fill: #a3d8f4;
      }

      .cls-11 {
        fill: #fcfbfd;
      }

      .cls-12 {
        opacity: .54;
      }

      .cls-13 {
        fill: #cdeaf9;
      }

      .cls-15 {
        fill: #f8f7fc;
      }

      .cls-16 {
        fill: #fff;
      }

      .cls-17 {
        fill: #97d3f3;
      }

      .cls-18 {
        fill: url(#linear-gradient-2);
      }

      .cls-19 {
        fill: #fdc650;
      }

      .cls-20 {
        fill: #b4dff8;
      }

      .cls-21 {
        fill: #c8e7f8;
      }

      .cls-22 {
        fill: #ffe8bf;
      }

      .cls-23 {
        fill: #30662b;
      }

      .cls-24 {
        fill: #eae5f3;
      }

      .cls-25 {
        fill: #f6e1dc;
      }

      .cls-26 {
        fill: #3aa5dd;
      }

      .cls-27 {
        fill: #72b62b;
      }

      .cls-28 {
        fill: #d7bf9a;
      }

      .cls-29 {
        fill: #eb8f34;
      }

      .cls-30 {
        fill: #ee7339;
      }

      .cls-31 {
        fill: #f1875d;
      }

      .cls-32 {
        fill: #f4f1b0;
      }
    </style>
    <linearGradient id="linear-gradient" x1="150.37" y1="277.69" x2="150.37" y2="280.66" gradientTransform="translate(548.26 -77.13) rotate(150) scale(1 -1) skewX(30)" gradientUnits="userSpaceOnUse">
      <stop offset="0" stop-color="#674e3d"/>
      <stop offset=".97" stop-color="#7e695b"/>
    </linearGradient>
    <linearGradient id="linear-gradient-2" x1="161.6" y1="277.98" x2="161.6" y2="280.95" xlink:href="#linear-gradient"/>
  </defs>
  <g>
    <path class="cls-23" d="m549.49,114.93v3.47L378.77,19.46c-1.67-.97-3.73-.97-5.4,0l-30.42,17.57c-1.67.96-3.72.96-5.39,0l-16.21-9.36c-1.67-.96-3.72-.96-5.39,0l-73.12,42.22c-1.67.96-3.72.96-5.39,0l-66.87-38.61c-1.67-.96-3.72-.96-5.39,0L19.48,115.39v-3.02h-10.18v12.06h0c.02,1.8.91,3.59,2.69,4.62l64.66,37.33c3.59,2.08,3.59,7.26,0,9.34l-60.92,35.17v-2.9H5.55v12.06h.01c.05,1.76.95,3.5,2.69,4.5l70.1,40.47c3.59,2.08,3.59,7.26,0,9.34l-62.76,36.24v-3.13H5.4v12.06h0c-.02,1.84.88,3.68,2.69,4.73l23.23,13.41c3.59,2.08,3.59,7.26,0,9.34l-14.45,8.34v-3.11H6.7v10.71c-.65,2.25.18,4.87,2.49,6.2l155.24,89.24c1.67.96,3.72.96,5.38,0l100.06-57.77c1.67-.96,3.72-.96,5.38,0l81.85,47.05c1.67.96,3.72.96,5.38,0l188.33-108.73c1.98-1.15,2.87-3.24,2.66-5.24v-11.85h-10.18v3.43l-23.65-13.6c-3.6-2.07-3.61-7.27,0-9.34l29.62-17.1c1.83-1.06,2.73-2.92,2.69-4.78v-12.39h-10.18v3.5l-75.85-43.79c-3.59-2.08-3.59-7.26,0-9.34l84.83-48.98c1.94-1.12,2.83-3.14,2.68-5.09v-11.74h-10.18v3.16l-5.56-3.21c-3.59-2.08-3.59-7.26,0-9.34l19.3-11.14c1.78-1.03,2.68-2.82,2.69-4.62h0v-12.53h-10.18Z"/>
    <path class="cls-27" d="m556.98,119.52l-19.3,11.14c-3.6,2.08-3.6,7.26,0,9.34l13.06,7.54c3.6,2.08,3.6,7.27,0,9.34l-84.83,48.98c-3.59,2.08-3.59,7.26,0,9.34l83.34,48.12c3.6,2.08,3.6,7.27,0,9.34l-29.62,17.1c-3.6,2.08-3.6,7.27,0,9.34l31.17,17.92c3.6,2.07,3.61,7.27,0,9.35l-188.33,108.73c-1.67.96-3.72.96-5.38,0l-81.85-47.05c-1.67-.96-3.72-.96-5.38,0l-100.06,57.77c-1.67.96-3.72.96-5.38,0L9.18,356.59c-3.6-2.07-3.61-7.27,0-9.35l22.15-12.79c3.6-2.08,3.6-7.26,0-9.34l-23.23-13.41c-3.59-2.08-3.59-7.27,0-9.34l70.25-40.56c3.6-2.08,3.6-7.26,0-9.34L8.25,212c-3.6-2.08-3.6-7.26,0-9.34l68.4-39.49c3.59-2.08,3.59-7.26,0-9.34l-9.51-5.49-55.16-31.85c-3.58-2.08-3.58-7.25,0-9.33l97.68-56.4,55.51-32.05c1.67-.97,3.72-.97,5.39,0l66.87,38.61c1.67.97,3.73.97,5.39,0l73.12-42.22c1.67-.96,3.73-.96,5.39,0l16.21,9.36c1.67.97,3.72.97,5.39,0l30.42-17.57c1.67-.96,3.73-.96,5.4,0l178.22,103.29c3.59,2.08,3.58,7.26,0,9.34Z"/>
  </g>
  <path class="cls-32" d="m396.57,325.55c-8.61-4.9-18.32-3.7-27.57-5.59-3.86-.79-7.88-.2-11.26,1.85l-176.19,106.76c-2.46,1.49-5.56,1.46-7.99-.1l-1.97-1.26c-2.91-1.86-2.86-6.12.08-7.92l163.34-99.97c3.26-1.99,2.17-7-1.63-7.43-62.38-7.04-69.52-33.75-95.3-42.77-4.79-1.68-10.07-1.31-14.59,1l-78.35,39.96c-1.88.96-4.12.88-5.92-.22h0c-1.94-1.17-1.82-4.02.2-5.04l76.98-38.65c2.02-1.02,1.9-3.94-.21-4.78l-2.39-.95c-1.6-.64-3.39-.55-4.92.24l-25.6,13.25c-2.05,1.06-4.52.97-6.49-.24l-7.46-4.58c-1.45-.89-1.43-3.02.04-3.88l5.4-3.15c1.05-.61,2.36-.61,3.41,0l1.89,1.11c1.07.63,2.4.64,3.48.03l11.34-6.43c2.56-1.45,3.22-4.86,1.38-7.15-8.15-10.14-18.55-17.61-30.95-22.71-4.12-1.69-6.95-5.57-7.39-10.01-1.53-15.54-1.83-50.37,23.65-63.13,20.14-10.93,37.4-11.58,48.65-10.05,6.27.85,11.38-4.95,9.63-11.03l-18.15-63.03c-.59-2.04-1.98-3.75-3.85-4.75l-47.29-25.06c-1.76-.93-3.87-.93-5.63,0l-37.57,20c-1.8.96-3.97.9-5.71-.16l-.96-.58c-2.24-1.36-2.17-4.63.14-5.88l43.1-23.36c1.96-1.06,4.32-1.08,6.29-.04l59.13,31.11c1.92,1.01,3.37,2.72,4.07,4.77l24.99,74.19c1.58,4.68,5.93,7.86,10.87,7.95l27.44.47c3.38.06,6.72-.74,9.71-2.32l33.63-17.76c2.79-1.48,2.97-5.41.31-7.13l-78.39-50.58c-3.64-2.35-3.47-7.72.31-9.84l51.06-28.63c1.45-.81,3.21-.82,4.67-.02l3.65,2.01c1.56.86,1.57,3.09.02,3.96l-43.42,24.53c-2.87,1.62-2.9,5.74-.05,7.4l75.9,44.37c2.06,1.2,4.6,1.19,6.65-.03l53.58-32.05c1.5-.9,1.62-3.04.22-4.09l-7.42-5.58c-.83-.62-.77-1.89.11-2.43l4.21-2.58c.76-.46,1.72-.45,2.46.05l15.72,10.45c2.08,1.38,2.06,4.45-.04,5.81l-107.85,67.91c-4.17,2.63-5.24,8.28-2.25,12.21,13.53,17.79,30.44,49.64,71.38,60.35,4.88,1.28,10.07.59,14.43-1.95l121.66-70.86c2.17-1.26,4.8-1.44,7.12-.49l3.8,1.56c2.19.9,2.4,3.92.36,5.12l-121.67,71.14c-5.83,3.41-9.33,9.8-8.89,16.54.38,5.86,4.87,20.67,7.29,28.33.76,2.39,3.59,3.4,5.69,2.02l6.27-4.1c1.64-1.07,3.75-1.07,5.38,0l91.85,60.36c2.22,1.46,2.21,4.71-.01,6.15l-.93.61c-1.58,1.03-3.61,1.02-5.17-.03-13.03-8.73-71.63-47.98-84.87-56.56-1.59-1.03-3.63-1.02-5.22.01l-7.37,4.82c-1.06.69-1.62,1.93-1.44,3.18.6,4.15,1.85,13.87,1.77,21.94,0,.24-.13.45-.34.56l-23.38,12.83c-.2.11-.43.1-.63,0Z"/>
  <g id="_ingresso_" data-name="&amp;lt;ingresso&amp;gt;">
    <polygon class="cls-19" points="394.23 348.39 442.14 320.97 442.23 316.22 394.23 343.93 394.23 348.39"/>
    <g>
      <polygon class="cls-29" points="412.94 375.44 446.89 360.3 422.63 346.73 392.74 364.12 412.94 375.44"/>
      <polygon class="cls-29" points="441.84 372.01 474.99 353.31 454.31 341.26 421.64 360.69 441.84 372.01"/>
      <g>
        <polygon class="cls-10" points="405.84 371.34 371.61 351.57 371.61 346.48 405.84 366.25 405.84 371.34"/>
        <polygon class="cls-26" points="405.84 371.34 440.07 351.57 440.07 346.48 405.84 366.25 405.84 371.34"/>
        <polygon class="cls-20" points="455.38 360.38 470.39 351.83 470.5 346.24 455.38 355.14 455.38 360.38"/>
        <polygon class="cls-20" points="455.44 360.38 440.17 351.55 440.17 346.46 455.44 355.29 455.44 360.38"/>
        <polygon class="cls-16" points="454.89 355.46 470.59 346.49 453.97 336.89 438.27 345.86 454.89 355.46"/>
        <polygon class="cls-7" points="371.95 346.44 405.55 366.33 460.48 334.56 426.88 314.68 371.95 346.44"/>
        <polygon class="cls-5" points="470.59 346.44 415.43 314.63 415.43 295.15 470.59 326.96 470.59 346.44"/>
        <g>
          <g>
            <path class="cls-5" d="m427.99,289.93v26.09l34.17,19.65v-26.09l-34.17-19.65Zm1.63,5.9l.45-.26s7.69,4.44,7.69,4.45l7.23,4.17v.14l.09-.05s7.69,4.44,7.69,4.45l7.23,4.17v18.11l-.45.26s-7.69-4.44-7.69-4.45l-7.23-4.17v-.14l-.09.05s-7.69-4.44-7.69-4.45l-7.23-4.17v-18.11Z"/>
            <g>
              <g>
                <g>
                  <path class="cls-10" d="m430.52,295.93v18.11l-.5.05.06-17.9.45-.26Z"/>
                  <g>
                    <polygon class="cls-8" points="437.1 317.63 430.08 313.51 430.08 296.41 437.1 300.53 437.1 317.63"/>
                    <polygon class="cls-21" points="430.45 313.25 437.71 317.43 437.26 317.69 430 313.51 430.45 313.25"/>
                    <path class="cls-9" d="m437.31,300.28v18.11l-7.69-4.44v-18.11l7.69,4.44Zm-.45.32l-6.8-3.93v16.87l6.8,3.93v-16.87Z"/>
                    <path class="cls-10" d="m437.76,300.02v18.11l-.45.26v-18.11l.45-.26Z"/>
                    <polygon class="cls-21" points="430.06 295.58 437.76 300.02 437.31 300.28 429.62 295.83 430.06 295.58"/>
                    <polygon class="cls-11" points="436.84 302.5 430.5 306.94 430.5 306.29 436.84 301.85 436.84 302.5"/>
                    <polygon class="cls-11" points="436.84 303.33 430.5 307.78 430.5 307.39 436.84 302.95 436.84 303.33"/>
                  </g>
                </g>
                <g>
                  <polygon class="cls-8" points="444.33 321.8 437.31 317.68 437.31 300.59 444.33 304.71 444.33 321.8"/>
                  <polygon class="cls-21" points="437.74 317.46 445 321.65 444.55 321.9 437.29 317.72 437.74 317.46"/>
                  <path class="cls-9" d="m444.54,304.45v18.11l-7.69-4.44v-18.11l7.69,4.44Zm-.45.32l-6.8-3.93v16.87l6.8,3.93v-16.87Z"/>
                  <path class="cls-10" d="m444.99,304.19v18.11l-.45.26v-18.11l.45-.26Z"/>
                  <polygon class="cls-21" points="437.29 299.75 444.99 304.19 444.54 304.45 436.85 300.01 437.29 299.75"/>
                </g>
              </g>
              <g>
                <g>
                  <path class="cls-10" d="m445.53,304.63v18.11l-.5.05.06-17.9.45-.26Z"/>
                  <g>
                    <polygon class="cls-8" points="452.11 326.33 445.1 322.21 445.1 305.12 452.11 309.24 452.11 326.33"/>
                    <polygon class="cls-21" points="445.46 321.95 452.72 326.14 452.27 326.39 445.01 322.21 445.46 321.95"/>
                    <path class="cls-9" d="m452.33,308.98v18.11l-7.69-4.44v-18.11l7.69,4.44Zm-.45.32l-6.8-3.93v16.87l6.8,3.93v-16.87Z"/>
                    <path class="cls-10" d="m452.77,308.72v18.11l-.45.26v-18.11l.45-.26Z"/>
                    <polygon class="cls-21" points="445.08 304.28 452.77 308.72 452.33 308.98 444.63 304.54 445.08 304.28"/>
                    <polygon class="cls-11" points="451.86 311.2 445.51 315.64 445.51 315 451.86 310.56 451.86 311.2"/>
                    <polygon class="cls-11" points="451.86 312.04 445.51 316.48 445.51 316.09 451.86 311.65 451.86 312.04"/>
                  </g>
                </g>
                <g>
                  <polygon class="cls-8" points="459.34 330.51 452.32 326.39 452.32 309.29 459.34 313.41 459.34 330.51"/>
                  <polygon class="cls-21" points="452.75 326.17 460.01 330.35 459.56 330.61 452.31 326.42 452.75 326.17"/>
                  <path class="cls-9" d="m459.55,313.16v18.11l-7.69-4.44v-18.11l7.69,4.44Zm-.45.32l-6.8-3.93v16.87l6.8,3.93v-16.87Z"/>
                  <path class="cls-10" d="m460,312.9v18.11l-.45.26v-18.11l.45-.26Z"/>
                  <polygon class="cls-21" points="452.31 308.46 460 312.9 459.55 313.16 451.86 308.71 452.31 308.46"/>
                </g>
              </g>
            </g>
          </g>
          <g>
            <g>
              <path class="cls-10" d="m425.31,296.62v19.64l-.45-.26v-19.64l.45.26Z"/>
              <g>
                <polygon class="cls-8" points="418.29 318.05 425.3 313.93 425.3 296.84 418.29 300.96 418.29 318.05"/>
                <polygon class="cls-21" points="424.9 313.68 417.64 317.86 418.09 318.12 425.35 313.93 424.9 313.68"/>
                <path class="cls-9" d="m425.77,296.26v19.64l-7.69,4.44v-19.64l7.69-4.44Zm-7.25,21.63l6.8-3.93v-16.87l-6.8,3.93v16.87Z"/>
                <path class="cls-10" d="m418.07,300.7v19.64l-.45-.26v-19.64l.45.26Z"/>
                <polygon class="cls-21" points="425.32 296 417.63 300.45 418.07 300.7 425.77 296.26 425.32 296"/>
                <polygon class="cls-11" points="418.54 302.93 424.88 307.37 424.88 306.72 418.54 302.28 418.54 302.93"/>
                <polygon class="cls-11" points="418.54 303.76 424.88 308.2 424.88 307.82 418.54 303.38 418.54 303.76"/>
              </g>
            </g>
            <g>
              <path class="cls-10" d="m418.09,300.79v19.64l-.45-.26v-19.64l.45.26Z"/>
              <g>
                <polygon class="cls-8" points="411.06 322.23 418.08 318.11 418.08 301.02 411.06 305.14 411.06 322.23"/>
                <polygon class="cls-21" points="417.67 317.85 410.41 322.04 410.86 322.3 418.12 318.11 417.67 317.85"/>
                <path class="cls-9" d="m418.54,300.44v19.64l-7.69,4.44v-19.64l7.69-4.44Zm-7.25,21.63l6.8-3.93v-16.87l-6.8,3.93v16.87Z"/>
                <path class="cls-10" d="m410.84,304.88v19.64l-.45-.26v-19.64l.45.26Z"/>
                <polygon class="cls-21" points="418.09 300.18 410.4 304.62 410.84 304.88 418.54 300.44 418.09 300.18"/>
              </g>
            </g>
            <g>
              <path class="cls-5" d="m371.63,320.67v26.09l38.88-22.45-.11-.06v-19.63s7.23-4.17,7.23-4.18l7.69-4.44.45.26v19.25l2.21-1.28v-26.09l-56.35,32.53Zm3.3,20.76v-17.44s7.23-4.17,7.23-4.18l7.69-4.44.09.05v-.14s7.23-4.17,7.23-4.18l7.69-4.44.45.26v18.11s-7.23,4.17-7.23,4.18l-7.69,4.44-.09-.05v.14s-7.23,4.17-7.23,4.18l-7.69,4.44-.45-.26v-.66s-.01,0,0-.01Z"/>
              <g>
                <g>
                  <g>
                    <path class="cls-10" d="m404.86,307.28l.06,17.9-.5-.05v-18.11l.45.26Z"/>
                    <g>
                      <polygon class="cls-8" points="397.83 328.72 404.85 324.6 404.85 307.5 397.83 311.62 397.83 328.72"/>
                      <polygon class="cls-21" points="404.48 324.34 397.22 328.52 397.67 328.78 404.93 324.6 404.48 324.34"/>
                      <path class="cls-9" d="m405.31,306.92v18.11l-7.69,4.44v-18.11l7.69-4.44Zm-7.25,21.63l6.8-3.93v-16.87l-6.8,3.93v16.87Z"/>
                      <path class="cls-10" d="m397.62,311.37v18.11l-.45-.26v-18.11l.45.26Z"/>
                      <polygon class="cls-21" points="404.86 306.67 397.17 311.11 397.62 311.37 405.31 306.92 404.86 306.67"/>
                      <polygon class="cls-11" points="398.09 313.59 404.43 318.03 404.43 317.39 398.09 312.94 398.09 313.59"/>
                      <polygon class="cls-11" points="398.09 314.43 404.43 318.87 404.43 318.48 398.09 314.04 398.09 314.43"/>
                    </g>
                  </g>
                  <g>
                    <polygon class="cls-8" points="390.6 332.89 397.62 328.77 397.62 311.68 390.6 315.8 390.6 332.89"/>
                    <polygon class="cls-21" points="397.19 328.55 389.93 332.74 390.38 332.99 397.64 328.81 397.19 328.55"/>
                    <path class="cls-9" d="m398.08,311.1v18.11l-7.69,4.44v-18.11l7.69-4.44Zm-7.25,21.63l6.8-3.93v-16.87l-6.8,3.93v16.87Z"/>
                    <path class="cls-10" d="m390.39,315.54v18.11l-.45-.26v-18.11l.45.26Z"/>
                    <polygon class="cls-21" points="397.64 310.84 389.94 315.29 390.39 315.54 398.08 311.1 397.64 310.84"/>
                  </g>
                </g>
                <g>
                  <g>
                    <path class="cls-10" d="m389.84,315.98l.06,17.9-.5-.05v-18.11l.45.26Z"/>
                    <g>
                      <polygon class="cls-8" points="382.82 337.42 389.83 333.3 389.83 316.21 382.82 320.33 382.82 337.42"/>
                      <polygon class="cls-21" points="389.47 333.04 382.21 337.23 382.65 337.49 389.91 333.3 389.47 333.04"/>
                      <path class="cls-9" d="m390.3,315.63v18.11l-7.69,4.44v-18.11l7.69-4.44Zm-7.25,21.63l6.8-3.93v-16.87l-6.8,3.93v16.87Z"/>
                      <path class="cls-10" d="m382.6,320.07v18.11l-.45-.26v-18.11l.45.26Z"/>
                      <polygon class="cls-21" points="389.85 315.37 382.16 319.81 382.6 320.07 390.3 315.63 389.85 315.37"/>
                      <polygon class="cls-11" points="383.07 322.29 389.42 326.73 389.42 326.09 383.07 321.65 383.07 322.29"/>
                      <polygon class="cls-11" points="383.07 323.13 389.42 327.57 389.42 327.19 383.07 322.74 383.07 323.13"/>
                    </g>
                  </g>
                  <g>
                    <polygon class="cls-8" points="375.59 341.6 382.61 337.48 382.61 320.39 375.59 324.51 375.59 341.6"/>
                    <polygon class="cls-21" points="382.18 337.26 374.92 341.44 375.36 341.7 382.62 337.51 382.18 337.26"/>
                    <path class="cls-9" d="m383.07,319.81v18.11l-7.69,4.44v-18.11l7.69-4.44Zm-7.25,21.63l6.8-3.93v-16.87l-6.8,3.93v16.87Z"/>
                    <path class="cls-10" d="m375.37,324.25v18.11l-.45-.26v-18.11l.45.26Z"/>
                    <polygon class="cls-21" points="382.62 319.55 374.93 323.99 375.37 324.25 383.07 319.81 382.62 319.55"/>
                  </g>
                </g>
              </g>
            </g>
          </g>
          <polygon class="cls-10" points="405.78 340.43 462.13 307.88 462.13 305.56 405.78 338.09 405.78 340.43"/>
          <polygon class="cls-13" points="405.78 340.43 371.61 320.79 371.61 318.47 405.78 338.09 405.78 340.43"/>
          <g>
            <path class="cls-16" d="m371.61,318.47l34.17,19.63,56.35-32.53-34.17-19.63-56.35,32.53Zm34.17,17.37l-30.24-17.37,52.43-30.27,30.24,17.37-52.43,30.27Z"/>
            <polygon class="cls-13" points="375.53 318.46 377.8 319.76 405.78 335.83 455.94 306.87 458.2 305.56 427.96 288.19 375.53 318.46"/>
            <polygon class="cls-6" points="377.8 319.76 405.78 335.83 455.94 306.87 427.96 290.8 377.8 319.76"/>
          </g>
          <g>
            <path class="cls-31" d="m371.61,320.79v26.09l34.17,19.65v-26.09s-34.17-19.65-34.17-19.65Zm1.63,5.9l.45-.26s7.69,4.44,7.69,4.45l7.23,4.17v.14l.09-.05s7.69,4.44,7.69,4.45l7.23,4.17v18.11l-.45.26s-7.69-4.44-7.69-4.45l-7.23-4.17v-.14l-.09.05s-7.69-4.44-7.69-4.45l-7.23-4.17v-18.11Z"/>
            <g>
              <g>
                <g>
                  <path class="cls-10" d="m374.14,326.78v18.11l-.5.05.06-17.9.45-.26Z"/>
                  <g>
                    <polygon class="cls-12" points="380.72 348.48 373.7 344.36 373.7 327.27 380.72 331.39 380.72 348.48"/>
                    <polygon class="cls-21" points="374.07 344.1 381.33 348.29 380.88 348.54 373.62 344.36 374.07 344.1"/>
                    <path class="cls-9" d="m380.93,331.13v18.11l-7.69-4.44v-18.11l7.69,4.44Zm-.45.32l-6.8-3.93v16.87l6.8,3.93v-16.87Z"/>
                    <path class="cls-10" d="m381.38,330.87v18.11l-.45.26v-18.11l.45-.26Z"/>
                    <polygon class="cls-21" points="373.69 326.43 381.38 330.87 380.93 331.13 373.24 326.69 373.69 326.43"/>
                    <polygon class="cls-11" points="380.46 333.35 374.12 337.79 374.12 337.15 380.46 332.71 380.46 333.35"/>
                    <polygon class="cls-11" points="380.46 334.19 374.12 338.63 374.12 338.24 380.46 333.8 380.46 334.19"/>
                  </g>
                </g>
                <g>
                  <polygon class="cls-12" points="387.95 352.66 380.93 348.53 380.93 331.44 387.95 335.56 387.95 352.66"/>
                  <polygon class="cls-21" points="381.36 348.31 388.62 352.5 388.17 352.76 380.91 348.57 381.36 348.31"/>
                  <path class="cls-9" d="m388.16,335.3v18.11l-7.69-4.44v-18.11l7.69,4.44Zm-.45.32l-6.8-3.93v16.87l6.8,3.93v-16.87Z"/>
                  <path class="cls-10" d="m388.61,335.05v18.11l-.45.26v-18.11l.45-.26Z"/>
                  <polygon class="cls-21" points="380.91 330.61 388.61 335.05 388.16 335.3 380.47 330.86 380.91 330.61"/>
                </g>
              </g>
              <g>
                <g>
                  <path class="cls-10" d="m389.15,335.49v18.11l-.5.05.06-17.9.45-.26Z"/>
                  <g>
                    <polygon class="cls-12" points="395.73 357.18 388.72 353.06 388.72 335.97 395.73 340.09 395.73 357.18"/>
                    <polygon class="cls-21" points="389.08 352.8 396.34 356.99 395.9 357.25 388.64 353.06 389.08 352.8"/>
                    <path class="cls-9" d="m395.95,339.83v18.11l-7.69-4.44v-18.11l7.69,4.44Zm-.45.32l-6.8-3.93v16.87l6.8,3.93v-16.87Z"/>
                    <path class="cls-10" d="m396.39,339.57v18.11l-.45.26v-18.11l.45-.26Z"/>
                    <polygon class="cls-21" points="388.7 335.13 396.39 339.57 395.95 339.83 388.25 335.39 388.7 335.13"/>
                    <polygon class="cls-11" points="395.48 342.05 389.14 346.5 389.14 345.85 395.48 341.41 395.48 342.05"/>
                    <polygon class="cls-11" points="395.48 342.89 389.14 347.33 389.14 346.95 395.48 342.5 395.48 342.89"/>
                  </g>
                </g>
                <g>
                  <polygon class="cls-12" points="402.96 361.36 395.94 357.24 395.94 340.15 402.96 344.27 402.96 361.36"/>
                  <polygon class="cls-21" points="396.37 357.02 403.63 361.2 403.19 361.46 395.93 357.28 396.37 357.02"/>
                  <path class="cls-9" d="m403.18,344.01v18.11l-7.69-4.44v-18.11l7.69,4.44Zm-.45.32l-6.8-3.93v16.87l6.8,3.93v-16.87Z"/>
                  <path class="cls-10" d="m403.62,343.75v18.11l-.45.26v-18.11l.45-.26Z"/>
                  <polygon class="cls-21" points="395.93 339.31 403.62 343.75 403.18 344.01 395.48 339.57 395.93 339.31"/>
                </g>
              </g>
            </g>
          </g>
          <g>
            <g>
              <path class="cls-10" d="m459.47,316.38v19.64l-.45-.26v-19.64l.45.26Z"/>
              <g>
                <polygon class="cls-8" points="452.44 337.82 459.46 333.7 459.46 316.6 452.44 320.72 452.44 337.82"/>
                <polygon class="cls-21" points="459.05 333.44 451.8 337.62 452.24 337.88 459.5 333.7 459.05 333.44"/>
                <path class="cls-9" d="m459.92,316.02v19.64l-7.69,4.44v-19.64l7.69-4.44Zm-7.25,21.63l6.8-3.93v-16.87l-6.8,3.93v16.87Z"/>
                <path class="cls-10" d="m452.23,320.47v19.64l-.45-.26v-19.64l.45.26Z"/>
                <polygon class="cls-21" points="459.47 315.77 451.78 320.21 452.23 320.47 459.92 316.02 459.47 315.77"/>
                <polygon class="cls-11" points="452.7 322.69 459.04 327.13 459.04 326.49 452.7 322.04 452.7 322.69"/>
                <polygon class="cls-11" points="452.7 323.52 459.04 327.97 459.04 327.58 452.7 323.14 452.7 323.52"/>
              </g>
            </g>
            <g>
              <path class="cls-10" d="m452.24,320.55v19.64l-.45-.26v-19.64l.45.26Z"/>
              <g>
                <polygon class="cls-8" points="445.21 341.99 452.23 337.87 452.23 320.78 445.21 324.9 445.21 341.99"/>
                <polygon class="cls-21" points="451.83 337.61 444.57 341.8 445.01 342.06 452.27 337.87 451.83 337.61"/>
                <path class="cls-9" d="m452.69,320.2v19.64l-7.69,4.44v-19.64l7.69-4.44Zm-7.25,21.63l6.8-3.93v-16.87l-6.8,3.93v16.87Z"/>
                <path class="cls-10" d="m445,324.64v19.64l-.45-.26v-19.64l.45.26Z"/>
                <polygon class="cls-21" points="452.25 319.94 444.55 324.38 445 324.64 452.69 320.2 452.25 319.94"/>
              </g>
            </g>
            <g>
              <path class="cls-30" d="m405.78,340.43v26.09s38.88-22.45,38.88-22.45l-.11-.06v-19.63s7.23-4.17,7.23-4.18l7.69-4.44.45.26v19.25l2.21-1.28v-26.09l-56.35,32.53Zm3.3,20.76v-17.44s7.23-4.17,7.23-4.18l7.69-4.44.09.05v-.14s7.23-4.17,7.23-4.18l7.69-4.44.45.26v18.11s-7.23,4.17-7.23,4.18l-7.69,4.44-.09-.05v.14s-7.23,4.17-7.23,4.18l-7.69,4.44-.45-.26v-.65s-.01,0,0-.01Z"/>
              <g>
                <g>
                  <g>
                    <path class="cls-10" d="m439.01,327.04l.06,17.9-.5-.05v-18.11l.45.26Z"/>
                    <g>
                      <polygon class="cls-8" points="431.98 348.48 439 344.36 439 327.27 431.98 331.39 431.98 348.48"/>
                      <polygon class="cls-21" points="438.64 344.1 431.38 348.29 431.82 348.54 439.08 344.36 438.64 344.1"/>
                      <path class="cls-9" d="m439.46,326.69v18.11l-7.69,4.44v-18.11l7.69-4.44Zm-7.25,21.63l6.8-3.93v-16.87l-6.8,3.93v16.87Z"/>
                      <path class="cls-10" d="m431.77,331.13v18.11l-.45-.26v-18.11l.45.26Z"/>
                      <polygon class="cls-21" points="439.02 326.43 431.32 330.87 431.77 331.13 439.46 326.69 439.02 326.43"/>
                      <polygon class="cls-11" points="432.24 333.35 438.58 337.79 438.58 337.15 432.24 332.71 432.24 333.35"/>
                      <polygon class="cls-11" points="432.24 334.19 438.58 338.63 438.58 338.24 432.24 333.8 432.24 334.19"/>
                    </g>
                  </g>
                  <g>
                    <polygon class="cls-8" points="424.76 352.66 431.77 348.53 431.77 331.44 424.76 335.56 424.76 352.66"/>
                    <polygon class="cls-21" points="431.35 348.31 424.09 352.5 424.53 352.76 431.79 348.57 431.35 348.31"/>
                    <path class="cls-9" d="m432.24,330.86v18.11l-7.69,4.44v-18.11l7.69-4.44Zm-7.25,21.63l6.8-3.93v-16.87l-6.8,3.93v16.87Z"/>
                    <path class="cls-10" d="m424.54,335.3v18.11l-.45-.26v-18.11l.45.26Z"/>
                    <polygon class="cls-21" points="431.79 330.61 424.1 335.05 424.54 335.3 432.24 330.86 431.79 330.61"/>
                  </g>
                </g>
                <g>
                  <g>
                    <path class="cls-10" d="m424,335.74l.06,17.9-.5-.05v-18.11l.45.26Z"/>
                    <g>
                      <polygon class="cls-8" points="416.97 357.18 423.99 353.06 423.99 335.97 416.97 340.09 416.97 357.18"/>
                      <polygon class="cls-21" points="423.62 352.8 416.36 356.99 416.81 357.25 424.07 353.06 423.62 352.8"/>
                      <path class="cls-9" d="m424.45,335.39v18.11l-7.69,4.44v-18.11l7.69-4.44Zm-7.25,21.63l6.8-3.93v-16.87l-6.8,3.93v16.87Z"/>
                      <path class="cls-10" d="m416.76,339.83v18.11l-.45-.26v-18.11l.45.26Z"/>
                      <polygon class="cls-21" points="424 335.13 416.31 339.57 416.76 339.83 424.45 335.39 424 335.13"/>
                      <polygon class="cls-11" points="417.23 342.05 423.57 346.5 423.57 345.85 417.23 341.41 417.23 342.05"/>
                      <polygon class="cls-11" points="417.23 342.89 423.57 347.33 423.57 346.95 417.23 342.5 417.23 342.89"/>
                    </g>
                  </g>
                  <g>
                    <polygon class="cls-8" points="409.74 361.36 416.76 357.24 416.76 340.15 409.74 344.27 409.74 361.36"/>
                    <polygon class="cls-21" points="416.33 357.02 409.07 361.2 409.52 361.46 416.78 357.28 416.33 357.02"/>
                    <path class="cls-9" d="m417.22,339.57v18.11l-7.69,4.44v-18.11l7.69-4.44Zm-7.25,21.63l6.8-3.93v-16.87l-6.8,3.93v16.87Z"/>
                    <path class="cls-10" d="m409.53,344.01v18.11l-.45-.26v-18.11l.45.26Z"/>
                    <polygon class="cls-21" points="416.78 339.31 409.08 343.75 409.53 344.01 417.22 339.57 416.78 339.31"/>
                  </g>
                </g>
              </g>
            </g>
          </g>
        </g>
        <g>
          <g>
            <path class="cls-10" d="m470.08,327.39v19.64l-.45-.26v-19.64l.45.26Z"/>
            <g>
              <polygon class="cls-8" points="463.05 348.82 470.07 344.7 470.07 327.61 463.05 331.73 463.05 348.82"/>
              <polygon class="cls-21" points="469.67 344.45 462.41 348.63 462.86 348.89 470.11 344.7 469.67 344.45"/>
              <path class="cls-9" d="m470.53,327.03v19.64l-7.69,4.44v-19.64l7.69-4.44Zm-7.25,21.63l6.8-3.93v-16.87l-6.8,3.93v16.87Z"/>
              <path class="cls-10" d="m462.84,331.47v19.64l-.45-.26v-19.64l.45.26Z"/>
              <polygon class="cls-21" points="470.09 326.77 462.39 331.22 462.84 331.47 470.53 327.03 470.09 326.77"/>
            </g>
          </g>
          <g>
            <path class="cls-10" d="m462.79,331.63v19.64l-.45-.26v-19.64l.45.26Z"/>
            <g>
              <polygon class="cls-8" points="455.76 353.07 462.78 348.95 462.78 331.85 455.76 335.97 455.76 353.07"/>
              <polygon class="cls-21" points="462.38 348.69 455.12 352.87 455.56 353.13 462.82 348.95 462.38 348.69"/>
              <path class="cls-9" d="m463.24,331.27v19.64l-7.69,4.44v-19.64l7.69-4.44Zm-7.25,21.63l6.8-3.93v-16.87l-6.8,3.93v16.87Z"/>
              <path class="cls-10" d="m455.55,335.72v19.64l-.45-.26v-19.64l.45.26Z"/>
              <polygon class="cls-21" points="462.79 331.02 455.1 335.46 455.55 335.72 463.24 331.27 462.79 331.02"/>
            </g>
          </g>
          <g>
            <path class="cls-10" d="m441.04,327.28v19.64l-.45.26v-19.64l.45-.26Z"/>
            <g>
              <polygon class="cls-8" points="447.63 351.02 440.61 346.9 440.61 329.81 447.63 333.93 447.63 351.02"/>
              <polygon class="cls-21" points="441.01 346.88 448.27 351.07 447.82 351.32 440.56 347.14 441.01 346.88"/>
              <path class="cls-9" d="m447.84,331.62v19.64l-7.69-4.44v-19.64l7.69,4.44Zm-.45.32l-6.8-3.93v19.15l6.8,3.93v-19.15Z"/>
              <path class="cls-10" d="m448.29,331.37v19.64l-.45.26v-19.64l.45-.26Z"/>
              <polygon class="cls-21" points="440.59 326.92 448.29 331.37 447.84 331.62 440.15 327.18 440.59 326.92"/>
              <polygon class="cls-11" points="447.37 333.84 441.03 338.29 441.03 337.64 447.37 333.2 447.37 333.84"/>
              <polygon class="cls-11" points="447.37 334.68 441.03 339.12 441.03 338.74 447.37 334.3 447.37 334.68"/>
            </g>
          </g>
          <g>
            <path class="cls-10" d="m448.27,331.45v19.64l-.45.26v-19.64l.45-.26Z"/>
            <g>
              <polygon class="cls-8" points="454.85 355.2 447.84 351.08 447.84 333.99 454.85 338.11 454.85 355.2"/>
              <polygon class="cls-21" points="448.24 351.06 455.5 355.24 455.05 355.5 447.79 351.31 448.24 351.06"/>
              <path class="cls-9" d="m455.07,335.8v19.64l-7.69-4.44v-19.64l7.69,4.44Zm-.45.32l-6.8-3.93v19.15l6.8,3.93v-19.15Z"/>
              <path class="cls-10" d="m455.51,335.54v19.64l-.45.26v-19.64l.45-.26Z"/>
              <polygon class="cls-21" points="447.82 331.1 455.51 335.54 455.07 335.8 447.37 331.36 447.82 331.1"/>
            </g>
          </g>
        </g>
        <g>
          <polygon class="cls-28" points="414.06 325.47 420.21 321.91 420.21 316.77 414.06 320.32 414.06 325.47"/>
          <polygon class="cls-24" points="414.06 325.47 411.36 323.99 411.36 318.84 414.06 320.32 414.06 325.47"/>
          <polygon class="cls-16" points="414.06 320.32 420.21 316.77 417.52 315.29 411.36 318.84 414.06 320.32"/>
          <path class="cls-3" d="m416.5,321.27c0,.97.69,1.37,1.54.88.85-.49,1.54-1.68,1.54-2.65s-.69-1.37-1.54-.88c-.85.49-1.54,1.68-1.54,2.65Z"/>
          <g>
            <g>
              <path class="cls-25" d="m416.92,322.3c-.31-.18-.47-.54-.47-1.03,0-.99.7-2.2,1.57-2.7.43-.25.84-.29,1.15-.11.31.18.47.54.47,1.03,0,.99-.7,2.2-1.57,2.7-.25.15-.5.22-.72.22-.16,0-.3-.04-.43-.11Zm1.15-3.64c-.83.48-1.51,1.65-1.51,2.61,0,.45.15.78.42.94.27.16.64.12,1.04-.11.83-.48,1.51-1.65,1.51-2.61,0-.45-.15-.78-.42-.94-.11-.06-.24-.1-.37-.1-.2,0-.43.07-.66.21Z"/>
              <path class="cls-25" d="m416.96,322.22c-.29-.17-.46-.52-.46-.99,0-.95.67-2.11,1.5-2.59.41-.24.8-.28,1.1-.1.29.17.46.52.46.99,0,.95-.67,2.11-1.5,2.59-.24.14-.48.21-.69.21-.15,0-.29-.04-.41-.11Zm1.1-3.49c-.8.46-1.45,1.58-1.45,2.5,0,.43.14.75.4.9.26.15.61.11.99-.11.8-.46,1.45-1.58,1.45-2.5,0-.43-.14-.75-.4-.9-.11-.06-.23-.09-.36-.09-.19,0-.41.07-.64.2Z"/>
              <path class="cls-25" d="m417.01,322.13c-.28-.16-.43-.5-.43-.95,0-.9.64-2.01,1.43-2.46.39-.23.77-.26,1.05-.1.28.16.43.5.43.95,0,.9-.64,2.01-1.43,2.46-.23.13-.45.2-.66.2-.14,0-.27-.03-.39-.1Zm1.05-3.32c-.76.44-1.37,1.5-1.37,2.37,0,.41.14.71.38.85.25.14.58.11.94-.1.76-.44,1.37-1.5,1.37-2.37,0-.41-.14-.71-.38-.85-.1-.06-.21-.09-.34-.09-.18,0-.39.06-.6.19Z"/>
              <path class="cls-25" d="m417.07,322.03c-.26-.15-.41-.47-.41-.89,0-.85.6-1.89,1.34-2.31.37-.21.72-.25.99-.09.26.15.41.47.41.89,0,.85-.6,1.89-1.34,2.31-.22.13-.43.19-.62.19-.13,0-.26-.03-.37-.1Zm.99-3.11c-.71.41-1.29,1.41-1.29,2.22,0,.38.13.66.35.8.23.13.54.1.88-.09.71-.41,1.29-1.41,1.29-2.22,0-.38-.13-.66-.35-.8-.09-.05-.2-.08-.32-.08-.17,0-.36.06-.56.17Z"/>
              <path class="cls-25" d="m417.15,321.9c-.24-.14-.38-.43-.38-.82,0-.78.55-1.74,1.24-2.13.34-.2.67-.23.91-.09.24.14.38.43.38.82,0,.78-.55,1.74-1.24,2.13-.2.12-.39.17-.57.17-.12,0-.24-.03-.34-.09Zm.91-2.86c-.65.38-1.18,1.29-1.18,2.04,0,.35.12.61.32.73.21.12.5.09.8-.09.65-.38,1.18-1.29,1.18-2.04,0-.35-.12-.61-.32-.73-.08-.05-.18-.07-.29-.07-.16,0-.33.05-.52.16Z"/>
              <path class="cls-25" d="m417.24,321.75c-.22-.13-.34-.39-.34-.74,0-.7.5-1.56,1.11-1.92.31-.18.6-.21.82-.08.22.13.34.39.34.74,0,.7-.5,1.56-1.11,1.92-.18.1-.36.16-.51.16-.11,0-.22-.03-.31-.08Zm.82-2.56c-.58.34-1.06,1.15-1.06,1.82,0,.31.1.54.29.65.19.11.44.08.72-.08.58-.34,1.06-1.15,1.06-1.82,0-.31-.1-.54-.29-.65-.08-.04-.16-.07-.26-.07-.14,0-.3.05-.46.14Z"/>
              <path class="cls-25" d="m417.34,321.56c-.19-.11-.3-.34-.3-.65,0-.61.43-1.35.96-1.66.27-.15.52-.18.72-.07.19.11.3.34.3.65,0,.61-.43,1.35-.96,1.66-.16.09-.31.14-.45.14-.1,0-.19-.02-.27-.07Zm.66-.16c.5-.29.91-.99.91-1.57,0-.27-.09-.46-.25-.55-.16-.09-.38-.07-.61.07-.5.29-.91.99-.91,1.57,0,.27.09.46.25.55.16.09.38.07.61-.07h0Z"/>
              <path class="cls-25" d="m417.47,321.35c-.16-.09-.25-.28-.25-.53,0-.5.35-1.1.79-1.35.22-.13.43-.15.59-.05.16.09.25.28.25.53,0,.5-.35,1.1-.79,1.35-.13.07-.25.11-.37.11-.08,0-.16-.02-.22-.06Zm.59-1.79c-.4.23-.73.8-.73,1.26,0,.21.07.37.19.44.13.07.3.05.48-.05.4-.23.73-.8.73-1.26,0-.21-.07-.37-.19-.44-.05-.03-.11-.04-.17-.04-.09,0-.2.03-.31.1Z"/>
              <path class="cls-25" d="m417.62,321.09c-.12-.07-.19-.21-.19-.4,0-.36.26-.81.58-.99.16-.09.32-.11.44-.04.12.07.19.21.19.4,0,.36-.26.81-.57.99-.1.05-.19.08-.27.08-.06,0-.12-.01-.17-.04Zm.39-.13c.29-.17.52-.57.52-.9,0-.15-.05-.26-.13-.31-.09-.05-.21-.04-.34.04-.29.17-.52.57-.52.9,0,.15.05.26.13.31.09.05.21.04.34-.04h0Z"/>
              <path class="cls-25" d="m417.8,320.79c-.07-.04-.11-.13-.11-.24,0-.21.14-.46.32-.56.1-.06.19-.06.27-.02.07.04.11.13.11.24,0,.21-.14.46-.32.56-.06.03-.11.05-.16.05-.04,0-.07,0-.1-.03Zm.27-.7c-.15.08-.27.3-.27.47,0,.07.02.12.06.14.04.02.1.01.16-.02.15-.08.27-.3.27-.47,0-.07-.02-.12-.06-.14-.01,0-.03-.01-.05-.01-.03,0-.07.01-.11.03Z"/>
            </g>
            <g>
              <rect class="cls-25" x="417.98" y="320.38" width=".11" height="1.76"/>
              <polygon class="cls-25" points="417.18 322.35 418.08 320.4 417.98 320.36 417.08 322.31 417.18 322.35"/>
              <polygon class="cls-25" points="416.61 321.81 418.07 320.42 418 320.34 416.53 321.73 416.61 321.81"/>
              <polygon class="cls-25" points="416.58 320.73 418.04 320.43 418.02 320.33 416.56 320.62 416.58 320.73"/>
              <polygon class="cls-25" points="418 320.42 418.07 320.34 417.17 319.43 417.09 319.51 418 320.42"/>
              <rect class="cls-25" x="417.98" y="318.61" width=".11" height="1.76"/>
              <polygon class="cls-25" points="418.08 320.4 418.99 318.45 418.89 318.41 417.98 320.36 418.08 320.4"/>
              <polygon class="cls-25" points="418.07 320.42 419.53 319.03 419.46 318.95 418 320.34 418.07 320.42"/>
              <polygon class="cls-25" points="418.04 320.43 419.51 320.13 419.49 320.03 418.02 320.33 418.04 320.43"/>
              <polygon class="cls-25" points="418.9 321.32 418.98 321.25 418.07 320.34 418 320.42 418.9 321.32"/>
            </g>
          </g>
        </g>
        <g>
          <polygon class="cls-28" points="404.34 331.41 410.49 327.86 410.49 322.71 404.34 326.27 404.34 331.41"/>
          <polygon class="cls-24" points="404.34 331.41 401.64 329.93 401.64 324.79 404.34 326.27 404.34 331.41"/>
          <polygon class="cls-16" points="404.34 326.27 410.49 322.71 407.8 321.23 401.64 324.79 404.34 326.27"/>
          <path class="cls-18" d="m406.78,327.21c0,.97.69,1.37,1.54.88.85-.49,1.54-1.68,1.54-2.65s-.69-1.37-1.54-.88c-.85.49-1.54,1.68-1.54,2.65Z"/>
          <g>
            <g>
              <path class="cls-25" d="m407.2,328.25c-.31-.18-.47-.54-.47-1.03,0-.99.7-2.2,1.56-2.7.43-.25.84-.29,1.14-.11.31.18.47.54.47,1.03,0,.99-.7,2.2-1.56,2.7-.25.15-.5.22-.72.22-.16,0-.3-.04-.43-.11Zm1.09-.2c.83-.48,1.51-1.65,1.51-2.61,0-.45-.15-.78-.42-.94-.27-.16-.64-.12-1.04.11-.83.48-1.51,1.65-1.51,2.61,0,.45.15.78.42.94.27.16.64.12,1.04-.11h0Z"/>
              <path class="cls-25" d="m407.24,328.17c-.29-.17-.46-.52-.46-.99,0-.95.67-2.11,1.5-2.59.41-.24.8-.28,1.1-.1.29.17.46.52.46.99,0,.95-.67,2.11-1.5,2.59-.24.14-.48.21-.69.21-.15,0-.29-.04-.41-.11Zm1.1-3.49c-.8.46-1.45,1.58-1.45,2.5,0,.43.14.75.4.9.26.15.62.11.99-.11.8-.46,1.45-1.58,1.45-2.5,0-.43-.14-.75-.4-.9-.11-.06-.23-.09-.36-.09-.19,0-.41.07-.64.2Z"/>
              <path class="cls-25" d="m407.29,328.08c-.28-.16-.43-.5-.43-.95,0-.9.64-2.01,1.43-2.46.39-.23.77-.26,1.05-.1.28.16.43.5.43.95,0,.9-.64,2.01-1.43,2.46-.23.13-.45.2-.66.2-.14,0-.27-.03-.39-.1Zm1.05-3.32c-.76.44-1.37,1.5-1.37,2.37,0,.41.14.71.38.85.25.14.58.11.94-.1.76-.44,1.37-1.5,1.37-2.37,0-.41-.14-.71-.38-.85-.1-.06-.21-.09-.34-.09-.18,0-.39.06-.6.19Z"/>
              <path class="cls-25" d="m407.35,327.97c-.26-.15-.41-.47-.41-.89,0-.85.6-1.89,1.34-2.31.37-.21.72-.25.99-.09.26.15.41.47.41.89,0,.85-.6,1.89-1.34,2.31-.22.13-.43.19-.62.19-.13,0-.26-.03-.37-.09Zm.99-3.11c-.71.41-1.29,1.41-1.29,2.22,0,.38.13.66.35.8.23.13.54.1.88-.09.71-.41,1.29-1.4,1.29-2.22,0-.38-.13-.66-.35-.8-.09-.05-.2-.08-.32-.08-.17,0-.36.06-.56.17Z"/>
              <path class="cls-25" d="m407.43,327.85c-.24-.14-.38-.43-.38-.82,0-.78.55-1.74,1.24-2.13.34-.2.66-.23.91-.09.24.14.38.43.38.82,0,.78-.55,1.74-1.24,2.13-.2.12-.39.17-.57.17-.12,0-.24-.03-.34-.09Zm.86-.18c.65-.38,1.18-1.29,1.18-2.04,0-.35-.12-.61-.32-.73-.21-.12-.5-.09-.8.09-.65.38-1.18,1.29-1.18,2.04,0,.35.12.61.32.73.21.12.5.09.8-.09h0Z"/>
              <path class="cls-25" d="m407.52,327.69c-.22-.13-.34-.39-.34-.74,0-.7.5-1.56,1.11-1.92.31-.18.6-.21.82-.08.22.13.34.39.34.74,0,.7-.5,1.56-1.11,1.92-.18.1-.36.16-.51.16-.11,0-.22-.03-.31-.08Zm.82-2.56c-.58.34-1.06,1.15-1.06,1.82,0,.31.1.54.29.65.19.11.44.08.72-.08.58-.34,1.06-1.15,1.06-1.82,0-.31-.1-.54-.29-.65-.08-.04-.16-.07-.26-.07-.14,0-.3.05-.46.14Z"/>
              <path class="cls-25" d="m407.62,327.51c-.19-.11-.3-.34-.3-.65,0-.61.43-1.35.96-1.66.27-.15.52-.18.72-.07.19.11.3.34.3.65,0,.61-.43,1.35-.96,1.66-.16.09-.31.14-.45.14-.1,0-.19-.02-.27-.07Zm.66-.16c.5-.29.91-.99.91-1.57,0-.27-.09-.46-.25-.55-.16-.09-.38-.07-.61.07-.5.29-.91.99-.91,1.57,0,.27.09.46.24.55.16.09.38.07.61-.07h0Z"/>
              <path class="cls-25" d="m407.75,327.3c-.16-.09-.25-.28-.25-.53,0-.5.35-1.1.79-1.35.22-.13.43-.15.59-.05.16.09.25.28.25.53,0,.5-.35,1.11-.79,1.36-.13.07-.25.11-.37.11-.08,0-.16-.02-.22-.06Zm.59-1.79c-.4.23-.73.8-.73,1.26,0,.21.07.37.19.44.13.07.3.05.48-.05.4-.23.73-.8.73-1.26,0-.21-.07-.37-.19-.44-.05-.03-.11-.04-.17-.04-.09,0-.2.03-.31.1Z"/>
              <path class="cls-25" d="m407.9,327.04c-.12-.07-.19-.21-.19-.4,0-.36.26-.81.58-.99.16-.09.32-.11.44-.04.12.07.19.21.19.4,0,.36-.26.81-.57.99-.1.05-.19.08-.27.08-.06,0-.12-.01-.17-.04Zm.44-1.3c-.29.17-.52.57-.52.9,0,.15.05.26.13.3.09.05.21.04.34-.04.29-.17.52-.57.52-.9,0-.15-.05-.26-.13-.31-.03-.02-.07-.03-.12-.03-.07,0-.14.02-.22.07Z"/>
              <path class="cls-25" d="m408.08,326.74c-.07-.04-.11-.13-.11-.24,0-.21.14-.46.32-.56.1-.06.19-.06.26-.02.07.04.11.13.11.24,0,.21-.14.46-.32.56-.06.03-.11.05-.16.05-.04,0-.07,0-.1-.03Zm.27-.7c-.15.08-.27.3-.27.47,0,.07.02.12.06.14.04.02.1.01.16-.02.15-.08.27-.3.27-.47,0-.07-.02-.12-.06-.14-.01,0-.03-.01-.05-.01-.03,0-.07.01-.11.03Z"/>
            </g>
            <g>
              <rect class="cls-25" x="408.26" y="326.33" width=".11" height="1.77"/>
              <polygon class="cls-25" points="407.46 328.3 408.36 326.35 408.27 326.3 407.36 328.25 407.46 328.3"/>
              <polygon class="cls-25" points="406.89 327.76 408.35 326.37 408.28 326.29 406.81 327.68 406.89 327.76"/>
              <polygon class="cls-25" points="406.86 326.68 408.32 326.38 408.3 326.27 406.84 326.57 406.86 326.68"/>
              <polygon class="cls-25" points="408.28 326.36 408.35 326.29 407.45 325.38 407.37 325.46 408.28 326.36"/>
              <rect class="cls-25" x="408.26" y="324.56" width=".11" height="1.76"/>
              <polygon class="cls-25" points="408.36 326.35 409.27 324.4 409.17 324.35 408.27 326.3 408.36 326.35"/>
              <polygon class="cls-25" points="408.35 326.37 409.81 324.98 409.74 324.9 408.28 326.29 408.35 326.37"/>
              <polygon class="cls-25" points="408.32 326.38 409.79 326.08 409.77 325.97 408.3 326.27 408.32 326.38"/>
              <polygon class="cls-25" points="409.18 327.27 409.26 327.19 408.35 326.29 408.28 326.36 409.18 327.27"/>
            </g>
          </g>
        </g>
        <g>
          <polygon class="cls-24" points="454.08 338.63 473.36 327.51 473.19 322.93 454.08 334.06 454.08 338.63"/>
          <polygon class="cls-19" points="472.66 327.12 472.55 324.1 454.77 334.45 454.77 337.44 472.66 327.12"/>
          <polygon class="cls-14" points="454.08 338.63 438.03 329.5 438.2 324.92 454.08 334.06 454.08 338.63"/>
          <polygon class="cls-22" points="453.4 334.46 438.84 326.08 438.73 329.11 453.4 337.45 453.4 334.46"/>
          <polygon class="cls-16" points="454.04 334.07 473.14 322.94 457.39 313.82 438.29 324.95 454.04 334.07"/>
          <polygon class="cls-16" points="454.04 334.07 473.14 322.94 457.39 313.82 438.29 324.95 454.04 334.07"/>
        </g>
        <g>
          <polygon class="cls-20" points="446.98 365.15 455.77 360.17 455.6 355.6 446.92 360.58 446.98 365.15"/>
          <polygon class="cls-14" points="446.98 365.15 430.86 356.02 431.12 351.47 446.92 360.58 446.98 365.15"/>
          <polygon class="cls-2" points="446.87 360.59 455.55 355.6 439.8 346.49 431.12 351.47 446.87 360.59"/>
        </g>
        <g>
          <g>
            <polygon class="cls-24" points="413.11 375.51 438.39 360.29 438.4 355.7 405.81 371.29 413.11 375.51"/>
            <polygon class="cls-16" points="413.11 375.51 438.4 355.7 431.09 351.49 405.81 371.29 413.11 375.51"/>
          </g>
          <polygon class="cls-20" points="438.63 369.92 446.98 365.14 446.94 363.18 438.4 365.7 438.63 369.92"/>
          <polygon class="cls-14" points="438.63 369.92 430.17 365.23 430.04 363.12 438.63 367.89 438.63 369.92"/>
          <polygon class="cls-2" points="438.61 367.93 446.94 363.18 438.35 358.21 430.04 363.12 438.61 367.93"/>
        </g>
      </g>
      <polygon class="cls-17" points="405.78 341.62 462.13 309.09 462.13 307.85 405.78 340.43 405.78 341.62"/>
      <polygon class="cls-15" points="405.81 341.62 371.61 322.03 371.61 320.79 405.78 340.43 405.81 341.62"/>
      <rect class="cls-19" x="438.55" y="352.76" width=".09" height=".1" transform="translate(877.18 705.62) rotate(180)"/>
      <g>
        <path class="cls-1" d="m438.15,355.38c.12.07.31.07.43,0,.06-.03.09-.08.09-.13v-6.16h-.6v6.15c0,.05.02.1.08.14Z"/>
        <path class="cls-1" d="m438.15,349.23c.12.07.31.07.43,0s.12-.18,0-.25-.31-.07-.43,0c-.12.07-.12.18,0,.25Z"/>
      </g>
      <path class="cls-20" d="m434.17,352.32c.12.07.31.07.43,0,.12-.07.12-.18,0-.25s-.31-.07-.43,0c-.12.07-.12.18,0,.25Z"/>
      <path class="cls-20" d="m426.2,358.49c.12.07.31.07.43,0,.12-.07.12-.18,0-.25-.12-.07-.31-.07-.43,0-.12.07-.12.18,0,.25Z"/>
      <path class="cls-20" d="m422.22,361.57c.12.07.31.07.43,0s.12-.18,0-.25c-.12-.07-.31-.07-.43,0s-.12.18,0,.25Z"/>
      <g>
        <path class="cls-1" d="m412.75,375.17c.12.07.31.07.43,0,.06-.03.09-.08.09-.13v-6.16h-.6v6.15c0,.05.02.1.08.14Z"/>
        <path class="cls-1" d="m412.75,369.02c.12.07.31.07.43,0,.12-.07.12-.18,0-.25-.12-.07-.31-.07-.43,0s-.12.18,0,.25Z"/>
      </g>
      <path class="cls-4" d="m412.29,369.72s.09-.01.13-.05l27.09-21.17c.09-.07.11-.21.04-.3-.07-.09-.21-.11-.3-.04l-27.09,21.17c-.09.07-.11.21-.04.3.04.05.11.08.17.08Z"/>
      <path class="cls-4" d="m412.29,372.54s.09-.01.13-.05l27.09-21.17c.09-.07.11-.21.04-.3-.07-.09-.21-.11-.3-.04l-27.09,21.17c-.09.07-.11.21-.04.3.04.05.11.08.17.08Z"/>
      <path class="cls-4" d="m412.29,375.37s.09-.01.13-.05l27.09-21.17c.09-.07.11-.21.04-.3-.07-.09-.21-.11-.3-.04l-27.09,21.17c-.09.07-.11.21-.04.3.04.05.11.08.17.08Z"/>
    </g>
  </g>
  <path class="cls-32" d="m398.95,374.19l-43.63-27.07c-.54-.33-1.22-.33-1.76,0l-16.41,10.17c-1.08.67-1.04,2.26.07,2.88l50.56,27.98c1.14.63,1.15,2.27.01,2.91l-8.17,4.62c-.53.3-1.17.29-1.69-.03l-51.95-31.63c-.52-.32-1.18-.32-1.71-.01l-20.81,12.22c-1.1.65-1.1,2.24,0,2.88l74.94,43.78c.51.3,1.13.3,1.64.02l5.95-3.25c1.14-.63,1.16-2.26.03-2.91l-65.41-37.5c-1.12-.64-1.12-2.25,0-2.89l4.83-2.79c.53-.31,1.18-.3,1.7.02l51.08,31.16c.54.33,1.22.33,1.75-.01l20.85-13.05c1.07-.67,1.04-2.24-.06-2.86l-50.3-28.59c-1.12-.64-1.13-2.26,0-2.9l2.79-1.59c.53-.3,1.17-.29,1.69.02l43.76,26.57c.52.31,1.16.32,1.69.02l8.41-4.78c1.11-.63,1.13-2.22.03-2.88l-3.57-2.15c-.52-.31-1.17-.32-1.69-.02l-2.91,1.68c-.53.31-1.19.3-1.71-.03Z"/>
</svg>