<?xml version="1.0" encoding="UTF-8"?>
<svg xmlns="http://www.w3.org/2000/svg" viewBox="0 0 112.95 80.96">
  <defs>
    <style>
      .cls-1 {
        fill: #41b6e9;
      }

      .cls-1, .cls-2, .cls-3, .cls-4, .cls-5, .cls-6, .cls-7, .cls-8, .cls-9, .cls-10, .cls-11, .cls-12, .cls-13, .cls-14, .cls-15, .cls-16 {
        stroke-width: 0px;
      }

      .cls-2 {
        fill: #fbfcfd;
        opacity: .4;
      }

      .cls-3 {
        mix-blend-mode: multiply;
      }

      .cls-3, .cls-10 {
        fill: #a6816f;
      }

      .cls-4 {
        fill: #f7f3e6;
      }

      .cls-17 {
        isolation: isolate;
      }

      .cls-5 {
        fill: #145e9a;
      }

      .cls-6 {
        fill: #f2e9de;
      }

      .cls-7 {
        fill: #50c1e5;
      }

      .cls-8 {
        fill: #cdb0a2;
      }

      .cls-9 {
        fill: #fff;
      }

      .cls-11 {
        fill: #74c1ed;
      }

      .cls-12 {
        fill: #3488c8;
      }

      .cls-13 {
        fill: #7acdf3;
      }

      .cls-14 {
        fill: #99d6f1;
      }

      .cls-15 {
        fill: #0f4773;
      }

      .cls-16 {
        fill: #51485a;
      }
    </style>
  </defs>
  <g class="cls-17">
    <g id="Livello_1" data-name="Livello 1">
      <g id="_ZonaRelax_" data-name="&amp;lt;ZonaRelax&amp;gt;">
        <g>
          <path class="cls-9" d="m101.32,50.33c0,16.91-22.68,30.63-50.66,30.63S0,67.24,0,50.33s22.68-30.62,50.66-30.62,50.66,13.71,50.66,30.62Z"/>
          <path class="cls-9" d="m112.95,22.1c0,11.99-16.1,21.72-35.96,21.72s-35.96-9.73-35.96-21.72S57.13.38,76.99.38s35.96,9.72,35.96,21.71Z"/>
          <path class="cls-16" d="m91.89,38.3v8.29h-4.75v-12.6c-8.29-6-21.58-9.89-36.56-9.9v7.36h-4.09v-7.26c-23.25,1.1-41.48,11.59-41.48,24.36,0,13.51,20.39,24.47,45.54,24.47s45.54-10.96,45.54-24.47c0-3.66-1.51-7.14-4.2-10.26Z"/>
          <path class="cls-16" d="m108.73,20.24c0,2.56-1.21,6.27-2.79,9.08-3.76,6.67-16.09,7.86-28.74,7.86-17.41,0-31.53-7.58-31.53-16.94S59.79,3.89,77.2,3.89s31.53,8.19,31.53,16.35Z"/>
          <polygon class="cls-16" points="46.48 24.16 44.62 24.3 44.62 27.22 46.48 27.77 46.48 24.16"/>
          <path class="cls-11" d="m46.45,29.56c-.04-.22.03-5.39.03-5.39l4.83,1.37-4.86,4.02Z"/>
          <path class="cls-13" d="m5.85,51.96c0,2.9.96,5.67,2.7,8.24,5.81-8.54,20.38-14.81,37.88-15.67v-16.47c-22.76,1.12-40.59,11.38-40.59,23.89Z"/>
          <path class="cls-14" d="m76.99,7.69c-16.87,0-30.54,7.34-30.54,16.4,0,1.35.31,2.67.89,3.93-.3.01-.6.03-.9.05v12.66h.02c0-.06,0-.12,0-.17,0-9.06,13.67-16.4,30.54-16.4,11.28,0,21.12,3.29,26.41,8.17,2.62-2.42,4.13-5.23,4.13-8.24,0-9.06-13.67-16.4-30.54-16.4Z"/>
          <path class="cls-7" d="m91.89,38.4c4.77-1.44,8.76-3.53,11.51-6.06-5.29-4.88-15.13-8.17-26.41-8.17-16.5,0-29.93,7.03-30.51,15.82h-.04v4.56c-17.5.86-32.08,7.13-37.88,15.67,6.26,9.2,22.7,15.77,41.99,15.77,24.68,0,44.69-10.75,44.69-24.01,0-3.23-1.19-6.31-3.35-9.12v-4.45Z"/>
          <path id="_ondeRelax2_" data-name="&amp;lt;ondeRelax2&amp;gt;" class="cls-2" d="m49.58,21.43c-.94.36-1.86.77-2.78,1.17v.16c1.78-.8,3.59-1.53,5.42-2.23-.01.02-.03.04-.05.06-.74.98-.98,2.14-.98,3.33-1.22-.12-2.52.26-3.02,1.49-.18.45-.27.93-.31,1.41-.08-.1-.16-.2-.24-.31-.34-.49-.6-1.02-.83-1.57v.47c.22.48.48.94.8,1.37.08.1.16.2.24.3-.03.79.06,1.61.12,2.38.05.68.07,1.35.03,2.03-.02.38-.03.98-.16,1.48.07.04.15.09.22.13.23-.74.19-1.81.19-2.24.01-1.18-.19-2.35-.17-3.53.87.87,2.01,1.43,3.13,1.91.22.09.43.19.65.28.09.91.11,1.82-.08,2.7-.2.92-.61,1.71-1.17,2.4.06.04.13.08.19.11.87-1.14,1.37-2.47,1.34-4.05,0-.36-.03-.71-.06-1.07.99.45,1.94.94,2.89,1.51.64.39,1.3.77,1.93,1.19-.57.11-1.12.23-1.66.39-.95.29-1.94.7-2.55,1.52-.29.39-.51.79-.68,1.21.03.02.05.03.08.05.17-.44.39-.84.72-1.16.7-.69,1.54-1.13,2.48-1.41.61-.18,1.24-.31,1.86-.43.42.29.82.59,1.19.92.43.39.91.85.93,1.47.02.71-.33,1.34-.7,1.91-.37.57-.8,1.13-1.13,1.74.06.03.12.06.17.1.47-.89,1.15-1.68,1.58-2.6.41-.89.27-1.77-.43-2.45-.43-.42-.91-.79-1.4-1.13.94-.18,1.89-.34,2.79-.63.03.04.06.08.09.11-1.23.8-.22,2.65.64,3.36.59.48,1.29.76,2.04.94-.22.74-.35,1.51-.35,2.3,0,.94.11,2.03.45,3.02.13.07.25.14.38.2-.71-1.63-.69-3.71-.17-5.45.79.17,1.6.25,2.34.37,1.77.28,4.37.83,4.35,3.11,0,1.7-.94,3.17-2.02,4.42.06.03.11.06.17.09,1.87-1.92,3.23-5.7.26-7.08-1.59-.74-3.36-.74-5.04-1.12.21-.62.48-1.19.81-1.68.68-.99,1.57-1.87,2.69-2.36,1-.43,2.02-.42,3.08-.51-.13,1.22,0,2.43.98,3.32.48.44,1.03.78,1.61,1.07-.03.19-.05.39-.06.59-.06,1.27.42,2.56,1.19,3.56.35.45.72.86,1.11,1.25.05.5.11,1,.17,1.5.1,0,.19.02.29.02-.05-.41-.1-.81-.14-1.22.5.47,1.03.9,1.58,1.34.3.02.59.05.89.07-.75-.64-1.47-1.3-2.17-2.01-.13-.13-.26-.27-.4-.41-.1-1.23-.09-2.46.1-3.66,1.56.63,3,1.44,4.37,2.43,1.25.9,2.5,2.01,4.03,2.39.56.14,1.13.19,1.7.2.03.11.06.23.09.34.01,0,.02,0,.04,0,.18-.03.36-.07.54-.11-.01-.08-.02-.15-.04-.23.4,0,.8-.02,1.21-.02.31-.07.62-.14.92-.22-.72-.04-1.45,0-2.17,0-.37-1.8-1.04-3.55-1.94-5.14-.38-.67-.79-1.31-1.26-1.92-.33-1.24-.53-2.5-.74-3.77,1.7.21,3.35.84,4.9,1.53.1.04.19.09.29.13-.63,1.36-1.37,2.88-1.29,4.41,0,.06.04.12.1.13.8.19,1.58.16,2.4.08.81-.08,1.76-.25,2.52.12.24.12.47.26.7.42-.66.59-1.31,1.2-1.81,1.94-.4.58-.68,1.21-.88,1.86.09-.02.17-.05.26-.07.15-.43.33-.83.56-1.21.55-.92,1.3-1.65,2.08-2.35.71.54,1.33,1.22,1.92,1.86h0c.08-.04.16-.08.25-.11-.61-.64-1.25-1.36-1.98-1.92.25-.23.51-.46.76-.69.37-.34.76-.72,1.12-1.13,1.31.65,2.63,1.28,4,1.81.09-.05.18-.09.27-.14-1.41-.53-2.78-1.16-4.13-1.84.52-.62.94-1.3,1.11-2.06.02-.1.04-.2.05-.3.64.65,1.48,1.02,2.39,1.13.03,0,.07-.03.08-.06.4-1.83-.98-3.32-1.39-5-.2-.81-.29-1.66-.35-2.51.51.21,1.02.44,1.54.68.66.3,1.31.62,1.95.95.21.63.48,1.23.84,1.78.56.87,1.34,1.56,2.06,2.3-.12.18-.25.35-.38.53-.63.87-1.3,1.72-1.85,2.64-.21.35-.4.7-.6,1.06.22-.13.44-.26.65-.4.05-.1.09-.2.14-.29.47-.95,1.13-1.8,1.74-2.66.16-.22.32-.44.48-.67.2.22.4.44.58.68.01-.02.03-.04.04-.06-.18-.23-.38-.45-.59-.67.41-.58.83-1.16,1.21-1.76.24.15.47.3.71.46.03-.04.05-.09.08-.13-.06-.04-.13-.09-.19-.13-.17-.11-.34-.22-.51-.33,0,0,0-.01.01-.02.49-.79,1.04-1.54,1.35-2.42.2-.58.32-1.17.39-1.76.18.09.37.18.55.27,0-.07.01-.13.02-.2-.18-.09-.37-.17-.55-.26.1-.97.08-1.96.09-2.96,0-.35.02-.68.06-1.01.12.04.24.08.36.12,0-.05,0-.1,0-.14-.11-.04-.22-.07-.33-.11.06-.44.15-.86.29-1.27,0-.31,0-.62.01-.93,0-.01-.02-.03-.02-.04-.39.61-.65,1.29-.78,2.07-.85-.28-1.69-.57-2.51-.93-.55-.24-1.07-.53-1.57-.84.63-.14,1.26-.35,1.89-.45.6-.09,1.2-.1,1.81-.16.3-.03.6-.07.9-.12-.04-.07-.08-.14-.13-.21-.69.13-1.43.13-2.09.2-.9.1-1.77.4-2.65.57-.37-.24-.74-.48-1.11-.72.5-1.23,1.23-2.31,2.24-3.1-.07-.01-.13-.04-.18-.08-.07.06-.14.12-.21.18-.89.8-1.52,1.82-1.97,2.92-.23-.15-.47-.3-.71-.44-.75-.45-1.95-1.17-2.86-.76-.2.09-.36.22-.49.37.08-.41-.03-.81-.27-1.16-.47-.7-.91-1.37-1.54-1.95-.35-.33-.72-.63-1.08-.94,1.28-.82,2.69-1.43,3.97-2.24-.05-.03-.1-.06-.15-.09-1.27.78-2.71,1.41-3.96,2.21-.31-.27-.63-.54-.92-.83-.24-.23-.45-.47-.66-.72.34-.25.67-.51,1-.78.33-.28.64-.57.93-.89-.07,0-.15-.01-.22-.04-.55.58-1.19,1.08-1.83,1.54-.35-.46-.65-.95-.93-1.47-.4-.75-.76-1.52-1.09-2.31-.11-.02-.23-.04-.34-.07.28.66.58,1.3.88,1.91.37.76.78,1.46,1.25,2.1-1.53,1.1-3.05,2.08-4.15,3.54-1.1-1.61-2.51-2.98-3.86-4.39.94-.68,1.95-1.28,2.78-2.08.43-.42.89-.81,1.35-1.2h-.08c-1.12.89-2.23,1.78-3.4,2.6-.26.18-.52.37-.77.56-.79-.84-1.56-1.69-2.22-2.63-.16-.23-.29-.46-.41-.69h-.28c.65,1.3,1.71,2.41,2.74,3.46-1.2.94-2.17,2.06-1.84,3.76.1.53.33,1.08.6,1.64-1.4-1.06-2.65-2.31-3.66-3.82-.41-.61-.78-1.25-1.11-1.91.07-.1.17-.21.29-.31.18-.15-.05-.43-.24-.32-.1.06-.19.12-.26.19-.29-.61-.54-1.23-.75-1.87-.09-.27-.18-.54-.26-.82h-.24c.31.98.64,1.95,1.06,2.88-.07.09-.13.18-.18.27-1,.93-2.19,1.63-3.46,2.18-.28-.19-.56-.37-.85-.54.25-1.74.9-3.39,2.15-4.75.01-.01.03-.03.04-.04h-.27c-.37.41-.69.86-.97,1.37-.58,1.05-.95,2.17-1.15,3.31-.47-.28-.96-.55-1.44-.81.33-.6.68-1.19,1.01-1.78.39-.68.81-1.37,1.14-2.08h-.42c-.15.26-.32.51-.46.73-.46.76-.92,1.52-1.35,2.3-.11.2-.23.41-.34.61-.22-.11-.44-.22-.66-.33-.65-1.05-1.66-1.83-2.31-2.88-.05.02-.11.05-.16.07.62.97,1.59,1.71,2.22,2.68-.82-.4-1.66-.77-2.49-1.13-.59-.25-1.18-.48-1.78-.71-.08.03-.15.06-.23.09,1.59.61,3.15,1.28,4.67,2.05.02.03.03.06.05.08.12.24.21.58.23.94-.23.45-.45.92-.65,1.39-.14.03-.31.01-.51-.06-.77-.26-1.42-.79-2.08-1.23-.89-.59-1.95-1.34-3.06-1.62-.08-.24-.15-.48-.2-.74-.01-.08-.03-.15-.04-.23-.08.03-.17.05-.25.08.05.28.12.56.21.83-.29-.05-.59-.07-.89-.04-1.57.15-2.88,1.28-3.53,2.69-.11.25-.21.5-.31.76-.84-.23-1.67-.47-2.5-.73.12-.27.21-.55.28-.83-.13.12-.25.24-.38.36,0,0,0,0,0,0-.04.13-.09.26-.15.39-.07-.02-.13-.04-.2-.06-.07.06-.14.13-.21.19.1.03.2.07.3.1-.09.17-.21.34-.34.49-.61.68-1.5,1.2-2.37,1.47-.02,0-.04.01-.06.02-.24.19-.48.37-.71.56.04-.01.09-.03.13-.04,1.35-.44,2.92-1.07,3.61-2.41,0,0,0,0,0,0,.84.26,1.67.51,2.52.74-.17.43-.35.85-.6,1.23-.52.78-1.29,1.29-2.02,1.85-.34.26-.69.52-1.03.79-.38-.15-.76-.3-1.14-.47-.75-.33-1.5-.68-2.23-1.09-.08.06-.15.12-.23.18,0,0,.02.01.03.02,1.07.6,2.19,1.11,3.33,1.56-.38.32-.75.66-1.07,1.04-.93.36-1.86.72-2.79,1.08Zm4.71-1.8c-.47.17-.93.35-1.4.53.24-.26.51-.51.79-.75.2.08.41.15.61.23Zm3.22-4.34c.85.23,1.71.45,2.56.65.93.22,1.86.44,2.73.81-.28.08-.57.16-.85.25-2.45.74-4.86,1.59-7.26,2.47-.26-.09-.51-.18-.77-.28.33-.28.68-.54,1.04-.82,1.01-.78,1.87-1.46,2.37-2.67.06-.14.12-.28.18-.42Zm12.83,14.1c-.08-.75-.49-1.4-.92-2-1.37-1.9-3.12-3.34-5.12-4.42.07-.37.2-.73.47-1.09.58-.78,1.5-1.79,1.5-2.85.22.12.44.23.67.33-.04.73-.03,1.46.06,2.15.16,1.2.57,2.43,1.64,3.12.66.43,1.37.55,2.14.65.83.11,1.6.37,2.31.79.1.52.16,1.04.17,1.56.05,1.72-.6,3.25-2.47,3.56-.19.03-.39.06-.58.08.09-.62.19-1.23.13-1.86Zm-5.09-13.07c.8-.2,1.61-.41,2.4-.63-.13.37-.24.74-.33,1.11-.18.73-.31,1.51-.37,2.29-.25-.11-.48-.24-.71-.38,0-.03-.01-.07-.02-.1-.2-.8-.55-1.57-.97-2.29Zm.21,1.07c.16.35.34.73.44,1.1-.22-.15-.44-.31-.65-.47-.58-.45-1.17-.88-1.81-1.23.5-.13,1.01-.27,1.51-.39.19.32.36.65.52.99Zm2.01,2.16c.21.06.42.11.64.14,1.04.17,2.16-.16,3.21-.18.25,1.15.57,2.28.93,3.42.28.9.57,1.83.77,2.78-.2-.11-.4-.22-.61-.31-.79-.35-1.68-.4-2.49-.7-1.59-.59-2.29-1.9-2.41-3.55-.04-.52-.05-1.06-.04-1.61Zm-3.43,3.28c-.66-.34-1.34-.65-2.04-.92-2.33-.9-4.76-1.53-7.11-2.35.74-.26,1.47-.52,2.21-.77,1.92-.66,3.85-1.31,5.8-1.85.06-.02.11-.03.17-.05.14.07.28.14.42.22.8.46,1.48,1.06,2.23,1.58.08.06.16.11.25.16.04.32,0,.64-.16.95-.35.7-.81,1.32-1.26,1.95-.24.34-.43.67-.51,1.07Zm.23-7.5c.2.29.39.59.57.89-.56.14-1.11.29-1.66.44-.12-.06-.24-.12-.37-.17-.85-.37-1.78-.56-2.68-.78-.84-.2-1.69-.42-2.53-.65.59-1.37,1.32-2.7,2.89-3.17.59-.18,1.17-.17,1.73-.05.46,1.23,1.26,2.33,2.04,3.5Zm3.73-.57c-.1.23-.19.47-.27.71-.86.23-1.72.45-2.59.67-.32-.53-.67-1.04-1.01-1.53-.59-.85-1.24-1.73-1.62-2.71,1.08.3,2.1.99,3.01,1.61.58.4,1.65,1.35,2.49,1.25Zm1.09-2.27c-.07.12-.13.25-.2.37-.04-.2-.1-.4-.18-.55,0,0,0-.02-.01-.03.06.03.12.06.18.09.07.04.14.08.22.11Zm1.91,1.07c-.05.3-.08.61-.1.91-.53.2-1.07.37-1.6.54-.35.11-.69.21-1.04.31.12-.32.25-.63.39-.94.11-.14.18-.3.23-.49.2-.4.4-.8.62-1.19.5.27,1.01.56,1.5.85Zm.08,4.69c.06.34.12.68.19,1.01-1.15.03-2.39.39-3.52.1-.09-.02-.18-.05-.27-.08.04-1.09.2-2.19.51-3.2.06-.18.12-.37.19-.55.92-.27,1.82-.56,2.7-.9-.08,1.19,0,2.4.19,3.61Zm.79-4.15c-.24.1-.49.2-.73.29.02-.24.04-.47.07-.71.22.14.44.27.66.42Zm2.96,2.28c-.54.32-1.53.7-1.65,1.34-.17.9.95,1.79,1.55,2.24,1.15.86,2.48,1.15,3.82,1.54.06.13.13.25.19.38.47.98.94,1.99,1.34,3.03-.5.21-1.04.39-1.58.62-1.12.47-2.03,1.28-1.9,2.59,0,.05.01.09.02.14-.75-.37-1.4-.92-2.07-1.46-.4-.32-.8-.63-1.22-.9-.38-1.98-1.23-3.92-1.66-5.86-.39-1.74-.65-3.64-.55-5.48.3-.12.59-.24.88-.37,1.01.66,1.96,1.38,2.82,2.19Zm2.17,12.05c0-1.39,1.35-2.21,2.47-2.8.24-.13.49-.26.73-.4.25.67.47,1.35.64,2.04.27,1.1.44,2.21.61,3.32-1.04-.09-2.06.02-2.99.44-.51-.48-.97-1.01-1.24-1.61.18-.19.36-.38.53-.57.06-.07.05-.2-.06-.22-.24-.05-.47-.12-.69-.21Zm.4.41c-.1.1-.19.2-.29.3-.03-.1-.06-.2-.08-.31,0-.04-.01-.08-.02-.12.12.05.25.09.38.13Zm1.43-7.25c.07.02.15.04.22.07,1.16.36,2.11.96,2.96,1.75-.45.72-1.06,1.12-1.75,1.43-.43-1.09-.9-2.19-1.43-3.24Zm-2.09-.9c-.9-.33-1.69-.77-2.37-1.44-.3-.29-1.05-.93-.88-1.43.13-.39.63-.59.96-.77.23-.12.45-.25.67-.38,1.33,1.32,2.4,2.87,3.27,4.52-.55-.15-1.11-.3-1.65-.5Zm-.74-5.87c0,.65-.5,1.11-1.01,1.46-.86-.8-1.79-1.52-2.78-2.18,1.11-.5,2.18-1.1,3.19-1.81-.04.35.03.73.19,1.13.17.43.41.92.41,1.4Zm5.12,3.17c.85,1.7,1.9,3.49,1.03,5.16-.46-.44-.95-.84-1.49-1.13-.64-.34-1.32-.56-2.01-.75-.88-1.7-1.94-3.3-3.31-4.65-.02-.02-.04-.04-.07-.06.11-.07.22-.15.32-.23.7-.54,1.18-1.32.88-2.21-.25-.73-.72-1.38-.5-2.01.15.29.3.58.48.87,1.22,2.04,2.82,3.68,4.67,5.02Zm9.45,8.12c.08,0,.16,0,.25,0-.07.19-.14.37-.21.55.01-.18,0-.37-.03-.55Zm-.04-.19c-.15-.55-.43-1.02-.62-1.56-.18-.49-.15-.89,0-1.27.34.73.75,1.43,1.19,2.12-.08.24-.15.48-.23.72-.12,0-.23,0-.35,0Zm4.83-1.83c.05.83.07,1.69.12,2.55-.37-.14-.74-.27-1.12-.38-.81-.24-1.63-.3-2.46-.32-.17-.24-.32-.47-.48-.7.23-.84.46-1.7.77-2.51,1.09.29,2.19.56,3.29.83.03.22.08.54,0,.48-.04-.04-.13-.02-.12.05Zm-.33-3.41c.05.61.16,1.22.27,1.82.05.28.11.57.16.85-1.06-.27-2.12-.54-3.17-.84.23-.56.52-1.09.88-1.55.61-.26,1.2-.67,1.63-1.17.07-.02.14-.03.22-.05-.03.31-.02.63,0,.93Zm-1.66.06c.07-.07.13-.14.2-.21.29-.28.62-.51.98-.65-.33.35-.75.64-1.18.86Zm1.81-1.01c.21-.02.43,0,.66.06.52.13,1.02.36,1.53.52.57.19,1.15.29,1.74.33-.22.77-.35,1.57-.42,2.35-.04.39-.06.79-.07,1.19-1-.28-2.01-.53-3.02-.79-.18-1.02-.53-2.55-.42-3.66Zm-3.58,6.2c-.12,0-.24,0-.37,0,.04-.12.08-.25.11-.38.08.13.17.25.26.38Zm-.39-1.04c-.42-.65-.83-1.33-1.17-2.05.11-.18.24-.36.4-.55.01-.02.02-.04.01-.05.5.15,1,.28,1.51.42-.3.73-.52,1.49-.75,2.24Zm-3.22-3.44c.05.02.11.04.16.06.44.15.88.29,1.32.43.09.3.21.59.33.88-.41.66-.28,1.36.12,2.21.14.29.26.58.33.87-.1,0-.2,0-.3-.01-1.29-.07-2.4-.44-3.27-1.21.24-.11.47-.23.68-.36.3-.19.39-.18.45-.52.06-.37.12-.74.15-1.11.03-.42.04-.83.03-1.24Zm-.43,2.28c-.06.32-.57.59-1.04.79-.35-.35-.66-.77-.92-1.28-.48-.96-.66-1.98-.57-3,.89.41,1.8.78,2.72,1.12.03.79-.04,1.58-.19,2.37Zm2.13-1.72c.22.07.44.13.66.2-.17.14-.3.28-.41.42-.09-.2-.17-.41-.25-.61Zm.56,5.15c-.07.24-.16.46-.26.69-.31.48-.67.93-1.11,1.34-.68.63-1.44,1.15-2.17,1.71-.31-1.68-1.07-3.28-2.03-4.72.34-.69,1.07-1.05,1.78-1.39.4.4.88.73,1.42.92.79.29,1.6.36,2.42.38.07.34.07.7-.04,1.07Zm-5.75-1.23c-.34-.49-.7-.96-1.07-1.4-.35-.42-.73-.86-1.14-1.27,0-.01.01-.02.02-.04.47-1.01.35-2.07-.04-3.08-.25-.64-.61-1.32-.94-2.02,1.09.77,2.26,1.45,3.49,2.03-.09.8-.03,1.61.25,2.39.27.75.68,1.49,1.23,2.09-.18.07-.34.14-.44.19-.58.29-1.06.63-1.35,1.11Zm1.64-9.22c-.28.4-.53.82-.74,1.3-.26.6-.46,1.23-.56,1.87-1.31-.62-2.56-1.34-3.72-2.19-.75-1.67-1.21-3.39.39-4.84.24-.22.49-.42.75-.61.17.17.34.35.51.52,1.2,1.24,2.42,2.5,3.37,3.94Zm1.6,4.38c-.91-.33-1.81-.7-2.68-1.1.11-.84.39-1.67.83-2.45.12-.22.25-.43.39-.63.8,1.27,1.37,2.67,1.47,4.18Zm4.33-6.36c-1.34.91-2.42,2.04-2.81,3.81-.24,1.08-.15,2.12.13,3.12-.47-.15-.94-.31-1.4-.48-.01-.21-.03-.41-.06-.62-.15-1.22-.61-2.4-1.25-3.44-.08-.14-.17-.27-.26-.41.65-.91,1.44-1.65,2.39-2.32.58-.42,1.18-.82,1.76-1.24.41.53.87,1.03,1.4,1.49.04.03.07.06.11.09Zm3.14,3.68c0,.43-.15.83-.41,1.18-.52.1-1,.36-1.4.77-.19.19-.35.39-.51.59-.17.06-.34.12-.49.15-.07.02-.04.12.03.11.12-.03.23-.06.35-.1-.29.42-.52.87-.73,1.34-.11-.03-.22-.06-.33-.09-.7-.2-1.41-.41-2.12-.64-.19-.62-.31-1.25-.29-1.91.04-1.62.71-3.14,1.93-4.22.31-.27.63-.52.97-.75.54.46,1.08.91,1.56,1.43.32.35.61.71.86,1.11.21.33.57.59.58,1.02Zm4.21,1.25c-.1.25-.18.51-.26.77-.59-.03-1.17-.14-1.74-.33-.51-.17-1.01-.41-1.53-.51-.23-.05-.46-.06-.69-.05.13-.82.56-1.35,1.6-1.15.96.19,1.82.72,2.62,1.27Zm1.04.71c-.27.04-.55.07-.83.08-.11,0-.22,0-.33,0,.07-.24.15-.47.24-.7.18.12.36.25.53.37.13.09.26.17.39.26Zm4.44,5.95c-1.99-.87-4.06-1.52-6.16-2.1,0-1.21.17-2.43.49-3.57.5.02,1-.02,1.5-.11.99.6,2.04,1.07,3.14,1.46.38.14.77.27,1.16.4-.02.11-.03.22-.04.33-.12,1.2,0,2.4-.09,3.59Zm-5.49,2.39c1,.51,1.98,1.06,2.94,1.64.3.18.6.36.9.55-.35.59-.74,1.16-1.13,1.72-1.12-1.19-2.16-2.35-2.7-3.91Zm-.67-4.31c2.05.56,4.07,1.19,6.01,2.05.04.02.09.04.13.06-.04.35-.09.69-.18,1.04-.29,1.15-.78,2.2-1.37,3.2-1.3-.83-2.63-1.59-4-2.29,0,0,0-.01,0-.02-.37-1.22-.58-2.62-.58-4.05Zm-3.06,2.32c-.01-.19-.03-.39-.04-.58-.04-.54-.07-1.07-.1-1.61-.02-.27-.14-.3.08-.27.04,0,.07-.04.07-.07,0-.15-.03-.35-.07-.59,1,.25,1.99.5,2.98.76-.02,1.33.11,2.71.5,3.98-1.11-.56-2.25-1.16-3.43-1.63Zm-3.64-.6s.07,0,.11,0c1.2.04,2.29.35,3.36.76.09,1.22.27,2.44.73,3.55.41.98,1.04,1.98,1.11,3.07.02.32.18.94-.39.8-.28-.07-.55-.14-.81-.27-.44-.22-.82-.49-1.14-.84.27-2.56-1.49-4.95-2.97-7.06Zm1.56,9.53c-1.95-.99-3.87-2.05-5.83-2.96-.09-.04-.18-.08-.27-.13.02-.05.04-.09.07-.14.6-1.2,1.42-2.26,2.11-3.41.11-.18.22-.37.33-.57.37-.48.69-1.01.93-1.61.09-.23.18-.48.26-.73.18,0,.36,0,.54,0,.31.46.63.9.93,1.33,1.01,1.46,2.11,3.21,2.16,5.04,0,.17,0,.33-.02.5-.06,0-.1.09-.06.15.01.01.02.03.03.04-.13.94-.58,1.75-1.18,2.47Zm-6.21-2.86c1.84.84,3.63,1.79,5.43,2.71.21.11.42.21.64.32-.29.34-.61.65-.94.96-.3.28-.62.55-.93.82-.25-.17-.5-.33-.77-.45-1.52-.69-3.23.14-4.82-.23.49-1.37.79-2.79,1.38-4.13Zm-1.79-1.07c-.3-1.66-1.47-3.48-1.05-5.18,0-.02.01-.04.02-.05.34.53.66,1.08.93,1.65.33.68.63,1.39.81,2.13.03.11.09.56.16.83-.13.1-.26.2-.39.31-.13.11.01.29.15.26.15-.03.3-.07.46-.1.06-.01.11-.08.11-.14,0-.05-.02-.1-.02-.14.77-.56,1.55-1.13,2.24-1.77-.66.93-1.43,1.84-1.92,2.86-.47-.22-.97-.44-1.49-.65Zm-3.86-1.1c-.29-1.78-.6-3.56-1.25-5.26-.03-.08-.06-.15-.09-.23.7-.42,1.35-.92,1.77-1.61.2.19.39.39.58.59.59.65,1.15,1.35,1.64,2.09-.09.23-.15.49-.15.79-.03,1.61.74,3.12,1.18,4.64-1.18-.47-2.44-.88-3.68-1.02Zm.38,3.59c-.12-.14-.24-.27-.37-.41-.62-.64-1.3-1.16-2-1.71-.32-.25-.67-.53-1.01-.83.68-.29,1.44-.43,2.28-.4.16,0,.33.02.49.03.12.81.24,1.62.4,2.42.06.3.13.59.2.88Zm2.8,6.18c-.51-1.22-1.15-2.38-1.58-3.33-.2-.44-.36-.88-.51-1.33.92,1.42,1.61,3.03,2.09,4.67Zm-9.82-3.66c.15-.83.39-1.64.75-2.42.6-1.32,1.5-2.35,2.66-2.92.9.81,1.95,1.51,2.77,2.36.38.39.73.82,1.06,1.27.3,1.02.69,2,1.15,2.98.58,1.23,1.21,2.46,1.6,3.77-.37-.01-.74-.05-1.11-.12-1.32-.25-2.42-.99-3.48-1.78-1.3-.97-2.63-1.92-4.11-2.61-.42-.19-.84-.36-1.28-.53Zm-.3-.11c-.66-.25-1.31-.49-1.94-.79.3-2.41,2.49-4.46,4.2-6.21.3.58.72,1.07,1.2,1.53-.17.09-.34.19-.5.3-1.57,1.07-2.44,2.97-2.87,4.77-.03.14-.06.27-.09.41Zm-1.97-.5c.56.25,1.14.46,1.71.68.07.03.15.06.22.09-.19,1.15-.19,2.29-.11,3.43-.75-.85-1.45-1.83-1.7-2.91-.1-.44-.14-.87-.11-1.29Zm-2.67-4.38c0-.06.02-.13.03-.19.04,0,.08,0,.11-.01,1.72-.19,3.02-1.09,3.2-2.9.08-.8.03-1.59-.1-2.37.07.04.13.09.2.13,1.02.74,1.94,1.64,3.07,2.16.06.28.14.54.25.78-1.81,1.83-3.88,3.78-4.38,6.34-1.6-.82-2.62-2.02-2.39-3.94Zm-9.75.38s.11-.01.09-.07c.09-.07,0-.22-.1-.17-.02-.03-.04-.06-.06-.09.36-.12.72-.26,1.07-.44,1.48-.73,2.5-1.94,2.8-3.58.19-1.03.2-2.08.11-3.12-.04-.5-.08-.96-.05-1.4.4.22.8.45,1.18.7,1.22.8,2.32,1.77,3.23,2.92.51.64,1.13,1.38,1.32,2.2.16.71.07,1.38-.04,2.1,0,.04-.01.09-.02.13-1.24.1-2.46.08-3.61.71-1.62.89-2.75,2.36-3.32,4.04-.8-.2-1.61-.5-2.2-1.09-.69-.69-1.37-2.13-.4-2.83Zm-3.82-5.41c-.58-1.13-.51-2.36.22-3.42.37-.54.84-1.03,1.4-1.37.5-.29.97-.38,1.51-.51,1.47.47,2.93,1,4.29,1.7-.05.63.07,1.29.11,1.92.04.67.06,1.34-.02,2-.13,1.16-.49,2.32-1.35,3.15-.74.71-1.61,1.14-2.54,1.44-1.14-1.68-2.7-3.09-3.63-4.91Zm-5.38-2.54c.02,1.24.27,2.52.44,3.67.07.49.15.99.21,1.49-1.34-.57-2.74-1.17-3.75-2.24,0-.03,0-.07,0-.1.04-.73.17-1.57.7-2.12.59-.61,1.46-.81,2.29-.72.04,0,.07.01.11.01Zm.23.03c1.74.29,3.21,1.34,4.76,2.13,0,0,0,0,0,0,.34.89.97,1.69,1.55,2.43.76.98,1.55,1.93,2.3,2.91-.94.28-1.94.44-2.92.63-.51-.34-1.03-.66-1.54-.97-1.15-.7-2.27-1.37-3.51-1.9-.19-1.74-.62-3.48-.64-5.23Zm1.29-3.84c.59-.22,1.18-.44,1.77-.65,1.12.4,2.25.77,3.39,1.12.48.15.97.3,1.46.45-.9.09-1.82.79-2.35,1.44-.67.83-1.21,1.98-.95,3.07.03.13.07.27.12.4-1.36-.98-3.03-1.99-4.72-2.24,0-.25.01-.49.03-.74.1-1.18.58-2.08,1.26-2.86Z"/>
          <path id="_ondeRelax_" data-name="&amp;lt;ondeRelax&amp;gt;" class="cls-2" d="m9.94,46.98c-1.39.51-2.76,1.08-4.13,1.64v.22c2.65-1.12,5.34-2.15,8.06-3.12-.02.03-.05.05-.07.08-1.1,1.38-1.45,3-1.46,4.67-1.81-.17-3.75.37-4.49,2.09-.27.64-.41,1.3-.46,1.98-.12-.14-.24-.28-.35-.43-.51-.68-.89-1.43-1.23-2.19v.65c.33.67.71,1.32,1.2,1.92.12.14.24.28.36.42-.05,1.11.09,2.25.18,3.34.08.95.11,1.89.05,2.84-.04.54-.04,1.37-.24,2.07.11.06.22.13.33.19.34-1.04.28-2.54.28-3.14.02-1.65-.28-3.29-.25-4.94,1.29,1.22,2.99,2.01,4.66,2.68.32.13.64.26.96.39.14,1.27.17,2.55-.12,3.78-.3,1.29-.91,2.4-1.73,3.37.09.05.19.11.28.16,1.3-1.59,2.03-3.47,2-5.67,0-.5-.04-1-.09-1.5,1.48.63,2.89,1.31,4.29,2.11.95.54,1.93,1.09,2.88,1.67-.84.15-1.67.32-2.47.55-1.41.4-2.89.98-3.79,2.12-.43.54-.76,1.11-1,1.7.04.02.08.04.12.07.25-.61.59-1.18,1.07-1.63,1.04-.97,2.29-1.59,3.69-1.97.91-.25,1.84-.43,2.77-.6.62.4,1.22.83,1.78,1.29.64.54,1.35,1.19,1.38,2.06.04.99-.48,1.87-1.05,2.68-.55.79-1.19,1.59-1.68,2.44.09.04.17.09.26.14.7-1.25,1.71-2.36,2.34-3.64.61-1.25.4-2.48-.64-3.43-.64-.59-1.35-1.11-2.09-1.59,1.4-.25,2.8-.48,4.16-.89.04.05.09.11.13.16-1.82,1.12-.33,3.71.95,4.7.87.67,1.92,1.06,3.03,1.32-.33,1.03-.51,2.12-.52,3.22,0,1.31.17,2.84.66,4.23.19.1.38.19.57.29-1.05-2.29-1.03-5.2-.25-7.64,1.17.24,2.38.35,3.49.52,2.63.39,6.49,1.16,6.47,4.35-.01,2.39-1.4,4.44-3,6.2.08.04.17.09.25.13,2.79-2.69,4.8-7.99.39-9.92-2.36-1.03-5-1.03-7.5-1.57.31-.87.71-1.67,1.21-2.35,1.02-1.39,2.34-2.62,4.01-3.3,1.49-.61,3.01-.59,4.57-.71-.19,1.71.01,3.41,1.45,4.65.72.62,1.53,1.1,2.4,1.49-.04.27-.07.55-.09.83-.09,1.78.63,3.59,1.77,4.99.52.64,1.07,1.21,1.64,1.75.08.7.16,1.4.25,2.1.14.01.29.02.43.03-.07-.57-.15-1.14-.21-1.71.74.65,1.53,1.27,2.34,1.88.44.03.88.07,1.32.09-1.12-.89-2.19-1.83-3.22-2.81-.19-.19-.39-.38-.59-.58-.15-1.72-.14-3.45.15-5.13,2.32.89,4.46,2.02,6.5,3.4,1.85,1.26,3.72,2.82,5.99,3.35.84.2,1.68.26,2.52.27.05.16.09.32.13.48.02,0,.04,0,.06,0,.27-.05.54-.1.8-.15-.02-.11-.04-.22-.06-.32.6,0,1.2-.03,1.79-.03.46-.1.92-.2,1.37-.31-1.07-.06-2.15,0-3.23.01-.54-2.52-1.55-4.97-2.89-7.2-.56-.94-1.18-1.84-1.88-2.69-.49-1.73-.79-3.51-1.1-5.29,2.53.29,4.98,1.18,7.29,2.14.15.06.29.12.43.18-.94,1.91-2.03,4.04-1.92,6.18,0,.08.06.17.15.19,1.19.26,2.35.23,3.56.11,1.2-.12,2.62-.36,3.75.17.36.17.7.36,1.03.58-.99.83-1.94,1.69-2.69,2.71-.59.81-1.01,1.69-1.31,2.6.13-.03.25-.07.38-.1.22-.6.49-1.17.83-1.7.82-1.28,1.94-2.31,3.09-3.3,1.06.75,1.98,1.71,2.86,2.61h0c.12-.05.24-.11.37-.16-.91-.9-1.86-1.91-2.94-2.69.38-.32.76-.64,1.13-.97.55-.48,1.13-1.01,1.67-1.58,1.95.91,3.92,1.8,5.94,2.54.14-.06.27-.13.41-.19-2.09-.74-4.13-1.63-6.14-2.58.77-.86,1.4-1.82,1.64-2.89.03-.14.06-.28.08-.42.95.91,2.2,1.43,3.55,1.59.05,0,.11-.04.12-.09.59-2.56-1.46-4.65-2.07-7.01-.3-1.14-.43-2.33-.53-3.51.76.29,1.52.61,2.29.95.97.42,1.94.87,2.9,1.33.31.88.72,1.72,1.24,2.49.83,1.22,2,2.19,3.06,3.23-.18.25-.37.49-.56.74-.93,1.21-1.93,2.42-2.75,3.7-.31.49-.59.99-.89,1.48.33-.18.65-.36.97-.56.07-.14.14-.27.21-.41.7-1.33,1.68-2.52,2.59-3.73.24-.31.47-.62.71-.93.3.31.6.62.86.95.02-.03.04-.06.06-.08-.27-.32-.56-.63-.88-.94.62-.81,1.23-1.63,1.8-2.47.35.21.7.42,1.05.64.04-.06.08-.12.12-.18-.09-.06-.19-.12-.28-.18-.25-.16-.5-.31-.75-.47,0,0,.01-.02.02-.03.73-1.1,1.55-2.15,2-3.39.3-.82.48-1.64.58-2.47.27.12.55.25.83.37.01-.09.02-.19.03-.28-.27-.12-.55-.25-.82-.36.15-1.36.12-2.74.14-4.15,0-.48.04-.95.09-1.41.18.06.35.11.53.17,0-.07,0-.13-.01-.2-.16-.05-.33-.1-.49-.15.09-.62.23-1.21.43-1.77,0-.43,0-.87.02-1.3-.01-.02-.02-.04-.03-.05-.58.86-.96,1.81-1.15,2.89-1.26-.39-2.52-.8-3.74-1.31-.82-.34-1.59-.75-2.33-1.18.94-.19,1.87-.49,2.81-.62.89-.12,1.79-.15,2.69-.23.45-.04.89-.09,1.33-.17-.06-.1-.12-.2-.19-.29-1.03.18-2.12.18-3.11.28-1.34.14-2.63.56-3.94.8-.55-.33-1.1-.67-1.66-1.01.74-1.72,1.83-3.23,3.33-4.35-.1-.02-.19-.05-.27-.11-.11.08-.21.17-.31.25-1.32,1.13-2.27,2.55-2.92,4.1-.35-.21-.7-.42-1.06-.62-1.12-.63-2.9-1.65-4.26-1.06-.3.13-.54.31-.72.52.12-.57-.04-1.13-.4-1.63-.7-.98-1.36-1.92-2.29-2.73-.52-.46-1.07-.89-1.61-1.32,1.9-1.15,4-2,5.9-3.14-.08-.04-.15-.08-.23-.12-1.89,1.09-4.02,1.98-5.89,3.1-.47-.38-.93-.75-1.37-1.16-.35-.32-.68-.66-.98-1.02.51-.35,1-.71,1.48-1.09.49-.39.95-.8,1.38-1.24-.11,0-.22-.02-.33-.06-.82.81-1.77,1.51-2.72,2.16-.52-.64-.97-1.33-1.38-2.06-.6-1.05-1.13-2.14-1.62-3.24-.17-.03-.34-.06-.51-.09.41.92.86,1.82,1.31,2.68.55,1.06,1.15,2.04,1.86,2.95-2.27,1.54-4.54,2.91-6.17,4.96-1.64-2.26-3.74-4.17-5.74-6.15,1.4-.96,2.9-1.79,4.14-2.92.64-.58,1.32-1.14,2.01-1.68h-.12c-1.66,1.25-3.32,2.49-5.06,3.64-.38.25-.77.51-1.15.78-1.18-1.17-2.31-2.37-3.3-3.69-.24-.32-.44-.64-.6-.97h-.42c.97,1.82,2.55,3.37,4.08,4.84-1.78,1.32-3.23,2.89-2.74,5.26.16.74.49,1.52.89,2.3-2.08-1.48-3.93-3.23-5.44-5.35-.61-.86-1.16-1.75-1.66-2.67.11-.15.25-.29.44-.44.26-.21-.08-.61-.36-.44-.15.08-.28.17-.39.27-.42-.85-.8-1.73-1.12-2.63-.13-.38-.26-.76-.38-1.14h-.36c.46,1.37.95,2.73,1.58,4.04-.11.12-.2.25-.27.38-1.48,1.31-3.26,2.28-5.14,3.06-.42-.26-.84-.51-1.27-.76.38-2.44,1.34-4.75,3.2-6.66.02-.02.04-.04.06-.06h-.4c-.54.57-1.03,1.21-1.44,1.92-.86,1.48-1.41,3.03-1.71,4.63-.7-.4-1.42-.77-2.15-1.14.49-.84,1.01-1.67,1.51-2.5.58-.95,1.2-1.92,1.7-2.91h-.62c-.23.36-.48.71-.68,1.03-.68,1.07-1.36,2.13-2,3.22-.17.28-.33.57-.5.86-.33-.16-.65-.32-.98-.47-.97-1.47-2.47-2.56-3.44-4.04-.08.03-.16.07-.24.1.93,1.37,2.37,2.4,3.31,3.76-1.23-.56-2.46-1.09-3.7-1.58-.87-.35-1.75-.68-2.64-1-.11.04-.23.08-.34.13,2.36.85,4.69,1.79,6.94,2.87.02.04.05.08.07.12.18.33.31.82.35,1.32-.34.64-.67,1.28-.97,1.94-.21.04-.46.02-.76-.08-1.14-.36-2.1-1.1-3.1-1.72-1.33-.83-2.9-1.88-4.56-2.27-.12-.34-.22-.68-.29-1.03-.02-.11-.04-.21-.05-.32-.12.04-.25.07-.37.11.08.4.18.78.31,1.16-.44-.08-.88-.1-1.33-.06-2.33.22-4.29,1.8-5.24,3.77-.17.34-.31.7-.46,1.06-1.24-.32-2.48-.66-3.72-1.02.18-.38.31-.76.42-1.16-.19.17-.37.33-.56.5,0,0,0,0,0,0-.07.19-.14.37-.23.55-.1-.03-.2-.06-.3-.09-.1.09-.21.18-.31.27.15.05.3.09.44.14-.14.24-.31.47-.5.68-.9.96-2.23,1.68-3.52,2.06-.03,0-.06.02-.09.03-.35.26-.71.52-1.06.78.06-.02.13-.04.19-.06,2-.62,4.35-1.5,5.36-3.37,0,0,0,0,0,0,1.24.37,2.49.71,3.74,1.03-.25.6-.52,1.19-.89,1.73-.77,1.1-1.92,1.8-3.01,2.59-.5.36-1.02.72-1.52,1.1-.57-.21-1.13-.43-1.69-.66-1.11-.46-2.24-.96-3.32-1.52-.11.08-.23.17-.34.25.01,0,.03.01.04.02,1.6.84,3.26,1.55,4.95,2.18-.57.45-1.11.93-1.59,1.46-1.39.5-2.77,1-4.15,1.51Zm7-2.52c-.7.24-1.39.49-2.08.74.36-.37.76-.72,1.18-1.05.3.11.6.21.91.32Zm4.79-6.07c1.27.32,2.54.63,3.81.91,1.38.31,2.76.61,4.06,1.14-.42.11-.85.23-1.27.35-3.64,1.04-7.23,2.22-10.8,3.47-.38-.13-.76-.26-1.14-.39.5-.39,1.02-.76,1.54-1.14,1.5-1.09,2.78-2.05,3.53-3.74.09-.2.17-.39.26-.59Zm19.08,19.75c-.12-1.05-.72-1.96-1.36-2.8-2.04-2.67-4.64-4.68-7.61-6.2.1-.52.3-1.02.69-1.52.86-1.1,2.23-2.51,2.23-3.99.32.17.65.33.99.46-.06,1.02-.04,2.04.1,3.01.23,1.68.85,3.41,2.43,4.37.98.6,2.04.77,3.18.91,1.24.16,2.38.52,3.44,1.11.14.72.24,1.45.26,2.19.07,2.41-.89,4.56-3.67,4.98-.29.04-.58.08-.87.11.14-.87.29-1.73.19-2.61Zm-7.57-18.32c1.19-.29,2.39-.57,3.57-.88-.19.51-.35,1.03-.49,1.55-.27,1.02-.46,2.11-.55,3.21-.37-.15-.72-.33-1.06-.53,0-.05-.02-.1-.03-.14-.29-1.13-.82-2.19-1.45-3.21Zm.31,1.49c.24.49.5,1.02.65,1.55-.33-.21-.65-.43-.97-.66-.87-.63-1.74-1.23-2.7-1.72.75-.19,1.5-.37,2.25-.55.28.45.54.91.77,1.38Zm2.99,3.03c.31.08.62.15.95.2,1.55.23,3.22-.22,4.78-.26.37,1.62.85,3.2,1.38,4.79.42,1.27.85,2.57,1.15,3.89-.29-.16-.59-.3-.9-.44-1.17-.49-2.5-.56-3.7-.98-2.37-.82-3.41-2.66-3.59-4.97-.06-.73-.08-1.49-.06-2.25Zm-5.1,4.6c-.98-.48-1.99-.91-3.04-1.29-3.47-1.26-7.07-2.14-10.58-3.3,1.09-.37,2.19-.73,3.29-1.08,2.85-.92,5.72-1.84,8.63-2.6.08-.02.17-.04.25-.06.21.1.42.2.62.31,1.18.64,2.2,1.48,3.32,2.21.12.08.24.15.37.23.06.44,0,.89-.23,1.33-.53.98-1.2,1.85-1.88,2.74-.36.48-.64.93-.76,1.51Zm.34-10.51c.29.41.57.82.84,1.25-.83.2-1.65.4-2.47.61-.18-.08-.36-.17-.55-.24-1.27-.52-2.64-.78-3.98-1.09-1.25-.28-2.51-.59-3.76-.91.88-1.92,1.96-3.79,4.31-4.44.88-.25,1.74-.24,2.57-.08.68,1.72,1.88,3.27,3.03,4.9Zm5.55-.8c-.14.33-.28.66-.41.99-1.28.33-2.57.63-3.85.94-.47-.74-.99-1.45-1.5-2.14-.88-1.19-1.84-2.43-2.41-3.8,1.61.42,3.12,1.39,4.47,2.26.87.56,2.45,1.89,3.7,1.75Zm1.62-3.18c-.1.17-.2.35-.29.52-.06-.29-.15-.55-.27-.77,0-.01-.01-.02-.02-.04.09.04.18.08.26.13.11.05.21.11.32.16Zm2.84,1.5c-.07.42-.12.85-.16,1.28-.79.27-1.59.52-2.37.75-.51.15-1.03.29-1.55.43.18-.44.37-.88.58-1.31.16-.19.27-.43.34-.68.29-.56.6-1.12.92-1.67.75.38,1.5.78,2.24,1.19Zm.11,6.57c.08.48.18.95.28,1.42-1.71.05-3.56.54-5.24.14-.13-.03-.27-.07-.4-.11.06-1.53.29-3.07.76-4.48.09-.26.18-.51.28-.76,1.37-.37,2.71-.78,4.02-1.26-.12,1.67,0,3.37.29,5.05Zm1.17-5.82c-.36.14-.72.28-1.09.41.02-.33.06-.66.1-.99.33.19.66.38.99.58Zm4.4,3.19c-.81.45-2.27.98-2.45,1.88-.25,1.26,1.41,2.51,2.31,3.14,1.71,1.2,3.69,1.62,5.69,2.15.09.18.19.35.28.53.71,1.37,1.4,2.79,1.99,4.24-.74.3-1.54.55-2.35.87-1.67.66-3.02,1.79-2.83,3.63,0,.06.02.13.02.19-1.12-.52-2.08-1.29-3.07-2.05-.59-.45-1.18-.88-1.82-1.26-.57-2.78-1.82-5.49-2.47-8.21-.58-2.43-.97-5.1-.81-7.68.44-.16.87-.34,1.31-.51,1.49.92,2.92,1.93,4.2,3.07Zm3.23,16.88c-.01-1.95,2-3.1,3.68-3.92.36-.18.72-.36,1.08-.56.37.94.69,1.9.95,2.86.4,1.53.66,3.09.91,4.65-1.55-.12-3.06.03-4.44.62-.76-.67-1.45-1.42-1.84-2.26.27-.27.54-.53.79-.79.09-.1.07-.28-.09-.31-.36-.07-.7-.17-1.03-.29Zm.6.57c-.14.14-.29.28-.43.42-.05-.14-.09-.28-.11-.43-.01-.06-.02-.11-.03-.17.19.07.38.12.57.18Zm2.12-10.16c.11.03.22.06.32.09,1.73.51,3.13,1.34,4.4,2.45-.67,1-1.58,1.57-2.6,2.01-.64-1.53-1.34-3.06-2.13-4.55Zm-3.11-1.26c-1.33-.46-2.51-1.08-3.53-2.02-.44-.41-1.57-1.3-1.31-2.01.19-.55.93-.83,1.43-1.08.34-.17.67-.35.99-.53,1.98,1.86,3.57,4.02,4.87,6.34-.82-.21-1.65-.42-2.45-.7Zm-1.1-8.23c-.01.92-.74,1.56-1.5,2.04-1.28-1.12-2.67-2.13-4.13-3.05,1.65-.7,3.24-1.53,4.74-2.54-.06.49.05,1.02.29,1.59.25.61.62,1.29.61,1.96Zm7.62,4.44c1.27,2.38,2.83,4.89,1.54,7.22-.68-.62-1.41-1.17-2.21-1.58-.95-.48-1.96-.78-2.98-1.06-1.31-2.38-2.88-4.62-4.92-6.51-.03-.03-.07-.06-.1-.09.16-.1.32-.21.48-.32,1.04-.75,1.76-1.84,1.31-3.1-.37-1.02-1.06-1.94-.75-2.82.22.41.45.82.71,1.22,1.81,2.85,4.2,5.15,6.94,7.03Zm14.05,11.38c.12,0,.25,0,.37,0-.1.26-.2.52-.32.78.02-.26,0-.52-.05-.78Zm-.07-.26c-.22-.77-.63-1.43-.92-2.18-.26-.69-.23-1.25.01-1.79.5,1.02,1.12,2.01,1.77,2.97-.11.34-.23.68-.34,1.01-.17,0-.35,0-.52,0Zm7.19-2.57c.07,1.16.1,2.37.18,3.57-.55-.2-1.1-.38-1.66-.54-1.21-.34-2.43-.42-3.66-.44-.25-.33-.48-.66-.71-.98.35-1.17.68-2.39,1.15-3.52,1.62.4,3.25.79,4.89,1.17.05.31.11.76,0,.67-.07-.05-.19-.02-.19.07Zm-.5-4.78c.08.86.23,1.71.4,2.55.08.4.16.8.23,1.2-1.57-.38-3.15-.76-4.71-1.17.35-.79.77-1.53,1.31-2.17.91-.37,1.78-.94,2.43-1.64.11-.03.21-.05.32-.07-.05.43-.03.88,0,1.3Zm-2.47.09c.1-.1.2-.2.3-.29.43-.39.93-.71,1.46-.91-.49.49-1.12.9-1.76,1.2Zm2.69-1.41c.32-.02.65,0,.98.08.78.19,1.51.5,2.28.73.85.26,1.71.41,2.58.46-.32,1.08-.52,2.19-.63,3.29-.05.55-.09,1.11-.1,1.67-1.49-.39-2.99-.75-4.49-1.11-.27-1.43-.78-3.57-.62-5.12Zm-5.32,8.69c-.18,0-.36,0-.55,0,.06-.17.11-.35.17-.53.13.18.25.36.38.53Zm-.58-1.45c-.62-.91-1.24-1.87-1.74-2.87.16-.26.36-.51.59-.78.02-.02.03-.05.02-.07.74.2,1.49.4,2.24.59-.44,1.02-.78,2.09-1.11,3.13Zm-4.78-4.82c.08.03.16.05.24.08.65.21,1.3.41,1.96.61.14.42.31.83.49,1.23-.61.93-.42,1.91.17,3.1.2.4.38.81.5,1.22-.15,0-.3,0-.45-.02-1.91-.1-3.57-.61-4.86-1.7.36-.16.7-.32,1.02-.51.45-.26.58-.26.67-.73.09-.51.18-1.03.22-1.55.05-.58.06-1.16.05-1.74Zm-.64,3.19c-.09.45-.85.83-1.55,1.11-.53-.49-.98-1.08-1.36-1.79-.72-1.34-.98-2.78-.85-4.2,1.32.58,2.67,1.1,4.05,1.56.04,1.11-.06,2.22-.28,3.32Zm3.17-2.41c.33.09.65.19.98.28-.25.19-.45.39-.61.58-.13-.28-.26-.57-.37-.86Zm.83,7.21c-.11.33-.24.65-.39.96-.46.68-1,1.31-1.66,1.88-1.01.88-2.14,1.62-3.23,2.4-.46-2.35-1.59-4.6-3.02-6.61.5-.97,1.59-1.47,2.65-1.94.6.56,1.3,1.02,2.11,1.3,1.17.4,2.38.5,3.61.53.1.48.1.98-.07,1.49Zm-8.56-1.73c-.5-.68-1.04-1.34-1.59-1.96-.53-.59-1.09-1.21-1.7-1.78,0-.02.02-.03.03-.05.69-1.41.53-2.9-.06-4.32-.37-.9-.9-1.86-1.39-2.83,1.62,1.08,3.37,2.03,5.19,2.84-.14,1.12-.05,2.26.37,3.35.4,1.05,1.01,2.09,1.83,2.92-.26.1-.5.19-.66.27-.86.41-1.58.88-2,1.56Zm2.44-12.92c-.41.55-.78,1.16-1.09,1.82-.39.83-.68,1.72-.83,2.62-1.95-.87-3.81-1.88-5.53-3.06-1.12-2.34-1.8-4.74.57-6.78.35-.3.73-.59,1.11-.86.25.24.51.49.75.73,1.78,1.73,3.61,3.5,5.02,5.53Zm2.38,6.13c-1.35-.47-2.69-.98-3.99-1.55.16-1.18.58-2.35,1.23-3.43.18-.31.38-.6.58-.88,1.19,1.77,2.04,3.74,2.18,5.85Zm6.43-8.91c-1.99,1.27-3.61,2.86-4.18,5.33-.35,1.51-.23,2.97.19,4.37-.7-.21-1.39-.44-2.09-.67-.02-.29-.04-.58-.08-.86-.23-1.71-.91-3.36-1.85-4.83-.13-.19-.26-.38-.39-.57.97-1.28,2.14-2.31,3.55-3.25.87-.58,1.75-1.15,2.62-1.73.6.75,1.29,1.44,2.08,2.09.05.04.11.09.16.13Zm4.67,5.16c.01.6-.22,1.16-.61,1.65-.77.15-1.48.51-2.08,1.08-.28.26-.53.54-.76.83-.25.09-.5.16-.73.21-.1.02-.06.17.04.15.17-.04.34-.08.52-.13-.43.58-.78,1.21-1.08,1.87-.16-.04-.33-.09-.49-.13-1.05-.28-2.1-.57-3.15-.89-.29-.86-.45-1.75-.43-2.67.06-2.27,1.06-4.4,2.87-5.91.46-.38.94-.73,1.44-1.05.8.64,1.61,1.28,2.32,2.01.48.48.91.99,1.28,1.55.3.46.85.83.86,1.42Zm6.26,1.75c-.15.36-.27.72-.39,1.09-.88-.04-1.75-.19-2.58-.46-.75-.24-1.5-.57-2.28-.72-.35-.07-.69-.09-1.02-.08.2-1.15.84-1.9,2.37-1.61,1.42.26,2.7,1.01,3.9,1.78Zm1.54.99c-.41.06-.82.1-1.23.11-.16,0-.33,0-.49,0,.11-.33.23-.66.36-.98.27.17.53.35.79.52.19.12.38.24.58.36Zm6.61,8.33c-2.97-1.21-6.04-2.13-9.16-2.94.01-1.69.25-3.41.74-5.01.74.03,1.48-.02,2.23-.15,1.47.84,3.04,1.49,4.67,2.04.57.19,1.15.38,1.73.56-.02.15-.04.3-.06.46-.17,1.68,0,3.36-.14,5.03Zm-8.16,3.34c1.48.72,2.94,1.48,4.37,2.3.44.25.89.51,1.34.77-.52.82-1.09,1.62-1.68,2.41-1.67-1.67-3.21-3.29-4.02-5.48Zm-1-6.04c3.04.78,6.05,1.67,8.94,2.87.06.03.13.06.19.08-.05.49-.13.97-.26,1.45-.44,1.61-1.16,3.09-2.04,4.49-1.93-1.16-3.92-2.22-5.95-3.2,0,0,0-.02,0-.03-.55-1.7-.86-3.67-.87-5.67Zm-4.56,3.25c-.02-.27-.04-.54-.06-.81-.06-.75-.1-1.51-.15-2.26-.02-.38-.21-.42.13-.38.06,0,.11-.05.11-.1,0-.21-.04-.49-.1-.82,1.48.35,2.96.69,4.43,1.07-.03,1.86.17,3.8.75,5.58-1.64-.79-3.35-1.62-5.1-2.28Zm-5.42-.84c.06,0,.11,0,.17,0,1.78.06,3.4.49,4.99,1.07.13,1.72.4,3.42,1.08,4.97.6,1.38,1.54,2.78,1.66,4.29.03.45.27,1.32-.58,1.12-.41-.1-.82-.2-1.2-.38-.65-.31-1.21-.69-1.7-1.18.41-3.59-2.21-6.94-4.41-9.89Zm2.32,13.35c-2.9-1.38-5.76-2.87-8.68-4.15-.13-.06-.27-.12-.41-.18.03-.06.06-.13.1-.19.89-1.68,2.12-3.17,3.14-4.77.16-.25.33-.52.49-.8.56-.67,1.03-1.41,1.38-2.25.14-.33.26-.67.38-1.02.27,0,.54,0,.81,0,.46.64.93,1.26,1.38,1.87,1.5,2.05,3.14,4.5,3.22,7.07,0,.24,0,.47-.02.69-.08.01-.15.12-.08.2.02.02.03.04.05.06-.2,1.31-.87,2.45-1.75,3.47Zm-9.24-4c2.73,1.18,5.4,2.51,8.08,3.79.32.15.63.3.95.45-.43.47-.91.91-1.4,1.34-.45.39-.92.77-1.38,1.15-.37-.24-.74-.46-1.14-.63-2.26-.97-4.81.2-7.16-.32.73-1.92,1.17-3.92,2.06-5.78Zm-2.67-1.5c-.45-2.32-2.19-4.88-1.55-7.25,0-.03.02-.05.02-.07.51.74.97,1.51,1.38,2.31.49.96.93,1.95,1.21,2.98.04.16.13.79.24,1.16-.19.14-.39.29-.58.43-.19.15.02.41.23.37.23-.05.45-.1.68-.14.08-.02.17-.11.16-.2,0-.07-.02-.13-.03-.2,1.15-.79,2.3-1.58,3.33-2.47-.98,1.31-2.12,2.57-2.86,4-.7-.3-1.45-.62-2.22-.91Zm-5.75-1.54c-.43-2.5-.89-4.99-1.86-7.37-.04-.11-.09-.22-.13-.32,1.03-.58,2.01-1.29,2.63-2.25.29.26.58.54.86.83.88.92,1.71,1.89,2.45,2.92-.14.33-.22.69-.23,1.11-.04,2.25,1.11,4.37,1.76,6.5-1.75-.66-3.63-1.23-5.47-1.43Zm.57,5.04c-.18-.19-.36-.38-.55-.57-.92-.89-1.94-1.62-2.97-2.39-.47-.35-.99-.74-1.5-1.16,1.01-.41,2.14-.61,3.4-.56.24,0,.49.03.73.05.18,1.14.36,2.27.6,3.4.09.42.19.82.3,1.23Zm4.16,8.65c-.76-1.71-1.71-3.33-2.34-4.67-.29-.61-.54-1.24-.76-1.87,1.37,1.99,2.4,4.24,3.11,6.54Zm-14.6-5.13c.22-1.16.58-2.29,1.11-3.4.9-1.85,2.23-3.29,3.96-4.1,1.34,1.13,2.91,2.12,4.12,3.31.56.55,1.08,1.15,1.58,1.78.45,1.43,1.02,2.81,1.71,4.18.87,1.72,1.79,3.45,2.38,5.29-.56-.02-1.11-.06-1.65-.16-1.96-.35-3.6-1.39-5.18-2.5-1.94-1.36-3.92-2.69-6.11-3.66-.62-.27-1.26-.51-1.9-.74Zm-.44-.16c-.97-.34-1.95-.69-2.89-1.1.45-3.38,3.71-6.25,6.24-8.71.44.81,1.07,1.5,1.78,2.14-.25.12-.5.26-.74.42-2.33,1.5-3.63,4.16-4.26,6.68-.05.19-.09.38-.13.57Zm-2.93-.7c.83.35,1.69.65,2.54.95.11.04.22.08.32.12-.28,1.6-.28,3.21-.16,4.81-1.12-1.19-2.16-2.56-2.53-4.07-.15-.62-.2-1.22-.16-1.81Zm-3.97-6.13c.01-.09.03-.18.04-.27.06,0,.11-.01.17-.02,2.55-.27,4.49-1.53,4.76-4.07.12-1.12.05-2.23-.14-3.33.1.06.2.12.29.19,1.51,1.03,2.89,2.29,4.57,3.03.08.39.21.75.36,1.1-2.69,2.57-5.76,5.3-6.51,8.88-2.37-1.15-3.9-2.83-3.55-5.53Zm-14.5.53c.07.03.16-.02.14-.09.13-.1,0-.3-.16-.24-.03-.04-.06-.08-.09-.13.54-.17,1.07-.37,1.59-.61,2.2-1.02,3.71-2.72,4.17-5.02.29-1.44.29-2.92.16-4.37-.06-.7-.13-1.35-.07-1.97.6.3,1.19.63,1.76.98,1.81,1.12,3.45,2.48,4.8,4.09.75.9,1.68,1.93,1.96,3.08.24,1,.1,1.94-.06,2.94,0,.06-.02.12-.03.18-1.84.14-3.67.11-5.37.99-2.4,1.24-4.09,3.3-4.93,5.66-1.19-.28-2.4-.7-3.28-1.53-1.02-.96-2.04-2.98-.6-3.96Zm-5.68-7.58c-.87-1.59-.75-3.3.33-4.79.55-.76,1.24-1.45,2.09-1.91.74-.41,1.44-.54,2.25-.71,2.18.66,4.35,1.4,6.38,2.38-.08.89.11,1.81.16,2.69.06.93.08,1.87-.02,2.8-.19,1.62-.73,3.26-2.01,4.42-1.1.99-2.39,1.59-3.77,2.01-1.7-2.36-4.01-4.33-5.4-6.88Zm-8-3.56c.03,1.74.4,3.53.66,5.15.11.68.22,1.38.31,2.09-2-.8-4.07-1.64-5.57-3.14,0-.05,0-.09,0-.14.06-1.02.25-2.21,1.04-2.97.88-.85,2.17-1.13,3.41-1.01.05,0,.11.01.16.02Zm.34.05c2.59.41,4.78,1.87,7.09,2.98,0,0,0,0,0,0,.51,1.25,1.45,2.36,2.31,3.4,1.14,1.37,2.3,2.7,3.42,4.08-1.4.4-2.89.62-4.34.88-.75-.47-1.53-.92-2.29-1.36-1.71-.98-3.37-1.92-5.22-2.67-.28-2.44-.92-4.87-.96-7.32Zm1.92-5.38c.87-.31,1.75-.61,2.63-.91,1.66.57,3.35,1.08,5.04,1.57.72.21,1.44.42,2.17.64-1.34.13-2.71,1.11-3.49,2.01-1,1.17-1.81,2.77-1.42,4.31.05.19.11.37.17.56-2.02-1.37-4.51-2.79-7.01-3.13,0-.35.01-.69.05-1.04.15-1.66.86-2.92,1.87-4.01Z"/>
        </g>
        <g>
          <g>
            <path class="cls-5" d="m60.32,17.66c0,.28.19.39.43.25s.43-.47.43-.75-.19-.39-.43-.25-.43.47-.43.75Z"/>
            <path class="cls-9" d="m57.93,5.22c.26.15.69.15.96,0,.26-.15.27-.4,0-.55-.26-.15-.69-.15-.96,0-.26.15-.27.4,0,.55Z"/>
            <polygon class="cls-3" points="58.46 5.06 61.19 5.06 61.19 4.32 58.5 4.32 58.46 5.06"/>
            <polygon class="cls-3" points="57.87 7.31 56.58 8.05 53.28 8.05 53.38 7.31 57.87 7.31"/>
            <path class="cls-10" d="m57.98,1.04l.05,3.82c0,.05.04.11.11.15.14.08.38.08.52,0,.07-.04.11-.09.11-.15,0,0,0,0,0,0l-.04-3.82c0-.15.1-.23.14-.25.04-.03.16-.08.29,0,.06.03.1.08.13.15l2.18,5.52c.36.9.53,1.85.53,2.81v8.27s-.02.07-.05.08c-.02.01-.05.02-.09,0l-.83-.45s-.02-.01-.03-.02c-.05-.02-.11-.01-.17.03-.14.08-.26.29-.26.45,0,.07.02.13.06.16,0,0,.02.01.03.02l.85.46c.13.07.26.1.4.1.15,0,.29-.04.43-.12.25-.15.41-.42.41-.72v-8.27c0-1.06-.2-2.1-.59-3.09l-2.18-5.52c-.09-.22-.25-.4-.45-.52-.32-.18-.71-.18-1.03,0-.32.19-.51.53-.51.9Z"/>
            <g>
              <path class="cls-9" d="m58.15.46s.07-.05.1-.07c.32-.19.7-.19,1.02,0,.21.11.37.3.45.51l2.18,5.52c.39.99.59,2.03.59,3.09v8.27c0,.16-.05.3-.12.43.03-.02.05-.04.08-.06.1-.09.18-.21.23-.34,0-.03.02-.05.02-.08.02-.07.03-.13.03-.2v-8.26c0-1.06-.2-2.1-.58-3.09l-2.18-5.53c-.09-.22-.25-.4-.45-.51-.32-.18-.71-.18-1.03.01-.14.08-.25.19-.33.31Z"/>
              <path class="cls-15" d="m60.55,17.62c0,.08.02.13.06.16.01,0,.02.01.03.02l.85.46c.13.07.26.1.4.1.15,0,.29-.04.43-.12.02-.01.04-.03.06-.04.08-.13.12-.27.12-.43v-5.47c-.13.03-.3.02-.4-.05-.05-.03-.09-.07-.11-.11v5.38s-.03.07-.05.08c-.02.02-.06.02-.09,0l-.84-.45s-.02-.01-.03-.02c-.05-.02-.11-.01-.17.03-.15.09-.26.29-.26.45Z"/>
              <path class="cls-1" d="m62.38,18.2s.05-.04.08-.06c.1-.09.18-.21.23-.34,0-.03.02-.05.02-.08.02-.07.03-.13.03-.2v-5.43c0,.06-.04.12-.11.16-.04.02-.08.04-.12.05v5.47c0,.16-.05.3-.12.43Z"/>
              <path class="cls-6" d="m58.49,1.28c0-.15.1-.23.14-.25.02-.01.05-.03.1-.04,0,.01,0,.03,0,.04l.04,3.82s0,0,0,0c0,.05-.04.11-.11.15-.04.02-.08.04-.12.05l-.04-3.77Z"/>
              <path class="cls-1" d="m60.82,17.16c.07-.04.13-.05.17-.03.01,0,.02.01.03.02l.74.4v.21s-.02.07-.05.08c-.02.01-.05.02-.09,0l-.83-.45s-.02-.01-.03-.02c-.04-.02-.09-.01-.15.01.05-.1.12-.19.2-.23Z"/>
            </g>
          </g>
          <g>
            <path class="cls-8" d="m57.09,12.68l.29.47,4.98-2.88.03-.02s.04-.06.04-.11c0-.12-.09-.27-.2-.34-.05-.03-.1-.03-.13-.02,0,0-.01,0-.02.01l-4.99,2.88Z"/>
            <path class="cls-4" d="m62.37,10.26c-.04-.07-.09-.13-.15-.16-.05-.03-.1-.03-.13-.02,0,0-.01,0-.02.01l-4.86,2.8-.13-.22,4.99-2.88s.01,0,.02-.01c.03-.01.08-.01.13.02.11.06.2.21.2.34,0,.05-.01.09-.04.11h-.01Z"/>
          </g>
          <g>
            <path class="cls-5" d="m57.09,15.71l.29.47,4.98-2.88.03-.02s.04-.06.04-.11c0-.12-.09-.27-.2-.34-.05-.03-.1-.03-.13-.02,0,0-.01,0-.02.01l-4.99,2.88Z"/>
            <path class="cls-12" d="m62.37,13.29c-.04-.07-.09-.12-.15-.16-.05-.03-.1-.03-.13-.02,0,0-.01,0-.02.01l-4.86,2.8-.13-.22,4.99-2.88s.01,0,.02-.01c.03-.01.08-.01.13.02.11.06.2.21.2.34,0,.05-.01.09-.04.11h-.01Z"/>
          </g>
          <g>
            <path class="cls-5" d="m57.09,18.69l.29.47,4.98-2.88.03-.02s.04-.06.04-.11c0-.12-.09-.27-.2-.34-.05-.03-.1-.03-.13-.02,0,0-.01,0-.02.01l-4.99,2.88Z"/>
            <path class="cls-12" d="m62.37,16.28c-.04-.07-.09-.13-.15-.16-.05-.03-.1-.03-.13-.02,0,0-.01,0-.02.01l-4.86,2.8-.13-.22,4.99-2.88s.01,0,.02-.01c.03-.01.08-.01.13.02.11.06.2.21.2.34,0,.05-.01.09-.04.11h-.01Z"/>
          </g>
          <g>
            <path class="cls-5" d="m55.18,20.64c0,.28.19.39.43.25s.43-.47.43-.75-.19-.39-.43-.25c-.24.14-.43.47-.43.75Z"/>
            <path class="cls-9" d="m52.78,8.2c.26.15.69.15.96,0,.26-.15.27-.4,0-.55-.26-.15-.69-.15-.96,0-.26.15-.27.4,0,.55Z"/>
            <path class="cls-10" d="m52.84,4.02l.05,3.82c0,.06.04.11.11.15.15.08.38.08.52,0,.07-.04.11-.1.11-.15h0s-.05-3.82-.05-3.82c0-.15.1-.23.14-.25.05-.03.16-.08.29,0,.06.03.1.09.13.15l2.18,5.52c.35.9.53,1.85.53,2.81v8.27s-.03.07-.05.08c-.02.01-.06.02-.1,0l-.83-.45s-.02-.01-.03-.02c-.05-.02-.11-.02-.17.03-.15.09-.26.29-.26.45,0,.08.02.13.06.16.01,0,.02.01.03.02l.85.46c.13.07.26.1.4.1.15,0,.29-.04.43-.12.25-.15.4-.42.4-.72v-8.27c0-1.06-.2-2.1-.58-3.09l-2.18-5.52c-.09-.22-.25-.4-.45-.51-.32-.19-.71-.18-1.03,0-.32.19-.51.53-.5.9Z"/>
            <g>
              <path class="cls-9" d="m53.01,3.44s.07-.05.1-.07c.32-.19.71-.19,1.03-.01.21.12.37.3.45.52l2.18,5.52c.39.99.58,2.03.58,3.09v8.27c0,.16-.04.3-.12.43.03-.02.05-.04.08-.06.1-.09.18-.21.23-.34.02-.06.03-.11.04-.17,0-.04,0-.08,0-.11v-8.27c0-1.06-.2-2.1-.58-3.09l-2.18-5.52c-.09-.22-.25-.4-.45-.51-.32-.19-.71-.18-1.03,0-.14.08-.25.19-.33.32Z"/>
              <path class="cls-5" d="m55.41,20.59c0,.08.02.13.06.16.01,0,.02.01.03.02l.85.46c.13.07.26.1.4.1.15,0,.29-.04.43-.12.02-.01.04-.03.06-.04.08-.13.12-.27.12-.43v-5.67c-.14.03-.29.02-.4-.05-.07-.04-.11-.1-.11-.15v5.62s-.03.07-.05.08c-.02.01-.06.02-.1,0l-.83-.45s-.02-.01-.03-.02c-.05-.02-.11-.02-.17.03-.15.09-.26.29-.26.45Z"/>
              <path class="cls-1" d="m57.24,21.18s.05-.04.08-.06c.1-.09.18-.21.23-.34.02-.06.03-.11.04-.17,0-.04,0-.08,0-.11v-5.59h0s-.05.09-.1.12c-.04.03-.08.04-.13.05v5.67c0,.16-.04.3-.12.43Z"/>
              <path class="cls-6" d="m53.34,4.26c0-.15.1-.23.14-.25.02-.01.05-.03.1-.04,0,.01,0,.03,0,.04l.04,3.82s0,0,0,0c0,.05-.04.11-.11.15-.04.02-.08.04-.12.05l-.04-3.77Z"/>
              <path class="cls-1" d="m55.67,20.14c.07-.04.13-.05.17-.03.01,0,.02.01.03.02l.74.4v.21s-.02.07-.05.08c-.02.01-.05.02-.09,0l-.83-.45s-.02-.01-.03-.02c-.04-.02-.09-.01-.15.01.05-.1.12-.19.2-.23Z"/>
            </g>
          </g>
        </g>
      </g>
    </g>
  </g>
</svg>