<?xml version="1.0" encoding="UTF-8"?>
<svg xmlns="http://www.w3.org/2000/svg" viewBox="0 0 138.97 109.24">
  <defs>
    <style>
      .cls-1 {
        fill: #41b6e9;
      }

      .cls-1, .cls-2, .cls-3, .cls-4, .cls-5, .cls-6, .cls-7, .cls-8, .cls-9, .cls-10, .cls-11, .cls-12, .cls-13, .cls-14, .cls-15, .cls-16, .cls-17, .cls-18, .cls-19, .cls-20, .cls-21, .cls-22, .cls-23, .cls-24, .cls-25, .cls-26, .cls-27 {
        stroke-width: 0px;
      }

      .cls-2 {
        fill: #fbfcfd;
        opacity: .4;
      }

      .cls-3 {
        mix-blend-mode: multiply;
      }

      .cls-3, .cls-14 {
        fill: #a6816f;
      }

      .cls-4 {
        fill: #f7f3e6;
      }

      .cls-28 {
        isolation: isolate;
      }

      .cls-5 {
        fill: #fec710;
      }

      .cls-6 {
        fill: #ad1917;
      }

      .cls-7 {
        fill: #145e9a;
      }

      .cls-8 {
        fill: #f2e9de;
      }

      .cls-9 {
        fill: #eb5956;
      }

      .cls-10 {
        fill: #50c1e5;
      }

      .cls-11 {
        fill: #cdb0a2;
      }

      .cls-12 {
        fill: #fff;
      }

      .cls-13 {
        fill: #2f96d1;
      }

      .cls-15 {
        fill: #f7a719;
      }

      .cls-16 {
        fill: #80ba74;
      }

      .cls-17 {
        fill: #998379;
      }

      .cls-18 {
        fill: #287cac;
      }

      .cls-19 {
        fill: #fbba33;
      }

      .cls-20 {
        fill: #ffeb3a;
      }

      .cls-21 {
        fill: #dbbdad;
      }

      .cls-22 {
        fill: #3488c8;
      }

      .cls-23 {
        fill: #f18619;
      }

      .cls-24 {
        fill: #7acdf3;
      }

      .cls-25 {
        fill: #99d6f1;
      }

      .cls-26 {
        fill: #0f4773;
      }

      .cls-27 {
        fill: #d54945;
      }
    </style>
  </defs>
  <g class="cls-28">
    <g id="Livello_1" data-name="Livello 1">
      <g id="_CollinaScivola_" data-name="&amp;lt;CollinaScivola&amp;gt;">
        <g>
          <g>
            <polygon class="cls-4" points="65.41 105.25 112.4 78.12 46.99 40.36 0 67.49 65.41 105.25"/>
            <polygon class="cls-10" points="99.45 78.12 46.99 47.83 12.95 67.49 65.41 97.77 99.45 78.12"/>
            <polygon class="cls-24" points="99.45 78.12 85.92 85.93 46.99 63.46 26.48 75.3 18.2 70.52 15.46 68.93 12.95 67.49 46.99 47.83 99.45 78.12"/>
            <polygon class="cls-25" points="99.45 78.12 97.36 79.33 94.47 80.99 85.94 85.91 46.99 63.46 46.99 47.83 89.55 72.4 95.77 75.99 99.45 78.12"/>
            <path class="cls-12" d="m97.36,79.33l-2.89,1.67c-1.07-.39-2.05-1.25-2.97-1.81-2.13-1.32-4.29-2.65-6.7-3.35-.84-.25-1.76-.45-2.36-1.08-.31-.33-.51-.76-.83-1.08-1-1.02-2.97-.86-3.63-2.12-.16-.32-.22-.69-.45-.97-.26-.33-.69-.46-1.09-.59-2.9-.91-5.61-2.4-7.94-4.36-.4-.33-.79-.68-1.25-.93-1.17-.63-2.64-.53-3.77-1.24-.87-.56-1.42-1.54-2.29-2.09-.83-.53-1.86-.62-2.76-1.03-1.28-.59-2.18-1.8-3.42-2.45-1.53-.8-3.49-.72-4.77-1.88-.5-.46-.85-1.07-1.38-1.5-.54-.43-1.23-.64-1.88-.89-.55-.22-1.07-.47-1.45-.93-.12-.15-.22-.32-.22-.52,0-.4.44-.65.83-.73.28-.05.56-.06.84-.04.91.07,1.79.5,2.63.92,6.73,3.35,13.81,5.97,20.34,9.68,5.56,3.16,10.72,7.11,16.7,9.38.95.36,1.91.68,2.87,1l6.22,3.59c.1.28.18.56.3.83.3.68,1.03,1.65,1.29,2.5Z"/>
            <path class="cls-12" d="m45.19,54.4c-1.18.96-2.28,2.15-3.78,2.57-.79.22-1.7.23-2.33.76-.45.38-.68.99-1.14,1.37-.51.43-1.22.5-1.88.65-2.97.69-5.19,3.18-8.03,4.25-.47.18-.98.32-1.38.63-.36.29-.62.69-.94,1.01-.48.5-1.11.82-1.72,1.14-1.25.64-2.5,1.3-3.76,1.95-.46.24-.93.49-1.3.86-.27.28-.47.63-.74.91l-2.74-1.58c1.54-1.4,3.09-2.8,4.65-4.18,1.97-1.75,3.98-3.51,6.33-4.7,2.24-1.13,4.73-1.71,6.95-2.87,1.33-.7,2.55-1.61,3.83-2.39,2.37-1.45,4.95-2.51,7.52-3.56.55-.22,1.11-.45,1.69-.43.56.02,1.13.3,1.37.8.64,1.35-1.84,2.18-2.61,2.8Z"/>
            <polygon class="cls-11" points="46.99 52.57 17.05 69.86 12.95 67.49 46.99 47.83 99.45 78.12 95.35 80.49 46.99 52.57"/>
            <polygon class="cls-14" points="46.99 52.57 46.99 47.83 12.95 67.49 17.05 69.86 46.99 52.57"/>
            <polygon class="cls-11" points="46.99 50.61 15.35 68.88 12.95 67.49 46.99 47.83 99.45 78.12 97.05 79.51 46.99 50.61"/>
            <polygon class="cls-11" points="112.4 78.12 112.4 82.11 65.41 109.24 65.41 105.25 112.4 78.12"/>
            <polygon class="cls-8" points="0 71.48 0 67.49 65.41 105.25 65.41 109.24 0 71.48"/>
          </g>
          <polygon class="cls-8" points="46.99 47.83 46.99 50.61 97.05 79.51 99.45 78.12 46.99 47.83"/>
          <path class="cls-14" d="m13.24,67.31l-6.47-3.74-.29.17,6.48,3.74.29-.17Zm-.29.18l-6.48,3.74.29.17,6.47-3.74-.29-.17Zm7.04-4.07l-6.47-3.74-.29.17,6.47,3.74.29-.17Zm.41,8.37l-6.47,3.74.29.17,6.48-3.74-.29-.17Zm6.34-12.27l-6.47-3.74-.29.17,6.47,3.74.29-.17Zm1.11,16.57l-6.47,3.74.29.17,6.47-3.74-.29-.17Zm5.64-20.46l-6.48-3.74-.29.17,6.47,3.74.29-.17Zm1.81,24.77l-6.47,3.74.29.17,6.48-3.74-.29-.17Zm4.94-28.66l-6.48-3.74-.29.17,6.48,3.74.29-.17Zm2.51,32.97l-6.47,3.74.29.17,6.47-3.74-.29-.16Zm3.94-36.7l.29-.17-6.47-3.74-.29.17,6.47,3.74Zm3.5,40.99l-6.47,3.74.29.17,6.47-3.74-.29-.17Zm-2.92-40.99l6.48-3.74-.29-.17-6.47,3.74.29.17Zm10.37,45.3l-6.47,3.74.29.17,6.48-3.74-.29-.17Zm-2.92-40.99l6.48-3.74-.3-.17-6.47,3.74.29.17Zm10.37,45.3l-6.48,3.74.3.17,6.47-3.74-.29-.17Zm-2.92-40.99l6.47-3.74-.29-.17-6.48,3.74.29.17Zm3.51,40.99l-.29.17,6.47,3.74.29-.17-6.47-3.74Zm3.94-36.69l6.47-3.74-.29-.17-6.47,3.74.29.17Zm2.52,32.97l6.48,3.74.29-.17-6.47-3.74-.3.17Zm4.93-28.67l6.47-3.74-.29-.17-6.47,3.74.29.17Zm1.83,24.77l6.47,3.74.29-.17-6.47-3.74-.29.17Zm5.63-20.47l6.47-3.74-.29-.17-6.47,3.74.29.17Zm1.12,16.57l6.47,3.74.29-.17-6.47-3.74-.29.17Zm6.33-12.27l6.47-3.74-.29-.17-6.47,3.74.29.17Zm.42,8.37l6.47,3.74.29-.17-6.47-3.74-.29.17Zm7.03-4.07l6.47-3.74-.29-.17-6.47,3.74.29.17Zm-.28.17l6.47,3.74.29-.17-6.47-3.74-.29.17Z"/>
          <polygon class="cls-1" points="99.15 78.28 92.69 82.01 92.7 82.02 99.16 78.29 99.15 78.28"/>
          <polygon class="cls-1" points="92.4 82.18 85.94 85.91 85.95 85.91 92.41 82.18 92.4 82.18"/>
          <polygon class="cls-1" points="85.65 86.08 79.19 89.8 79.2 89.81 85.66 86.08 85.65 86.08"/>
          <polygon class="cls-1" points="78.9 89.97 72.44 93.7 72.45 93.7 78.91 89.98 78.9 89.97"/>
          <polygon class="cls-1" points="72.15 93.87 65.69 97.6 65.7 97.6 72.16 93.87 72.15 93.87"/>
          <polygon class="cls-1" points="65.4 97.77 65.4 97.77 65.41 97.77 65.4 97.77"/>
          <rect class="cls-1" x="61.53" y="91.4" width="0" height="8.27" transform="translate(-49.53 71.49) rotate(-45)"/>
          <rect class="cls-1" x="54.07" y="87.1" width="0" height="8.27" transform="translate(-48.52 64.37) rotate(-44.67)"/>
          <polygon class="cls-1" points="43.05 84.86 43.04 84.86 50.2 88.99 43.05 84.86"/>
          <polygon class="cls-1" points="40.25 51.73 46.7 48 46.7 48 40.25 51.73"/>
          <rect class="cls-1" x="39.18" y="78.5" width="0" height="8.27" transform="translate(-46.95 51.91) rotate(-45)"/>
          <polygon class="cls-1" points="26.75 59.53 33.2 55.79 26.74 59.52 26.75 59.53"/>
          <rect class="cls-1" x="24.27" y="69.89" width="0" height="8.27" transform="translate(-45.23 38.85) rotate(-45)"/>
          <polygon class="cls-1" points="20 63.42 26.45 59.69 19.99 63.42 20 63.42"/>
          <polygon class="cls-1" points="19.7 63.59 13.24 67.31 13.25 67.32 19.7 63.59"/>
          <polygon class="cls-1" points="13.25 67.65 13.24 67.66 20.4 71.79 13.25 67.65"/>
          <rect class="cls-1" x="12.95" y="67.48" width="0" height="0" transform="translate(-44.15 29.26) rotate(-45.33)"/>
          <g>
            <g>
              <path class="cls-7" d="m46.2,60.05c0,.28.19.39.43.25s.43-.47.43-.75-.19-.39-.43-.25-.43.47-.43.75Z"/>
              <path class="cls-12" d="m43.8,47.62c.26.15.69.15.96,0,.26-.15.27-.4,0-.55-.26-.15-.69-.15-.96,0-.26.15-.27.4,0,.55Z"/>
              <polygon class="cls-3" points="44.34 47.46 47.07 47.46 47.07 46.72 44.37 46.72 44.34 47.46"/>
              <polygon class="cls-3" points="43.75 49.71 42.46 50.45 39.16 50.45 39.26 49.71 43.75 49.71"/>
              <path class="cls-14" d="m43.86,43.43l.05,3.82c0,.05.04.11.11.15.14.08.38.08.52,0,.07-.04.11-.09.11-.15,0,0,0,0,0,0l-.04-3.82c0-.15.1-.23.14-.25.04-.03.16-.08.29,0,.06.03.1.08.13.15l2.18,5.52c.36.9.53,1.85.53,2.81v8.27s-.02.07-.05.08c-.02.01-.05.02-.09,0l-.83-.45s-.02-.01-.03-.02c-.05-.02-.11-.01-.17.03-.14.08-.26.29-.26.45,0,.07.02.13.06.16,0,0,.02.01.03.02l.85.46c.13.07.26.1.4.1.15,0,.29-.04.43-.12.25-.15.41-.42.41-.72v-8.27c0-1.06-.2-2.1-.59-3.09l-2.18-5.52c-.09-.22-.25-.4-.45-.52-.32-.18-.71-.18-1.03,0-.32.19-.51.53-.51.9Z"/>
              <g>
                <path class="cls-12" d="m44.03,42.85s.07-.05.1-.07c.32-.19.7-.19,1.02,0,.21.11.37.3.45.51l2.18,5.52c.39.99.59,2.03.59,3.09v8.27c0,.16-.05.3-.12.43.03-.02.05-.04.08-.06.1-.09.18-.21.23-.34,0-.03.02-.05.02-.08.02-.07.03-.13.03-.2v-8.26c0-1.06-.2-2.1-.58-3.09l-2.18-5.53c-.09-.22-.25-.4-.45-.51-.32-.18-.71-.18-1.03.01-.14.08-.25.19-.33.31Z"/>
                <path class="cls-26" d="m46.43,60.01c0,.08.02.13.06.16.01,0,.02.01.03.02l.85.46c.13.07.26.1.4.1.15,0,.29-.04.43-.12.02-.01.04-.03.06-.04.08-.13.12-.27.12-.43v-5.47c-.13.03-.3.02-.4-.05-.05-.03-.09-.07-.11-.11v5.38s-.03.07-.05.08c-.02.02-.06.02-.09,0l-.84-.45s-.02-.01-.03-.02c-.05-.02-.11-.01-.17.03-.15.09-.26.29-.26.45Z"/>
                <path class="cls-1" d="m48.26,60.59s.05-.04.08-.06c.1-.09.18-.21.23-.34,0-.03.02-.05.02-.08.02-.07.03-.13.03-.2v-5.43c0,.06-.04.12-.11.16-.04.02-.08.04-.12.05v5.47c0,.16-.05.3-.12.43Z"/>
                <path class="cls-8" d="m44.36,43.67c0-.15.1-.23.14-.25.02-.01.05-.03.1-.04,0,.01,0,.03,0,.04l.04,3.82s0,0,0,0c0,.05-.04.11-.11.15-.04.02-.08.04-.12.05l-.04-3.77Z"/>
                <path class="cls-1" d="m46.69,59.56c.07-.04.13-.05.17-.03.01,0,.02.01.03.02l.74.4v.21s-.02.07-.05.08c-.02.01-.05.02-.09,0l-.83-.45s-.02-.01-.03-.02c-.04-.02-.09-.01-.15.01.05-.1.12-.19.2-.23Z"/>
              </g>
            </g>
            <g>
              <path class="cls-11" d="m42.96,55.07l.29.47,4.98-2.88.03-.02s.04-.06.04-.11c0-.12-.09-.27-.2-.34-.05-.03-.1-.03-.13-.02,0,0-.01,0-.02.01l-4.99,2.88Z"/>
              <path class="cls-4" d="m48.25,52.66c-.04-.07-.09-.13-.15-.16-.05-.03-.1-.03-.13-.02,0,0-.01,0-.02.01l-4.86,2.8-.13-.22,4.99-2.88s.01,0,.02-.01c.03-.01.08-.01.13.02.11.06.2.21.2.34,0,.05-.01.09-.04.11h-.01Z"/>
            </g>
            <g>
              <path class="cls-7" d="m42.96,58.1l.29.47,4.98-2.88.03-.02s.04-.06.04-.11c0-.12-.09-.27-.2-.34-.05-.03-.1-.03-.13-.02,0,0-.01,0-.02.01l-4.99,2.88Z"/>
              <path class="cls-22" d="m48.25,55.69c-.04-.07-.09-.12-.15-.16-.05-.03-.1-.03-.13-.02,0,0-.01,0-.02.01l-4.86,2.8-.13-.22,4.99-2.88s.01,0,.02-.01c.03-.01.08-.01.13.02.11.06.2.21.2.34,0,.05-.01.09-.04.11h-.01Z"/>
            </g>
            <g>
              <path class="cls-7" d="m42.96,61.09l.29.47,4.98-2.88.03-.02s.04-.06.04-.11c0-.12-.09-.27-.2-.34-.05-.03-.1-.03-.13-.02,0,0-.01,0-.02.01l-4.99,2.88Z"/>
              <path class="cls-22" d="m48.25,58.67c-.04-.07-.09-.13-.15-.16-.05-.03-.1-.03-.13-.02,0,0-.01,0-.02.01l-4.86,2.8-.13-.22,4.99-2.88s.01,0,.02-.01c.03-.01.08-.01.13.02.11.06.2.21.2.34,0,.05-.01.09-.04.11h-.01Z"/>
            </g>
            <g>
              <path class="cls-7" d="m41.06,63.03c0,.28.19.39.43.25s.43-.47.43-.75-.19-.39-.43-.25c-.24.14-.43.47-.43.75Z"/>
              <path class="cls-12" d="m38.66,50.6c.26.15.69.15.96,0,.26-.15.27-.4,0-.55-.26-.15-.69-.15-.96,0-.26.15-.27.4,0,.55Z"/>
              <path class="cls-14" d="m38.71,46.41l.05,3.82c0,.06.04.11.11.15.15.08.38.08.52,0,.07-.04.11-.1.11-.15h0s-.05-3.82-.05-3.82c0-.15.1-.23.14-.25.05-.03.16-.08.29,0,.06.03.1.09.13.15l2.18,5.52c.35.9.53,1.85.53,2.81v8.27s-.03.07-.05.08c-.02.01-.06.02-.1,0l-.83-.45s-.02-.01-.03-.02c-.05-.02-.11-.02-.17.03-.15.09-.26.29-.26.45,0,.08.02.13.06.16.01,0,.02.01.03.02l.85.46c.13.07.26.1.4.1.15,0,.29-.04.43-.12.25-.15.4-.42.4-.72v-8.27c0-1.06-.2-2.1-.58-3.09l-2.18-5.52c-.09-.22-.25-.4-.45-.51-.32-.19-.71-.18-1.03,0-.32.19-.51.53-.5.9Z"/>
              <g>
                <path class="cls-12" d="m38.88,45.83s.07-.05.1-.07c.32-.19.71-.19,1.03-.01.21.12.37.3.45.52l2.18,5.52c.39.99.58,2.03.58,3.09v8.27c0,.16-.04.3-.12.43.03-.02.05-.04.08-.06.1-.09.18-.21.23-.34.02-.06.03-.11.04-.17,0-.04,0-.08,0-.11v-8.27c0-1.06-.2-2.1-.58-3.09l-2.18-5.52c-.09-.22-.25-.4-.45-.51-.32-.19-.71-.18-1.03,0-.14.08-.25.19-.33.32Z"/>
                <path class="cls-7" d="m41.29,62.99c0,.08.02.13.06.16.01,0,.02.01.03.02l.85.46c.13.07.26.1.4.1.15,0,.29-.04.43-.12.02-.01.04-.03.06-.04.08-.13.12-.27.12-.43v-5.67c-.14.03-.29.02-.4-.05-.07-.04-.11-.1-.11-.15v5.62s-.03.07-.05.08c-.02.01-.06.02-.1,0l-.83-.45s-.02-.01-.03-.02c-.05-.02-.11-.02-.17.03-.15.09-.26.29-.26.45Z"/>
                <path class="cls-1" d="m43.11,63.57s.05-.04.08-.06c.1-.09.18-.21.23-.34.02-.06.03-.11.04-.17,0-.04,0-.08,0-.11v-5.59h0s-.05.09-.1.12c-.04.03-.08.04-.13.05v5.67c0,.16-.04.3-.12.43Z"/>
                <path class="cls-8" d="m39.22,46.65c0-.15.1-.23.14-.25.02-.01.05-.03.1-.04,0,.01,0,.03,0,.04l.04,3.82s0,0,0,0c0,.05-.04.11-.11.15-.04.02-.08.04-.12.05l-.04-3.77Z"/>
                <path class="cls-1" d="m41.55,62.54c.07-.04.13-.05.17-.03.01,0,.02.01.03.02l.74.4v.21s-.02.07-.05.08c-.02.01-.05.02-.09,0l-.83-.45s-.02-.01-.03-.02c-.04-.02-.09-.01-.15.01.05-.1.12-.19.2-.23Z"/>
              </g>
            </g>
          </g>
          <path class="cls-2" d="m21.08,69.28c-.06.44.06.88.11,1.32.28.14.56.28.85.42-.04-.26-.09-.52-.14-.77-.04-.2-.11-.45-.04-.65.12-.32.42-.57.76-.78,1.49.81,3.43,1.56,4.36,3.04-.1-.18-.22-.36-.35-.54-.98-1.32-2.59-2.01-4-2.77-.08-.04-.16-.09-.24-.13.21-.12.41-.21.59-.3,1.43-.68,3-1.18,4.58-1.34.86-.09,1.75-.06,2.62-.12.27.17.53.32.8.47,1.01.56,2.05,1.04,3.12,1.46-.36.3-.7.62-1,.97-.87.33-1.74.67-2.62,1.01-1.15.45-2.27.96-3.4,1.45.03.04.05.09.08.13,1.91-.88,3.84-1.67,5.8-2.41-.01.02-.03.03-.04.05-.69.92-.91,2-.92,3.12-1.14-.11-2.36.25-2.83,1.4-.17.42-.26.87-.29,1.32-.08-.09-.15-.19-.22-.29-.63-.89-.93-1.95-1.39-2.93-.06.03-.12.05-.18.08.49,1.05.83,2.16,1.55,3.11.07.1.15.19.23.28,0,.19,0,.38,0,.57.08.02.15.05.22.09,0-.14,0-.29,0-.43.81.81,1.88,1.34,2.93,1.79.2.09.41.17.61.26.02.18.03.36.04.55.07,0,.14.03.21.06-.01-.17-.02-.34-.04-.52.93.42,1.82.88,2.71,1.41.6.36,1.22.73,1.81,1.12-.05,0-.09.02-.14.03.08.05.17.11.25.16.05,0,.09-.02.14-.03.39.27.77.55,1.12.87.29.26.61.56.77.93.07.08.14.15.2.23-.08-.36-.27-.71-.58-1.01-.4-.39-.85-.74-1.31-1.06.88-.17,1.77-.32,2.62-.59.03.04.05.07.08.11-1.15.75-.21,2.48.6,3.14.55.45,1.21.71,1.91.88-.03.11-.07.23-.09.34.1-.01.21-.02.31-.01.02-.09.05-.18.07-.26.74.16,1.5.24,2.2.35,1.66.26,4.09.78,4.08,2.91,0,.04,0,.08,0,.11.05.08.09.16.13.24,0,0,0,0,0,0,.07-1.14-.36-2.18-1.62-2.77-1.49-.69-3.15-.69-4.73-1.05.19-.58.45-1.12.76-1.57.64-.93,1.47-1.75,2.52-2.21.94-.41,1.9-.39,2.88-.47-.12,1.14,0,2.28.91,3.11.45.42.97.73,1.51,1-.03.18-.05.37-.06.56-.06,1.19.4,2.4,1.11,3.34.33.43.67.81,1.04,1.17.07.7.16,1.39.24,2.09.1.05.19.1.29.15-.07-.65-.16-1.3-.23-1.95.55.52,1.14.99,1.75,1.47,1.05.82,2.14,1.58,3.2,2.39.23.18.45.34.68.51-.16.15-.32.29-.49.43.14.09.28.18.42.27.15-.14.31-.29.46-.44.36.24.73.46,1.12.66-.26.09-.53.16-.8.21.13.07.27.14.4.2.26-.06.52-.14.76-.24,1.29.64,3.32,1.57,4.67.78.03.69.1,1.38.21,2.06.08-.08.16-.16.25-.24-.1-.67-.16-1.34-.18-2.02.08-.07.15-.14.23-.22.31-.35.52-.79.59-1.25.06-.36.84-.76,1.13-.95.32-.21.64-.4.98-.57.59-.3,1.2-.59,1.82-.87.57.49,1.04,1.08,1.35,1.77.05-.02.09-.05.14-.07-.21-.5-.51-.96-.9-1.39-.13-.14-.26-.27-.4-.39.87-.39,1.76-.76,2.64-1.09.02,0,.03-.01.05-.02.63.46,1.18.94,1.44,1.57.12-.05.24-.11.36-.16-.16-.59-.56-1.11-1.13-1.56-.02-.02-.04-.03-.06-.05.95-.27,1.92-.38,2.91-.39-.21.47-.39.95-.52,1.42.07-.03.14-.07.2-.11.14-.45.32-.89.53-1.32.18,0,.37,0,.55.01.39.01.82.02,1.26.05.21-.11.41-.22.62-.32-.17-.04-.33-.07-.5-.09-.56-.09-1.12-.14-1.69-.15.16-.3.31-.59.47-.88.07-.14.15-.28.22-.41.25.1.5.22.73.37.41.27.79.61,1.17.96.1-.05.19-.1.29-.15-.51-.47-1.02-.94-1.63-1.29-.12-.07-.25-.13-.38-.2.16-.3.33-.59.5-.88.62.05,1.24.04,1.85-.06,1.47-.25,3.15-1.05,3.95-2.36.1.39.15.8.13,1.23,0,.26-.04.52-.08.78.05-.03.09-.07.14-.1.1-.71.09-1.42-.09-2.11.18-.36.31-.75.34-1.18.17-2.14-1-4.18-.82-6.32,1.81,1.1,3.49,2.48,4.62,4.14-.17.23-.36.44-.52.66-.4.54-.77,1.1-1.13,1.67-.47.76-.97,1.63-1.38,2.54.19-.1.37-.2.56-.29.41-.95.92-1.87,1.5-2.74.36-.54.75-1.05,1.15-1.56.24.38.46.78.63,1.19-.11.57-.17,1.15-.19,1.73.04-.03.08-.05.11-.08,0-.03,0-.07,0-.1.02-.46.08-.9.16-1.33.14.35.25.71.34,1.07.04-.03.09-.06.13-.1-.11-.43-.25-.84-.42-1.24.24-1.05.66-2.02,1.22-2.93v-.27c-.09.13-.17.25-.25.38-.51.83-.85,1.71-1.06,2.62-.17-.37-.37-.72-.59-1.07.17-.22.35-.45.44-.71.29-.85.02-1.8-.35-2.57-.05-.11-.11-.23-.18-.35h-.56c.23.43.46.86.56,1.33.11.49.33,1.1.13,1.6-.06.15-.14.29-.23.42-1.16-1.7-2.87-3.12-4.69-4.21.01-.11.03-.22.05-.33.1-.5.26-.94.48-1.34-.07,0-.13-.02-.2-.03-.04.09-.09.17-.12.27-.19.44-.29.89-.35,1.34-.26-.15-.52-.3-.78-.44-.5-.27-1-.51-1.52-.75.06-.6.07-1.19.08-1.8-.19-.13-.35-.28-.49-.44,0,.68.02,1.36-.04,2.04-1.87-.81-3.81-1.42-5.77-1.96,0-.77.08-1.55.22-2.31-.04-.02-.08-.03-.11-.05-.07.4-.13.8-.17,1.2-.03.37-.05.74-.06,1.12-.94-.26-1.88-.5-2.83-.74-.17-.96-.49-2.39-.39-3.43.08,0,.16,0,.24,0-.15-.12-.3-.24-.44-.37-.05.08-.1.16-.15.24-.49.1-.93.34-1.31.72-.17.17-.33.36-.48.56-.16.06-.31.11-.46.14-.07.02-.04.12.03.1.11-.02.22-.05.33-.09-.27.39-.49.81-.68,1.25-.1-.03-.21-.06-.31-.09-.66-.19-1.32-.38-1.99-.6-.18-.58-.29-1.17-.27-1.79.03-1.03.32-2.01.87-2.85-.02,0-.03,0-.05,0-.05-.01-.1-.03-.15-.05-.32.49-.57,1.05-.71,1.71-.22,1.01-.14,1.98.12,2.92-.44-.14-.88-.29-1.32-.45-.01-.19-.03-.39-.05-.58-.14-1.14-.57-2.25-1.17-3.23-.08-.13-.16-.26-.25-.38.4-.56.85-1.04,1.36-1.49-.05-.03-.1-.06-.15-.09-.49.42-.94.88-1.33,1.4-.89-1.3-1.99-2.43-3.08-3.56-.13-.05-.27-.09-.4-.14.06.06.12.13.19.19,1.12,1.16,2.27,2.34,3.16,3.7-.26.37-.49.77-.69,1.22-.24.56-.43,1.15-.52,1.75-1.23-.58-2.4-1.25-3.49-2.05-.71-1.56-1.14-3.17.36-4.54.17-.16.36-.31.54-.45-.05-.02-.11-.04-.16-.07-1.02.85-1.81,1.86-1.51,3.35.1.5.31,1.01.56,1.54-1.31-.99-2.48-2.16-3.43-3.58-.39-.57-.73-1.17-1.04-1.79.07-.1.16-.2.28-.29.17-.14-.05-.4-.23-.3-.09.06-.17.12-.25.18-.27-.57-.5-1.16-.7-1.76-.19-.57-.36-1.14-.52-1.71.14-.1.28-.18.43-.27-.07-.03-.13-.07-.2-.1-.1.06-.19.12-.29.18-.04-.13-.07-.26-.11-.39-.1-.05-.2-.1-.29-.15.07.23.14.46.21.68-.81.59-1.5,1.34-2.02,2.27-.54.99-.89,2.03-1.07,3.1-.44-.27-.9-.52-1.35-.76.31-.56.63-1.12.95-1.67.39-.67.8-1.35,1.12-2.06.15-.33.32-.72.21-1.09-.14-.48-.53-.8-.93-1.07-.27-.19-.57-.39-.88-.55.26-.18.5-.37.71-.59-.04-.02-.08-.05-.12-.07-.03.03-.05.05-.08.08-.21.19-.43.36-.66.52-.25-.11-.51-.18-.78-.18-.64,0-1.19.27-1.79.45-.85.25-1.68.23-2.53-.03-.3-.09-.59-.2-.87-.31.81-1.23,1.87-2.15,3.09-2.83-.09-.06-.17-.11-.26-.17-.41.24-.8.51-1.18.81-.73.58-1.38,1.3-1.91,2.09-.49-.21-.95-.45-1.4-.73-.12.09-.24.18-.36.27-.02.01-.03.02-.05.04.45.28.92.52,1.41.73.05.02.11.04.16.07-.58.98-.97,2.07-1.09,3.2,0,.01,0,.02,0,.03-1.29-.44-2.6-.84-3.92-1.23-.04.04-.08.07-.12.11,1.35.4,2.69.82,4.02,1.28-.05.74.06,1.42.27,2.05-.28-.05-.56-.07-.84-.04-1.47.14-2.7,1.2-3.3,2.52-.1.23-.2.47-.29.71-.78-.22-1.56-.44-2.34-.69.5-1.14.47-2.43.73-3.64.08-.37.19-.73.33-1.08-.15.1-.31.2-.46.3-.25.93-.29,1.91-.44,2.87-.08.49-.18,1-.39,1.46-1.59-.5-3.16-1.06-4.7-1.68-.06.04-.11.08-.17.12,1.55.67,3.15,1.25,4.77,1.77-.09.16-.19.31-.32.45-.57.64-1.4,1.13-2.22,1.38-.84.26-1.74.32-2.64.36-.36-.25-.7-.52-1.01-.82-.47-.43-.82-.94-1.13-1.49-.08.05-.16.1-.24.15.16.29.34.58.54.84.38.51.87.94,1.4,1.33-.52.02-1.04.05-1.55.11-1.48.19-2.94.6-4.32,1.14-.51.2-1.02.41-1.49.69-.12.11-.25.23-.37.35-.22.2-.44.4-.67.6-.02.05-.03.1-.04.15Zm16.83-4.45c.8.22,1.6.42,2.4.61.87.21,1.74.41,2.56.76-.27.08-.53.15-.8.23-2.3.7-4.56,1.49-6.81,2.32-.24-.09-.48-.17-.72-.26.31-.26.64-.51.97-.76.95-.73,1.75-1.37,2.22-2.5.05-.13.11-.26.17-.4Zm12.02,13.21c-.07-.7-.45-1.31-.86-1.87-1.28-1.78-2.92-3.13-4.79-4.15.06-.35.19-.68.44-1.02.54-.73,1.4-1.68,1.41-2.67.2.12.41.22.62.31-.04.68-.02,1.36.06,2.01.15,1.12.53,2.28,1.53,2.92.62.4,1.28.51,2,.61.78.1,1.5.35,2.17.74.09.48.15.97.16,1.46.04,1.61-.56,3.05-2.31,3.33-.18.03-.36.05-.55.07.09-.58.18-1.15.12-1.75Zm-5.81-13.85c-.56-.8-1.16-1.62-1.52-2.54,1.01.28,1.96.93,2.82,1.51.55.37,1.54,1.26,2.33,1.17-.09.22-.18.44-.26.66-.81.22-1.62.42-2.43.63-.3-.49-.62-.97-.95-1.43Zm1.24,2.6c.15.33.32.68.41,1.04-.21-.14-.41-.29-.61-.44-.55-.42-1.1-.82-1.7-1.15.47-.13.94-.25,1.42-.37.18.3.34.61.48.93Zm2.05-1.59c-.12.34-.22.69-.31,1.04-.17.68-.29,1.41-.34,2.15-.23-.1-.45-.22-.67-.35,0-.03-.01-.06-.02-.1-.18-.75-.52-1.47-.91-2.15.75-.19,1.5-.38,2.25-.59Zm-.17,3.61c.19.06.39.1.6.14.98.16,2.03-.15,3.01-.17.23,1.08.54,2.14.87,3.21.26.85.54,1.72.73,2.6-.18-.11-.37-.2-.57-.29-.74-.33-1.57-.37-2.33-.65-1.49-.55-2.15-1.78-2.26-3.32-.04-.49-.05-1-.04-1.51Zm-3.21,3.08c-.62-.32-1.26-.61-1.92-.86-2.18-.84-4.46-1.43-6.66-2.21.69-.25,1.38-.49,2.07-.72,1.8-.61,3.61-1.23,5.44-1.74.05-.01.11-.03.16-.04.13.06.26.13.39.21.75.43,1.38.99,2.09,1.48.08.05.15.1.23.15.04.3,0,.6-.15.89-.33.65-.76,1.24-1.18,1.83-.23.32-.41.62-.48,1.01Zm-1.7-10.3c.43,1.15,1.18,2.19,1.91,3.28.18.27.36.55.53.83-.52.13-1.04.27-1.56.41-.11-.06-.23-.11-.34-.16-.8-.35-1.66-.52-2.51-.73-.79-.19-1.58-.39-2.37-.61.56-1.29,1.24-2.53,2.71-2.97.55-.16,1.1-.16,1.62-.05Zm-.08-2.17c2.02.71,4,1.51,5.91,2.48.01.03.03.05.04.08.11.22.19.55.22.88-.22.43-.42.86-.61,1.3-.13.02-.29,0-.48-.05-.72-.24-1.33-.74-1.95-1.15-.84-.55-1.83-1.26-2.87-1.52-.08-.22-.14-.45-.18-.69-.08-.44-.1-.88-.07-1.32Zm6.15,2.62s0-.02-.01-.02c.06.03.11.06.17.08.07.04.13.07.2.11-.06.12-.12.23-.18.35-.04-.19-.1-.37-.17-.52Zm.88-6.13c-.43.26-.9.47-1.37.66-.67.26-1.45.37-2.09.7-.29.15-.47.39-.39.73.36,1.54,1.75,2.36,2.56,3.61-.77-.38-1.55-.73-2.33-1.05-1.12-.47-2.25-.9-3.4-1.3.1-1.08.48-2.16,1-3.09.03-.04.05-.09.08-.13,1.24.46,2.6.61,3.86.17.67-.24,1.37-.54,2.08-.3Zm-.12,5.56c-.11.19-.21.38-.32.57-.21-.11-.41-.21-.62-.31-.66-1.06-1.71-1.82-2.31-2.94-.29-.55-.62-1.18.14-1.46.57-.21,1.16-.33,1.73-.56.57-.22,1.14-.47,1.66-.8.59.26,1.77.87,1.77,1.59,0,.62-.49,1.24-.79,1.75-.43.71-.86,1.43-1.26,2.15Zm1.38,1.74c-.04.28-.07.57-.1.86-.5.18-1,.35-1.5.5-.32.1-.65.2-.98.29.11-.3.24-.59.37-.88.1-.13.17-.29.21-.46.18-.38.38-.75.58-1.12.47.26.94.52,1.41.8Zm.07,4.39c.05.32.11.64.18.95-1.08.03-2.24.36-3.3.09-.08-.02-.17-.05-.25-.07.04-1.02.18-2.05.48-3,.05-.17.11-.34.18-.51.86-.25,1.71-.52,2.53-.84-.08,1.12,0,2.25.18,3.38Zm.04-3.47c.28-.11.55-.22.82-.34.94.61,1.84,1.29,2.65,2.05-.51.3-1.43.66-1.54,1.26-.16.84.89,1.68,1.46,2.1,1.08.81,2.33,1.08,3.58,1.44.06.12.12.24.18.35.44.92.88,1.87,1.25,2.84-.47.2-.97.37-1.48.58-1.05.44-1.9,1.2-1.78,2.43,0,.04.01.09.02.13-.7-.35-1.31-.86-1.94-1.37-.37-.3-.75-.59-1.14-.84-.36-1.86-1.15-3.67-1.56-5.49-.36-1.63-.61-3.41-.51-5.14Zm5.51,13c0-1.3,1.26-2.07,2.32-2.62.22-.12.45-.24.68-.37.23.63.44,1.27.6,1.91.25,1.03.42,2.07.57,3.11-.98-.08-1.93.02-2.8.42-.48-.45-.91-.95-1.16-1.51.17-.18.34-.36.49-.53.06-.07.04-.19-.06-.21-.23-.05-.44-.11-.65-.19Zm.38.38c-.09.09-.18.19-.27.28-.03-.09-.05-.19-.07-.29,0-.04-.01-.07-.02-.11.12.04.24.08.36.12Zm23.12,3.59c-.12.16-.23.33-.35.49-.59.81-1.22,1.62-1.73,2.47-.38.63-.7,1.3-1.11,1.9-1.56-.53-3.07-1.22-4.55-1.97.48-.58.88-1.22,1.04-1.93.02-.09.04-.19.05-.28.6.61,1.39.96,2.24,1.06.03,0,.07-.03.08-.06.37-1.71-.92-3.11-1.3-4.69-.19-.76-.27-1.56-.33-2.35.48.19.96.41,1.44.63.61.28,1.22.58,1.83.89.2.59.45,1.15.78,1.66.52.82,1.26,1.46,1.93,2.16Zm-2.5-3.71c.93.48,1.85.99,2.75,1.54.28.17.56.34.84.51-.33.55-.69,1.08-1.06,1.61-1.05-1.12-2.02-2.2-2.53-3.66Zm-6.91-2.42s.07,0,.1,0c1.12.04,2.14.33,3.15.72.08,1.15.25,2.29.68,3.32.38.92.97,1.86,1.04,2.87.02.3.17.88-.37.75-.26-.06-.52-.14-.76-.26-.41-.21-.77-.46-1.07-.79.26-2.4-1.39-4.64-2.78-6.62Zm1.46,8.93c-1.83-.92-3.63-1.92-5.47-2.77-.08-.04-.17-.08-.26-.12.02-.04.04-.09.06-.13.56-1.13,1.33-2.12,1.98-3.19.1-.17.21-.35.31-.53.35-.45.65-.94.87-1.5.09-.22.16-.45.24-.68.17,0,.34,0,.51,0,.29.43.59.84.87,1.25.94,1.37,1.98,3.01,2.03,4.73,0,.16,0,.31-.02.46-.05,0-.1.08-.05.14.01.01.02.03.03.04-.12.88-.55,1.64-1.1,2.32Zm-2.21-9.1c.04-.12.07-.23.1-.35.08.12.16.24.24.36-.11,0-.23,0-.34,0Zm-6.58,1c-.03,1.51.7,2.92,1.11,4.35-1.1-.44-2.28-.82-3.44-.96-.27-1.67-.56-3.34-1.17-4.93-.03-.07-.06-.14-.08-.22.65-.39,1.27-.86,1.66-1.51.18.18.36.36.54.56.56.61,1.08,1.27,1.54,1.96-.09.22-.14.46-.14.74Zm-3.71-2.03c-.41-1.02-.84-2.05-1.34-3.04.07.02.14.04.2.06,1.09.34,1.97.9,2.77,1.64-.42.67-1,1.05-1.64,1.34Zm1.54,7.97c.06.28.12.55.19.82-.11-.13-.23-.26-.35-.38-.58-.6-1.22-1.09-1.87-1.6-.3-.24-.63-.49-.95-.77.64-.27,1.35-.41,2.14-.37.15,0,.31.02.46.03.11.76.23,1.52.38,2.27Zm2.47-6.37s.01-.03.02-.05c.32.5.61,1.01.87,1.54.31.64.59,1.3.76,2,.03.11.08.53.15.78-.12.1-.24.19-.36.29-.12.1.01.27.14.24.14-.03.28-.06.43-.1.05-.01.11-.07.1-.13,0-.04-.01-.09-.02-.13.72-.53,1.45-1.06,2.1-1.65-.62.87-1.34,1.72-1.8,2.68-.44-.2-.91-.41-1.4-.61-.28-1.55-1.38-3.26-.98-4.85Zm.12-.33c.32-.65,1-.98,1.67-1.3.38.38.82.68,1.33.87.74.27,1.5.34,2.27.35.06.32.06.65-.04,1-.07.22-.15.43-.25.64-.29.45-.63.87-1.04,1.26-.64.59-1.35,1.08-2.04,1.6-.29-1.57-1-3.08-1.9-4.42Zm4.91-1.71c-.17-.46-.14-.84,0-1.19.31.68.7,1.34,1.12,1.98-.07.23-.14.45-.22.67-.11,0-.22,0-.33,0-.14-.51-.4-.96-.58-1.46Zm.62,1.63c.08,0,.15,0,.23,0-.06.18-.13.35-.2.52.01-.17,0-.35-.03-.52Zm2.69,9.09c-.27.31-.57.61-.88.9-.28.26-.58.51-.87.77-.23-.16-.47-.31-.72-.42-1.42-.65-3.03.13-4.51-.21.46-1.28.74-2.62,1.3-3.87,1.72.79,3.4,1.68,5.09,2.54.2.1.4.2.6.3Zm-1.93,1.83c-.62.55-1.22,1.13-1.69,1.81-.43.62-.71,1.3-.91,2-.18-.02-.35-.04-.53-.05-.72-.06-1.46,0-2.19,0-.34-1.69-.97-3.32-1.82-4.82-.35-.63-.74-1.23-1.18-1.8-.31-1.16-.5-2.35-.69-3.54,1.59.19,3.14.79,4.59,1.43.09.04.18.08.27.12-.59,1.28-1.28,2.7-1.21,4.13,0,.06.04.11.1.13.75.17,1.48.15,2.25.07.76-.08,1.65-.24,2.36.12.23.11.44.24.65.39Zm-6.08,2.46c-.48-1.14-1.08-2.23-1.48-3.12-.18-.41-.34-.83-.48-1.25.86,1.33,1.51,2.84,1.96,4.37Zm.16,1.29c-.35-.01-.7-.04-1.04-.11-1.24-.23-2.27-.93-3.26-1.67-1.22-.91-2.47-1.8-3.85-2.45-.39-.18-.79-.34-1.19-.5.14-.77.37-1.53.7-2.27.56-1.24,1.4-2.2,2.49-2.74.84.76,1.83,1.42,2.59,2.21.35.37.68.77.99,1.19.28.95.64,1.88,1.08,2.79.55,1.15,1.13,2.31,1.5,3.54Zm-7.8-19.76c-.84-.3-1.58-.72-2.22-1.35-.28-.27-.99-.87-.83-1.34.12-.36.59-.55.9-.72.21-.11.42-.23.63-.36,1.25,1.24,2.25,2.69,3.07,4.24-.52-.14-1.04-.28-1.55-.47Zm-5.19-6.56c.21.13.42.26.62.39-.23.1-.46.19-.69.28.02-.22.04-.44.06-.66Zm4.24-2c-.07.08-.13.16-.17.25-.93.88-2.06,1.53-3.24,2.05-.26-.17-.53-.34-.8-.51.24-1.63.84-3.18,2.02-4.45.29-.32.61-.6.95-.84.36,1.19.73,2.37,1.24,3.5Zm.26,3.05c0,.61-.46,1.04-.94,1.37-.8-.75-1.68-1.43-2.6-2.04,1.04-.47,2.04-1.03,2.98-1.7-.04.33.03.68.18,1.06.16.41.39.86.38,1.31Zm5.77,7.8c-.43-.41-.89-.78-1.39-1.05-.6-.32-1.24-.52-1.88-.71-.82-1.59-1.82-3.09-3.1-4.36-.02-.02-.04-.04-.06-.06.1-.07.2-.14.3-.21.66-.5,1.11-1.23.82-2.07-.23-.69-.67-1.29-.47-1.89.14.28.29.55.45.81,1.14,1.91,2.65,3.45,4.37,4.7.8,1.59,1.78,3.27.97,4.83Zm2.72-.56c.25.7.64,1.39,1.15,1.96-.17.07-.31.13-.41.18-.54.27-.99.59-1.26,1.04-.32-.46-.65-.9-1-1.31-.33-.4-.69-.81-1.07-1.19,0-.01.01-.02.02-.03.44-.95.33-1.94-.04-2.89-.24-.6-.57-1.24-.88-1.89,1.02.73,2.12,1.35,3.27,1.9-.09.75-.03,1.51.23,2.24Zm2.51-1.36c-.85-.31-1.7-.65-2.52-1.03.1-.79.37-1.57.78-2.29.12-.2.24-.4.36-.59.75,1.19,1.29,2.5,1.38,3.91Zm-.17,2.48c-.06.3-.54.55-.98.74-.33-.33-.62-.72-.86-1.2-.45-.9-.61-1.86-.54-2.81.83.39,1.69.73,2.55,1.05.02.74-.04,1.48-.18,2.22Zm2.1-.85c-.39.62-.26,1.28.11,2.07.13.27.24.54.31.82-.09,0-.19,0-.28-.01-1.2-.06-2.25-.41-3.06-1.13.22-.11.44-.22.64-.34.28-.17.37-.17.42-.49.06-.34.11-.69.14-1.04.03-.39.04-.78.03-1.16.05.02.1.04.15.05.41.14.82.28,1.24.41.09.28.19.55.31.82Zm.51-.57c-.16.13-.28.26-.38.39-.08-.19-.16-.38-.23-.58.21.06.41.12.62.19Zm1.5.42c-.28.68-.49,1.4-.7,2.1-.39-.61-.78-1.25-1.09-1.92.1-.17.22-.34.37-.52.01-.02.02-.03.01-.05.47.14.94.27,1.41.39Zm2.43-2.61c-.31.33-.71.6-1.11.8.06-.07.12-.13.19-.2.27-.26.58-.48.92-.61Zm.85,3.25c-.99-.25-1.98-.51-2.97-.78.22-.53.48-1.02.83-1.45.57-.24,1.12-.63,1.53-1.1.07-.02.13-.03.2-.04-.03.29-.02.59,0,.87.05.57.15,1.14.25,1.71.05.27.1.53.15.8Zm.03.64s-.12-.02-.12.05c.04.78.06,1.58.11,2.39-.35-.13-.69-.26-1.05-.36-.76-.22-1.53-.28-2.31-.3-.16-.22-.3-.44-.45-.66.22-.78.43-1.6.72-2.35,1.02.27,2.05.53,3.08.78.03.2.07.51,0,.45Zm3.39,4.03c-1.04-.53-2.11-1.09-3.21-1.52-.01-.18-.03-.36-.04-.54-.04-.5-.07-1.01-.1-1.51-.01-.26-.13-.28.08-.25.04,0,.07-.03.07-.07,0-.14-.03-.33-.06-.55.93.23,1.86.46,2.79.71-.02,1.25.11,2.54.47,3.73Zm5.41-1.72c-.03.32-.08.65-.17.97-.28,1.08-.73,2.06-1.28,3-1.21-.77-2.47-1.49-3.75-2.14,0,0,0-.01,0-.02-.35-1.14-.54-2.45-.55-3.79,1.92.52,3.81,1.12,5.63,1.92.04.02.08.04.12.06Zm2.66,7.48c-.87-1.26-2.12-2.19-3.38-3.03-.16-.1-.32-.21-.47-.31,0,0,0-.01.01-.02.46-.74.98-1.44,1.26-2.27.19-.55.3-1.1.37-1.65.77.36,1.54.76,2.3,1.21-.09,1.07.1,2.16.34,3.21.25,1.09.61,2.28.41,3.41-.04.25-.12.48-.21.7-.14-.43-.34-.85-.62-1.26Zm-5.09,3.93c.08-.14.17-.28.25-.42.36-.58.76-1.19.95-1.85.4-1.38-.31-2.28-1.19-3.23.39-.54.77-1.09,1.13-1.65,1.1.69,2.19,1.45,3.07,2.39.63.67,1.13,1.44,1.39,2.3-.47.88-1.32,1.5-2.27,1.91-1.09.48-2.21.63-3.33.55Zm-.16-.01c-.65-.06-1.29-.18-1.94-.36-.28-.08-.56-.16-.84-.25.32-.55.55-1.13.84-1.71.44-.89,1.06-1.69,1.63-2.49.15-.21.3-.42.45-.62.31.33.6.68.84,1.07.96,1.54-.14,3.03-.98,4.37Zm-3.09-.13c.07-.09.13-.19.19-.29.89.29,1.82.53,2.76.63-.04.07-.08.13-.12.2-.12.2-.24.41-.37.63-.84-.37-1.74-.59-2.47-1.17Zm-4.56,1.26c-.63-.64-1.29-1.42-2.04-1.99.24-.22.48-.43.71-.65.35-.32.71-.67,1.05-1.06,1.48.74,2.99,1.45,4.55,2-.08.1-.16.21-.24.31-.09.1-.11.26,0,.36.8.76,1.84.91,2.81,1.27-.25.43-.51.88-.74,1.36-.43,0-.86,0-1.28.03-.83.04-1.61.22-2.36.49-.85-.66-1.68-1.32-2.45-2.1Zm-.65,3.55c-1.18-.94-2.67-1.47-4.16-1.68.16-.53.36-1.04.64-1.49.52-.86,1.22-1.54,1.95-2.21.67.5,1.25,1.14,1.8,1.74.73.8,1.39,1.76,2.27,2.43-.34.15-.67.31-.99.49-.49.27-1,.5-1.5.72Zm-4.65,2.75c.02-1.33.07-2.85.43-4.21,1.07.14,2.13.43,3.07.94.33.18.65.38.96.61-.75.33-1.49.66-2.19,1.07-.4.24-.79.5-1.16.78-.16.12-.58.35-.62.55-.08.39-.22.77-.49,1.06,0-.26,0-.53,0-.79Zm-4.58.7c.44-.21.84-.48,1.19-.84.79-.81,1.03-1.78.97-2.8.11,0,.21-.06.21-.2v-.09s0-.06-.02-.08c-.04-.33-.09-.66-.15-.99.6,0,1.21-.04,1.82,0,.27.01.53.03.8.06-.12.47-.2.96-.27,1.45-.16,1.22-.26,2.51-.24,3.81,0,0,0,0,0,0-.86.52-2.07.26-2.99.08-.45-.09-.87-.23-1.29-.41Zm-1.61-.91c1.05-1.08,2.06-2.26,3.48-2.72.06.7-.02,1.4-.4,2-.42.69-1.08,1.16-1.82,1.47-.43-.21-.85-.47-1.26-.75Zm-6.24-8.79c1.46.59,2.81,1.35,4.1,2.28,1.17.84,2.34,1.88,3.78,2.24.53.13,1.06.17,1.59.18.09.31.16.63.21.95-1.15.39-2.08,1.33-2.97,2.12-.28.25-.55.5-.83.76-.8-.58-1.56-1.23-2.31-1.81-1.16-.9-2.26-1.86-3.29-2.91-.12-.12-.25-.25-.37-.39-.09-1.15-.09-2.3.09-3.43Zm-.24-.35c-.61-.23-1.23-.46-1.82-.74.28-2.26,2.34-4.18,3.93-5.82.28.54.67,1.01,1.12,1.43-.16.08-.31.17-.47.28-1.47,1.01-2.29,2.78-2.68,4.47-.03.13-.06.25-.08.38Zm-1.85-.47c.52.24,1.06.43,1.6.63.07.03.14.05.2.08-.18,1.07-.18,2.15-.1,3.22-.71-.8-1.36-1.71-1.6-2.72-.1-.41-.13-.82-.1-1.21Zm-2.5-4.1c0-.06.02-.12.02-.18.04,0,.07,0,.11-.01,1.61-.18,2.83-1.03,3-2.72.08-.75.03-1.49-.09-2.22.06.04.12.08.18.13.95.69,1.82,1.53,2.88,2.03.05.26.13.5.23.74-1.69,1.72-3.63,3.54-4.1,5.94-1.5-.77-2.46-1.9-2.24-3.7Zm-9.13.35s.1-.01.09-.06c.08-.07,0-.2-.1-.16-.02-.03-.04-.06-.05-.08.34-.11.68-.25,1-.41,1.38-.69,2.34-1.82,2.63-3.36.18-.96.18-1.95.1-2.92-.04-.47-.08-.9-.04-1.32.38.2.75.42,1.11.66,1.14.75,2.17,1.66,3.02,2.74.47.6,1.06,1.29,1.23,2.06.15.67.06,1.3-.04,1.96,0,.04-.01.08-.02.12-1.16.1-2.31.07-3.39.66-1.51.83-2.58,2.21-3.11,3.79-.75-.19-1.51-.47-2.06-1.02-.64-.64-1.29-1.99-.38-2.65Zm-3.58-5.07c-.55-1.06-.47-2.21.21-3.21.35-.51.78-.97,1.32-1.28.47-.27.91-.36,1.42-.48,1.38.44,2.74.93,4.02,1.59-.05.59.07,1.21.1,1.8.04.62.05,1.25-.02,1.88-.12,1.09-.46,2.18-1.27,2.95-.69.66-1.51,1.07-2.38,1.35-1.07-1.58-2.53-2.89-3.4-4.6Zm-5.04-2.38c.02,1.16.25,2.36.41,3.44.07.46.14.92.19,1.4-1.26-.53-2.57-1.1-3.51-2.1,0-.03,0-.06,0-.09.04-.68.15-1.48.66-1.99.56-.57,1.37-.76,2.15-.67.03,0,.07,0,.1.01Zm.22.03c1.64.27,3.01,1.25,4.46,2,0,0,0,0,0,0,.32.84.91,1.58,1.45,2.27.72.91,1.45,1.81,2.15,2.73-.88.27-1.82.42-2.74.59-.47-.32-.96-.61-1.45-.91-1.08-.66-2.13-1.29-3.29-1.78-.17-1.63-.58-3.26-.6-4.9Zm2.86-4.2c1.05.38,2.11.72,3.18,1.05.45.14.91.28,1.37.43-.84.09-1.71.74-2.2,1.35-.63.78-1.14,1.85-.89,2.88.03.13.07.25.11.37-1.28-.92-2.84-1.87-4.42-2.1,0-.23,0-.46.03-.69.1-1.11.54-1.95,1.18-2.68.55-.21,1.1-.41,1.66-.61Zm-.75-.28c.19.07.38.14.57.21-.44.16-.88.33-1.31.49.23-.25.48-.48.74-.7Zm-3.71-2.05c.47-.05.94-.13,1.39-.28,1.26-.41,2.74-1,3.38-2.26,0,0,0,0,0,0,.78.25,1.57.48,2.36.69-.16.4-.33.8-.56,1.15-.49.73-1.21,1.21-1.89,1.73-.32.24-.64.48-.96.74-.36-.14-.71-.29-1.07-.44-.89-.39-1.8-.82-2.64-1.34Z"/>
        </g>
        <g>
          <g>
            <polygon class="cls-18" points="112.72 33.54 79.64 14.41 94.98 5.56 128.06 24.69 112.72 33.54"/>
            <polygon class="cls-4" points="112.72 33.54 79.64 14.41 94.98 5.56 128.06 24.69 112.72 33.54"/>
            <polygon class="cls-21" points="82.29 14.6 89.41 14.6 91.1 13.61 91.09 11.96 87.49 9.88 83.83 12.8 82.29 14.6"/>
            <polygon class="cls-21" points="92.26 20.48 99.37 20.48 101.06 19.49 101.05 17.73 96.66 15.17 93.8 18.68 92.26 20.48"/>
            <polygon class="cls-21" points="102.21 26.36 109.33 26.36 111.01 25.36 111.01 23.45 106.7 20.97 103.75 24.55 102.21 26.36"/>
            <polygon class="cls-21" points="112.37 32.07 119.49 32.07 121.18 31.08 121.17 29.31 116.75 26.77 113.91 30.27 112.37 32.07"/>
            <polygon class="cls-11" points="128.06 26.98 128.06 24.69 112.72 33.54 112.72 35.83 128.06 26.98"/>
            <polygon class="cls-8" points="112.72 35.83 112.72 33.54 79.64 14.41 79.64 16.69 112.72 35.83"/>
          </g>
          <g>
            <polygon class="cls-4" points="115.57 39.05 114.14 38.21 129.49 29.36 130.91 30.2 115.57 39.05"/>
            <polygon class="cls-17" points="130.91 30.2 130.63 30.37 130.51 30.37 130.51 29.97 130.91 30.2"/>
            <polygon class="cls-11" points="130.91 31.75 130.91 30.2 115.57 39.05 115.57 40.6 130.91 31.75"/>
            <polygon class="cls-8" points="115.57 40.6 115.57 39.05 114.14 38.21 114.14 39.76 115.57 40.6"/>
          </g>
          <g>
            <polygon class="cls-4" points="123.62 45.29 115.57 40.6 130.91 31.75 138.97 36.44 123.62 45.29"/>
            <polygon class="cls-11" points="138.97 38.72 138.97 36.44 123.62 45.29 123.62 47.57 138.97 38.72"/>
            <polygon class="cls-8" points="123.62 47.57 123.62 45.29 115.57 40.6 115.57 42.88 123.62 47.57"/>
          </g>
          <g>
            <polygon class="cls-4" points="110.29 61.09 102.24 56.4 109.31 52.27 117.37 56.96 110.29 61.09"/>
            <polygon class="cls-11" points="117.37 59.24 117.37 56.96 110.29 61.09 110.29 63.38 117.37 59.24"/>
            <polygon class="cls-8" points="110.29 63.38 110.29 61.09 102.24 56.4 102.24 58.69 110.29 63.38"/>
          </g>
          <g>
            <polygon class="cls-4" points="111.72 64.23 110.29 63.38 117.37 59.24 118.8 60.09 111.72 64.23"/>
            <polygon class="cls-11" points="118.8 61.9 118.8 60.09 111.72 64.23 111.72 66.03 118.8 61.9"/>
            <polygon class="cls-8" points="111.72 66.03 111.72 64.23 110.29 63.38 110.29 65.18 111.72 66.03"/>
          </g>
          <g>
            <polygon class="cls-4" points="113.15 66.89 111.72 66.03 118.8 61.9 120.22 62.75 113.15 66.89"/>
            <polygon class="cls-11" points="120.22 64.55 120.22 62.75 113.15 66.89 113.15 68.69 120.22 64.55"/>
            <polygon class="cls-8" points="113.15 68.69 113.15 66.89 111.72 66.03 111.72 67.84 113.15 68.69"/>
          </g>
          <g>
            <polygon class="cls-4" points="114.58 69.54 113.15 68.69 120.22 64.55 121.65 65.41 114.58 69.54"/>
            <polygon class="cls-11" points="121.65 67.21 121.65 65.41 114.58 69.54 114.58 71.35 121.65 67.21"/>
            <polygon class="cls-8" points="114.58 71.35 114.58 69.54 113.15 68.69 113.15 70.49 114.58 71.35"/>
          </g>
          <g>
            <polygon class="cls-4" points="116.01 72.2 114.58 71.34 121.66 67.21 123.08 68.06 116.01 72.2"/>
            <polygon class="cls-11" points="123.08 69.86 123.08 68.06 116.01 72.2 116.01 74 123.08 69.86"/>
            <polygon class="cls-8" points="116.01 74 116.01 72.2 114.58 71.34 114.58 73.15 116.01 74"/>
          </g>
          <g>
            <polygon class="cls-4" points="117.44 74.86 116.01 74.01 123.08 69.87 124.51 70.72 117.44 74.86"/>
            <polygon class="cls-11" points="124.51 72.53 124.51 70.72 117.44 74.86 117.44 76.66 124.51 72.53"/>
            <polygon class="cls-8" points="117.44 76.66 117.44 74.86 116.01 74.01 116.01 75.81 117.44 76.66"/>
          </g>
          <g>
            <polygon class="cls-4" points="122.06 48.51 114.01 43.82 115.57 42.88 123.62 47.57 122.06 48.51"/>
            <polygon class="cls-11" points="123.62 48.98 123.62 47.57 122.06 48.51 122.06 49.92 123.62 48.98"/>
            <polygon class="cls-8" points="122.06 49.92 122.06 48.51 114.01 43.82 114.01 45.23 122.06 49.92"/>
          </g>
          <g>
            <polygon class="cls-4" points="120.5 50.86 112.44 46.17 114.01 45.23 122.06 49.92 120.5 50.86"/>
            <polygon class="cls-11" points="122.06 51.33 122.06 49.92 120.5 50.86 120.5 52.27 122.06 51.33"/>
            <polygon class="cls-8" points="120.5 52.27 120.5 50.86 112.44 46.17 112.44 47.58 120.5 52.27"/>
          </g>
          <g>
            <polygon class="cls-4" points="118.93 53.2 110.88 48.51 112.44 47.58 120.5 52.27 118.93 53.2"/>
            <polygon class="cls-11" points="120.5 53.68 120.5 52.27 118.93 53.2 118.93 54.61 120.5 53.68"/>
            <polygon class="cls-8" points="118.93 54.61 118.93 53.2 110.88 48.51 110.88 49.92 118.93 54.61"/>
          </g>
          <g>
            <polygon class="cls-4" points="117.37 55.55 109.31 50.86 110.88 49.92 118.93 54.61 117.37 55.55"/>
            <polygon class="cls-11" points="118.93 56.02 118.93 54.61 117.37 55.55 117.37 56.96 118.93 56.02"/>
            <polygon class="cls-8" points="117.37 56.96 117.37 55.55 109.31 50.86 109.31 52.27 117.37 56.96"/>
          </g>
          <g>
            <polygon class="cls-4" points="114.15 36.67 112.72 35.83 128.06 26.98 129.49 27.82 114.15 36.67"/>
            <polygon class="cls-11" points="129.49 29.36 129.49 27.82 114.15 36.67 114.15 38.22 129.49 29.36"/>
            <polygon class="cls-8" points="114.15 38.22 114.15 36.67 112.72 35.83 112.72 37.38 114.15 38.22"/>
          </g>
          <g>
            <g>
              <polygon class="cls-18" points="95.24 .79 94.72 .49 94.99 .34 95.5 .63 95.24 .79"/>
              <polygon class="cls-11" points="95.5 .63 95.24 .79 95.24 6.42 95.5 6.27 95.5 .63"/>
              <polygon class="cls-8" points="95.24 6.42 94.72 6.13 94.72 .49 95.24 .79 95.24 6.42"/>
            </g>
            <g>
              <polygon class="cls-19" points="91.23 6.14 90.96 5.99 90.96 6.3 91.23 6.45 91.23 6.14"/>
              <polygon class="cls-11" points="91.23 6.45 91.23 6.14 95.1 3.91 95.1 4.22 91.23 6.45"/>
              <polygon class="cls-4" points="95.1 3.91 94.83 3.75 90.96 5.99 91.23 6.14 95.1 3.91"/>
            </g>
            <g>
              <polygon class="cls-19" points="91.23 4.91 90.96 4.76 90.96 5.07 91.23 5.22 91.23 4.91"/>
              <polygon class="cls-11" points="91.23 5.22 91.23 4.91 95.1 2.68 95.1 2.99 91.23 5.22"/>
              <polygon class="cls-4" points="95.1 2.68 94.83 2.52 90.96 4.76 91.23 4.91 95.1 2.68"/>
            </g>
            <g>
              <polygon class="cls-18" points="91.23 2.97 91.74 2.68 91.48 2.52 90.96 2.82 91.23 2.97"/>
              <polygon class="cls-8" points="90.96 2.82 91.23 2.97 91.23 8.65 90.96 8.5 90.96 2.82"/>
              <polygon class="cls-11" points="91.23 8.65 91.74 8.36 91.74 2.68 91.23 2.97 91.23 8.65"/>
            </g>
            <g>
              <polygon class="cls-19" points="87.36 8.38 87.09 8.22 87.09 8.53 87.36 8.69 87.36 8.38"/>
              <polygon class="cls-11" points="87.36 8.69 87.36 8.38 91.23 6.14 91.23 6.45 87.36 8.69"/>
              <polygon class="cls-4" points="91.23 6.14 90.96 5.99 87.09 8.22 87.36 8.38 91.23 6.14"/>
            </g>
            <g>
              <polygon class="cls-19" points="87.36 7.15 87.09 6.99 87.09 7.3 87.36 7.45 87.36 7.15"/>
              <polygon class="cls-11" points="87.36 7.45 87.36 7.15 91.23 4.91 91.23 5.22 87.36 7.45"/>
              <polygon class="cls-4" points="91.23 4.91 90.96 4.76 87.09 6.99 87.36 7.15 91.23 4.91"/>
            </g>
            <g>
              <polygon class="cls-18" points="86.92 5.51 87.43 5.22 87.16 5.06 86.65 5.36 86.92 5.51"/>
              <polygon class="cls-19" points="86.65 5.36 86.92 5.51 86.92 11.15 86.65 10.99 86.65 5.36"/>
              <polygon class="cls-16" points="86.92 11.15 87.43 10.85 87.43 5.22 86.92 5.51 86.92 11.15"/>
            </g>
            <g>
              <polygon class="cls-19" points="99.11 6.14 99.38 5.99 99.38 6.3 99.11 6.45 99.11 6.14"/>
              <polygon class="cls-8" points="99.11 6.45 99.11 6.14 95.24 3.91 95.24 4.22 99.11 6.45"/>
              <polygon class="cls-4" points="95.24 3.91 95.5 3.75 99.38 5.99 99.11 6.14 95.24 3.91"/>
            </g>
            <g>
              <polygon class="cls-19" points="99.11 4.91 99.38 4.76 99.38 5.07 99.11 5.22 99.11 4.91"/>
              <polygon class="cls-8" points="99.11 5.22 99.11 4.91 95.24 2.68 95.24 2.99 99.11 5.22"/>
              <polygon class="cls-4" points="95.24 2.68 95.5 2.52 99.38 4.76 99.11 4.91 95.24 2.68"/>
            </g>
            <g>
              <polygon class="cls-18" points="99.24 3.11 98.73 2.81 99 2.66 99.51 2.95 99.24 3.11"/>
              <polygon class="cls-11" points="99.51 2.95 99.24 3.11 99.24 8.74 99.51 8.59 99.51 2.95"/>
              <polygon class="cls-8" points="99.24 8.74 98.73 8.44 98.73 2.81 99.24 3.11 99.24 8.74"/>
            </g>
            <g>
              <polygon class="cls-19" points="103.12 8.45 103.38 8.3 103.38 8.61 103.12 8.76 103.12 8.45"/>
              <polygon class="cls-8" points="103.12 8.76 103.12 8.45 99.24 6.22 99.24 6.53 103.12 8.76"/>
              <polygon class="cls-4" points="99.24 6.22 99.51 6.07 103.38 8.3 103.12 8.45 99.24 6.22"/>
            </g>
            <g>
              <polygon class="cls-19" points="103.12 7.22 103.38 7.07 103.38 7.38 103.12 7.53 103.12 7.22"/>
              <polygon class="cls-8" points="103.12 7.53 103.12 7.22 99.24 4.99 99.24 5.3 103.12 7.53"/>
              <polygon class="cls-4" points="99.24 4.99 99.51 4.83 103.38 7.07 103.12 7.22 99.24 4.99"/>
            </g>
            <g>
              <polygon class="cls-18" points="103.25 5.42 102.73 5.13 103 4.97 103.52 5.27 103.25 5.42"/>
              <polygon class="cls-11" points="103.52 5.27 103.25 5.42 103.25 11.06 103.52 10.9 103.52 5.27"/>
              <polygon class="cls-8" points="103.25 11.06 102.73 10.76 102.73 5.13 103.25 5.42 103.25 11.06"/>
            </g>
            <g>
              <polygon class="cls-19" points="107.12 10.76 107.39 10.61 107.39 10.92 107.12 11.07 107.12 10.76"/>
              <polygon class="cls-8" points="107.12 11.07 107.12 10.76 103.25 8.53 103.25 8.84 107.12 11.07"/>
              <polygon class="cls-4" points="103.25 8.53 103.52 8.38 107.39 10.61 107.12 10.76 103.25 8.53"/>
            </g>
            <g>
              <polygon class="cls-19" points="107.12 9.53 107.39 9.38 107.39 9.69 107.12 9.84 107.12 9.53"/>
              <polygon class="cls-8" points="107.12 9.84 107.12 9.53 103.25 7.3 103.25 7.61 107.12 9.84"/>
              <polygon class="cls-4" points="103.25 7.3 103.52 7.15 107.39 9.38 107.12 9.53 103.25 7.3"/>
            </g>
            <g>
              <polygon class="cls-18" points="107.26 7.74 106.74 7.44 107.01 7.29 107.52 7.59 107.26 7.74"/>
              <polygon class="cls-11" points="107.52 7.59 107.26 7.74 107.26 13.38 107.52 13.22 107.52 7.59"/>
              <polygon class="cls-8" points="107.26 13.38 106.74 13.08 106.74 7.44 107.26 7.74 107.26 13.38"/>
            </g>
            <g>
              <polygon class="cls-19" points="111.13 13.08 111.39 12.92 111.39 13.23 111.13 13.38 111.13 13.08"/>
              <polygon class="cls-8" points="111.13 13.38 111.13 13.08 107.26 10.84 107.26 11.15 111.13 13.38"/>
              <polygon class="cls-4" points="107.26 10.84 107.52 10.69 111.39 12.92 111.13 13.08 107.26 10.84"/>
            </g>
            <g>
              <polygon class="cls-19" points="111.13 11.84 111.39 11.69 111.39 12 111.13 12.15 111.13 11.84"/>
              <polygon class="cls-8" points="111.13 12.15 111.13 11.84 107.26 9.61 107.26 9.92 111.13 12.15"/>
              <polygon class="cls-4" points="107.26 9.61 107.52 9.46 111.39 11.69 111.13 11.84 107.26 9.61"/>
            </g>
            <g>
              <polygon class="cls-18" points="111.26 10.06 110.75 9.76 111.02 9.61 111.53 9.9 111.26 10.06"/>
              <polygon class="cls-11" points="111.53 9.9 111.26 10.06 111.26 15.69 111.53 15.54 111.53 9.9"/>
              <polygon class="cls-8" points="111.26 15.69 110.75 15.4 110.75 9.76 111.26 10.06 111.26 15.69"/>
            </g>
            <g>
              <polygon class="cls-19" points="115.13 15.39 115.4 15.24 115.4 15.54 115.13 15.7 115.13 15.39"/>
              <polygon class="cls-8" points="115.13 15.7 115.13 15.39 111.26 13.16 111.26 13.47 115.13 15.7"/>
              <polygon class="cls-4" points="111.26 13.16 111.53 13 115.4 15.24 115.13 15.39 111.26 13.16"/>
            </g>
            <g>
              <polygon class="cls-19" points="115.13 14.16 115.4 14 115.4 14.31 115.13 14.47 115.13 14.16"/>
              <polygon class="cls-8" points="115.13 14.47 115.13 14.16 111.26 11.93 111.26 12.23 115.13 14.47"/>
              <polygon class="cls-4" points="111.26 11.93 111.53 11.77 115.4 14 115.13 14.16 111.26 11.93"/>
            </g>
            <g>
              <polygon class="cls-18" points="115.27 12.38 114.75 12.08 115.02 11.93 115.54 12.22 115.27 12.38"/>
              <polygon class="cls-11" points="115.54 12.22 115.27 12.38 115.27 18.01 115.54 17.86 115.54 12.22"/>
              <polygon class="cls-8" points="115.27 18.01 114.75 17.71 114.75 12.08 115.27 12.38 115.27 18.01"/>
            </g>
            <g>
              <polygon class="cls-19" points="119.14 17.7 119.41 17.55 119.41 17.86 119.14 18.01 119.14 17.7"/>
              <polygon class="cls-8" points="119.14 18.01 119.14 17.7 115.27 15.47 115.27 15.78 119.14 18.01"/>
              <polygon class="cls-4" points="115.27 15.47 115.53 15.31 119.41 17.55 119.14 17.7 115.27 15.47"/>
            </g>
            <g>
              <polygon class="cls-19" points="119.14 16.47 119.41 16.32 119.41 16.62 119.14 16.78 119.14 16.47"/>
              <polygon class="cls-8" points="119.14 16.78 119.14 16.47 115.27 14.24 115.27 14.55 119.14 16.78"/>
              <polygon class="cls-4" points="115.27 14.24 115.53 14.08 119.41 16.32 119.14 16.47 115.27 14.24"/>
            </g>
            <g>
              <polygon class="cls-18" points="119.28 14.69 118.76 14.4 119.03 14.24 119.54 14.54 119.28 14.69"/>
              <polygon class="cls-11" points="119.54 14.54 119.28 14.69 119.28 20.33 119.54 20.17 119.54 14.54"/>
              <polygon class="cls-8" points="119.28 20.33 118.76 20.03 118.76 14.4 119.28 14.69 119.28 20.33"/>
            </g>
            <g>
              <polygon class="cls-19" points="123.15 20.02 123.41 19.86 123.41 20.17 123.15 20.33 123.15 20.02"/>
              <polygon class="cls-8" points="123.15 20.33 123.15 20.02 119.28 17.79 119.28 18.09 123.15 20.33"/>
              <polygon class="cls-4" points="119.28 17.79 119.54 17.63 123.41 19.86 123.15 20.02 119.28 17.79"/>
            </g>
            <g>
              <polygon class="cls-19" points="123.15 18.79 123.41 18.63 123.41 18.94 123.15 19.1 123.15 18.79"/>
              <polygon class="cls-8" points="123.15 19.1 123.15 18.79 119.28 16.55 119.28 16.86 123.15 19.1"/>
              <polygon class="cls-4" points="119.28 16.55 119.54 16.4 123.41 18.63 123.15 18.79 119.28 16.55"/>
            </g>
            <g>
              <polygon class="cls-18" points="123.28 17.01 122.77 16.71 123.03 16.56 123.55 16.86 123.28 17.01"/>
              <polygon class="cls-11" points="123.55 16.86 123.28 17.01 123.28 22.65 123.55 22.49 123.55 16.86"/>
              <polygon class="cls-8" points="123.28 22.65 122.77 22.35 122.77 16.71 123.28 17.01 123.28 22.65"/>
            </g>
            <g>
              <polygon class="cls-19" points="127.15 22.33 127.42 22.18 127.42 22.48 127.15 22.64 127.15 22.33"/>
              <polygon class="cls-8" points="127.15 22.64 127.15 22.33 123.28 20.1 123.28 20.41 127.15 22.64"/>
              <polygon class="cls-4" points="123.28 20.1 123.55 19.94 127.42 22.18 127.15 22.33 123.28 20.1"/>
            </g>
            <g>
              <polygon class="cls-19" points="127.15 21.1 127.42 20.94 127.42 21.25 127.15 21.41 127.15 21.1"/>
              <polygon class="cls-8" points="127.15 21.41 127.15 21.1 123.28 18.87 123.28 19.17 127.15 21.41"/>
              <polygon class="cls-4" points="123.28 18.87 123.55 18.71 127.42 20.94 127.15 21.1 123.28 18.87"/>
            </g>
            <g>
              <polygon class="cls-18" points="127.29 19.33 126.77 19.03 127.04 18.88 127.56 19.17 127.29 19.33"/>
              <polygon class="cls-11" points="127.56 19.17 127.29 19.33 127.29 24.96 127.56 24.81 127.56 19.17"/>
              <polygon class="cls-8" points="127.29 24.96 126.77 24.67 126.77 19.03 127.29 19.33 127.29 24.96"/>
            </g>
            <g>
              <polygon class="cls-18" points="127.42 19.32 127.94 19.03 127.94 19.34 127.42 19.63 127.42 19.32"/>
              <polygon class="cls-8" points="127.42 19.63 127.42 19.32 94.38 .3 94.38 .61 127.42 19.63"/>
              <polygon class="cls-4" points="94.38 .3 94.89 0 127.94 19.03 127.42 19.32 94.38 .3"/>
            </g>
            <g>
              <polygon class="cls-19" points="84.87 6.37 84.35 6.07 84.35 6.38 84.87 6.68 84.87 6.37"/>
              <polygon class="cls-11" points="84.87 6.68 84.87 6.37 94.9 .59 94.9 .9 84.87 6.68"/>
              <polygon class="cls-4" points="94.9 .59 94.38 .3 84.35 6.07 84.87 6.37 94.9 .59"/>
            </g>
          </g>
          <g>
            <polygon class="cls-27" points="81.38 14.05 81.65 11.79 84.77 4.89 86.53 3.88 86.53 10.96 81.38 14.05"/>
            <polygon class="cls-6" points="82.29 14.6 82.56 12.34 85.68 5.44 87.44 4.43 87.44 11.51 82.29 14.6"/>
            <polygon class="cls-9" points="85.68 5.44 84.77 4.89 86.53 3.88 87.44 4.43 85.68 5.44"/>
          </g>
          <g>
            <polygon class="cls-27" points="91.34 19.93 91.61 17.67 94.73 10.77 96.49 9.76 96.49 16.84 91.34 19.93"/>
            <polygon class="cls-6" points="92.26 20.48 92.53 18.22 95.65 11.32 97.4 10.31 97.4 17.39 92.26 20.48"/>
            <polygon class="cls-9" points="95.65 11.32 94.73 10.77 96.49 9.76 97.4 10.31 95.65 11.32"/>
          </g>
          <g>
            <polygon class="cls-27" points="101.29 25.81 101.56 23.55 104.68 16.64 106.44 15.63 106.44 22.72 101.29 25.81"/>
            <polygon class="cls-6" points="102.21 26.36 102.48 24.1 105.6 17.19 107.36 16.18 107.36 23.27 102.21 26.36"/>
            <polygon class="cls-9" points="105.6 17.19 104.68 16.64 106.44 15.63 107.36 16.18 105.6 17.19"/>
          </g>
          <g>
            <polygon class="cls-27" points="111.24 31.68 111.51 29.42 114.63 22.52 116.39 21.51 116.39 28.59 111.24 31.68"/>
            <polygon class="cls-6" points="112.16 32.23 112.43 29.97 115.55 23.07 117.31 22.06 117.31 29.14 112.16 32.23"/>
            <polygon class="cls-9" points="115.55 23.07 114.63 22.52 116.39 21.51 117.31 22.06 115.55 23.07"/>
          </g>
          <g>
            <g>
              <g>
                <path class="cls-9" d="m82.56,12.34l-.92-.55c-2.22.51-4.09,2.6-4.23,4.72-.04.55.03,1.1-.07,1.65-.28,1.64-1.89,2.89-3.43,3.8-1.15.67-2.37,1.29-3.34,2.22-1.08,1.03-1.26,2.03-1.37,3.37-.17,2.06-.47,4.22-1.71,6.04-1.43,2.11-3.91,3.48-5.28,5.62-1,1.55-1.42,3.29-1.92,4.98-.25.85-.52,1.7-.89,2.52-.37.83-1.04,1.53-1.75,2.15-.73.64-1.39,1.36-1.86,2.18-.46.82-.71,1.75-.58,2.61.11.69.49,1.33,1.07,1.72,0,0,0,0,0,0h0s.91.55.91.55l-.02-.66-.12-.14,1.47-.76c.13-.07.16-.23.07-.32-.17-.16-.3-.36-.37-.58-.35-1.05.46-2.1,1.19-2.92.38-.43.76-.88,1.09-1.35.77-1.08,1.25-2.31,1.61-3.53.54-1.79.95-3.65,2.01-5.3,1.38-2.14,3.85-3.51,5.28-5.62,1.23-1.82,1.54-3.98,1.71-6.04.11-1.34.29-2.34,1.37-3.37.97-.92,2.19-1.55,3.34-2.22,1.54-.91,3.15-2.16,3.43-3.8.1-.55.03-1.1.07-1.65.09-1.35.88-2.68,2.01-3.61l.14-1.17.29.04.76-.58Z"/>
                <path class="cls-6" d="m82.56,12.34l-.27,2.26c-1.13.92-1.92,2.26-2.01,3.61-.04.55.03,1.1-.07,1.65-.28,1.64-1.89,2.89-3.43,3.8-1.15.67-2.37,1.29-3.34,2.22-1.08,1.03-1.26,2.03-1.37,3.37-.17,2.06-.47,4.21-1.71,6.04-1.43,2.1-3.9,3.48-5.28,5.62-1.06,1.65-1.47,3.51-2.01,5.3-.37,1.22-.85,2.45-1.61,3.53-.34.47-.71.92-1.09,1.35-.74.83-1.55,1.88-1.19,2.92.07.22.2.42.37.58.1.09.07.25-.07.32l-1.96,1.01c-.1.05-.22.05-.3,0-.58-.39-.96-1.03-1.07-1.72-.14-.86.11-1.79.58-2.61.46-.82,1.13-1.54,1.86-2.18.7-.62,1.38-1.32,1.75-2.15.37-.82.64-1.67.89-2.52.49-1.69.92-3.43,1.92-4.98,1.37-2.13,3.85-3.51,5.28-5.62,1.23-1.82,1.54-3.98,1.71-6.04.11-1.34.29-2.34,1.37-3.37.97-.93,2.19-1.54,3.34-2.22,1.54-.91,3.15-2.15,3.43-3.8.1-.55.03-1.1.07-1.65.14-2.12,2.01-4.21,4.23-4.72Z"/>
              </g>
              <g>
                <polygon class="cls-23" points="57.29 53.59 58.24 55.55 66.52 60.45 66.45 56.81 59.34 54.08 57.29 53.59"/>
                <path class="cls-5" d="m87.32,24.81c-.04.55.03,1.1-.06,1.65-.28,1.64-1.89,2.89-3.44,3.8-1.15.67-2.37,1.29-3.34,2.22-1.08,1.03-1.26,2.03-1.37,3.37-.17,2.06-.47,4.22-1.7,6.04-1.43,2.11-3.9,3.49-5.28,5.62-1.77,2.76-1.73,6.08-3.54,8.87-.61.94-1.36,1.81-2.25,2.53l-9.04-5.32c.9-.73,1.67-1.61,2.29-2.56,1.81-2.79,1.77-6.11,3.54-8.87,1.37-2.13,3.85-3.51,5.27-5.62,1.23-1.82,1.54-3.98,1.71-6.04.11-1.34.3-2.34,1.37-3.37.97-.93,2.09-1.72,3.23-2.4,1.55-.91,3.26-1.98,3.54-3.62.1-.55.03-1.1.06-1.65.14-2.12,1.77-4.34,3.99-4.86l9.03,5.36c-2.22.51-3.87,2.73-4.01,4.85Z"/>
                <path class="cls-20" d="m90.3,20.33c-1.38.7-2.43,2.06-2.82,3.51l-9.02-5.32c.38-1.45,1.4-2.83,2.78-3.54l9.06,5.34Z"/>
                <path class="cls-20" d="m83.83,30.25s-.01,0-.02,0c-1.15.67-2.37,1.29-3.34,2.22-.22.21-.41.42-.56.64l-9.03-5.32c.16-.22.35-.44.58-.66.93-.9,2.01-1.67,3.12-2.33l9.25,5.45Z"/>
                <path class="cls-20" d="m75.18,44.29c-1.11,1.01-2.26,1.99-3.05,3.21-.02.04-.05.08-.07.12l-9.03-5.32s.06-.1.09-.15c.78-1.22,1.92-2.19,3.02-3.19l9.04,5.32Z"/>
                <path class="cls-15" d="m87.25,26.46c-.19,1.1-.97,2.02-1.93,2.78l-9.18-5.41c1.03-.72,1.91-1.58,2.11-2.72.07-.39.05-.79.05-1.18l9.01,5.31c0,.41.02.81-.05,1.22Z"/>
                <path class="cls-15" d="m78.03,40.77l-9.02-5.32c.67-1.44.92-3.01,1.06-4.55l9.01,5.31c-.14,1.54-.38,3.12-1.05,4.56Z"/>
                <path class="cls-15" d="m70.63,51.02c-.43,1.45-.79,2.93-1.46,4.31l-9.02-5.32c.68-1.38,1.03-2.86,1.47-4.31l9.02,5.32Z"/>
              </g>
              <g>
                <path class="cls-16" d="m92.52,18.22l-.92-.55c-2.22.51-4.09,2.6-4.23,4.72-.04.55.03,1.1-.07,1.65-.28,1.64-1.89,2.89-3.43,3.8-1.15.67-2.37,1.29-3.34,2.22-1.08,1.03-1.26,2.03-1.37,3.37-.17,2.06-.47,4.22-1.71,6.04-1.43,2.11-3.91,3.48-5.28,5.62-1,1.55-1.42,3.29-1.92,4.98-.25.85-.52,1.7-.89,2.52-.37.83-1.04,1.53-1.75,2.15-.73.64-1.39,1.36-1.86,2.18-.46.82-.71,1.75-.58,2.61.11.69.49,1.33,1.07,1.72,0,0,0,0,0,0h0s.91.55.91.55l-.02-.66-.12-.14,1.47-.76c.13-.07.16-.23.07-.32-.17-.16-.3-.36-.37-.58-.35-1.05.46-2.1,1.19-2.92.38-.43.76-.88,1.09-1.35.77-1.08,1.25-2.31,1.61-3.53.54-1.79.95-3.65,2.01-5.3,1.38-2.14,3.85-3.51,5.28-5.62,1.23-1.82,1.54-3.98,1.71-6.04.11-1.34.29-2.34,1.37-3.37.97-.92,2.19-1.55,3.34-2.22,1.54-.91,3.15-2.16,3.43-3.8.1-.55.03-1.1.07-1.65.09-1.35.88-2.68,2.01-3.61l.14-1.17.29.04.76-.58Z"/>
                <path class="cls-13" d="m92.52,18.22l-.27,2.26c-1.13.92-1.92,2.26-2.01,3.61-.04.55.03,1.1-.07,1.65-.28,1.64-1.89,2.89-3.43,3.8-1.15.67-2.37,1.29-3.34,2.22-1.08,1.03-1.26,2.03-1.37,3.37-.17,2.06-.47,4.21-1.71,6.04-1.43,2.1-3.9,3.48-5.28,5.62-1.06,1.65-1.47,3.51-2.01,5.3-.37,1.22-.85,2.45-1.61,3.53-.34.47-.71.92-1.09,1.35-.74.83-1.55,1.88-1.19,2.92.07.22.2.42.37.58.1.09.07.25-.07.32l-1.96,1.01c-.1.05-.22.05-.3,0-.58-.39-.96-1.03-1.07-1.72-.14-.86.11-1.79.58-2.61.46-.82,1.13-1.54,1.86-2.18.7-.62,1.38-1.32,1.75-2.15.37-.82.64-1.67.89-2.52.49-1.69.92-3.43,1.92-4.98,1.37-2.13,3.85-3.51,5.28-5.62,1.23-1.82,1.54-3.98,1.71-6.04.11-1.34.29-2.34,1.37-3.37.97-.93,2.19-1.54,3.34-2.22,1.54-.91,3.15-2.15,3.43-3.8.1-.55.03-1.1.07-1.65.14-2.12,2.01-4.21,4.23-4.72Z"/>
              </g>
            </g>
            <g>
              <g>
                <path class="cls-9" d="m92.53,18.22l-.92-.55c-2.22.51-4.09,2.6-4.23,4.72-.04.55.03,1.1-.07,1.65-.28,1.64-1.89,2.89-3.43,3.8-1.15.67-2.37,1.29-3.34,2.22-1.08,1.03-1.26,2.03-1.37,3.37-.17,2.06-.47,4.22-1.71,6.04-1.43,2.11-3.91,3.48-5.28,5.62-1,1.55-1.42,3.29-1.92,4.98-.25.85-.52,1.7-.89,2.52-.37.83-1.04,1.53-1.75,2.15-.73.64-1.39,1.36-1.86,2.18-.46.82-.71,1.75-.58,2.61.11.69.49,1.33,1.07,1.72,0,0,0,0,0,0h0s.91.55.91.55l-.02-.66-.12-.14,1.47-.76c.13-.07.16-.23.07-.32-.17-.16-.3-.36-.37-.58-.35-1.05.46-2.1,1.19-2.92.38-.43.76-.88,1.09-1.35.77-1.08,1.25-2.31,1.61-3.53.54-1.79.95-3.65,2.01-5.3,1.38-2.14,3.85-3.51,5.28-5.62,1.23-1.82,1.54-3.98,1.71-6.04.11-1.34.29-2.34,1.37-3.37.97-.92,2.19-1.55,3.34-2.22,1.54-.91,3.15-2.16,3.43-3.8.1-.55.03-1.1.07-1.65.09-1.35.88-2.68,2.01-3.61l.14-1.17.29.04.76-.58Z"/>
                <path class="cls-6" d="m92.53,18.22l-.27,2.26c-1.13.92-1.92,2.26-2.01,3.61-.04.55.03,1.1-.07,1.65-.28,1.64-1.89,2.89-3.43,3.8-1.15.67-2.37,1.29-3.34,2.22-1.08,1.03-1.26,2.03-1.37,3.37-.17,2.06-.47,4.21-1.71,6.04-1.43,2.1-3.9,3.48-5.28,5.62-1.06,1.65-1.47,3.51-2.01,5.3-.37,1.22-.85,2.45-1.61,3.53-.34.47-.71.92-1.09,1.35-.74.83-1.55,1.88-1.19,2.92.07.22.2.42.37.58.1.09.07.25-.07.32l-1.96,1.01c-.1.05-.22.05-.3,0-.58-.39-.96-1.03-1.07-1.72-.14-.86.11-1.79.58-2.61.46-.82,1.13-1.54,1.86-2.18.7-.62,1.38-1.32,1.75-2.15.37-.82.64-1.67.89-2.52.49-1.69.92-3.43,1.92-4.98,1.37-2.13,3.85-3.51,5.28-5.62,1.23-1.82,1.54-3.98,1.71-6.04.11-1.34.29-2.34,1.37-3.37.97-.93,2.19-1.54,3.34-2.22,1.54-.91,3.15-2.15,3.43-3.8.1-.55.03-1.1.07-1.65.14-2.12,2.01-4.21,4.23-4.72Z"/>
              </g>
              <g>
                <polygon class="cls-23" points="67.25 59.47 68.2 61.43 76.48 66.33 76.41 62.69 69.31 59.96 67.25 59.47"/>
                <path class="cls-5" d="m97.28,30.69c-.04.55.03,1.1-.06,1.65-.28,1.64-1.89,2.89-3.44,3.8-1.15.67-2.37,1.29-3.34,2.22-1.08,1.03-1.26,2.03-1.37,3.37-.17,2.06-.47,4.22-1.7,6.04-1.43,2.11-3.9,3.49-5.28,5.62-1.77,2.76-1.73,6.08-3.54,8.87-.61.94-1.36,1.81-2.25,2.53l-9.04-5.32c.9-.73,1.67-1.61,2.29-2.56,1.81-2.79,1.76-6.11,3.54-8.87,1.37-2.13,3.85-3.51,5.27-5.62,1.23-1.82,1.54-3.98,1.71-6.04.11-1.34.3-2.34,1.37-3.37.97-.93,2.09-1.72,3.23-2.4,1.55-.91,3.26-1.98,3.54-3.62.1-.55.03-1.1.06-1.65.14-2.12,1.77-4.34,3.99-4.86l9.03,5.36c-2.22.51-3.87,2.73-4.01,4.85Z"/>
                <path class="cls-20" d="m100.26,26.22c-1.38.7-2.43,2.06-2.82,3.51l-9.02-5.32c.38-1.45,1.4-2.83,2.78-3.54l9.06,5.34Z"/>
                <path class="cls-20" d="m93.8,36.13s-.01,0-.02,0c-1.15.67-2.37,1.29-3.34,2.22-.22.21-.41.42-.56.64l-9.03-5.32c.16-.22.35-.44.58-.66.93-.9,2.01-1.67,3.12-2.33l9.25,5.45Z"/>
                <path class="cls-20" d="m85.14,50.17c-1.11,1.01-2.26,1.99-3.05,3.21-.02.04-.05.08-.07.12l-9.03-5.32s.06-.1.09-.15c.78-1.22,1.92-2.19,3.02-3.19l9.03,5.32Z"/>
                <path class="cls-15" d="m97.22,32.34c-.19,1.1-.97,2.02-1.93,2.78l-9.18-5.41c1.03-.72,1.91-1.58,2.11-2.72.07-.39.05-.79.05-1.18l9.01,5.31c0,.41.02.81-.05,1.22Z"/>
                <path class="cls-15" d="m87.99,46.65l-9.02-5.32c.67-1.44.92-3.01,1.06-4.55l9.01,5.31c-.14,1.54-.38,3.12-1.05,4.56Z"/>
                <path class="cls-15" d="m80.59,56.9c-.43,1.45-.79,2.93-1.46,4.31l-9.02-5.32c.68-1.38,1.03-2.86,1.47-4.31l9.02,5.32Z"/>
              </g>
              <g>
                <path class="cls-16" d="m102.48,24.1l-.92-.55c-2.22.51-4.09,2.6-4.23,4.72-.04.55.03,1.1-.07,1.65-.28,1.64-1.89,2.89-3.43,3.8-1.15.67-2.37,1.29-3.34,2.22-1.08,1.03-1.26,2.03-1.37,3.37-.17,2.06-.47,4.22-1.71,6.04-1.43,2.11-3.91,3.48-5.28,5.62-1,1.55-1.42,3.29-1.92,4.98-.25.85-.52,1.7-.89,2.52-.37.83-1.04,1.53-1.75,2.15-.73.64-1.39,1.36-1.86,2.18-.46.82-.71,1.75-.58,2.61.11.69.49,1.33,1.07,1.72,0,0,0,0,0,0h0s.91.55.91.55l-.02-.66-.12-.14,1.47-.76c.13-.07.16-.23.07-.32-.17-.16-.3-.36-.37-.58-.35-1.05.46-2.1,1.19-2.92.38-.43.76-.88,1.09-1.35.77-1.08,1.25-2.31,1.61-3.53.54-1.79.95-3.65,2.01-5.3,1.38-2.14,3.85-3.51,5.28-5.62,1.23-1.82,1.54-3.98,1.71-6.04.11-1.34.29-2.34,1.37-3.37.97-.92,2.19-1.55,3.34-2.22,1.54-.91,3.15-2.16,3.43-3.8.1-.55.03-1.1.07-1.65.09-1.35.88-2.68,2.01-3.61l.14-1.17.29.04.76-.58Z"/>
                <path class="cls-13" d="m102.48,24.1l-.27,2.26c-1.13.92-1.92,2.26-2.01,3.61-.04.55.03,1.1-.07,1.65-.28,1.64-1.89,2.89-3.43,3.8-1.15.67-2.37,1.29-3.34,2.22-1.08,1.03-1.26,2.03-1.37,3.37-.17,2.06-.47,4.21-1.71,6.04-1.43,2.1-3.9,3.48-5.28,5.62-1.06,1.65-1.47,3.51-2.01,5.3-.37,1.22-.85,2.45-1.61,3.53-.34.47-.71.92-1.09,1.35-.74.83-1.55,1.88-1.19,2.92.07.22.2.42.37.58.1.09.07.25-.07.32l-1.96,1.01c-.1.05-.22.05-.3,0-.58-.39-.96-1.03-1.07-1.72-.14-.86.11-1.79.58-2.61.46-.82,1.13-1.54,1.86-2.18.7-.62,1.38-1.32,1.75-2.15.37-.82.64-1.67.89-2.52.49-1.69.92-3.43,1.92-4.98,1.37-2.13,3.85-3.51,5.28-5.62,1.23-1.82,1.54-3.98,1.71-6.04.11-1.34.29-2.34,1.37-3.37.97-.93,2.19-1.54,3.34-2.22,1.54-.91,3.15-2.15,3.43-3.8.1-.55.03-1.1.07-1.65.14-2.12,2.01-4.21,4.23-4.72Z"/>
              </g>
            </g>
            <g>
              <g>
                <path class="cls-9" d="m102.48,24.1l-.92-.55c-2.22.51-4.09,2.6-4.23,4.72-.04.55.03,1.1-.07,1.65-.28,1.64-1.89,2.89-3.43,3.8-1.15.67-2.37,1.29-3.34,2.22-1.08,1.03-1.26,2.03-1.37,3.37-.17,2.06-.47,4.22-1.71,6.04-1.43,2.11-3.91,3.48-5.28,5.62-1,1.55-1.42,3.29-1.92,4.98-.25.85-.52,1.7-.89,2.52-.37.83-1.04,1.53-1.75,2.15-.73.64-1.39,1.36-1.86,2.18-.46.82-.71,1.75-.58,2.61.11.69.49,1.33,1.07,1.72,0,0,0,0,0,0h0s.91.55.91.55l-.02-.66-.12-.14,1.47-.76c.13-.07.16-.23.07-.32-.17-.16-.3-.36-.37-.58-.35-1.05.46-2.1,1.19-2.92.38-.43.76-.88,1.09-1.35.77-1.08,1.25-2.31,1.61-3.53.54-1.79.95-3.65,2.01-5.3,1.38-2.14,3.85-3.51,5.28-5.62,1.23-1.82,1.54-3.98,1.71-6.04.11-1.34.29-2.34,1.37-3.37.97-.92,2.19-1.55,3.34-2.22,1.54-.91,3.15-2.16,3.43-3.8.1-.55.03-1.1.07-1.65.09-1.35.88-2.68,2.01-3.61l.14-1.17.29.04.76-.58Z"/>
                <path class="cls-6" d="m102.48,24.1l-.27,2.26c-1.13.92-1.92,2.26-2.01,3.61-.04.55.03,1.1-.07,1.65-.28,1.64-1.89,2.89-3.43,3.8-1.15.67-2.37,1.29-3.34,2.22-1.08,1.03-1.26,2.03-1.37,3.37-.17,2.06-.47,4.21-1.71,6.04-1.43,2.1-3.9,3.48-5.28,5.62-1.06,1.65-1.47,3.51-2.01,5.3-.37,1.22-.85,2.45-1.61,3.53-.34.47-.71.92-1.09,1.35-.74.83-1.55,1.88-1.19,2.92.07.22.2.42.37.58.1.09.07.25-.07.32l-1.96,1.01c-.1.05-.22.05-.3,0-.58-.39-.96-1.03-1.07-1.72-.14-.86.11-1.79.58-2.61.46-.82,1.13-1.54,1.86-2.18.7-.62,1.38-1.32,1.75-2.15.37-.82.64-1.67.89-2.52.49-1.69.92-3.43,1.92-4.98,1.37-2.13,3.85-3.51,5.28-5.62,1.23-1.82,1.54-3.98,1.71-6.04.11-1.34.29-2.34,1.37-3.37.97-.93,2.19-1.54,3.34-2.22,1.54-.91,3.15-2.15,3.43-3.8.1-.55.03-1.1.07-1.65.14-2.12,2.01-4.21,4.23-4.72Z"/>
              </g>
              <g>
                <polygon class="cls-23" points="77.2 65.34 78.16 67.31 86.44 72.2 86.36 68.57 79.26 65.84 77.2 65.34"/>
                <path class="cls-5" d="m107.24,36.57c-.04.55.03,1.1-.06,1.65-.28,1.64-1.89,2.89-3.44,3.8-1.15.67-2.37,1.29-3.34,2.22-1.08,1.03-1.26,2.03-1.37,3.37-.17,2.06-.47,4.22-1.7,6.04-1.43,2.11-3.9,3.49-5.28,5.62-1.77,2.76-1.73,6.08-3.54,8.87-.61.94-1.36,1.81-2.25,2.53l-9.04-5.32c.9-.73,1.67-1.61,2.29-2.56,1.81-2.79,1.77-6.11,3.54-8.87,1.37-2.13,3.85-3.51,5.27-5.62,1.23-1.82,1.54-3.98,1.71-6.04.11-1.34.3-2.34,1.37-3.37.97-.93,2.09-1.72,3.23-2.4,1.55-.91,3.26-1.98,3.54-3.62.1-.55.03-1.1.06-1.65.14-2.12,1.77-4.34,3.99-4.86l9.03,5.36c-2.22.51-3.87,2.73-4.01,4.85Z"/>
                <path class="cls-20" d="m110.22,32.09c-1.38.7-2.43,2.06-2.82,3.51l-9.02-5.32c.38-1.45,1.4-2.83,2.78-3.54l9.06,5.34Z"/>
                <path class="cls-20" d="m103.75,42s-.01,0-.02,0c-1.15.67-2.37,1.29-3.34,2.22-.22.21-.41.42-.56.64l-9.03-5.32c.16-.22.35-.44.58-.66.93-.9,2.01-1.67,3.12-2.33l9.25,5.45Z"/>
                <path class="cls-20" d="m95.09,56.05c-1.11,1.01-2.26,1.99-3.05,3.21-.02.04-.05.08-.07.12l-9.03-5.32s.06-.1.09-.15c.78-1.22,1.92-2.19,3.02-3.19l9.04,5.32Z"/>
                <path class="cls-15" d="m107.17,38.22c-.19,1.1-.97,2.02-1.93,2.78l-9.18-5.41c1.03-.72,1.91-1.58,2.11-2.72.07-.39.05-.79.05-1.18l9.01,5.31c0,.41.02.81-.05,1.22Z"/>
                <path class="cls-15" d="m97.95,52.52l-9.02-5.32c.67-1.44.92-3.01,1.06-4.55l9.01,5.31c-.14,1.54-.38,3.12-1.05,4.56Z"/>
                <path class="cls-15" d="m90.55,62.78c-.43,1.45-.79,2.93-1.46,4.31l-9.02-5.32c.68-1.38,1.03-2.86,1.47-4.31l9.02,5.32Z"/>
              </g>
              <g>
                <path class="cls-9" d="m112.44,29.97l-.92-.55c-2.22.51-4.09,2.6-4.23,4.72-.04.55.03,1.1-.07,1.65-.28,1.64-1.89,2.89-3.43,3.8-1.15.67-2.37,1.29-3.34,2.22-1.08,1.03-1.26,2.03-1.37,3.37-.17,2.06-.47,4.22-1.71,6.04-1.43,2.11-3.91,3.48-5.28,5.62-1,1.55-1.42,3.29-1.92,4.98-.25.85-.52,1.7-.89,2.52-.37.83-1.04,1.53-1.75,2.15-.73.64-1.39,1.36-1.86,2.18-.46.82-.71,1.75-.58,2.61.11.69.49,1.33,1.07,1.72,0,0,0,0,0,0h0s.91.55.91.55l-.02-.66-.12-.14,1.47-.76c.13-.07.16-.23.07-.32-.17-.16-.3-.36-.37-.58-.35-1.05.46-2.1,1.19-2.92.38-.43.76-.88,1.09-1.35.77-1.08,1.25-2.31,1.61-3.53.54-1.79.95-3.65,2.01-5.3,1.38-2.14,3.85-3.51,5.28-5.62,1.23-1.82,1.54-3.98,1.71-6.04.11-1.34.29-2.34,1.37-3.37.97-.92,2.19-1.55,3.34-2.22,1.54-.91,3.15-2.16,3.43-3.8.1-.55.03-1.1.07-1.65.09-1.35.88-2.68,2.01-3.61l.14-1.17.29.04.76-.58Z"/>
                <path class="cls-6" d="m112.44,29.97l-.27,2.26c-1.13.92-1.92,2.26-2.01,3.61-.04.55.03,1.1-.07,1.65-.28,1.64-1.89,2.89-3.43,3.8-1.15.67-2.37,1.29-3.34,2.22-1.08,1.03-1.26,2.03-1.37,3.37-.17,2.06-.47,4.21-1.71,6.04-1.43,2.1-3.9,3.48-5.28,5.62-1.06,1.65-1.47,3.51-2.01,5.3-.37,1.22-.85,2.45-1.61,3.53-.34.47-.71.92-1.09,1.35-.74.83-1.55,1.88-1.19,2.92.07.22.2.42.37.58.1.09.07.25-.07.32l-1.96,1.01c-.1.05-.22.05-.3,0-.58-.39-.96-1.03-1.07-1.72-.14-.86.11-1.79.58-2.61.46-.82,1.13-1.54,1.86-2.18.7-.62,1.38-1.32,1.75-2.15.37-.82.64-1.67.89-2.52.49-1.69.92-3.43,1.92-4.98,1.37-2.13,3.85-3.51,5.28-5.62,1.23-1.82,1.54-3.98,1.71-6.04.11-1.34.29-2.34,1.37-3.37.97-.93,2.19-1.54,3.34-2.22,1.54-.91,3.15-2.15,3.43-3.8.1-.55.03-1.1.07-1.65.14-2.12,2.01-4.21,4.23-4.72Z"/>
              </g>
            </g>
          </g>
          <g>
            <polygon class="cls-18" points="130.51 22.63 130 22.34 130.26 22.18 130.78 22.48 130.51 22.63"/>
            <polygon class="cls-11" points="130.78 22.48 130.51 22.63 130.51 30.37 130.78 30.21 130.78 22.48"/>
            <polygon class="cls-8" points="130.51 30.37 130 30.07 130 22.34 130.51 22.63 130.51 30.37"/>
          </g>
          <g>
            <polygon class="cls-18" points="115.56 31.05 115.05 30.75 115.31 30.59 115.83 30.89 115.56 31.05"/>
            <polygon class="cls-11" points="115.83 30.89 115.56 31.05 115.56 38.93 115.83 38.77 115.83 30.89"/>
            <polygon class="cls-8" points="115.56 38.93 115.05 38.63 115.05 30.75 115.56 31.05 115.56 38.93"/>
          </g>
          <g>
            <polygon class="cls-18" points="112.67 27.71 112.16 27.42 112.43 27.26 112.94 27.56 112.67 27.71"/>
            <polygon class="cls-11" points="112.94 27.56 112.67 27.71 112.67 33.35 112.94 33.19 112.94 27.56"/>
            <polygon class="cls-8" points="112.67 33.35 112.16 33.05 112.16 27.42 112.67 27.71 112.67 33.35"/>
          </g>
          <g>
            <polygon class="cls-18" points="134.3 26.65 133.78 26.35 134.05 26.2 134.56 26.49 134.3 26.65"/>
            <polygon class="cls-11" points="134.56 26.49 134.3 26.65 134.3 34.32 134.56 34.16 134.56 26.49"/>
            <polygon class="cls-8" points="134.3 34.32 133.78 34.02 133.78 26.35 134.3 26.65 134.3 34.32"/>
          </g>
          <g>
            <polygon class="cls-18" points="138.15 30.93 137.64 30.56 137.91 30.48 138.42 30.78 138.15 30.93"/>
            <polygon class="cls-11" points="138.42 30.78 138.15 30.93 138.15 36.57 138.42 36.41 138.42 30.78"/>
            <polygon class="cls-8" points="138.15 36.57 137.64 36.27 137.64 30.56 138.15 30.93 138.15 36.57"/>
          </g>
          <g>
            <polygon class="cls-18" points="138.38 31.11 138.9 30.82 138.9 31.12 138.38 31.42 138.38 31.11"/>
            <polygon class="cls-8" points="138.38 31.42 138.38 31.11 127.42 19.32 127.42 19.63 138.38 31.42"/>
            <polygon class="cls-4" points="127.42 19.32 127.94 19.02 138.9 30.82 138.38 31.11 127.42 19.32"/>
          </g>
          <g>
            <polygon class="cls-13" points="118.12 33.89 118.64 33.59 118.64 33.9 118.12 34.2 118.12 33.89"/>
            <polygon class="cls-8" points="118.12 34.2 118.12 33.89 111.9 27.2 111.9 27.51 118.12 34.2"/>
            <polygon class="cls-4" points="111.9 27.2 112.41 26.91 118.64 33.59 118.12 33.89 111.9 27.2"/>
          </g>
          <g>
            <polygon class="cls-18" points="129.44 36.12 129.95 35.82 129.69 35.67 129.17 35.97 129.44 36.12"/>
            <polygon class="cls-8" points="129.17 35.97 129.44 36.12 129.44 41.6 129.17 41.44 129.17 35.97"/>
            <polygon class="cls-11" points="129.44 41.6 129.95 41.3 129.95 35.82 129.44 36.12 129.44 41.6"/>
          </g>
          <g>
            <polygon class="cls-18" points="127.14 37.4 127.66 37.11 127.39 36.95 126.88 37.25 127.14 37.4"/>
            <polygon class="cls-8" points="126.88 37.25 127.14 37.4 127.14 42.88 126.88 42.73 126.88 37.25"/>
            <polygon class="cls-11" points="127.14 42.88 127.66 42.59 127.66 37.11 127.14 37.4 127.14 42.88"/>
          </g>
          <g>
            <polygon class="cls-18" points="131.67 34.88 132.18 34.59 131.91 34.43 131.4 34.73 131.67 34.88"/>
            <polygon class="cls-8" points="131.4 34.73 131.67 34.88 131.67 40.29 131.4 40.14 131.4 34.73"/>
            <polygon class="cls-11" points="131.67 40.29 132.18 39.99 132.18 34.59 131.67 34.88 131.67 40.29"/>
          </g>
          <g>
            <polygon class="cls-18" points="135.98 32.6 136.49 32.3 136.22 32.14 135.71 32.44 135.98 32.6"/>
            <polygon class="cls-8" points="135.71 32.44 135.98 32.6 135.98 37.78 135.71 37.62 135.71 32.44"/>
            <polygon class="cls-11" points="135.98 37.78 136.49 37.48 136.49 32.3 135.98 32.6 135.98 37.78"/>
          </g>
          <g>
            <polygon class="cls-18" points="124.74 38.86 125.26 38.56 124.99 38.41 124.48 38.71 124.74 38.86"/>
            <polygon class="cls-8" points="124.48 38.71 124.74 38.86 124.74 44.31 124.48 44.16 124.48 38.71"/>
            <polygon class="cls-11" points="124.74 44.31 125.26 44.01 125.26 38.56 124.74 38.86 124.74 44.31"/>
          </g>
          <g>
            <g>
              <polygon class="cls-18" points="114.52 37.84 115.04 37.54 114.77 37.39 114.26 37.68 114.52 37.84"/>
              <polygon class="cls-8" points="114.26 37.68 114.52 37.84 114.52 44 114.26 43.84 114.26 37.68"/>
              <polygon class="cls-11" points="114.52 44 115.04 43.7 115.04 37.54 114.52 37.84 114.52 44"/>
            </g>
            <g>
              <polygon class="cls-18" points="112.9 39.63 113.41 39.34 113.15 39.18 112.63 39.48 112.9 39.63"/>
              <polygon class="cls-8" points="112.63 39.48 112.9 39.63 112.9 46.34 112.63 46.18 112.63 39.48"/>
              <polygon class="cls-11" points="112.9 46.34 113.41 46.04 113.41 39.34 112.9 39.63 112.9 46.34"/>
            </g>
            <g>
              <polygon class="cls-18" points="111.34 41.34 111.86 41.05 111.59 40.89 111.07 41.19 111.34 41.34"/>
              <polygon class="cls-8" points="111.07 41.19 111.34 41.34 111.34 48.65 111.07 48.5 111.07 41.19"/>
              <polygon class="cls-11" points="111.34 48.65 111.86 48.36 111.86 41.05 111.34 41.34 111.34 48.65"/>
            </g>
            <g>
              <polygon class="cls-18" points="109.81 43.02 110.32 42.72 110.05 42.57 109.54 42.87 109.81 43.02"/>
              <polygon class="cls-8" points="109.54 42.87 109.81 43.02 109.81 51.01 109.54 50.85 109.54 42.87"/>
              <polygon class="cls-11" points="109.81 51.01 110.32 50.71 110.32 42.72 109.81 43.02 109.81 51.01"/>
            </g>
          </g>
          <g>
            <g>
              <polygon class="cls-18" points="122.07 41.42 122.59 41.12 122.32 40.96 121.8 41.26 122.07 41.42"/>
              <polygon class="cls-8" points="121.8 41.26 122.07 41.42 122.07 48.27 121.8 48.12 121.8 41.26"/>
              <polygon class="cls-11" points="122.07 48.27 122.59 47.98 122.59 41.12 122.07 41.42 122.07 48.27"/>
            </g>
            <g>
              <polygon class="cls-18" points="120.51 42.95 121.02 42.65 120.75 42.5 120.24 42.79 120.51 42.95"/>
              <polygon class="cls-8" points="120.24 42.79 120.51 42.95 120.51 50.67 120.24 50.51 120.24 42.79"/>
              <polygon class="cls-11" points="120.51 50.67 121.02 50.37 121.02 42.65 120.51 42.95 120.51 50.67"/>
            </g>
            <g>
              <polygon class="cls-18" points="118.91 44.62 119.42 44.32 119.16 44.16 118.64 44.46 118.91 44.62"/>
              <polygon class="cls-8" points="118.64 44.46 118.91 44.62 118.91 53.07 118.64 52.91 118.64 44.46"/>
              <polygon class="cls-11" points="118.91 53.07 119.42 52.77 119.42 44.32 118.91 44.62 118.91 53.07"/>
            </g>
            <g>
              <polygon class="cls-18" points="117.36 46.61 117.88 46.31 117.61 46.15 117.1 46.45 117.36 46.61"/>
              <polygon class="cls-8" points="117.1 46.45 117.36 46.61 117.36 55.43 117.1 55.28 117.1 46.45"/>
              <polygon class="cls-11" points="117.36 55.43 117.88 55.14 117.88 46.31 117.36 46.61 117.36 55.43"/>
            </g>
          </g>
          <g>
            <polygon class="cls-18" points="133.66 33.75 134.17 33.45 133.9 33.3 133.39 33.6 133.66 33.75"/>
            <polygon class="cls-8" points="133.39 33.6 133.66 33.75 133.66 39.16 133.39 39 133.39 33.6"/>
            <polygon class="cls-11" points="133.66 39.16 134.17 38.86 134.17 33.45 133.66 33.75 133.66 39.16"/>
          </g>
          <g>
            <polygon class="cls-19" points="124.14 39.35 123.62 39.05 123.62 39.36 124.14 39.66 124.14 39.35"/>
            <polygon class="cls-11" points="124.14 39.66 124.14 39.35 138.9 30.82 138.9 31.13 124.14 39.66"/>
            <polygon class="cls-4" points="138.9 30.82 138.38 30.52 123.62 39.05 124.14 39.35 138.9 30.82"/>
          </g>
          <g>
            <polygon class="cls-18" points="108.7 44.29 108.18 44 108.18 44.31 108.7 44.6 108.7 44.29"/>
            <polygon class="cls-11" points="108.7 44.6 108.7 44.29 118.64 33.6 118.64 33.91 108.7 44.6"/>
            <polygon class="cls-4" points="118.64 33.6 118.12 33.3 108.18 44 108.7 44.29 118.64 33.6"/>
          </g>
          <g>
            <g>
              <polygon class="cls-18" points="107.92 44.82 108.44 44.52 108.17 44.37 107.66 44.66 107.92 44.82"/>
              <polygon class="cls-8" points="107.66 44.66 107.92 44.82 107.92 53.61 107.66 53.46 107.66 44.66"/>
              <polygon class="cls-11" points="107.92 53.61 108.44 53.32 108.44 44.52 107.92 44.82 107.92 53.61"/>
            </g>
            <g>
              <polygon class="cls-18" points="105.88 46 106.4 45.7 106.13 45.55 105.61 45.84 105.88 46"/>
              <polygon class="cls-8" points="105.61 45.84 105.88 46 105.88 54.79 105.61 54.64 105.61 45.84"/>
              <polygon class="cls-11" points="105.88 54.79 106.4 54.5 106.4 45.7 105.88 46 105.88 54.79"/>
            </g>
            <g>
              <polygon class="cls-18" points="103.84 47.2 104.35 46.9 104.09 46.75 103.57 47.04 103.84 47.2"/>
              <polygon class="cls-8" points="103.57 47.04 103.84 47.2 103.84 55.99 103.57 55.84 103.57 47.04"/>
              <polygon class="cls-11" points="103.84 55.99 104.35 55.7 104.35 46.9 103.84 47.2 103.84 55.99"/>
            </g>
          </g>
          <g>
            <g>
              <polygon class="cls-18" points="105.13 50.37 104.61 50.07 104.88 49.92 105.39 50.22 105.13 50.37"/>
              <polygon class="cls-11" points="105.39 50.22 105.13 50.37 105.13 57.78 105.39 57.63 105.39 50.22"/>
              <polygon class="cls-8" points="105.13 57.78 104.61 57.49 104.61 50.07 105.13 50.37 105.13 57.78"/>
            </g>
            <g>
              <polygon class="cls-18" points="107.17 51.55 106.65 51.25 106.92 51.1 107.44 51.39 107.17 51.55"/>
              <polygon class="cls-11" points="107.44 51.39 107.17 51.55 107.17 58.96 107.44 58.81 107.44 51.39"/>
              <polygon class="cls-8" points="107.17 58.96 106.65 58.66 106.65 51.25 107.17 51.55 107.17 58.96"/>
            </g>
            <g>
              <polygon class="cls-18" points="109.21 52.75 108.7 52.45 108.96 52.3 109.48 52.59 109.21 52.75"/>
              <polygon class="cls-11" points="109.48 52.59 109.21 52.75 109.21 60.16 109.48 60.01 109.48 52.59"/>
              <polygon class="cls-8" points="109.21 60.16 108.7 59.86 108.7 52.45 109.21 52.75 109.21 60.16"/>
            </g>
          </g>
          <g>
            <polygon class="cls-19" points="101.57 48.4 101.06 48.11 101.06 48.42 101.57 48.71 101.57 48.4"/>
            <polygon class="cls-11" points="101.57 48.71 101.57 48.4 108.7 44.29 108.7 44.6 101.57 48.71"/>
            <polygon class="cls-4" points="108.7 44.29 108.18 44 101.06 48.11 101.57 48.4 108.7 44.29"/>
          </g>
          <g>
            <polygon class="cls-18" points="116.26 47.89 115.97 47.35 115.97 47.66 116.26 48.2 116.26 47.89"/>
            <polygon class="cls-11" points="116.26 48.2 116.26 47.89 124.14 39.35 124.14 39.66 116.26 48.2"/>
            <polygon class="cls-4" points="124.14 39.35 123.62 39.05 115.97 47.35 116.26 47.89 124.14 39.35"/>
          </g>
          <g>
            <polygon class="cls-19" points="109.67 53.08 110.19 52.78 110.19 53.09 109.67 53.39 109.67 53.08"/>
            <polygon class="cls-8" points="109.67 53.39 109.67 53.08 101.06 48.11 101.06 48.42 109.67 53.39"/>
            <polygon class="cls-4" points="101.06 48.11 101.57 47.81 110.19 52.78 109.67 53.08 101.06 48.11"/>
          </g>
          <g>
            <g>
              <polygon class="cls-18" points="111.7 56.01 111.19 55.71 111.46 55.56 111.97 55.86 111.7 56.01"/>
              <polygon class="cls-11" points="111.97 55.86 111.7 56.01 111.7 64.08 111.97 63.93 111.97 55.86"/>
              <polygon class="cls-8" points="111.7 64.08 111.19 63.79 111.19 55.71 111.7 56.01 111.7 64.08"/>
            </g>
            <g>
              <polygon class="cls-18" points="113.14 58.18 112.63 57.89 112.9 57.73 113.41 58.34 113.14 58.18"/>
              <polygon class="cls-11" points="113.41 58.34 113.14 58.18 113.14 66.74 113.41 66.59 113.41 58.34"/>
              <polygon class="cls-8" points="113.14 66.74 112.63 66.45 112.63 57.89 113.14 58.18 113.14 66.74"/>
            </g>
            <g>
              <polygon class="cls-18" points="114.59 60.83 114.07 60.47 114.34 60.38 114.85 60.76 114.59 60.83"/>
              <polygon class="cls-11" points="114.85 60.76 114.59 60.83 114.59 69.39 114.85 69.24 114.85 60.76"/>
              <polygon class="cls-8" points="114.59 69.39 114.07 69.09 114.07 60.47 114.59 60.83 114.59 69.39"/>
            </g>
            <g>
              <polygon class="cls-18" points="116.01 63.23 115.49 62.94 115.76 62.78 116.28 63.19 116.01 63.23"/>
              <polygon class="cls-11" points="116.28 63.19 116.01 63.23 116.01 72.02 116.28 71.86 116.28 63.19"/>
              <polygon class="cls-8" points="116.01 72.02 115.49 71.72 115.49 62.94 116.01 63.23 116.01 72.02"/>
            </g>
            <g>
              <polygon class="cls-18" points="117.44 65.75 116.92 65.45 117.19 65.29 117.71 65.59 117.44 65.75"/>
              <polygon class="cls-11" points="117.71 65.59 117.44 65.75 117.44 74.74 117.71 74.58 117.71 65.59"/>
              <polygon class="cls-8" points="117.44 74.74 116.92 74.44 116.92 65.45 117.44 65.75 117.44 74.74"/>
            </g>
          </g>
          <g>
            <g>
              <polygon class="cls-18" points="118.31 51.68 117.8 51.39 118.07 51.23 118.58 51.53 118.31 51.68"/>
              <polygon class="cls-11" points="118.58 51.53 118.31 51.68 118.31 60.25 118.58 60.09 118.58 51.53"/>
              <polygon class="cls-8" points="118.31 60.25 117.8 59.95 117.8 51.39 118.31 51.68 118.31 60.25"/>
            </g>
            <g>
              <polygon class="cls-18" points="119.75 54.2 119.24 53.9 119.51 53.75 120.02 54.04 119.75 54.2"/>
              <polygon class="cls-11" points="120.02 54.04 119.75 54.2 119.75 62.91 120.02 62.75 120.02 54.04"/>
              <polygon class="cls-8" points="119.75 62.91 119.24 62.61 119.24 53.9 119.75 54.2 119.75 62.91"/>
            </g>
            <g>
              <polygon class="cls-18" points="121.2 56.68 120.68 56.38 120.95 56.23 121.47 56.52 121.2 56.68"/>
              <polygon class="cls-11" points="121.47 56.52 121.2 56.68 121.2 65.56 121.47 65.4 121.47 56.52"/>
              <polygon class="cls-8" points="121.2 65.56 120.68 65.26 120.68 56.38 121.2 56.68 121.2 65.56"/>
            </g>
            <g>
              <polygon class="cls-18" points="122.62 59.07 122.1 58.77 122.37 58.62 122.89 58.92 122.62 59.07"/>
              <polygon class="cls-11" points="122.89 58.92 122.62 59.07 122.62 68.18 122.89 68.03 122.89 58.92"/>
              <polygon class="cls-8" points="122.62 68.18 122.1 67.88 122.1 58.77 122.62 59.07 122.62 68.18"/>
            </g>
            <g>
              <polygon class="cls-18" points="124.05 61.47 123.54 61.17 123.8 61.02 124.32 61.32 124.05 61.47"/>
              <polygon class="cls-11" points="124.32 61.32 124.05 61.47 124.05 70.9 124.32 70.75 124.32 61.32"/>
              <polygon class="cls-8" points="124.05 70.9 123.54 70.6 123.54 61.17 124.05 61.47 124.05 70.9"/>
            </g>
          </g>
          <g>
            <polygon class="cls-11" points="118.93 68.79 119.45 68.49 119.45 68.8 118.93 69.09 118.93 68.79"/>
            <polygon class="cls-8" points="118.93 69.09 118.93 68.79 109.67 53.08 109.67 53.39 118.93 69.09"/>
            <polygon class="cls-4" points="109.67 53.08 110.19 52.78 119.45 68.49 118.93 68.79 109.67 53.08"/>
          </g>
          <g>
            <polygon class="cls-11" points="125.76 64.83 126.28 64.53 126.28 64.84 125.76 65.14 125.76 64.83"/>
            <polygon class="cls-8" points="125.76 65.14 125.76 64.83 115.64 47.66 115.64 47.97 125.76 65.14"/>
            <polygon class="cls-4" points="115.64 47.66 116.09 47.23 126.28 64.53 125.76 64.83 115.64 47.66"/>
          </g>
        </g>
      </g>
    </g>
  </g>
</svg>