<?xml version="1.0" encoding="UTF-8"?>
<svg xmlns="http://www.w3.org/2000/svg" viewBox="0 0 147.21 186.24">
  <defs>
    <style>
      .cls-1 {
        fill: #41b6e9;
      }

      .cls-1, .cls-2, .cls-3, .cls-4, .cls-5, .cls-6, .cls-7, .cls-8, .cls-9, .cls-10, .cls-11, .cls-12, .cls-13, .cls-14, .cls-15, .cls-16, .cls-17, .cls-18, .cls-19, .cls-20, .cls-21, .cls-22, .cls-23, .cls-24, .cls-25, .cls-26 {
        stroke-width: 0px;
      }

      .cls-2 {
        fill: #fbfcfd;
        opacity: .4;
      }

      .cls-3 {
        fill: #d7e2dc;
      }

      .cls-4 {
        mix-blend-mode: multiply;
      }

      .cls-4, .cls-15 {
        fill: #a6816f;
      }

      .cls-5 {
        fill: #f7f3e6;
      }

      .cls-6 {
        fill: #d83432;
      }

      .cls-7 {
        fill: #eb5b57;
      }

      .cls-27 {
        isolation: isolate;
      }

      .cls-8 {
        fill: #145e9a;
      }

      .cls-9 {
        fill: #f2e9de;
      }

      .cls-10 {
        fill: #f59a1b;
      }

      .cls-11 {
        fill: #b0bcb5;
      }

      .cls-12 {
        fill: #50c1e5;
      }

      .cls-13 {
        fill: #cdb0a2;
      }

      .cls-14 {
        fill: #fff;
      }

      .cls-16 {
        fill: #e0760c;
      }

      .cls-17 {
        fill: #cd2422;
      }

      .cls-18 {
        fill: #fafcfe;
      }

      .cls-19 {
        fill: #9ba99f;
      }

      .cls-20 {
        fill: #d8dff0;
      }

      .cls-21 {
        fill: #3488c8;
      }

      .cls-22 {
        fill: #bfc9e1;
      }

      .cls-23 {
        fill: #7acdf3;
      }

      .cls-24 {
        fill: #99d6f1;
      }

      .cls-25 {
        fill: #0f4773;
      }

      .cls-26 {
        fill: #47414e;
      }
    </style>
  </defs>
  <g class="cls-27">
    <g id="Livello_1" data-name="Livello 1">
      <g id="_ZonaToboga_" data-name="&amp;lt;ZonaToboga&amp;gt;">
        <g>
          <g>
            <rect class="cls-26" x="141.9" y="59.92" width="2.43" height="34.41"/>
            <path class="cls-26" d="m141.9,94.34c0,.37.54.66,1.22.66s1.22-.3,1.22-.66c0-.37-.55-.66-1.22-.66s-1.22.3-1.22.66Z"/>
          </g>
          <g>
            <g>
              <polygon class="cls-11" points="115.87 79.63 120.99 80.63 139.74 100.99 132.77 105.01 128.73 102.67 111.5 77.47 115.87 79.63"/>
              <g>
                <g>
                  <polygon class="cls-3" points="132.78 102.42 143.12 96.45 140.3 94.81 129.97 100.78 132.78 102.42"/>
                  <polygon class="cls-3" points="129.97 98.18 140.3 92.22 137.49 90.58 127.15 96.54 129.97 98.18"/>
                  <polygon class="cls-19" points="129.97 100.78 140.3 94.81 140.3 92.22 129.97 98.18 129.97 100.78"/>
                  <polygon class="cls-19" points="132.78 105.01 143.12 99.04 143.12 96.45 132.78 102.41 132.78 105.01"/>
                </g>
                <g>
                  <polygon class="cls-3" points="121.53 85.5 131.87 79.54 129.05 77.9 118.72 83.87 121.53 85.5"/>
                  <polygon class="cls-3" points="118.72 81.27 129.05 75.31 126.24 73.67 115.9 79.63 118.72 81.27"/>
                  <polygon class="cls-19" points="118.72 83.87 129.05 77.9 129.05 75.31 118.72 81.27 118.72 83.87"/>
                  <polygon class="cls-26" points="121.53 88.1 131.87 82.13 131.87 79.54 121.53 85.5 121.53 88.1"/>
                </g>
                <g>
                  <polygon class="cls-3" points="127.15 93.96 137.49 87.99 134.68 86.36 124.34 92.32 127.15 93.96"/>
                  <polygon class="cls-3" points="124.34 89.72 134.68 83.76 131.86 82.12 121.53 88.08 124.34 89.72"/>
                  <polygon class="cls-19" points="124.34 92.32 134.68 86.36 134.68 83.76 124.34 89.72 124.34 92.32"/>
                  <polygon class="cls-19" points="127.15 96.55 137.49 90.58 137.49 87.99 127.15 93.95 127.15 96.55"/>
                </g>
              </g>
            </g>
            <g>
              <polygon class="cls-11" points="98.97 54.29 104.09 55.29 122.83 75.65 115.87 79.67 111.5 77.47 93.23 49.83 98.88 52.56 98.97 54.29"/>
              <g>
                <g>
                  <polygon class="cls-3" points="115.87 77.08 126.21 71.11 123.4 69.48 113.06 75.44 115.87 77.08"/>
                  <polygon class="cls-3" points="113.06 72.84 123.4 66.88 120.58 65.24 110.25 71.2 113.06 72.84"/>
                  <polygon class="cls-19" points="113.06 75.44 123.4 69.48 123.4 66.88 113.06 72.84 113.06 75.44"/>
                  <polygon class="cls-19" points="115.87 79.67 126.21 73.7 126.21 71.11 115.87 77.07 115.87 79.67"/>
                </g>
                <g>
                  <polygon class="cls-3" points="104.62 60.16 114.96 54.2 112.15 52.56 101.81 58.53 104.62 60.16"/>
                  <polygon class="cls-3" points="101.81 55.93 112.15 49.97 109.33 48.33 99 54.29 101.81 55.93"/>
                  <polygon class="cls-19" points="101.81 58.53 112.15 52.56 112.15 49.97 101.81 55.93 101.81 58.53"/>
                  <polygon class="cls-26" points="104.62 62.76 114.96 56.79 114.96 54.2 104.62 60.16 104.62 62.76"/>
                </g>
                <g>
                  <polygon class="cls-3" points="110.25 68.62 120.59 62.65 117.77 61.02 107.44 66.98 110.25 68.62"/>
                  <polygon class="cls-3" points="107.44 64.38 117.77 58.42 114.96 56.78 104.62 62.74 107.44 64.38"/>
                  <polygon class="cls-19" points="107.44 66.98 117.77 61.02 117.77 58.42 107.44 64.38 107.44 66.98"/>
                  <polygon class="cls-19" points="110.25 71.21 120.59 65.25 120.59 62.65 110.25 68.61 110.25 71.21"/>
                </g>
              </g>
            </g>
            <g>
              <polygon class="cls-3" points="99.01 51.7 109.35 45.74 106.54 44.1 96.2 50.06 99.01 51.7"/>
              <polygon class="cls-26" points="96.2 50.06 106.54 44.1 106.54 41.51 96.2 47.47 96.2 50.06"/>
              <polygon class="cls-26" points="99.01 54.29 109.35 48.33 109.35 45.73 99.01 51.7 99.01 54.29"/>
            </g>
          </g>
          <g>
            <path class="cls-14" d="m93.23,48.78l36.79,21.42,17.19-10.03-36.8-21.25-17.19,9.86Zm17.31,7.05l-13.33-7.68,12.54-7.26,13.33,7.68-12.54,7.26Z"/>
            <g>
              <path class="cls-26" d="m144.64,54.75c0-1.02-.64-2.25-1.39-2.69l-18.78-10.82c-.13-.07-.3-.15-.47-.15-.09,0-.18.02-.26.07-.25.14-.39.52-.39,1v5.3s-.38.03-.55,0v-5.3c0-.69.24-1.23.67-1.48.37-.21.82-.18,1.28.08l18.78,10.82c.92.53,1.67,1.95,1.67,3.17v5.36c-.18,0-.37,0-.55,0v-5.36Z"/>
              <path class="cls-26" d="m145.19,60.11c0,.08-.12.15-.28.15s-.28-.07-.28-.15c0-.08.12-.15.28-.15s.28.07.28.15Z"/>
              <path class="cls-26" d="m123.35,47.46c0,.08-.12.15-.28.15s-.28-.07-.28-.15.12-.15.28-.15.28.07.28.15Z"/>
              <polygon class="cls-26" points="144.78 57.71 145.07 57.21 123.2 44.6 122.92 45.1 144.78 57.71"/>
              <polygon class="cls-26" points="144.78 56.19 145.07 55.69 123.2 43.08 122.92 43.58 144.78 56.19"/>
            </g>
            <g>
              <g>
                <path class="cls-26" d="m133.65,58.99l8.68-5.01c.46-.26.91-.29,1.28-.08.43.25.67.78.67,1.48v5.3c-.17.03-.54,0-.55,0v-5.3c0-.48-.15-.86-.39-1-.08-.05-.17-.07-.26-.07-.17,0-.34.07-.47.15l-8.96,5.17v-.64Z"/>
                <path class="cls-26" d="m143.72,60.69c0,.08.12.15.28.15s.28-.07.28-.15-.12-.15-.28-.15-.28.07-.28.15Z"/>
                <polygon class="cls-26" points="133.65 63.72 143.87 57.83 144.15 58.33 133.65 64.39 133.65 63.72"/>
                <polygon class="cls-26" points="133.65 62.2 143.87 56.3 144.15 56.8 133.65 62.86 133.65 62.2"/>
              </g>
              <g>
                <path class="cls-26" d="m131.14,60.46l8.02-4.62v.64s-7.74,4.46-7.74,4.46c-.76.44-1.39,1.67-1.39,2.69v5.36c-.18,0-.37,0-.55,0v-5.36c0-1.22.75-2.64,1.67-3.17Z"/>
                <path class="cls-26" d="m129.46,68.99c0,.08.12.15.28.15s.28-.07.28-.15-.12-.15-.28-.15-.28.07-.28.15Z"/>
                <polygon class="cls-26" points="139.15 60.57 139.15 61.23 129.87 66.59 129.59 66.09 139.15 60.57"/>
                <polygon class="cls-26" points="139.15 59.05 139.15 59.71 129.87 65.07 129.59 64.57 139.15 59.05"/>
              </g>
            </g>
            <g>
              <g>
                <polygon class="cls-11" points="101.52 35.22 106.64 36.22 125.38 56.57 118.41 60.59 114.37 58.26 97.14 33.06 101.52 35.22"/>
                <g>
                  <g>
                    <polygon class="cls-3" points="118.42 58 128.76 52.04 125.95 50.4 115.61 56.36 118.42 58"/>
                    <polygon class="cls-3" points="115.61 53.77 125.95 47.8 123.13 46.17 112.79 52.13 115.61 53.77"/>
                    <polygon class="cls-26" points="115.61 56.36 125.95 50.4 125.95 47.81 115.61 53.77 115.61 56.36"/>
                    <polygon class="cls-26" points="118.42 60.59 128.76 54.63 128.76 52.03 118.42 58 118.42 60.59"/>
                  </g>
                  <g>
                    <polygon class="cls-3" points="107.17 41.09 117.51 35.13 114.7 33.49 104.36 39.45 107.17 41.09"/>
                    <polygon class="cls-3" points="104.36 36.86 114.7 30.89 111.88 29.25 101.54 35.22 104.36 36.86"/>
                    <polygon class="cls-19" points="104.36 39.45 114.7 33.49 114.7 30.89 104.36 36.86 104.36 39.45"/>
                    <polygon class="cls-19" points="107.17 43.68 117.51 37.72 117.51 35.12 107.17 41.09 107.17 43.68"/>
                  </g>
                  <g>
                    <polygon class="cls-3" points="112.8 49.54 123.13 43.58 120.32 41.94 109.98 47.9 112.8 49.54"/>
                    <polygon class="cls-3" points="109.98 45.31 120.32 39.34 117.51 37.71 107.17 43.67 109.98 45.31"/>
                    <polygon class="cls-19" points="109.98 47.9 120.32 41.94 120.32 39.35 109.98 45.31 109.98 47.9"/>
                    <polygon class="cls-19" points="112.8 52.13 123.13 46.17 123.13 43.58 112.8 49.54 112.8 52.13"/>
                  </g>
                </g>
              </g>
              <g>
                <polygon class="cls-11" points="84.61 9.88 89.73 10.88 108.47 31.23 101.51 35.25 97.14 33.06 81.06 10.62 84.61 9.88"/>
                <g>
                  <g>
                    <polygon class="cls-3" points="101.52 32.66 111.86 26.7 109.04 25.06 98.7 31.02 101.52 32.66"/>
                    <polygon class="cls-3" points="98.7 28.43 109.04 22.46 106.23 20.83 95.89 26.79 98.7 28.43"/>
                    <polygon class="cls-19" points="98.7 31.02 109.04 25.06 109.04 22.47 98.7 28.43 98.7 31.02"/>
                    <polygon class="cls-19" points="101.52 35.25 111.86 29.29 111.86 26.7 101.52 32.66 101.52 35.25"/>
                  </g>
                  <g>
                    <polygon class="cls-3" points="90.27 15.75 100.61 9.79 97.79 8.15 87.45 14.11 90.27 15.75"/>
                    <polygon class="cls-14" points="84.36 13.61 97.79 5.55 88.74 .42 76.78 7.5 84.36 13.61"/>
                    <polygon class="cls-19" points="84.28 16 97.79 8.15 97.79 5.55 84.28 13.4 84.28 16"/>
                    <polygon class="cls-26" points="90.27 18.34 100.61 12.38 100.61 9.78 90.27 15.75 90.27 18.34"/>
                  </g>
                  <g>
                    <polygon class="cls-3" points="95.89 24.2 106.23 18.24 103.42 16.6 93.08 22.56 95.89 24.2"/>
                    <polygon class="cls-3" points="93.08 19.97 103.42 14.01 100.6 12.37 90.27 18.33 93.08 19.97"/>
                    <polygon class="cls-26" points="93.08 22.56 103.42 16.6 103.42 14.01 93.08 19.97 93.08 22.56"/>
                    <polygon class="cls-26" points="95.89 26.79 106.23 20.83 106.23 18.24 95.89 24.2 95.89 26.79"/>
                  </g>
                </g>
              </g>
            </g>
            <g>
              <g>
                <path class="cls-26" d="m124.62,58.38l-8.68-5.01c-.46-.26-.91-.29-1.28-.08-.43.25-.67.78-.67,1.48v5.3c.17.03.54,0,.55,0v-5.3c0-.48.15-.86.39-1,.08-.05.17-.07.26-.07.17,0,.34.07.47.15l8.96,5.17v-.64Z"/>
                <path class="cls-26" d="m114.54,60.08c0,.08-.12.15-.28.15s-.28-.07-.28-.15.12-.15.28-.15.28.07.28.15Z"/>
                <polygon class="cls-26" points="124.62 63.11 114.4 57.21 114.12 57.71 124.62 63.77 124.62 63.11"/>
                <polygon class="cls-26" points="124.62 61.59 114.4 55.69 114.12 56.19 124.62 62.25 124.62 61.59"/>
              </g>
              <g>
                <path class="cls-26" d="m127.13,59.85l-8.02-4.62v.64s7.74,4.46,7.74,4.46c.76.44,1.39,1.67,1.39,2.69v5.36c.18,0,.37,0,.55,0v-5.36c0-1.22-.75-2.64-1.67-3.17Z"/>
                <path class="cls-26" d="m128.8,68.37c0,.08-.12.15-.28.15s-.28-.07-.28-.15.12-.15.28-.15.28.07.28.15Z"/>
                <polygon class="cls-26" points="119.12 59.96 119.12 60.62 128.39 65.98 128.68 65.48 119.12 59.96"/>
                <polygon class="cls-26" points="119.12 58.44 119.12 59.1 128.39 64.45 128.68 63.95 119.12 58.44"/>
              </g>
            </g>
            <polygon class="cls-11" points="130.02 71.06 130.02 70.04 93.27 48.78 93.27 49.83 130.02 71.06"/>
            <polygon class="cls-26" points="147.21 60.17 130.02 70.04 130.02 71.06 147.21 61.2 147.21 60.17"/>
          </g>
        </g>
        <g>
          <g>
            <polygon class="cls-24" points="118.88 158.61 102.12 168.28 75.73 183.52 45.84 133.33 45.84 116.45 118.88 158.61"/>
            <polygon class="cls-23" points="2.69 141.36 45.84 116.45 45.84 133.33 19.45 151.03 2.69 141.36"/>
          </g>
          <polygon class="cls-12" points="19.45 148.57 75.73 181.06 102.12 165.82 45.84 133.33 19.45 148.57"/>
          <path class="cls-2" d="m6.39,140.82c-.09.67.1,1.36.17,2.03.43.22.86.44,1.3.65-.07-.4-.13-.79-.21-1.19-.06-.31-.17-.69-.06-1,.18-.49.65-.88,1.17-1.2,2.29,1.24,5.27,2.4,6.7,4.67-.16-.28-.33-.56-.53-.82-1.5-2.03-3.98-3.08-6.14-4.25-.13-.07-.25-.14-.38-.21.32-.18.64-.33.9-.45,2.2-1.04,4.6-1.81,7.03-2.06,1.32-.14,2.69-.1,4.03-.18.41.26.82.5,1.22.72,1.55.87,3.15,1.6,4.8,2.24-.55.46-1.08.95-1.53,1.5-1.34.51-2.68,1.03-4.02,1.55-1.76.69-3.49,1.48-5.23,2.22.04.07.08.13.12.2,2.93-1.34,5.91-2.57,8.92-3.71-.02.03-.05.05-.07.08-1.06,1.41-1.4,3.08-1.42,4.79-1.75-.17-3.63.38-4.34,2.15-.26.65-.39,1.34-.45,2.03-.12-.14-.23-.29-.34-.45-.97-1.37-1.43-3-2.13-4.5-.09.04-.19.08-.28.12.75,1.61,1.28,3.32,2.38,4.78.11.15.23.29.35.43-.01.29-.01.58,0,.87.12.03.24.07.35.14,0-.22,0-.44,0-.66,1.25,1.25,2.89,2.07,4.51,2.75.31.13.62.27.93.4.03.28.05.56.07.84.11.01.22.05.32.1-.02-.26-.04-.53-.06-.79,1.43.65,2.79,1.35,4.16,2.17.92.56,1.87,1.11,2.78,1.72-.07.01-.14.03-.21.04.13.08.25.16.38.25.07-.01.14-.03.21-.04.6.41,1.18.85,1.72,1.33.45.4.94.87,1.18,1.43.11.12.21.24.31.36-.12-.56-.41-1.09-.89-1.55-.62-.6-1.31-1.14-2.02-1.63,1.36-.26,2.71-.49,4.02-.91.04.05.08.11.12.16-1.77,1.15-.32,3.81.92,4.83.84.69,1.86,1.09,2.93,1.36-.05.17-.1.35-.15.53.16-.02.32-.03.48-.02.04-.14.07-.27.11-.4,1.13.24,2.3.36,3.37.53,2.55.4,6.28,1.2,6.27,4.47,0,.06,0,.12,0,.18.07.12.14.25.2.37,0,0,0,0,0,0,.11-1.75-.55-3.35-2.49-4.25-2.28-1.06-4.84-1.06-7.26-1.62.3-.89.69-1.72,1.17-2.41.98-1.43,2.26-2.69,3.88-3.39,1.44-.62,2.91-.6,4.43-.73-.19,1.75.01,3.5,1.4,4.78.69.64,1.48,1.13,2.32,1.54-.04.28-.07.56-.08.85-.09,1.83.61,3.69,1.71,5.13.5.65,1.03,1.24,1.59,1.8.11,1.07.25,2.14.37,3.21.15.07.3.15.44.23-.11-1-.24-2-.35-3,.85.79,1.75,1.52,2.69,2.26,1.61,1.26,3.29,2.43,4.91,3.68.35.27.7.53,1.05.78-.25.22-.49.45-.75.66.21.14.43.28.64.41.24-.22.47-.44.7-.67.55.36,1.12.7,1.72,1.01-.4.14-.82.24-1.23.32.2.11.41.21.62.31.4-.1.79-.22,1.17-.36,1.98.98,5.1,2.41,7.18,1.19.05,1.07.15,2.12.33,3.16.13-.13.25-.25.38-.37-.15-1.03-.24-2.06-.28-3.1.12-.1.24-.21.35-.34.47-.54.8-1.21.91-1.92.09-.56,1.29-1.17,1.74-1.46.49-.32.98-.61,1.5-.88.91-.46,1.85-.91,2.8-1.34.87.75,1.6,1.65,2.07,2.72.07-.04.14-.08.21-.11-.32-.76-.78-1.48-1.39-2.13-.2-.21-.4-.41-.62-.6,1.34-.6,2.7-1.17,4.06-1.67.02,0,.05-.02.07-.03.97.7,1.82,1.44,2.22,2.41.19-.08.37-.17.56-.25-.25-.9-.86-1.7-1.74-2.39-.03-.02-.06-.05-.09-.07,1.46-.42,2.95-.59,4.47-.6-.33.72-.6,1.45-.8,2.19.1-.05.21-.11.31-.16.21-.69.5-1.37.81-2.02.28,0,.56,0,.85.02.6.02,1.27.04,1.94.08.32-.17.64-.33.95-.5-.26-.05-.51-.1-.76-.14-.86-.14-1.72-.21-2.59-.23.24-.46.48-.91.72-1.35.11-.21.23-.42.35-.64.38.16.76.34,1.12.57.63.41,1.21.94,1.79,1.47.15-.08.29-.15.44-.23-.78-.73-1.57-1.44-2.51-1.98-.19-.11-.39-.21-.58-.3.25-.45.5-.91.76-1.35.95.08,1.91.07,2.85-.09,2.25-.38,4.84-1.61,6.06-3.63.15.6.22,1.23.2,1.89-.01.4-.06.8-.12,1.2.07-.05.14-.1.22-.15.15-1.09.14-2.18-.13-3.24.28-.55.47-1.16.52-1.82.26-3.29-1.53-6.42-1.25-9.71,2.79,1.69,5.35,3.81,7.09,6.36-.26.35-.55.67-.8,1.01-.62.83-1.19,1.69-1.73,2.57-.73,1.17-1.49,2.5-2.11,3.9.29-.15.57-.3.85-.45.62-1.46,1.42-2.87,2.31-4.21.55-.83,1.15-1.61,1.77-2.39.37.59.7,1.2.98,1.83-.18.87-.27,1.76-.29,2.65.06-.04.12-.08.18-.13,0-.05,0-.1,0-.16.03-.7.12-1.38.24-2.04.21.53.39,1.08.52,1.65.07-.05.14-.1.21-.15-.16-.66-.38-1.29-.65-1.91.36-1.61,1.01-3.1,1.88-4.51v-.41c-.13.19-.26.39-.38.59-.78,1.28-1.31,2.63-1.63,4.03-.26-.57-.57-1.11-.9-1.64.26-.33.54-.69.68-1.1.45-1.3.03-2.76-.54-3.95-.08-.17-.18-.35-.28-.53h-.86c.35.65.7,1.32.86,2.04.17.76.51,1.69.2,2.46-.09.23-.21.44-.35.65-1.78-2.61-4.4-4.79-7.21-6.47.02-.17.05-.33.08-.5.15-.76.4-1.44.74-2.05-.11,0-.21-.03-.31-.05-.07.13-.13.27-.19.41-.28.68-.45,1.37-.54,2.07-.4-.24-.8-.46-1.2-.68-.77-.41-1.54-.79-2.33-1.15.09-.91.11-1.84.12-2.76-.29-.21-.54-.43-.76-.68,0,1.05.03,2.09-.06,3.13-2.87-1.25-5.85-2.18-8.86-3.02,0-1.19.12-2.38.34-3.54-.06-.02-.12-.05-.18-.07-.11.61-.2,1.23-.26,1.84-.05.56-.08,1.14-.1,1.72-1.44-.4-2.89-.77-4.34-1.14-.26-1.47-.76-3.67-.6-5.26.12,0,.24,0,.36,0-.23-.18-.46-.37-.67-.57-.07.12-.15.25-.24.36-.75.15-1.44.52-2.02,1.11-.27.27-.51.55-.73.85-.24.09-.48.17-.71.22-.1.02-.06.18.04.16.17-.04.33-.08.5-.14-.41.6-.75,1.25-1.05,1.92-.16-.04-.32-.09-.48-.13-1.01-.29-2.03-.59-3.05-.92-.28-.89-.44-1.8-.42-2.74.04-1.58.5-3.09,1.33-4.38-.03,0-.05,0-.08-.01-.08-.02-.16-.04-.23-.07-.5.76-.88,1.62-1.1,2.62-.34,1.55-.22,3.05.19,4.49-.68-.22-1.35-.45-2.02-.69-.02-.3-.04-.59-.08-.89-.22-1.75-.88-3.46-1.79-4.96-.12-.2-.25-.39-.38-.59.61-.86,1.31-1.6,2.09-2.29-.08-.04-.16-.09-.23-.14-.75.65-1.44,1.35-2.04,2.15-1.37-2-3.06-3.73-4.74-5.47-.21-.07-.41-.14-.61-.21.09.1.19.2.28.29,1.72,1.78,3.49,3.6,4.86,5.68-.4.57-.76,1.19-1.06,1.87-.37.86-.66,1.77-.81,2.7-1.89-.89-3.69-1.93-5.35-3.15-1.08-2.4-1.75-4.87.55-6.97.27-.24.55-.47.83-.69-.08-.03-.16-.07-.25-.1-1.57,1.3-2.78,2.86-2.33,5.15.15.76.48,1.56.86,2.37-2.01-1.52-3.81-3.32-5.27-5.5-.59-.88-1.13-1.8-1.6-2.75.11-.15.25-.3.42-.45.26-.21-.07-.62-.35-.45-.14.09-.27.18-.38.27-.41-.88-.77-1.78-1.08-2.7-.29-.87-.55-1.75-.8-2.63.22-.15.44-.28.66-.41-.1-.05-.2-.1-.3-.16-.15.09-.3.18-.44.28-.06-.2-.11-.4-.17-.6-.15-.08-.3-.16-.45-.24.11.35.21.7.32,1.05-1.25.9-2.3,2.06-3.1,3.49-.84,1.52-1.36,3.12-1.65,4.76-.68-.41-1.38-.8-2.08-1.17.48-.87.97-1.72,1.46-2.57.59-1.04,1.23-2.08,1.72-3.16.23-.5.49-1.11.33-1.67-.21-.74-.82-1.22-1.43-1.64-.42-.29-.87-.6-1.35-.84.39-.27.76-.57,1.1-.91-.06-.04-.12-.07-.18-.11-.04.04-.08.08-.12.12-.32.3-.66.56-1.02.8-.38-.17-.78-.28-1.21-.28-.98,0-1.83.41-2.75.68-1.31.39-2.57.35-3.88-.05-.46-.14-.9-.3-1.34-.48,1.24-1.88,2.88-3.3,4.75-4.35-.13-.09-.26-.17-.39-.26-.63.37-1.24.78-1.81,1.24-1.12.9-2.12,1.99-2.93,3.21-.75-.32-1.46-.7-2.15-1.12-.19.14-.37.28-.55.42-.02.02-.05.04-.07.06.69.42,1.42.8,2.16,1.13.08.04.16.07.25.1-.89,1.51-1.49,3.18-1.67,4.91,0,.02,0,.03,0,.05-1.99-.68-4-1.3-6.01-1.89-.06.05-.12.11-.18.16,2.07.62,4.14,1.26,6.18,1.96-.08,1.14.09,2.17.41,3.15-.42-.08-.85-.1-1.28-.06-2.26.22-4.15,1.85-5.07,3.87-.16.35-.3.72-.45,1.09-1.2-.33-2.4-.68-3.6-1.05.77-1.76.72-3.73,1.12-5.58.12-.56.29-1.12.51-1.65-.23.16-.47.31-.71.46-.38,1.43-.44,2.93-.68,4.42-.12.75-.28,1.54-.6,2.25-2.44-.77-4.86-1.62-7.22-2.57-.09.06-.18.13-.26.19,2.39,1.02,4.84,1.92,7.33,2.71-.14.25-.3.48-.49.7-.87.99-2.15,1.73-3.41,2.12-1.3.4-2.68.49-4.06.55-.55-.38-1.07-.8-1.56-1.25-.72-.67-1.26-1.45-1.73-2.29-.12.08-.25.15-.37.23.25.45.52.89.83,1.3.59.78,1.34,1.45,2.16,2.04-.8.03-1.6.07-2.38.18-2.27.3-4.51.93-6.64,1.75-.79.31-1.57.63-2.29,1.07-.19.18-.38.35-.58.53-.34.31-.68.62-1.03.92-.03.08-.05.15-.06.24Zm25.85-6.83c1.23.33,2.46.65,3.69.94,1.34.32,2.68.63,3.93,1.17-.41.12-.82.23-1.23.36-3.53,1.07-7,2.28-10.45,3.56-.37-.13-.74-.26-1.1-.4.48-.4.98-.78,1.49-1.17,1.46-1.12,2.69-2.1,3.42-3.84.08-.2.17-.4.25-.61Zm18.47,20.29c-.11-1.08-.7-2.02-1.32-2.88-1.97-2.74-4.49-4.81-7.37-6.37.09-.53.29-1.05.67-1.56.84-1.13,2.16-2.58,2.16-4.1.31.18.63.33.96.47-.06,1.05-.04,2.09.09,3.09.22,1.72.82,3.5,2.35,4.49.95.61,1.97.79,3.08.93,1.2.16,2.31.54,3.33,1.14.14.74.23,1.49.25,2.25.07,2.47-.86,4.68-3.55,5.12-.28.05-.56.08-.84.11.13-.89.28-1.77.18-2.68Zm-8.93-21.28c-.85-1.23-1.78-2.49-2.34-3.9,1.56.43,3.02,1.43,4.33,2.32.84.57,2.37,1.94,3.58,1.8-.14.34-.27.68-.39,1.02-1.24.34-2.48.65-3.73.97-.46-.76-.96-1.49-1.45-2.2Zm1.91,4c.23.51.48,1.04.63,1.59-.32-.21-.63-.44-.94-.68-.84-.65-1.69-1.26-2.61-1.76.72-.19,1.45-.38,2.17-.57.27.46.52.93.74,1.42Zm3.16-2.44c-.18.53-.34,1.06-.47,1.59-.26,1.05-.44,2.17-.53,3.3-.35-.16-.69-.34-1.02-.54,0-.05-.02-.1-.03-.15-.28-1.16-.8-2.25-1.4-3.3,1.16-.29,2.31-.59,3.46-.91Zm-.26,5.55c.3.09.6.16.92.21,1.5.24,3.11-.23,4.62-.26.36,1.66.82,3.29,1.33,4.92.4,1.3.83,2.64,1.11,4-.28-.16-.57-.31-.87-.45-1.14-.5-2.42-.57-3.58-1-2.29-.85-3.3-2.74-3.47-5.1-.05-.75-.08-1.53-.06-2.31Zm-4.93,4.73c-.95-.49-1.93-.93-2.94-1.32-3.36-1.29-6.85-2.2-10.24-3.39,1.06-.38,2.12-.75,3.19-1.11,2.76-.94,5.54-1.89,8.35-2.67.08-.02.16-.04.24-.06.2.1.41.2.6.32,1.15.66,2.13,1.53,3.21,2.27.12.08.24.16.35.23.05.46,0,.91-.22,1.37-.51,1-1.16,1.9-1.82,2.81-.35.49-.62.96-.73,1.55Zm-2.61-15.83c.66,1.77,1.82,3.36,2.94,5.03.28.42.56.85.82,1.28-.8.2-1.6.41-2.39.63-.17-.09-.35-.17-.53-.25-1.23-.54-2.56-.81-3.85-1.12-1.21-.29-2.43-.6-3.64-.93.85-1.97,1.9-3.89,4.17-4.56.85-.25,1.68-.25,2.49-.08Zm-.12-3.34c3.1,1.09,6.15,2.32,9.07,3.81.02.04.05.08.07.12.17.34.3.84.33,1.35-.33.65-.65,1.32-.94,1.99-.21.04-.45.02-.74-.08-1.11-.37-2.04-1.13-3-1.77-1.29-.85-2.81-1.93-4.41-2.34-.12-.34-.22-.7-.28-1.06-.12-.67-.15-1.35-.11-2.03Zm9.45,4.03s-.01-.02-.02-.04c.08.04.17.09.25.13.1.05.21.11.31.17-.09.18-.19.36-.28.54-.06-.29-.15-.57-.26-.79Zm1.36-9.41c-.67.4-1.38.73-2.11,1.01-1.03.41-2.23.56-3.21,1.08-.45.24-.73.59-.6,1.12.56,2.36,2.69,3.63,3.93,5.54-1.19-.58-2.38-1.11-3.58-1.62-1.72-.73-3.46-1.39-5.22-2,.15-1.67.74-3.31,1.54-4.74.04-.07.08-.13.12-.2,1.9.71,3.99.94,5.93.26,1.03-.36,2.1-.83,3.2-.45Zm-.19,8.53c-.16.29-.32.59-.48.88-.32-.16-.63-.32-.95-.48-1.01-1.63-2.62-2.8-3.55-4.52-.45-.84-.96-1.82.21-2.24.88-.32,1.79-.51,2.65-.85.87-.34,1.75-.73,2.56-1.22.91.39,2.71,1.33,2.72,2.44,0,.95-.75,1.9-1.22,2.68-.66,1.1-1.32,2.19-1.94,3.31Zm2.13,2.67c-.07.44-.11.88-.15,1.32-.76.28-1.53.54-2.3.77-.5.15-1,.3-1.5.44.17-.45.36-.9.56-1.35.15-.2.26-.44.33-.7.28-.58.58-1.15.89-1.71.72.39,1.45.8,2.16,1.23Zm.11,6.75c.08.49.17.98.27,1.46-1.66.05-3.44.56-5.07.14-.13-.03-.26-.07-.38-.11.06-1.57.28-3.16.74-4.61.08-.26.18-.53.27-.79,1.32-.38,2.62-.81,3.89-1.29-.12,1.71,0,3.46.28,5.19Zm.06-5.32c.43-.17.85-.34,1.26-.53,1.45.94,2.83,1.98,4.07,3.15-.78.46-2.2,1.01-2.37,1.94-.24,1.29,1.36,2.58,2.24,3.23,1.65,1.24,3.57,1.66,5.5,2.21.09.18.18.36.27.54.68,1.41,1.35,2.87,1.93,4.36-.72.31-1.49.57-2.27.9-1.61.68-2.92,1.84-2.74,3.73,0,.07.02.13.02.2-1.08-.53-2.01-1.32-2.97-2.1-.57-.46-1.15-.9-1.76-1.29-.55-2.85-1.77-5.64-2.39-8.43-.56-2.5-.94-5.24-.79-7.89Zm8.46,19.97c-.01-2,1.94-3.18,3.56-4.03.35-.18.7-.37,1.05-.57.36.97.67,1.95.91,2.94.39,1.58.64,3.18.88,4.78-1.5-.13-2.97.03-4.3.64-.73-.69-1.4-1.46-1.78-2.32.26-.28.52-.55.76-.81.09-.1.07-.29-.08-.32-.35-.07-.68-.17-1-.3Zm.58.58c-.14.14-.28.29-.42.43-.05-.14-.08-.29-.11-.44-.01-.06-.02-.11-.03-.17.18.07.36.13.55.18Zm35.52,5.51c-.18.25-.36.51-.54.76-.9,1.25-1.87,2.48-2.66,3.8-.58.97-1.07,1.99-1.71,2.92-2.4-.82-4.71-1.88-6.99-3.02.74-.89,1.36-1.87,1.59-2.96.03-.14.06-.29.08-.43.91.94,2.13,1.47,3.44,1.63.05,0,.11-.04.12-.09.58-2.63-1.41-4.78-2-7.2-.29-1.17-.42-2.39-.51-3.61.74.3,1.47.63,2.21.97.94.44,1.88.89,2.81,1.36.3.9.7,1.76,1.2,2.56.8,1.25,1.93,2.25,2.97,3.32Zm-3.84-5.7c1.43.74,2.85,1.52,4.23,2.36.43.26.86.52,1.3.79-.51.84-1.06,1.67-1.63,2.48-1.61-1.71-3.11-3.38-3.89-5.63Zm-10.62-3.72c.05,0,.11,0,.16,0,1.72.06,3.29.5,4.83,1.1.13,1.76.39,3.51,1.04,5.11.58,1.41,1.49,2.85,1.6,4.41.03.46.26,1.36-.56,1.15-.4-.1-.79-.21-1.16-.4-.63-.32-1.18-.71-1.65-1.22.39-3.69-2.14-7.12-4.27-10.16Zm2.24,13.71c-2.81-1.42-5.57-2.94-8.4-4.26-.13-.06-.26-.12-.39-.18.03-.07.06-.13.1-.2.86-1.73,2.05-3.25,3.04-4.9.16-.26.32-.53.47-.82.54-.69,1-1.45,1.34-2.31.13-.34.25-.69.37-1.05.26,0,.52,0,.78,0,.45.66.9,1.3,1.33,1.92,1.45,2.11,3.04,4.62,3.11,7.26,0,.24,0,.48-.02.71-.08.01-.15.12-.08.21.02.02.03.04.05.06-.19,1.35-.84,2.52-1.7,3.56Zm-3.4-13.98c.05-.18.11-.36.16-.54.12.18.24.37.37.55-.18,0-.35,0-.53,0Zm-10.1,1.54c-.04,2.32,1.07,4.49,1.7,6.68-1.69-.68-3.51-1.26-5.29-1.47-.42-2.57-.86-5.13-1.8-7.57-.04-.11-.09-.22-.13-.33,1-.6,1.95-1.32,2.55-2.31.28.27.56.56.83.85.86.94,1.65,1.95,2.37,3-.13.33-.21.71-.22,1.14Zm-5.69-3.12c-.62-1.57-1.29-3.15-2.06-4.67.1.03.21.06.31.1,1.67.52,3.03,1.38,4.26,2.51-.65,1.03-1.53,1.61-2.52,2.06Zm2.37,12.25c.08.43.18.85.29,1.26-.17-.2-.35-.39-.53-.58-.89-.92-1.88-1.67-2.87-2.46-.45-.36-.96-.76-1.46-1.19.98-.42,2.07-.62,3.29-.57.24,0,.47.03.71.05.17,1.17.35,2.33.58,3.49Zm3.8-9.78s.02-.05.02-.08c.49.76.94,1.55,1.34,2.37.47.98.9,2,1.17,3.07.04.16.13.81.23,1.19-.19.15-.38.29-.56.45-.19.15.02.42.22.38.22-.05.44-.1.66-.15.08-.02.16-.11.15-.2,0-.07-.02-.14-.03-.21,1.11-.81,2.23-1.62,3.22-2.54-.95,1.34-2.05,2.64-2.77,4.11-.68-.31-1.4-.63-2.15-.94-.44-2.39-2.12-5.01-1.5-7.45Zm.19-.51c.49-.99,1.53-1.51,2.57-1.99.58.58,1.26,1.04,2.04,1.33,1.13.42,2.31.52,3.49.54.1.5.1,1-.06,1.53-.1.34-.23.67-.38.99-.44.7-.97,1.34-1.6,1.93-.98.9-2.07,1.66-3.13,2.46-.44-2.42-1.54-4.73-2.93-6.8Zm7.55-2.62c-.26-.71-.22-1.29.01-1.84.48,1.05,1.08,2.06,1.72,3.05-.11.35-.22.7-.33,1.04-.17,0-.34,0-.51,0-.21-.79-.61-1.47-.89-2.24Zm.95,2.51c.12,0,.24,0,.36,0-.1.27-.2.54-.31.8.02-.27,0-.53-.05-.8Zm4.14,13.97c-.42.48-.88.94-1.35,1.37-.44.4-.89.79-1.34,1.18-.35-.25-.72-.47-1.11-.65-2.18-.99-4.65.2-6.93-.33.71-1.97,1.13-4.02,1.99-5.94,2.65,1.22,5.22,2.58,7.82,3.89.31.15.61.31.92.46Zm-2.97,2.8c-.95.85-1.88,1.73-2.6,2.79-.65.96-1.09,1.99-1.39,3.08-.27-.03-.54-.06-.81-.08-1.11-.09-2.24-.01-3.37,0-.53-2.59-1.5-5.1-2.8-7.4-.54-.96-1.14-1.89-1.82-2.76-.47-1.78-.77-3.61-1.06-5.43,2.45.3,4.82,1.22,7.05,2.2.14.06.28.13.42.19-.91,1.96-1.97,4.15-1.86,6.35,0,.09.06.17.15.19,1.15.27,2.28.23,3.45.11,1.17-.12,2.53-.37,3.63.18.35.17.68.37,1,.6Zm-9.34,3.79c-.74-1.75-1.65-3.43-2.27-4.8-.28-.63-.52-1.27-.74-1.92,1.32,2.04,2.32,4.36,3.01,6.72Zm.24,1.98c-.54-.02-1.07-.07-1.6-.17-1.9-.36-3.49-1.43-5.02-2.57-1.87-1.4-3.79-2.77-5.92-3.76-.6-.28-1.22-.52-1.84-.76.22-1.19.56-2.36,1.08-3.49.87-1.9,2.16-3.38,3.83-4.21,1.3,1.16,2.81,2.18,3.98,3.4.54.57,1.05,1.18,1.52,1.83.43,1.47.99,2.88,1.65,4.29.84,1.77,1.74,3.55,2.3,5.43Zm-11.99-30.35c-1.29-.47-2.43-1.11-3.41-2.08-.43-.42-1.52-1.33-1.27-2.06.19-.56.9-.85,1.39-1.11.33-.18.65-.35.96-.55,1.92,1.91,3.46,4.13,4.71,6.51-.8-.22-1.6-.43-2.38-.71Zm-7.97-10.08c.32.19.64.39.95.6-.35.15-.7.29-1.05.42.02-.34.06-.68.1-1.02Zm6.51-3.07c-.11.12-.19.25-.26.39-1.43,1.34-3.16,2.35-4.98,3.14-.4-.27-.81-.53-1.23-.78.37-2.51,1.29-4.88,3.1-6.84.45-.49.94-.92,1.46-1.29.55,1.83,1.12,3.64,1.91,5.38Zm.4,4.69c-.01.94-.71,1.6-1.45,2.1-1.24-1.15-2.58-2.19-4-3.13,1.6-.72,3.14-1.58,4.58-2.61-.06.5.05,1.05.28,1.63.25.62.6,1.33.59,2.01Zm8.86,11.98c-.66-.63-1.37-1.2-2.14-1.62-.92-.49-1.9-.81-2.89-1.09-1.27-2.45-2.79-4.75-4.76-6.69-.03-.03-.06-.06-.1-.09.16-.1.31-.21.46-.33,1.01-.77,1.7-1.89,1.27-3.19-.36-1.05-1.03-1.99-.73-2.9.21.42.44.84.68,1.25,1.75,2.93,4.06,5.3,6.72,7.22,1.23,2.45,2.74,5.02,1.49,7.42Zm4.18-.85c.39,1.08.98,2.14,1.77,3-.26.11-.48.2-.64.28-.83.42-1.53.91-1.94,1.6-.49-.7-1-1.38-1.54-2.02-.51-.61-1.06-1.24-1.65-1.83,0-.02.02-.03.03-.05.67-1.45.51-2.98-.06-4.44-.36-.93-.87-1.91-1.35-2.9,1.57,1.11,3.26,2.08,5.02,2.92-.13,1.15-.05,2.32.36,3.44Zm3.86-2.09c-1.31-.48-2.6-1-3.86-1.59.15-1.22.56-2.41,1.19-3.52.18-.31.36-.61.56-.9,1.15,1.82,1.98,3.84,2.11,6.01Zm-.26,3.81c-.09.47-.83.85-1.5,1.14-.51-.5-.95-1.11-1.32-1.84-.69-1.38-.94-2.86-.83-4.32,1.28.6,2.59,1.13,3.92,1.61.04,1.14-.06,2.28-.27,3.41Zm3.23-1.31c-.59.95-.41,1.96.17,3.18.19.42.37.83.48,1.26-.15,0-.29,0-.44-.02-1.85-.1-3.46-.63-4.7-1.74.34-.16.68-.33.98-.52.43-.27.56-.26.64-.75.09-.53.17-1.06.21-1.6.05-.6.06-1.19.04-1.79.08.03.15.06.23.08.63.22,1.26.42,1.9.62.14.43.3.85.48,1.26Zm.79-.88c-.24.2-.43.4-.59.6-.13-.29-.25-.59-.36-.89.32.1.63.19.95.28Zm2.31.64c-.42,1.04-.75,2.14-1.08,3.22-.6-.93-1.2-1.92-1.68-2.95.15-.26.34-.52.57-.8.02-.03.02-.05.02-.08.72.21,1.44.41,2.17.6Zm3.73-4.01c-.48.5-1.09.92-1.7,1.24.09-.1.19-.2.29-.3.42-.4.9-.73,1.41-.93Zm1.3,5c-1.52-.39-3.05-.78-4.56-1.2.34-.81.74-1.57,1.27-2.23.88-.38,1.73-.96,2.35-1.68.1-.03.21-.05.31-.07-.05.45-.03.91,0,1.33.08.88.23,1.75.39,2.62.08.41.16.82.22,1.23Zm.05.98c-.06-.06-.19-.02-.18.07.07,1.19.1,2.43.18,3.67-.53-.21-1.07-.39-1.61-.55-1.17-.35-2.35-.43-3.54-.45-.24-.34-.47-.68-.69-1.01.34-1.2.66-2.45,1.11-3.62,1.57.42,3.15.81,4.73,1.2.05.31.11.78,0,.69Zm5.21,6.19c-1.59-.81-3.24-1.67-4.93-2.34-.02-.28-.04-.56-.06-.83-.05-.77-.1-1.55-.15-2.32-.02-.39-.21-.43.12-.39.06,0,.11-.05.1-.1,0-.22-.04-.51-.1-.84,1.43.36,2.86.71,4.29,1.1-.03,1.91.16,3.9.72,5.74Zm8.31-2.65c-.05.5-.13,1-.26,1.49-.42,1.66-1.13,3.17-1.97,4.61-1.87-1.19-3.79-2.29-5.76-3.29,0,0,0-.02,0-.03-.53-1.75-.83-3.77-.84-5.82,2.95.8,5.85,1.72,8.65,2.95.06.03.13.06.19.09Zm4.09,11.49c-1.34-1.94-3.26-3.36-5.2-4.66-.24-.16-.49-.32-.73-.48,0,0,.01-.02.02-.03.71-1.13,1.5-2.21,1.94-3.48.29-.84.46-1.69.56-2.54,1.18.55,2.37,1.17,3.53,1.86-.14,1.64.16,3.31.53,4.94.38,1.67.94,3.51.63,5.24-.07.39-.18.74-.33,1.08-.21-.66-.52-1.31-.95-1.93Zm-7.81,6.04c.13-.21.25-.43.39-.64.55-.89,1.17-1.82,1.46-2.84.62-2.11-.47-3.5-1.83-4.96.6-.83,1.19-1.67,1.74-2.53,1.7,1.06,3.37,2.23,4.72,3.67.96,1.03,1.73,2.22,2.13,3.53-.72,1.35-2.03,2.3-3.49,2.93-1.68.74-3.39.96-5.12.84Zm-.24-.02c-.99-.09-1.99-.28-2.98-.55-.43-.12-.86-.25-1.29-.38.49-.84.85-1.74,1.29-2.63.68-1.36,1.63-2.59,2.51-3.83.23-.32.46-.64.69-.96.48.51.93,1.05,1.3,1.65,1.48,2.37-.21,4.65-1.51,6.71Zm-4.75-.2c.1-.14.2-.29.3-.44,1.37.44,2.8.82,4.24.97-.06.1-.12.2-.18.3-.18.31-.37.63-.57.97-1.29-.57-2.67-.91-3.79-1.8Zm-7,1.93c-.97-.99-1.98-2.17-3.14-3.06.37-.33.73-.66,1.1-1,.53-.49,1.1-1.03,1.61-1.62,2.28,1.14,4.59,2.23,6.99,3.07-.12.16-.24.32-.37.47-.14.16-.16.4,0,.55,1.23,1.17,2.83,1.4,4.32,1.95-.38.66-.78,1.36-1.14,2.08-.66,0-1.32,0-1.97.04-1.27.06-2.47.33-3.63.75-1.3-1.02-2.58-2.03-3.76-3.23Zm-1,5.45c-1.81-1.44-4.09-2.25-6.39-2.58.24-.81.56-1.59.98-2.3.8-1.32,1.88-2.37,3-3.39,1.02.77,1.92,1.75,2.76,2.68,1.12,1.23,2.14,2.71,3.48,3.73-.51.22-1.02.47-1.52.75-.75.41-1.53.76-2.31,1.11Zm-7.15,4.23c.04-2.04.1-4.37.66-6.47,1.64.21,3.27.65,4.72,1.44.51.27,1,.59,1.47.94-1.14.51-2.29,1.01-3.37,1.64-.62.36-1.21.76-1.78,1.19-.24.18-.89.53-.96.84-.12.59-.34,1.19-.75,1.63,0-.41,0-.81,0-1.21Zm-7.03,1.08c.67-.32,1.29-.74,1.82-1.29,1.21-1.24,1.58-2.73,1.49-4.3.16.01.32-.08.32-.31v-.13s-.01-.09-.03-.13c-.06-.51-.14-1.01-.23-1.52.93-.01,1.86-.06,2.79,0,.41.02.82.05,1.22.1-.18.73-.31,1.47-.41,2.23-.25,1.87-.4,3.86-.37,5.85,0,0,0,0-.02.01-1.32.79-3.17.4-4.6.12-.68-.13-1.34-.35-1.98-.62Zm-2.48-1.4c1.61-1.66,3.17-3.48,5.34-4.18.09,1.07-.04,2.15-.61,3.07-.65,1.06-1.66,1.78-2.8,2.25-.67-.33-1.31-.72-1.94-1.15Zm-9.59-13.5c2.25.91,4.31,2.07,6.29,3.5,1.79,1.29,3.6,2.89,5.8,3.44.81.2,1.62.27,2.44.28.13.47.25.97.32,1.47-1.76.61-3.2,2.04-4.56,3.25-.43.38-.85.77-1.27,1.16-1.24-.89-2.4-1.89-3.54-2.78-1.78-1.38-3.47-2.85-5.05-4.46-.19-.19-.38-.39-.57-.59-.14-1.77-.13-3.54.14-5.27Zm-.36-.54c-.94-.35-1.89-.7-2.8-1.13.44-3.47,3.59-6.42,6.04-8.94.43.83,1.03,1.55,1.72,2.2-.24.13-.48.27-.72.43-2.25,1.54-3.52,4.27-4.12,6.86-.05.19-.09.39-.12.58Zm-2.84-.72c.8.36,1.63.67,2.45.97.11.04.21.08.31.12-.27,1.65-.27,3.3-.16,4.94-1.09-1.22-2.09-2.63-2.45-4.18-.15-.64-.19-1.25-.16-1.86Zm-3.84-6.3c.01-.09.02-.18.04-.28.05,0,.11-.01.16-.02,2.47-.28,4.34-1.58,4.61-4.18.12-1.15.05-2.29-.14-3.42.09.06.19.12.28.19,1.47,1.06,2.8,2.35,4.43,3.12.08.4.2.78.35,1.13-2.6,2.64-5.58,5.44-6.3,9.13-2.3-1.18-3.78-2.91-3.44-5.68Zm-14.03.55c.07.03.15-.02.13-.1.13-.1,0-.31-.15-.25-.03-.04-.06-.09-.08-.13.52-.18,1.04-.38,1.54-.63,2.13-1.05,3.59-2.8,4.04-5.16.28-1.48.28-3,.16-4.49-.06-.72-.12-1.38-.07-2.02.58.31,1.15.64,1.7,1.01,1.75,1.16,3.34,2.55,4.64,4.2.73.92,1.63,1.99,1.9,3.16.23,1.03.1,1.99-.06,3.02,0,.06-.02.13-.03.19-1.79.15-3.55.11-5.2,1.02-2.33,1.28-3.96,3.39-4.77,5.82-1.15-.29-2.32-.72-3.17-1.57-.99-.99-1.97-3.06-.58-4.07Zm-5.5-7.79c-.84-1.63-.73-3.4.32-4.92.53-.78,1.2-1.49,2.02-1.97.72-.42,1.39-.55,2.17-.73,2.11.68,4.21,1.44,6.18,2.45-.08.91.1,1.86.16,2.76.06.96.08,1.92-.02,2.88-.18,1.67-.71,3.35-1.95,4.54-1.06,1.02-2.31,1.64-3.65,2.07-1.64-2.42-3.88-4.45-5.23-7.07Zm-7.75-3.66c.03,1.79.39,3.62.63,5.29.1.7.21,1.42.3,2.14-1.93-.82-3.94-1.69-5.39-3.22,0-.05,0-.1,0-.15.06-1.04.24-2.27,1.01-3.05.86-.87,2.1-1.16,3.3-1.03.05,0,.1.01.15.02Zm.33.05c2.51.42,4.62,1.93,6.86,3.07,0,0,0,0,0,0,.5,1.28,1.4,2.43,2.23,3.49,1.1,1.4,2.23,2.78,3.31,4.19-1.36.41-2.79.64-4.2.9-.73-.49-1.48-.94-2.22-1.39-1.66-1.01-3.27-1.98-5.05-2.74-.27-2.51-.89-5.01-.93-7.52Zm4.4-6.46c1.61.58,3.24,1.11,4.88,1.61.7.22,1.4.43,2.1.65-1.3.13-2.63,1.14-3.38,2.07-.97,1.2-1.75,2.84-1.37,4.42.05.19.1.38.17.57-1.96-1.41-4.36-2.87-6.79-3.22,0-.36.01-.71.05-1.07.15-1.7.84-3,1.81-4.12.85-.32,1.69-.63,2.54-.93Zm-1.16-.43c.29.11.58.22.88.32-.67.25-1.34.5-2.02.76.35-.38.74-.74,1.14-1.08Zm-5.69-3.15c.73-.07,1.44-.2,2.13-.43,1.94-.64,4.21-1.54,5.19-3.47,0,0,0,0,0,0,1.2.38,2.41.73,3.62,1.06-.24.62-.5,1.22-.86,1.77-.75,1.13-1.85,1.85-2.91,2.66-.49.37-.99.74-1.48,1.13-.55-.21-1.1-.44-1.64-.68-1.37-.6-2.76-1.26-4.06-2.06Z"/>
          <g class="cls-27">
            <polygon class="cls-22" points="5.66 140.29 5.67 142.42 46.01 119.13 46 117 5.66 140.29"/>
            <polygon class="cls-20" points="46 117 46.01 119.13 115.9 159.67 115.9 157.55 46 117"/>
            <polygon class="cls-22" points="75.54 184.12 75.55 186.24 121.57 159.67 121.56 157.55 75.54 184.12"/>
            <polygon class="cls-20" points="0 140.29 0 142.42 75.55 186.24 75.54 184.12 0 140.29"/>
            <path class="cls-18" d="m121.56,157.55l-46.02,26.57L0,140.29l46.02-26.57,75.54,43.83Zm-46,23.29l40.34-23.29-69.9-40.55-40.34,23.29,69.9,40.55h0Z"/>
          </g>
          <g>
            <g>
              <path class="cls-8" d="m97.94,159.45c0,.28-.19.39-.43.25s-.43-.47-.43-.75.19-.39.43-.25.43.47.43.75Z"/>
              <path class="cls-14" d="m100.34,147.02c-.26.15-.69.15-.96,0-.26-.15-.27-.4,0-.55.26-.15.69-.15.96,0,.26.15.27.4,0,.55Z"/>
              <polygon class="cls-4" points="99.8 146.86 97.07 146.86 97.07 146.12 99.77 146.12 99.8 146.86"/>
              <polygon class="cls-4" points="100.39 149.11 101.68 149.85 104.98 149.85 104.89 149.11 100.39 149.11"/>
              <path class="cls-15" d="m100.28,142.84l-.05,3.82c0,.05-.04.11-.11.15-.14.08-.38.08-.52,0-.07-.04-.11-.09-.11-.15,0,0,0,0,0,0l.04-3.82c0-.15-.1-.23-.14-.25-.04-.03-.16-.08-.29,0-.06.03-.1.08-.13.15l-2.18,5.52c-.36.9-.53,1.85-.53,2.81v8.27s.02.07.05.08c.02.01.05.02.09,0l.83-.45s.02-.01.03-.02c.05-.02.11-.01.17.03.14.08.26.29.26.45,0,.07-.02.13-.06.16,0,0-.02.01-.03.02l-.85.46c-.13.07-.26.1-.4.1-.15,0-.29-.04-.43-.12-.25-.15-.41-.42-.41-.72v-8.27c0-1.06.2-2.1.59-3.09l2.18-5.52c.09-.22.25-.4.45-.52.32-.18.71-.18,1.03,0,.32.19.51.53.51.9Z"/>
              <g>
                <path class="cls-14" d="m100.11,142.26s-.07-.05-.1-.07c-.32-.19-.7-.19-1.02,0-.21.11-.37.3-.45.51l-2.18,5.52c-.39.99-.59,2.03-.59,3.09v8.27c0,.16.05.3.12.43-.03-.02-.05-.04-.08-.06-.1-.09-.18-.21-.23-.34,0-.03-.02-.05-.02-.08-.02-.07-.03-.13-.03-.2v-8.26c0-1.06.2-2.1.58-3.09l2.18-5.53c.09-.22.25-.4.45-.51.32-.18.71-.18,1.03.01.14.08.25.19.33.31Z"/>
                <path class="cls-25" d="m97.71,159.41c0,.08-.02.13-.06.16-.01,0-.02.01-.03.02l-.85.46c-.13.07-.26.1-.4.1-.15,0-.29-.04-.43-.12-.02-.01-.04-.03-.06-.04-.08-.13-.12-.27-.12-.43v-5.47c.13.03.3.02.4-.05.05-.03.09-.07.11-.11v5.38s.03.07.05.08c.02.02.06.02.09,0l.84-.45s.02-.01.03-.02c.05-.02.11-.01.17.03.15.09.26.29.26.45Z"/>
                <path class="cls-1" d="m95.88,160s-.05-.04-.08-.06c-.1-.09-.18-.21-.23-.34,0-.03-.02-.05-.02-.08-.02-.07-.03-.13-.03-.2v-5.43c0,.06.04.12.11.16.04.02.08.04.12.05v5.47c0,.16.05.3.12.43Z"/>
                <path class="cls-9" d="m99.78,143.08c0-.15-.1-.23-.14-.25-.02-.01-.05-.03-.1-.04,0,.01,0,.03,0,.04l-.04,3.82s0,0,0,0c0,.05.04.11.11.15.04.02.08.04.12.05l.04-3.77Z"/>
                <path class="cls-1" d="m97.45,158.96c-.07-.04-.13-.05-.17-.03-.01,0-.02.01-.03.02l-.74.4v.21s.02.07.05.08c.02.01.05.02.09,0l.83-.45s.02-.01.03-.02c.04-.02.09-.01.15.01-.05-.1-.12-.19-.2-.23Z"/>
              </g>
            </g>
            <g>
              <path class="cls-13" d="m101.18,154.48l-.29.47-4.98-2.88-.03-.02s-.04-.06-.04-.11c0-.12.09-.27.2-.34.05-.03.1-.03.13-.02,0,0,.01,0,.02.01l4.99,2.88Z"/>
              <path class="cls-5" d="m95.89,152.06c.04-.07.09-.13.15-.16.05-.03.1-.03.13-.02,0,0,.01,0,.02.01l4.86,2.8.13-.22-4.99-2.88s-.01,0-.02-.01c-.03-.01-.08-.01-.13.02-.11.06-.2.21-.2.34,0,.05.01.09.04.11h.01Z"/>
            </g>
            <g>
              <path class="cls-8" d="m101.18,157.51l-.29.47-4.98-2.88-.03-.02s-.04-.06-.04-.11c0-.12.09-.27.2-.34.05-.03.1-.03.13-.02,0,0,.01,0,.02.01l4.99,2.88Z"/>
              <path class="cls-21" d="m95.89,155.09c.04-.07.09-.12.15-.16.05-.03.1-.03.13-.02,0,0,.01,0,.02.01l4.86,2.8.13-.22-4.99-2.88s-.01,0-.02-.01c-.03-.01-.08-.01-.13.02-.11.06-.2.21-.2.34,0,.05.01.09.04.11h.01Z"/>
            </g>
            <g>
              <path class="cls-8" d="m101.18,160.49l-.29.47-4.98-2.88-.03-.02s-.04-.06-.04-.11c0-.12.09-.27.2-.34.05-.03.1-.03.13-.02,0,0,.01,0,.02.01l4.99,2.88Z"/>
              <path class="cls-21" d="m95.89,158.08c.04-.07.09-.13.15-.16.05-.03.1-.03.13-.02,0,0,.01,0,.02.01l4.86,2.8.13-.22-4.99-2.88s-.01,0-.02-.01c-.03-.01-.08-.01-.13.02-.11.06-.2.21-.2.34,0,.05.01.09.04.11h.01Z"/>
            </g>
            <g>
              <path class="cls-8" d="m103.08,162.43c0,.28-.19.39-.43.25s-.43-.47-.43-.75c0-.28.19-.39.43-.25.24.14.43.47.43.75Z"/>
              <path class="cls-14" d="m105.48,150c-.26.15-.69.15-.96,0-.26-.15-.27-.4,0-.55.26-.15.69-.15.96,0,.26.15.27.4,0,.55Z"/>
              <path class="cls-15" d="m105.43,145.82l-.05,3.82c0,.06-.04.11-.11.15-.15.08-.38.08-.52,0-.07-.04-.11-.1-.11-.15h0s.05-3.82.05-3.82c0-.15-.1-.23-.14-.25-.05-.03-.16-.08-.29,0-.06.03-.1.09-.13.15l-2.18,5.52c-.35.9-.53,1.85-.53,2.81v8.27s.03.07.05.08c.02.01.06.02.1,0l.83-.45s.02-.01.03-.02c.05-.02.11-.02.17.03.15.09.26.29.26.45,0,.08-.02.13-.06.16-.01,0-.02.01-.03.02l-.85.46c-.13.07-.26.1-.4.1-.15,0-.29-.04-.43-.12-.25-.15-.4-.42-.4-.72v-8.27c0-1.06.2-2.1.58-3.09l2.18-5.52c.09-.22.25-.4.45-.51.32-.19.71-.18,1.03,0,.32.19.51.53.5.9Z"/>
              <g>
                <path class="cls-14" d="m105.26,145.24s-.07-.05-.1-.07c-.32-.19-.71-.19-1.03-.01-.21.12-.37.3-.45.52l-2.18,5.52c-.39.99-.58,2.03-.58,3.09v8.27c0,.16.04.3.12.43-.03-.02-.05-.04-.08-.06-.1-.09-.18-.21-.23-.34-.02-.06-.03-.11-.04-.17,0-.04,0-.08,0-.11v-8.27c0-1.06.2-2.1.58-3.09l2.18-5.52c.09-.22.25-.4.45-.51.32-.19.71-.18,1.03,0,.14.08.25.19.33.32Z"/>
                <path class="cls-8" d="m102.85,162.39c0,.08-.02.13-.06.16-.01,0-.02.01-.03.02l-.85.46c-.13.07-.26.1-.4.1-.15,0-.29-.04-.43-.12-.02-.01-.04-.03-.06-.04-.08-.13-.12-.27-.12-.43v-5.67c.14.03.29.02.4-.05.07-.04.11-.1.11-.15v5.62s.03.07.05.08c.02.01.06.02.1,0l.83-.45s.02-.01.03-.02c.05-.02.11-.02.17.03.15.09.26.29.26.45Z"/>
                <path class="cls-1" d="m101.03,162.98s-.05-.04-.08-.06c-.1-.09-.18-.21-.23-.34-.02-.06-.03-.11-.04-.17,0-.04,0-.08,0-.11v-5.59h0s.05.09.1.12c.04.03.08.04.13.05v5.67c0,.16.04.3.12.43Z"/>
                <path class="cls-9" d="m104.92,146.05c0-.15-.1-.23-.14-.25-.02-.01-.05-.03-.1-.04,0,.01,0,.03,0,.04l-.04,3.82s0,0,0,0c0,.05.04.11.11.15.04.02.08.04.12.05l.04-3.77Z"/>
                <path class="cls-1" d="m102.59,161.94c-.07-.04-.13-.05-.17-.03-.01,0-.02.01-.03.02l-.74.4v.21s.02.07.05.08c.02.01.05.02.09,0l.83-.45s.02-.01.03-.02c.04-.02.09-.01.15.01-.05-.1-.12-.19-.2-.23Z"/>
              </g>
            </g>
          </g>
        </g>
        <g>
          <g>
            <g>
              <g>
                <rect class="cls-26" x="73.57" y="35.47" width="2.48" height="29.62"/>
                <path class="cls-26" d="m74.81,64.43c.68,0,1.24.3,1.24.68,0,.37-.56.68-1.24.68s-1.24-.3-1.24-.68c0-.37.55-.68,1.24-.68Z"/>
              </g>
              <g>
                <rect class="cls-26" x="52.83" y="23.21" width="2.48" height="29.62"/>
                <path class="cls-26" d="m54.07,52.17c.68,0,1.24.3,1.24.68s-.55.68-1.24.68-1.24-.3-1.24-.68c0-.37.56-.68,1.24-.68Z"/>
              </g>
              <g>
                <polygon class="cls-26" points="75.13 54.77 74.66 55.17 54.07 30.08 54.31 29.41 75.13 54.77"/>
                <polygon class="cls-26" points="75.37 42.49 53.55 29.7 53.55 28.98 75.68 41.95 75.37 42.49"/>
                <polygon class="cls-26" points="74.88 42.07 54.66 43.19 54.66 42.57 74.88 41.44 74.88 42.07"/>
                <polygon class="cls-26" points="75.37 55.7 53.55 42.91 53.55 42.19 75.68 55.16 75.37 55.7"/>
              </g>
              <g>
                <rect class="cls-26" x="73.57" y="56.64" width="2.48" height="29.62"/>
                <path class="cls-26" d="m74.81,85.6c.68,0,1.24.3,1.24.68s-.56.68-1.24.68-1.24-.3-1.24-.68.55-.68,1.24-.68Z"/>
              </g>
              <g>
                <rect class="cls-26" x="52.83" y="44.38" width="2.48" height="29.62"/>
                <ellipse class="cls-26" cx="54.07" cy="74.02" rx="1.24" ry=".68"/>
              </g>
              <g>
                <rect class="cls-26" x="73.57" y="81.45" width="2.48" height="29.62"/>
                <path class="cls-26" d="m74.81,110.41c.68,0,1.24.3,1.24.68,0,.37-.56.68-1.24.68s-1.24-.3-1.24-.68.55-.68,1.24-.68Z"/>
              </g>
              <g>
                <rect class="cls-26" x="52.83" y="69.18" width="2.48" height="29.62"/>
                <ellipse class="cls-26" cx="54.07" cy="98.82" rx="1.24" ry=".68"/>
              </g>
              <g>
                <polygon class="cls-26" points="75.13 75.94 74.66 76.34 54.07 51.25 54.31 50.58 75.13 75.94"/>
                <polygon class="cls-26" points="75.37 63.66 53.55 50.87 53.55 50.15 75.68 63.12 75.37 63.66"/>
                <polygon class="cls-26" points="74.88 63.23 54.66 64.36 54.66 63.74 74.88 62.61 74.88 63.23"/>
                <polygon class="cls-26" points="75.37 76.87 53.55 64.08 53.55 63.36 75.68 76.33 75.37 76.87"/>
              </g>
            </g>
            <g>
              <g>
                <rect class="cls-26" x="104.72" y="17.16" width="2.48" height="29.62"/>
                <path class="cls-26" d="m105.96,46.12c.68,0,1.24.3,1.24.68,0,.37-.56.68-1.24.68s-1.24-.3-1.24-.68c0-.37.55-.68,1.24-.68Z"/>
              </g>
              <g>
                <rect class="cls-26" x="83.98" y="4.9" width="2.48" height="29.62"/>
                <path class="cls-26" d="m85.22,33.86c.68,0,1.24.3,1.24.68,0,.37-.56.68-1.24.68s-1.24-.3-1.24-.68c0-.37.56-.68,1.24-.68Z"/>
              </g>
              <g>
                <polygon class="cls-26" points="106.28 36.46 105.81 36.86 85.22 11.77 85.46 11.1 106.28 36.46"/>
                <polygon class="cls-26" points="106.53 24.18 84.7 11.39 84.7 10.67 106.83 23.64 106.53 24.18"/>
                <polygon class="cls-26" points="106.03 23.75 85.81 24.88 85.81 24.26 106.03 23.13 106.03 23.75"/>
                <polygon class="cls-26" points="106.53 37.39 84.7 24.6 84.7 23.88 106.83 36.85 106.53 37.39"/>
              </g>
              <g>
                <rect class="cls-26" x="104.72" y="38.33" width="2.48" height="29.62"/>
                <path class="cls-26" d="m105.96,67.29c.68,0,1.24.3,1.24.68s-.56.68-1.24.68-1.24-.3-1.24-.68c0-.37.55-.68,1.24-.68Z"/>
              </g>
              <g>
                <rect class="cls-26" x="83.98" y="26.07" width="2.48" height="29.62"/>
                <path class="cls-26" d="m85.22,55.03c.68,0,1.24.3,1.24.68s-.56.68-1.24.68-1.24-.3-1.24-.68c0-.37.56-.68,1.24-.68Z"/>
              </g>
              <g>
                <rect class="cls-26" x="104.72" y="63.14" width="2.48" height="29.62"/>
                <path class="cls-26" d="m105.96,92.1c.68,0,1.24.3,1.24.68,0,.37-.56.68-1.24.68s-1.24-.3-1.24-.68.55-.68,1.24-.68Z"/>
              </g>
              <g>
                <rect class="cls-26" x="83.98" y="50.87" width="2.48" height="29.62"/>
                <path class="cls-26" d="m85.22,79.84c.68,0,1.24.3,1.24.68,0,.37-.56.68-1.24.68s-1.24-.3-1.24-.68c0-.37.56-.68,1.24-.68Z"/>
              </g>
              <g>
                <polygon class="cls-26" points="106.28 57.63 105.81 58.03 85.22 32.94 85.46 32.27 106.28 57.63"/>
                <polygon class="cls-26" points="106.53 45.35 84.7 32.56 84.7 31.84 106.83 44.81 106.53 45.35"/>
                <polygon class="cls-26" points="106.03 44.92 85.81 46.05 85.81 45.43 106.03 44.3 106.03 44.92"/>
                <polygon class="cls-26" points="106.53 58.56 84.7 45.77 84.7 45.05 106.83 58.02 106.53 58.56"/>
              </g>
            </g>
            <g>
              <polygon class="cls-14" points="109.97 17.77 74.82 38.21 49.21 23.4 84.46 3.09 109.97 17.77"/>
              <polygon class="cls-19" points="74.82 39.31 49.21 24.5 49.21 23.4 74.82 38.21 74.82 39.31"/>
              <polygon class="cls-11" points="109.97 18.91 74.82 39.31 74.82 38.21 109.97 17.77 109.97 18.91"/>
            </g>
            <g>
              <path class="cls-26" d="m51.53,16.53c.4-.23.89-.2,1.38.09l20.32,11.72c1,.58,1.81,2.12,1.81,3.43v5.8c-.2,0-.4,0-.6,0v-5.8c0-1.11-.69-2.44-1.51-2.91l-20.32-11.72c-.14-.08-.32-.16-.5-.16-.09,0-.19.02-.28.07-.27.15-.43.56-.43,1.08v5.74s-.42.03-.6,0v-5.74c0-.75.26-1.33.73-1.6Z"/>
              <path class="cls-26" d="m74.74,37.4c.17,0,.3.07.3.16,0,.09-.13.16-.3.16s-.3-.07-.3-.16.13-.16.3-.16Z"/>
              <path class="cls-26" d="m51.1,23.71c.17,0,.3.07.3.16,0,.09-.13.16-.3.16s-.3-.07-.3-.16c0-.09.13-.16.3-.16Z"/>
              <polygon class="cls-26" points="74.91 34.42 74.6 34.96 50.94 21.31 51.24 20.77 74.91 34.42"/>
              <polygon class="cls-26" points="74.91 32.78 74.6 33.32 50.94 19.66 51.24 19.12 74.91 32.78"/>
            </g>
            <g>
              <path class="cls-26" d="m57.64,11.96L77.97.24c.49-.28.98-.32,1.38-.09.46.27.73.85.73,1.6v5.74c-.18.03-.58,0-.6,0V1.75c0-.52-.16-.93-.43-1.08-.09-.05-.18-.07-.28-.07-.18,0-.36.08-.5.16l-20.32,11.72c-.82.47-1.51,1.81-1.51,2.91v5.8c-.2,0-.4,0-.6,0v-5.8c0-1.32.81-2.85,1.81-3.43Z"/>
              <ellipse class="cls-26" cx="56.13" cy="21.19" rx=".3" ry=".16"/>
              <path class="cls-26" d="m79.78,7.33c.17,0,.3.07.3.16s-.13.16-.3.16-.3-.07-.3-.16.13-.16.3-.16Z"/>
              <polygon class="cls-26" points="79.94 4.93 56.28 18.59 55.97 18.05 79.63 4.39 79.94 4.93"/>
              <polygon class="cls-26" points="79.94 3.29 56.28 16.94 55.97 16.4 79.63 2.74 79.94 3.29"/>
            </g>
          </g>
          <g>
            <path class="cls-10" d="m85.25,109.28c5.46-7.06,8.25-15.44,5.49-23.18-1.91-5.37-10.73-9.55-10.73-9.55l3.24-10.32s12.44,4.03,17.31,14.51c7.67,16.52-5.77,33.7-12.09,40.62-8.01,8.77-19.57,13.87-19.57,13.87l-3.93-9.87s6.09-2.42,14.82-10.36c2.05-1.87,3.9-3.68,5.46-5.71Z"/>
            <path class="cls-16" d="m67.08,124.76c2.22,1.28,4.02,4.72,4.02,7.68s-1.8,4.32-4.02,3.04c-2.22-1.28-4.02-4.72-4.02-7.68s1.8-4.32,4.02-3.04Z"/>
            <path class="cls-10" d="m66.71,125.77c1.91,1.1,3.46,4.06,3.46,6.61s-1.55,3.72-3.46,2.62c-1.91-1.1-3.46-4.06-3.46-6.61s1.55-3.72,3.46-2.62Z"/>
            <g>
              <g>
                <path class="cls-16" d="m84.35,112.16c2.36.77,4.76,3.67,5.36,6.48.6,2.81-.84,4.46-3.2,3.69-2.36-.77-4.76-3.67-5.36-6.48-.6-2.81.84-4.46,3.2-3.69Z"/>
                <path class="cls-10" d="m83.83,113.07c2.15.7,4.33,3.34,4.88,5.89.54,2.56-.76,4.06-2.91,3.36-2.15-.7-4.33-3.34-4.88-5.89-.54-2.56.76-4.06,2.91-3.36Z"/>
              </g>
              <polygon class="cls-10" points="88.29 121.82 86.21 123.65 79.13 115.61 81.54 113.36 88.29 121.82"/>
            </g>
          </g>
          <g>
            <polygon class="cls-7" points="103.97 9.67 103.97 18.82 94.98 13.63 94.2 4.91 94.98 4.48 103.97 9.67"/>
            <polygon class="cls-17" points="103.2 19.24 94.2 14.05 94.2 4.91 103.2 10.1 103.2 19.24"/>
            <polygon class="cls-7" points="95.35 14.69 95.35 23.84 86.36 18.64 85.59 9.92 86.36 9.5 95.35 14.69"/>
            <polygon class="cls-17" points="94.58 24.26 85.59 19.07 85.59 9.92 94.58 15.11 94.58 24.26"/>
            <polygon class="cls-6" points="103.97 18.82 94.58 24.26 94.58 15.11 103.97 9.68 103.97 18.82"/>
            <polygon class="cls-7" points="103.97 9.68 95.35 14.69 93.48 13.61 102.08 8.6 103.97 9.68"/>
          </g>
          <path class="cls-6" d="m91.89,40.4c19.65-3.11,31.13,6.04,31.13,6.04l-6.2,8.11s-5.37-5.79-19.04-4.9c-5.58.36-8.14,1.11-9.3,2.21-2.92,2.78,1.85,11.14,1.85,11.14,0,0-5.17-.85-9.16-4.61-6.54-6.18-2.45-15.91,10.72-18Z"/>
          <g>
            <g>
              <polygon class="cls-26" points="122.18 90.36 122.18 97.07 122.18 113.85 120.18 113.85 120.18 97.07 120.18 90.36 120.18 39.24 122.18 39.24 122.18 90.36"/>
              <path class="cls-26" d="m121.18,113.33c.55,0,1,.24,1,.54,0,.3-.45.54-1,.54s-1-.24-1-.54.45-.54,1-.54Z"/>
              <path class="cls-14" d="m121.18,38.7c.55,0,1,.24,1,.54,0,.3-.45.54-1,.54s-1-.24-1-.54c0-.3.45-.54,1-.54Z"/>
            </g>
            <polygon class="cls-26" points="120.69 42.35 121.04 42.92 103.83 53.18 121.99 60.2 103.6 76.18 122.24 84.89 104.6 101.15 121.91 108.58 103.16 119.67 102.83 119.1 120.44 108.67 103.39 101.36 121.06 85.07 102.39 76.35 120.72 60.42 102.32 53.31 120.69 42.35"/>
            <g>
              <polygon class="cls-26" points="103.99 101.25 103.99 107.96 103.99 124.75 102 124.75 102 107.96 102 101.25 102 50.13 103.99 50.13 103.99 101.25"/>
              <path class="cls-26" d="m102.99,124.23c.55,0,1,.24,1,.54s-.45.54-1,.54-1-.24-1-.54c0-.3.45-.54,1-.54Z"/>
              <path class="cls-14" d="m102.99,49.59c.55,0,1,.24,1,.54,0,.3-.45.54-1,.54s-1-.24-1-.54c0-.3.45-.54,1-.54Z"/>
            </g>
          </g>
          <path class="cls-6" d="m127.15,49.71c2.61,1.23,19.52,13,11.7,28.59-1.19,2.36-4.34,6.1-5.28,6.9-1.03.88-2.15,1.74-3.32,2.56-.84-1.53-1.67-3.07-2.46-4.62-.77-1.52-1.89-2.98-3.02-4.47,4.17-3.42,5.74-5.5,5.74-9.5,0-7.89-9.17-11.28-9.17-11.28,0,0-2.26-4.69,5.8-8.17Z"/>
          <path class="cls-10" d="m88.25,51.64c.66.4.83-.25,1.57.29,2.2,1.61,6.06,2.99,9.07,3.39,6.81.91,14.16-1.99,19.06-5.47,3.74-2.66,6.27-4.77,5.39-8.95-.76-3.61-2.67-4.73-5.06-6.29-2.72-1.78-11.71-6.66-11.71-6.66,0,0,.04-3.41,7.52-8.02.5.15,4.38,2.41,5.8,3.15,6.48,3.4,19.72,12.68,13.47,25.13-5.36,10.68-17.97,17.36-29.57,18.27-8.09.63-15.67-2.15-20.02-5.76-.27-.22-.51-.44-.75-.65-.38-1.56-.36-3.21.16-4.7.82-2.34,2.91-3.94,5.06-3.76Z"/>
          <path class="cls-10" d="m99.71,13.35c1.91-1.1,3.46.07,3.46,2.62s-1.55,5.51-3.46,6.61c-1.91,1.1-3.46-.07-3.46-2.62s1.55-5.51,3.46-6.61Z"/>
          <polygon class="cls-10" points="113.51 19.46 107.4 28.31 97.41 22.73 102.1 13.25 113.51 19.46"/>
          <g>
            <g>
              <path class="cls-16" d="m110.1,18.6c2.15-1.24,3.9.08,3.9,2.95,0,2.87-1.74,6.2-3.9,7.45-2.15,1.24-3.9-.08-3.9-2.95s1.74-6.2,3.9-7.45Z"/>
              <path class="cls-10" d="m110.8,19.38c1.96-1.13,3.55.07,3.55,2.68s-1.59,5.65-3.55,6.78c-1.96,1.13-3.55-.07-3.55-2.68s1.59-5.65,3.55-6.78Z"/>
            </g>
            <polygon class="cls-10" points="115.93 20.88 110.67 30.22 108.25 28.86 113.1 19.18 115.93 20.88"/>
          </g>
          <g>
            <g>
              <path class="cls-16" d="m86.8,51.07c2.26-1.04,3.87.44,3.61,3.29-.26,2.86-2.31,6.02-4.57,7.05-2.26,1.04-3.87-.44-3.61-3.29.26-2.86,2.31-6.02,4.57-7.05Z"/>
              <path class="cls-10" d="m87.43,51.91c2.05-.95,3.53.4,3.28,3-.24,2.6-2.1,5.48-4.16,6.42-2.05.95-3.53-.4-3.28-3,.24-2.6,2.1-5.48,4.16-6.42Z"/>
            </g>
            <polygon class="cls-10" points="92.4 53.89 86.45 62.71 84.23 61.14 89.82 51.94 92.4 53.89"/>
          </g>
          <path class="cls-10" d="m62.44,64.25c9.29-1.47,15.77.33,20.81,1.97-1,1.63-.29,5-.91,6.83-.42,1.24-1.89,2.25-2.32,3.49-3.04-1.09-7.11-3.09-12.95-2.71-5.58.36-8.66,3.58-8.11,6.21,1.14,5.42,10.33,10.64,10.33,10.64,0,0-12.22,2.07-14.3.44-2.52-1.96-3.69-3.15-4.99-5.02-5.71-8.24-.74-19.76,12.44-21.85Z"/>
          <g>
            <path class="cls-17" d="m58.17,81.6c2.26-1.04,3.87.44,3.61,3.29-.26,2.86-2.31,6.02-4.57,7.05-2.26,1.04-3.87-.44-3.61-3.29.26-2.86,2.31-6.02,4.57-7.05Z"/>
            <path class="cls-6" d="m58.8,82.44c2.05-.95,3.53.4,3.28,3-.24,2.6-2.1,5.48-4.16,6.42-2.05.95-3.53-.4-3.28-3,.24-2.6,2.1-5.48,4.16-6.42Z"/>
          </g>
          <g>
            <g>
              <path class="cls-16" d="m124.75,45.58c2.33.88,4.59,3.88,5.05,6.71.47,2.83-1.04,4.42-3.37,3.54-2.33-.88-4.59-3.88-5.05-6.71-.47-2.83,1.04-4.42,3.37-3.54Z"/>
              <path class="cls-10" d="m124.19,46.46c2.12.8,4.18,3.53,4.6,6.11.42,2.58-.95,4.02-3.06,3.22-2.12-.8-4.18-3.53-4.6-6.11s.95-4.02,3.06-3.22Z"/>
            </g>
            <polygon class="cls-10" points="128.25 55.41 126.08 57.14 119.37 48.78 121.89 46.64 128.25 55.41"/>
          </g>
          <g>
            <path class="cls-16" d="m80.23,66.14c1.92-1.57,3.86-.55,4.32,2.28.46,2.83-.72,6.4-2.65,7.98-1.92,1.57-3.86.55-4.32-2.28-.46-2.83.72-6.4,2.65-7.98Z"/>
            <path class="cls-10" d="m81.05,66.8c1.75-1.43,3.51-.5,3.93,2.08s-.66,5.83-2.41,7.26c-1.75,1.43-3.51.5-3.93-2.08-.42-2.58.66-5.83,2.41-7.26Z"/>
          </g>
          <g>
            <path class="cls-17" d="m130.31,75.18c2.33.88,4.59,3.88,5.05,6.71.47,2.83-1.04,4.42-3.37,3.54-2.33-.88-4.59-3.88-5.05-6.71-.47-2.83,1.04-4.42,3.37-3.54Z"/>
            <path class="cls-6" d="m129.75,76.06c2.12.8,4.18,3.53,4.6,6.11.42,2.58-.95,4.02-3.06,3.22-2.12-.8-4.18-3.53-4.6-6.11-.42-2.58.95-4.02,3.06-3.22Z"/>
          </g>
          <path class="cls-6" d="m61.19,82.23c4.26,2.7,14.55,8.05,30.55,8.07,22.54.02,35.71-14.05,35.71-14.05l6.33,8.8s-13.45,16.81-42.04,16.81c-21.09,0-31.81-6.8-36.14-10.26-1.54-1.23,3.85-10.47,5.59-9.36Z"/>
          <polygon class="cls-10" points="85.07 66.91 81.98 77.6 80.01 76.54 83.22 66.23 85.07 66.91"/>
        </g>
      </g>
    </g>
  </g>
</svg>