<?xml version="1.0" encoding="UTF-8"?>
<svg xmlns="http://www.w3.org/2000/svg" viewBox="0 0 199.22 119.36">
  <defs>
    <style>
      .cls-1 {
        fill: #e6352b;
      }

      .cls-1, .cls-2, .cls-3, .cls-4, .cls-5, .cls-6, .cls-7, .cls-8, .cls-9, .cls-10, .cls-11, .cls-12, .cls-13, .cls-14, .cls-15, .cls-16, .cls-17, .cls-18, .cls-19, .cls-20, .cls-21, .cls-22, .cls-23, .cls-24, .cls-25, .cls-26, .cls-27, .cls-28, .cls-29 {
        stroke-width: 0px;
      }

      .cls-2 {
        fill: #d24719;
      }

      .cls-30 {
        mix-blend-mode: overlay;
        opacity: .75;
      }

      .cls-3 {
        fill: #e94f1d;
      }

      .cls-4 {
        fill: #cc4617;
      }

      .cls-5 {
        fill: #be3f18;
      }

      .cls-6 {
        fill: #bbaa90;
      }

      .cls-7 {
        fill: #9d3516;
      }

      .cls-31 {
        isolation: isolate;
      }

      .cls-8 {
        fill: #2a3180;
      }

      .cls-9 {
        fill: #d9c8ab;
      }

      .cls-32 {
        opacity: .15;
      }

      .cls-10 {
        fill: #dadada;
      }

      .cls-11 {
        fill: #b1a084;
      }

      .cls-12 {
        fill: #fff;
      }

      .cls-13 {
        fill: #6ec8e7;
      }

      .cls-14 {
        fill: #a99c86;
      }

      .cls-15 {
        fill: #878787;
      }

      .cls-16 {
        fill: #ab9c84;
      }

      .cls-33 {
        opacity: .1;
      }

      .cls-17 {
        fill: #644f43;
      }

      .cls-18 {
        fill: #616160;
      }

      .cls-19 {
        fill: #9f9073;
      }

      .cls-20 {
        fill: #e6dbc8;
      }

      .cls-21 {
        fill: #e4d2b3;
      }

      .cls-22 {
        fill: #eeeded;
      }

      .cls-23 {
        fill: #ccbba0;
      }

      .cls-24 {
        fill: #ac9979;
      }

      .cls-25 {
        fill: #f2e7d4;
      }

      .cls-26 {
        fill: #fff3de;
      }

      .cls-27 {
        fill: #7c6b59;
      }

      .cls-28 {
        fill: #9c8b6e;
      }

      .cls-29 {
        fill: #dc4937;
      }
    </style>
  </defs>
  <g class="cls-31">
    <g id="Livello_1" data-name="Livello 1">
      <g id="_ZonaCibo_" data-name="&amp;lt;ZonaCibo&amp;gt;">
        <polygon class="cls-18" points="52.78 119.36 199.22 28.09 144.24 0 0 86.26 52.78 119.36"/>
        <g>
          <g>
            <g>
              <polygon class="cls-11" points="93.09 40.16 95.92 38.52 95.92 38.18 93.09 39.82 93.09 40.16"/>
              <polygon class="cls-21" points="92.79 39.65 95.62 38 95.92 38.18 93.09 39.82 92.79 39.65"/>
            </g>
            <g>
              <polygon class="cls-11" points="98.61 40.16 95.78 38.52 95.78 38.18 98.61 39.82 98.61 40.16"/>
              <polygon class="cls-21" points="98.91 39.65 96.07 38 95.78 38.18 98.61 39.82 98.91 39.65"/>
            </g>
            <polygon class="cls-23" points="92.6 42.68 93.09 42.4 93.09 38.25 92.6 38.53 92.6 42.68"/>
            <polygon class="cls-11" points="92.12 42.4 92.6 42.68 92.6 38.53 92.12 38.25 92.12 42.4"/>
            <polygon class="cls-23" points="98.91 42.68 99.39 42.4 99.39 38.25 98.91 38.53 98.91 42.68"/>
            <polygon class="cls-11" points="98.42 42.4 98.91 42.68 98.91 38.53 98.42 38.25 98.42 42.4"/>
            <polygon class="cls-21" points="92.12 37.51 95.75 39.61 99.39 37.51 95.75 35.41 92.12 37.51"/>
            <polygon class="cls-23" points="95.75 40.35 99.39 38.25 99.39 37.51 95.75 39.61 95.75 40.35"/>
            <polygon class="cls-11" points="92.12 38.25 95.75 40.35 95.75 39.61 92.12 37.51 92.12 38.25"/>
            <g>
              <polygon class="cls-23" points="95.97 42.27 98.8 40.63 98.8 40.29 95.97 41.93 95.97 42.27"/>
              <polygon class="cls-21" points="95.67 41.76 98.51 40.12 98.8 40.29 95.97 41.93 95.67 41.76"/>
            </g>
            <g>
              <polygon class="cls-11" points="95.54 42.27 92.71 40.63 92.71 40.29 95.54 41.93 95.54 42.27"/>
              <polygon class="cls-21" points="95.84 41.76 93 40.12 92.71 40.29 95.54 41.93 95.84 41.76"/>
            </g>
            <polygon class="cls-23" points="95.75 44.5 96.24 44.22 96.24 40.07 95.75 40.35 95.75 44.5"/>
            <polygon class="cls-11" points="95.27 44.22 95.75 44.5 95.75 40.35 95.27 40.07 95.27 44.22"/>
            <polygon class="cls-11" points="92.12 37.51 92.6 37.79 91.59 31.56 91.11 31.28 92.12 37.51"/>
            <polygon class="cls-23" points="95.75 35.97 96.24 35.69 95.23 29.46 94.74 29.74 95.75 35.97"/>
            <polygon class="cls-11" points="95.27 35.69 95.75 35.97 94.74 29.74 94.26 29.46 95.27 35.69"/>
            <polygon class="cls-21" points="92.28 35.23 92.56 35.41 95.3 33.83 95.03 33.65 92.28 35.23"/>
            <polygon class="cls-21" points="91.11 31.28 91.59 31.56 95.23 29.46 94.74 29.18 91.11 31.28"/>
            <polygon class="cls-23" points="92.08 34.57 95.71 32.47 95.23 29.46 91.59 31.56 92.08 34.57"/>
            <polygon class="cls-23" points="92.65 35.98 95.39 34.4 95.3 33.83 92.56 35.41 92.65 35.98"/>
            <polygon class="cls-23" points="92.6 37.79 93.09 37.51 92.08 31.28 91.59 31.56 92.6 37.79"/>
            <path class="cls-29" d="m93.06,37.84l2.59,1.49c.08.04.17.04.25,0l3-1.73c.16-.09.16-.33,0-.43l-2.59-1.49c-.08-.04-.17-.04-.25,0l-3,1.73c-.16.09-.16.33,0,.43Z"/>
            <path class="cls-1" d="m92.65,34.07l2.8-1.61c.09-.05.13-.15.12-.24l-.35-2.18c-.03-.16-.21-.25-.35-.17l-2.8,1.61c-.09.05-.13.15-.12.24l.35,2.18c.03.16.21.25.35.17Z"/>
          </g>
          <g>
            <g>
              <polygon class="cls-6" points="90.71 47.28 90.12 46.94 90.12 38.64 90.71 38.98 90.71 47.28"/>
              <polygon class="cls-19" points="91.31 46.94 90.71 47.28 90.71 38.98 91.31 38.64 91.31 46.94"/>
            </g>
            <g>
              <polygon class="cls-6" points="108.62 47.24 108.02 46.9 108.02 38.59 108.62 38.94 108.62 47.24"/>
              <polygon class="cls-19" points="109.21 46.9 108.62 47.24 108.62 38.94 109.21 38.59 109.21 46.9"/>
            </g>
            <g>
              <polygon class="cls-14" points="109.6 37.56 99.61 43.27 89.81 37.61 99.8 31.9 109.6 37.56"/>
              <polygon class="cls-23" points="99.61 44.13 89.81 38.47 89.81 37.61 99.61 43.27 99.61 44.13"/>
              <polygon class="cls-11" points="109.6 38.43 99.61 44.13 99.61 43.27 109.6 37.56 109.6 38.43"/>
            </g>
            <polygon class="cls-23" points="99.61 44.13 89.81 38.47 89.81 37.61 99.61 43.27 99.61 44.13"/>
            <polygon class="cls-6" points="99.61 44.13 99.01 43.79 99.01 43.79 99.01 45.24 99.01 52.09 99.61 52.43 99.61 45.58 99.61 44.13 99.61 44.13"/>
            <polygon class="cls-19" points="100.2 43.79 99.61 44.13 99.61 44.13 99.61 45.58 99.61 52.43 100.2 52.09 100.2 45.92 100.2 44.48 100.2 43.79"/>
          </g>
          <polygon class="cls-23" points="102.23 50.18 101.72 49.89 101.72 45.59 102.23 45.88 102.23 50.18"/>
          <g>
            <polygon class="cls-11" points="108.26 47.56 105.32 45.86 105.32 45.51 108.26 47.21 108.26 47.56"/>
            <polygon class="cls-21" points="108.57 47.03 105.63 45.33 105.32 45.51 108.26 47.21 108.57 47.03"/>
          </g>
          <g>
            <polygon class="cls-11" points="102.53 47.56 105.47 45.86 105.47 45.51 102.53 47.21 102.53 47.56"/>
            <polygon class="cls-21" points="102.23 47.03 105.17 45.33 105.47 45.51 102.53 47.21 102.23 47.03"/>
          </g>
          <polygon class="cls-23" points="108.76 50.18 108.26 49.89 108.26 45.59 108.76 45.88 108.76 50.18"/>
          <polygon class="cls-11" points="109.27 49.89 108.76 50.18 108.76 45.88 109.27 45.59 109.27 49.89"/>
          <polygon class="cls-11" points="102.73 49.89 102.23 50.18 102.23 45.88 102.73 45.59 102.73 49.89"/>
          <polygon class="cls-21" points="109.27 44.82 105.49 46.99 101.72 44.82 105.49 42.64 109.27 44.82"/>
          <polygon class="cls-23" points="105.49 47.77 101.72 45.59 101.72 44.82 105.49 46.99 105.49 47.77"/>
          <polygon class="cls-11" points="109.27 45.59 105.49 47.77 105.49 46.99 109.27 44.82 109.27 45.59"/>
          <g>
            <polygon class="cls-23" points="105.27 49.76 102.33 48.06 102.33 47.7 105.27 49.41 105.27 49.76"/>
            <polygon class="cls-21" points="105.58 49.23 102.64 47.53 102.33 47.7 105.27 49.41 105.58 49.23"/>
          </g>
          <g>
            <polygon class="cls-11" points="105.71 49.76 108.65 48.06 108.65 47.7 105.71 49.41 105.71 49.76"/>
            <polygon class="cls-21" points="105.41 49.23 108.35 47.53 108.65 47.7 105.71 49.41 105.41 49.23"/>
          </g>
          <polygon class="cls-23" points="105.49 52.06 104.99 51.77 104.99 47.48 105.49 47.77 105.49 52.06"/>
          <polygon class="cls-11" points="106 51.77 105.49 52.06 105.49 47.77 106 47.48 106 51.77"/>
          <polygon class="cls-23" points="109.27 44.82 108.8 44.55 109.57 39.7 110.02 40.05 109.27 44.82"/>
          <g>
            <polygon class="cls-23" points="108.76 45.11 108.29 44.84 109.18 39.34 109.63 39.7 108.76 45.11"/>
            <polygon class="cls-11" points="108.75 45.11 109.27 44.82 110.14 39.4 109.63 39.7 108.75 45.11"/>
            <polygon class="cls-21" points="105.96 44.24 106.16 44.36 109.04 42.78 108.84 42.67 105.96 44.24"/>
            <polygon class="cls-23" points="106.1 44.82 108.98 43.24 109.04 42.78 106.16 44.36 106.1 44.82"/>
            <polygon class="cls-11" points="105.49 46.99 106.01 46.7 106.88 41.28 106.37 41.58 105.49 46.99"/>
            <polygon class="cls-23" points="105.49 46.99 105.03 46.73 105.92 41.23 106.37 41.58 105.49 46.99"/>
            <polygon class="cls-23" points="110.14 39.4 109.69 39.05 105.92 41.23 106.37 41.58 110.14 39.4"/>
            <polygon class="cls-11" points="110.14 39.4 109.81 41.51 106.04 43.69 106.37 41.58 110.14 39.4"/>
          </g>
        </g>
        <g>
          <g>
            <g>
              <polygon class="cls-11" points="115.97 28.03 118.8 26.39 118.8 26.05 115.97 27.69 115.97 28.03"/>
              <polygon class="cls-21" points="115.67 27.52 118.51 25.88 118.8 26.05 115.97 27.69 115.67 27.52"/>
            </g>
            <g>
              <polygon class="cls-11" points="121.49 28.03 118.66 26.39 118.66 26.05 121.49 27.69 121.49 28.03"/>
              <polygon class="cls-21" points="121.79 27.52 118.95 25.88 118.66 26.05 121.49 27.69 121.79 27.52"/>
            </g>
            <polygon class="cls-23" points="115.48 30.55 115.97 30.27 115.97 26.12 115.48 26.4 115.48 30.55"/>
            <polygon class="cls-11" points="115 30.27 115.48 30.55 115.48 26.4 115 26.12 115 30.27"/>
            <polygon class="cls-23" points="121.79 30.55 122.27 30.27 122.27 26.12 121.79 26.4 121.79 30.55"/>
            <polygon class="cls-11" points="121.3 30.27 121.79 30.55 121.79 26.4 121.3 26.12 121.3 30.27"/>
            <polygon class="cls-21" points="115 25.38 118.64 27.48 122.27 25.38 118.64 23.28 115 25.38"/>
            <polygon class="cls-23" points="118.64 28.22 122.27 26.12 122.27 25.38 118.64 27.48 118.64 28.22"/>
            <polygon class="cls-11" points="115 26.12 118.64 28.22 118.64 27.48 115 25.38 115 26.12"/>
            <g>
              <polygon class="cls-23" points="118.85 30.15 121.68 28.5 121.68 28.16 118.85 29.8 118.85 30.15"/>
              <polygon class="cls-21" points="118.55 29.63 121.39 27.99 121.68 28.16 118.85 29.8 118.55 29.63"/>
            </g>
            <g>
              <polygon class="cls-11" points="118.42 30.15 115.59 28.5 115.59 28.16 118.42 29.8 118.42 30.15"/>
              <polygon class="cls-21" points="118.72 29.63 115.88 27.99 115.59 28.16 118.42 29.8 118.72 29.63"/>
            </g>
            <polygon class="cls-23" points="118.64 32.37 119.12 32.09 119.12 27.94 118.64 28.22 118.64 32.37"/>
            <polygon class="cls-11" points="118.15 32.09 118.64 32.37 118.64 28.22 118.15 27.94 118.15 32.09"/>
            <polygon class="cls-11" points="115 25.38 115.48 25.66 114.47 19.43 113.99 19.15 115 25.38"/>
            <polygon class="cls-23" points="118.63 23.84 119.12 23.56 118.11 17.33 117.62 17.61 118.63 23.84"/>
            <polygon class="cls-11" points="118.15 23.56 118.63 23.84 117.62 17.61 117.14 17.33 118.15 23.56"/>
            <polygon class="cls-21" points="115.16 23.11 115.44 23.28 118.18 21.7 117.91 21.52 115.16 23.11"/>
            <polygon class="cls-21" points="113.99 19.15 114.47 19.43 118.11 17.33 117.62 17.05 113.99 19.15"/>
            <polygon class="cls-23" points="114.96 22.44 118.6 20.34 118.11 17.33 114.47 19.43 114.96 22.44"/>
            <polygon class="cls-23" points="115.53 23.85 118.28 22.27 118.18 21.7 115.44 23.28 115.53 23.85"/>
            <polygon class="cls-23" points="115.48 25.66 115.97 25.38 114.96 19.15 114.47 19.43 115.48 25.66"/>
            <path class="cls-29" d="m115.94,25.71l2.59,1.49c.08.04.17.04.25,0l3-1.73c.16-.09.16-.33,0-.43l-2.59-1.49c-.08-.04-.17-.04-.25,0l-3,1.73c-.16.09-.16.33,0,.43Z"/>
            <path class="cls-1" d="m115.53,21.94l2.8-1.61c.09-.05.13-.15.12-.24l-.35-2.18c-.03-.16-.21-.25-.35-.17l-2.8,1.61c-.09.05-.13.15-.12.24l.35,2.18c.03.16.21.25.35.17Z"/>
          </g>
          <g>
            <g>
              <polygon class="cls-6" points="113.59 35.16 113 34.81 113 26.51 113.59 26.85 113.59 35.16"/>
              <polygon class="cls-19" points="114.19 34.81 113.59 35.16 113.59 26.85 114.19 26.51 114.19 34.81"/>
            </g>
            <g>
              <polygon class="cls-6" points="131.5 35.11 130.9 34.77 130.9 26.46 131.5 26.81 131.5 35.11"/>
              <polygon class="cls-19" points="132.09 34.77 131.5 35.11 131.5 26.81 132.09 26.46 132.09 34.77"/>
            </g>
            <g>
              <polygon class="cls-14" points="132.48 25.43 122.49 31.14 112.69 25.48 122.69 19.77 132.48 25.43"/>
              <polygon class="cls-23" points="122.49 32 112.69 26.34 112.69 25.48 122.49 31.14 122.49 32"/>
              <polygon class="cls-11" points="132.48 26.3 122.49 32 122.49 31.14 132.48 25.43 132.48 26.3"/>
            </g>
            <polygon class="cls-23" points="122.49 32 112.69 26.34 112.69 25.48 122.49 31.14 122.49 32"/>
            <polygon class="cls-6" points="122.49 32 121.89 31.66 121.89 31.66 121.89 33.11 121.89 39.96 122.49 40.3 122.49 33.45 122.49 32 122.49 32"/>
            <polygon class="cls-19" points="123.08 31.66 122.49 32 122.49 32 122.49 33.45 122.49 40.3 123.08 39.96 123.08 33.79 123.08 32.35 123.08 31.66"/>
          </g>
          <polygon class="cls-23" points="125.11 38.05 124.6 37.76 124.6 33.46 125.11 33.75 125.11 38.05"/>
          <g>
            <polygon class="cls-11" points="131.14 35.43 128.2 33.73 128.2 33.38 131.14 35.08 131.14 35.43"/>
            <polygon class="cls-21" points="131.45 34.9 128.51 33.2 128.2 33.38 131.14 35.08 131.45 34.9"/>
          </g>
          <g>
            <polygon class="cls-11" points="125.41 35.43 128.35 33.73 128.35 33.38 125.41 35.08 125.41 35.43"/>
            <polygon class="cls-21" points="125.11 34.9 128.05 33.2 128.35 33.38 125.41 35.08 125.11 34.9"/>
          </g>
          <polygon class="cls-23" points="131.64 38.05 131.14 37.76 131.14 33.46 131.64 33.75 131.64 38.05"/>
          <polygon class="cls-11" points="132.15 37.76 131.64 38.05 131.64 33.75 132.15 33.46 132.15 37.76"/>
          <polygon class="cls-11" points="125.61 37.76 125.11 38.05 125.11 33.75 125.61 33.46 125.61 37.76"/>
          <polygon class="cls-21" points="132.15 32.69 128.38 34.87 124.6 32.69 128.38 30.51 132.15 32.69"/>
          <polygon class="cls-23" points="128.38 35.64 124.6 33.46 124.6 32.69 128.38 34.87 128.38 35.64"/>
          <polygon class="cls-11" points="132.15 33.46 128.38 35.64 128.38 34.87 132.15 32.69 132.15 33.46"/>
          <g>
            <polygon class="cls-23" points="128.15 37.63 125.22 35.93 125.22 35.57 128.15 37.28 128.15 37.63"/>
            <polygon class="cls-21" points="128.46 37.1 125.52 35.4 125.22 35.57 128.15 37.28 128.46 37.1"/>
          </g>
          <g>
            <polygon class="cls-11" points="128.6 37.63 131.53 35.93 131.53 35.57 128.6 37.28 128.6 37.63"/>
            <polygon class="cls-21" points="128.29 37.1 131.23 35.4 131.53 35.57 128.6 37.28 128.29 37.1"/>
          </g>
          <polygon class="cls-23" points="128.38 39.94 127.87 39.64 127.87 35.35 128.38 35.64 128.38 39.94"/>
          <polygon class="cls-11" points="128.88 39.64 128.38 39.94 128.38 35.64 128.88 35.35 128.88 39.64"/>
          <polygon class="cls-23" points="132.15 32.69 131.68 32.42 132.45 27.57 132.9 27.92 132.15 32.69"/>
          <g>
            <polygon class="cls-23" points="131.64 32.98 131.17 32.71 132.06 27.21 132.51 27.57 131.64 32.98"/>
            <polygon class="cls-11" points="131.64 32.98 132.15 32.69 133.02 27.27 132.51 27.57 131.64 32.98"/>
            <polygon class="cls-21" points="128.84 32.11 129.04 32.23 131.92 30.65 131.72 30.54 128.84 32.11"/>
            <polygon class="cls-23" points="128.98 32.69 131.86 31.11 131.92 30.65 129.04 32.23 128.98 32.69"/>
            <polygon class="cls-11" points="128.38 34.87 128.89 34.57 129.76 29.15 129.25 29.45 128.38 34.87"/>
            <polygon class="cls-23" points="128.38 34.87 127.91 34.6 128.8 29.1 129.25 29.45 128.38 34.87"/>
            <polygon class="cls-23" points="133.02 27.27 132.57 26.92 128.8 29.1 129.25 29.45 133.02 27.27"/>
            <polygon class="cls-11" points="133.02 27.27 132.69 29.38 128.92 31.56 129.25 29.45 133.02 27.27"/>
          </g>
        </g>
        <g>
          <g>
            <g>
              <polygon class="cls-11" points="82.55 53.22 79.39 51.39 79.39 51.01 82.55 52.84 82.55 53.22"/>
              <polygon class="cls-21" points="82.88 52.65 79.72 50.82 79.39 51.01 82.55 52.84 82.88 52.65"/>
            </g>
            <g>
              <polygon class="cls-11" points="76.39 53.22 79.55 51.39 79.55 51.01 76.39 52.84 76.39 53.22"/>
              <polygon class="cls-21" points="76.06 52.65 79.22 50.82 79.55 51.01 76.39 52.84 76.06 52.65"/>
            </g>
            <polygon class="cls-23" points="83.08 56.03 82.54 55.72 82.54 51.1 83.08 51.41 83.08 56.03"/>
            <polygon class="cls-11" points="83.63 55.72 83.08 56.03 83.08 51.41 83.63 51.1 83.63 55.72"/>
            <polygon class="cls-23" points="76.06 56.03 75.52 55.72 75.52 51.1 76.06 51.41 76.06 56.03"/>
            <polygon class="cls-11" points="76.6 55.72 76.06 56.03 76.06 51.41 76.6 51.1 76.6 55.72"/>
            <polygon class="cls-21" points="83.63 50.27 79.57 52.61 75.52 50.27 79.57 47.93 83.63 50.27"/>
            <polygon class="cls-23" points="79.57 53.44 75.52 51.1 75.52 50.27 79.57 52.61 79.57 53.44"/>
            <polygon class="cls-11" points="83.63 51.1 79.57 53.44 79.57 52.61 83.63 50.27 83.63 51.1"/>
            <g>
              <polygon class="cls-23" points="79.34 55.58 76.18 53.75 76.18 53.37 79.34 55.2 79.34 55.58"/>
              <polygon class="cls-21" points="79.67 55.01 76.51 53.18 76.18 53.37 79.34 55.2 79.67 55.01"/>
            </g>
            <g>
              <polygon class="cls-11" points="79.81 55.58 82.97 53.75 82.97 53.37 79.81 55.2 79.81 55.58"/>
              <polygon class="cls-21" points="79.48 55.01 82.64 53.18 82.97 53.37 79.81 55.2 79.48 55.01"/>
            </g>
            <polygon class="cls-23" points="79.57 58.06 79.03 57.75 79.03 53.13 79.57 53.44 79.57 58.06"/>
            <polygon class="cls-11" points="80.11 57.75 79.57 58.06 79.57 53.44 80.11 53.13 80.11 57.75"/>
            <polygon class="cls-11" points="83.63 50.27 83.08 50.58 84.21 43.64 84.75 43.33 83.63 50.27"/>
            <polygon class="cls-23" points="79.58 48.56 79.04 48.25 80.16 41.31 80.7 41.62 79.58 48.56"/>
            <polygon class="cls-11" points="80.12 48.25 79.58 48.56 80.7 41.62 81.24 41.31 80.12 48.25"/>
            <polygon class="cls-21" points="83.44 47.74 83.14 47.93 80.08 46.17 80.38 45.97 83.44 47.74"/>
            <polygon class="cls-21" points="84.75 43.33 84.21 43.64 80.16 41.31 80.7 41 84.75 43.33"/>
            <polygon class="cls-23" points="83.67 47 79.62 44.66 80.16 41.31 84.21 43.64 83.67 47"/>
            <polygon class="cls-23" points="83.03 48.57 79.97 46.8 80.08 46.17 83.14 47.93 83.03 48.57"/>
            <polygon class="cls-23" points="83.08 50.58 82.54 50.27 83.67 43.33 84.21 43.64 83.08 50.58"/>
            <path class="cls-29" d="m82.57,50.64l-2.88,1.66c-.08.05-.19.05-.27,0l-3.34-1.93c-.18-.11-.18-.37,0-.47l2.88-1.66c.08-.05.19-.05.27,0l3.34,1.93c.18.11.18.37,0,.47Z"/>
            <path class="cls-1" d="m83.03,46.44l-3.11-1.8c-.1-.05-.15-.16-.13-.27l.39-2.43c.03-.18.23-.28.39-.19l3.11,1.8c.1.05.15.16.13.27l-.39,2.43c-.03.18-.23.28-.39.19Z"/>
          </g>
          <g>
            <g>
              <polygon class="cls-6" points="65.39 60.42 64.73 60.04 64.73 50.79 65.39 51.17 65.39 60.42"/>
              <polygon class="cls-19" points="66.05 60.04 65.39 60.42 65.39 51.17 66.05 50.79 66.05 60.04"/>
            </g>
            <g>
              <polygon class="cls-6" points="85.33 60.37 84.67 59.99 84.67 50.74 85.33 51.12 85.33 60.37"/>
              <polygon class="cls-19" points="85.99 59.99 85.33 60.37 85.33 51.12 85.99 50.74 85.99 59.99"/>
            </g>
            <g>
              <polygon class="cls-14" points="86.42 49.59 75.29 55.95 64.39 49.64 75.51 43.29 86.42 49.59"/>
              <polygon class="cls-23" points="75.29 56.91 64.39 50.61 64.39 49.64 75.29 55.95 75.29 56.91"/>
              <polygon class="cls-11" points="86.42 50.56 75.29 56.91 75.29 55.95 86.42 49.59 86.42 50.56"/>
            </g>
            <polygon class="cls-23" points="75.29 56.91 64.39 50.61 64.39 49.64 75.29 55.95 75.29 56.91"/>
            <polygon class="cls-6" points="75.29 56.91 74.63 56.53 74.63 56.53 74.63 58.14 74.63 65.78 75.29 66.16 75.29 58.52 75.29 56.91 75.29 56.91"/>
            <polygon class="cls-19" points="75.96 56.53 75.29 56.91 75.29 56.91 75.29 58.52 75.29 66.16 75.96 65.78 75.96 58.9 75.96 57.29 75.96 56.53"/>
          </g>
          <g>
            <polygon class="cls-23" points="73.16 63.9 73.71 63.58 73.71 58.87 73.16 59.19 73.16 63.9"/>
            <g>
              <polygon class="cls-11" points="66.55 61.04 69.77 59.17 69.77 58.79 66.55 60.65 66.55 61.04"/>
              <polygon class="cls-21" points="66.21 60.46 69.43 58.59 69.77 58.79 66.55 60.65 66.21 60.46"/>
            </g>
            <g>
              <polygon class="cls-11" points="72.82 61.04 69.6 59.17 69.6 58.79 72.82 60.65 72.82 61.04"/>
              <polygon class="cls-21" points="73.16 60.46 69.94 58.59 69.6 58.79 72.82 60.65 73.16 60.46"/>
            </g>
            <polygon class="cls-23" points="66 63.9 66.55 63.58 66.55 58.87 66 59.19 66 63.9"/>
            <polygon class="cls-11" points="65.45 63.58 66 63.9 66 59.19 65.45 58.87 65.45 63.58"/>
            <polygon class="cls-11" points="72.61 63.58 73.16 63.9 73.16 59.19 72.61 58.87 72.61 63.58"/>
            <polygon class="cls-21" points="65.45 58.03 69.58 60.41 73.71 58.03 69.58 55.65 65.45 58.03"/>
            <polygon class="cls-23" points="69.58 61.26 73.71 58.87 73.71 58.03 69.58 60.41 69.58 61.26"/>
            <polygon class="cls-11" points="65.45 58.87 69.58 61.26 69.58 60.41 65.45 58.03 65.45 58.87"/>
            <g>
              <polygon class="cls-23" points="69.82 63.44 73.04 61.58 73.04 61.19 69.82 63.05 69.82 63.44"/>
              <polygon class="cls-21" points="69.48 62.86 72.7 61 73.04 61.19 69.82 63.05 69.48 62.86"/>
            </g>
            <g>
              <polygon class="cls-11" points="69.34 63.44 66.12 61.58 66.12 61.19 69.34 63.05 69.34 63.44"/>
              <polygon class="cls-21" points="69.67 62.86 66.45 61 66.12 61.19 69.34 63.05 69.67 62.86"/>
            </g>
            <polygon class="cls-23" points="69.58 65.96 70.13 65.65 70.13 60.94 69.58 61.26 69.58 65.96"/>
            <polygon class="cls-11" points="69.03 65.65 69.58 65.96 69.58 61.26 69.03 60.94 69.03 65.65"/>
            <polygon class="cls-23" points="65.45 58.03 65.96 57.73 65.12 52.43 64.62 52.81 65.45 58.03"/>
            <path class="cls-1" d="m66.45,58.2l3.02,1.74c.09.05.2.05.29,0l3.2-1.84c.19-.11.19-.39,0-.5l-3.02-1.74c-.09-.05-.2-.05-.29,0l-3.2,1.84c-.19.11-.19.39,0,.5Z"/>
            <g>
              <polygon class="cls-23" points="66.01 58.35 66.52 58.06 65.55 52.04 65.05 52.42 66.01 58.35"/>
              <polygon class="cls-11" points="66.01 58.35 65.45 58.03 64.49 52.1 65.05 52.42 66.01 58.35"/>
              <polygon class="cls-21" points="69.07 57.4 68.85 57.53 65.69 55.8 65.92 55.67 69.07 57.4"/>
              <polygon class="cls-23" points="68.92 58.03 65.76 56.31 65.69 55.8 68.85 57.53 68.92 58.03"/>
              <polygon class="cls-11" points="69.58 60.41 69.02 60.09 68.06 54.16 68.62 54.48 69.58 60.41"/>
              <polygon class="cls-23" points="69.58 60.41 70.09 60.12 69.12 54.1 68.62 54.48 69.58 60.41"/>
              <polygon class="cls-21" points="64.49 52.1 64.99 51.71 69.12 54.1 68.62 54.48 64.49 52.1"/>
              <polygon class="cls-11" points="64.49 52.1 64.86 54.41 68.99 56.79 68.62 54.48 64.49 52.1"/>
            </g>
          </g>
        </g>
        <g>
          <g>
            <g>
              <polygon class="cls-11" points="127.9 53.33 124.74 51.5 124.74 51.12 127.9 52.95 127.9 53.33"/>
              <polygon class="cls-21" points="128.23 52.76 125.07 50.93 124.74 51.12 127.9 52.95 128.23 52.76"/>
            </g>
            <g>
              <polygon class="cls-11" points="121.74 53.33 124.9 51.5 124.9 51.12 121.74 52.95 121.74 53.33"/>
              <polygon class="cls-21" points="121.41 52.76 124.57 50.93 124.9 51.12 121.74 52.95 121.41 52.76"/>
            </g>
            <polygon class="cls-23" points="128.43 56.14 127.89 55.83 127.89 51.21 128.43 51.52 128.43 56.14"/>
            <polygon class="cls-11" points="128.98 55.83 128.43 56.14 128.43 51.52 128.98 51.21 128.98 55.83"/>
            <polygon class="cls-23" points="121.41 56.14 120.87 55.83 120.87 51.21 121.41 51.52 121.41 56.14"/>
            <polygon class="cls-11" points="121.95 55.83 121.41 56.14 121.41 51.52 121.95 51.21 121.95 55.83"/>
            <polygon class="cls-21" points="128.98 50.38 124.92 52.72 120.87 50.38 124.92 48.04 128.98 50.38"/>
            <polygon class="cls-23" points="124.92 53.55 120.87 51.21 120.87 50.38 124.92 52.72 124.92 53.55"/>
            <polygon class="cls-11" points="128.98 51.21 124.92 53.55 124.92 52.72 128.98 50.38 128.98 51.21"/>
            <g>
              <polygon class="cls-23" points="124.69 55.69 121.53 53.86 121.53 53.48 124.69 55.31 124.69 55.69"/>
              <polygon class="cls-21" points="125.02 55.12 121.86 53.29 121.53 53.48 124.69 55.31 125.02 55.12"/>
            </g>
            <g>
              <polygon class="cls-11" points="125.16 55.69 128.32 53.86 128.32 53.48 125.16 55.31 125.16 55.69"/>
              <polygon class="cls-21" points="124.83 55.12 127.99 53.29 128.32 53.48 125.16 55.31 124.83 55.12"/>
            </g>
            <polygon class="cls-23" points="124.92 58.17 124.38 57.85 124.38 53.24 124.92 53.55 124.92 58.17"/>
            <polygon class="cls-11" points="125.46 57.85 124.92 58.17 124.92 53.55 125.46 53.24 125.46 57.85"/>
            <polygon class="cls-11" points="128.98 50.38 128.43 50.69 129.56 43.75 130.1 43.44 128.98 50.38"/>
            <polygon class="cls-23" points="124.93 48.67 124.39 48.36 125.51 41.42 126.05 41.73 124.93 48.67"/>
            <polygon class="cls-11" points="125.47 48.36 124.93 48.67 126.05 41.73 126.59 41.42 125.47 48.36"/>
            <polygon class="cls-21" points="128.79 47.85 128.49 48.04 125.43 46.28 125.73 46.08 128.79 47.85"/>
            <polygon class="cls-21" points="130.1 43.44 129.56 43.75 125.51 41.42 126.05 41.1 130.1 43.44"/>
            <polygon class="cls-23" points="129.02 47.1 124.97 44.77 125.51 41.42 129.56 43.75 129.02 47.1"/>
            <polygon class="cls-23" points="128.38 48.68 125.32 46.91 125.43 46.28 128.49 48.04 128.38 48.68"/>
            <polygon class="cls-23" points="128.43 50.69 127.89 50.38 129.02 43.44 129.56 43.75 128.43 50.69"/>
            <path class="cls-29" d="m127.92,50.75l-2.88,1.66c-.08.05-.19.05-.27,0l-3.34-1.93c-.18-.11-.18-.37,0-.47l2.88-1.66c.08-.05.19-.05.27,0l3.34,1.93c.18.11.18.37,0,.47Z"/>
            <path class="cls-1" d="m128.38,46.55l-3.11-1.8c-.1-.05-.15-.16-.13-.27l.39-2.43c.03-.18.23-.28.39-.19l3.11,1.8c.1.05.15.16.13.27l-.39,2.43c-.03.18-.23.28-.39.19Z"/>
          </g>
          <g>
            <g>
              <polygon class="cls-6" points="110.74 60.53 110.08 60.15 110.08 50.9 110.74 51.28 110.74 60.53"/>
              <polygon class="cls-19" points="111.4 60.15 110.74 60.53 110.74 51.28 111.4 50.9 111.4 60.15"/>
            </g>
            <g>
              <polygon class="cls-6" points="130.68 60.48 130.02 60.1 130.02 50.85 130.68 51.23 130.68 60.48"/>
              <polygon class="cls-19" points="131.34 60.1 130.68 60.48 130.68 51.23 131.34 50.85 131.34 60.1"/>
            </g>
            <g>
              <polygon class="cls-14" points="131.77 49.7 120.64 56.05 109.74 49.75 120.86 43.4 131.77 49.7"/>
              <polygon class="cls-23" points="120.64 57.02 109.74 50.71 109.74 49.75 120.64 56.05 120.64 57.02"/>
              <polygon class="cls-11" points="131.77 50.66 120.64 57.02 120.64 56.05 131.77 49.7 131.77 50.66"/>
            </g>
            <polygon class="cls-23" points="120.64 57.02 109.74 50.71 109.74 49.75 120.64 56.05 120.64 57.02"/>
            <polygon class="cls-6" points="120.64 57.02 119.98 56.64 119.98 56.64 119.98 58.25 119.98 65.88 120.64 66.27 120.64 58.63 120.64 57.02 120.64 57.02"/>
            <polygon class="cls-19" points="121.31 56.64 120.64 57.02 120.64 57.02 120.64 58.63 120.64 66.27 121.31 65.88 121.31 59.01 121.31 57.4 121.31 56.64"/>
          </g>
          <g>
            <polygon class="cls-23" points="118.51 64 119.06 63.69 119.06 58.98 118.51 59.3 118.51 64"/>
            <g>
              <polygon class="cls-11" points="111.9 61.14 115.12 59.28 115.12 58.89 111.9 60.76 111.9 61.14"/>
              <polygon class="cls-21" points="111.56 60.56 114.78 58.7 115.12 58.89 111.9 60.76 111.56 60.56"/>
            </g>
            <g>
              <polygon class="cls-11" points="118.17 61.14 114.95 59.28 114.95 58.89 118.17 60.76 118.17 61.14"/>
              <polygon class="cls-21" points="118.51 60.56 115.29 58.7 114.95 58.89 118.17 60.76 118.51 60.56"/>
            </g>
            <polygon class="cls-23" points="111.35 64.01 111.9 63.69 111.9 58.98 111.35 59.3 111.35 64.01"/>
            <polygon class="cls-11" points="110.8 63.69 111.35 64.01 111.35 59.3 110.8 58.98 110.8 63.69"/>
            <polygon class="cls-11" points="117.96 63.69 118.51 64 118.51 59.3 117.96 58.98 117.96 63.69"/>
            <polygon class="cls-21" points="110.8 58.14 114.93 60.52 119.06 58.14 114.93 55.75 110.8 58.14"/>
            <polygon class="cls-23" points="114.93 61.37 119.06 58.98 119.06 58.14 114.93 60.52 114.93 61.37"/>
            <polygon class="cls-11" points="110.8 58.98 114.93 61.37 114.93 60.52 110.8 58.14 110.8 58.98"/>
            <g>
              <polygon class="cls-23" points="115.17 63.55 118.39 61.68 118.39 61.3 115.17 63.16 115.17 63.55"/>
              <polygon class="cls-21" points="114.83 62.97 118.05 61.1 118.39 61.3 115.17 63.16 114.83 62.97"/>
            </g>
            <g>
              <polygon class="cls-11" points="114.69 63.55 111.47 61.68 111.47 61.3 114.69 63.16 114.69 63.55"/>
              <polygon class="cls-21" points="115.02 62.97 111.8 61.1 111.47 61.3 114.69 63.16 115.02 62.97"/>
            </g>
            <polygon class="cls-23" points="114.93 66.07 115.48 65.75 115.48 61.05 114.93 61.37 114.93 66.07"/>
            <polygon class="cls-11" points="114.38 65.75 114.93 66.07 114.93 61.37 114.38 61.05 114.38 65.75"/>
            <polygon class="cls-23" points="110.8 58.14 111.31 57.84 110.47 52.54 109.97 52.92 110.8 58.14"/>
            <path class="cls-1" d="m111.8,58.31l3.02,1.74c.09.05.2.05.29,0l3.2-1.84c.19-.11.19-.39,0-.5l-3.02-1.74c-.09-.05-.2-.05-.29,0l-3.2,1.84c-.19.11-.19.39,0,.5Z"/>
            <g>
              <polygon class="cls-23" points="111.36 58.46 111.87 58.17 110.9 52.15 110.4 52.53 111.36 58.46"/>
              <polygon class="cls-11" points="111.36 58.46 110.8 58.14 109.84 52.21 110.4 52.53 111.36 58.46"/>
              <polygon class="cls-21" points="114.42 57.51 114.2 57.64 111.04 55.91 111.27 55.78 114.42 57.51"/>
              <polygon class="cls-23" points="114.27 58.14 111.11 56.42 111.04 55.91 114.2 57.64 114.27 58.14"/>
              <polygon class="cls-11" points="114.93 60.52 114.37 60.2 113.41 54.27 113.97 54.59 114.93 60.52"/>
              <polygon class="cls-23" points="114.93 60.52 115.44 60.23 114.47 54.21 113.97 54.59 114.93 60.52"/>
              <polygon class="cls-21" points="109.84 52.21 110.34 51.82 114.47 54.21 113.97 54.59 109.84 52.21"/>
              <polygon class="cls-11" points="109.84 52.21 110.21 54.52 114.34 56.9 113.97 54.59 109.84 52.21"/>
            </g>
          </g>
        </g>
        <g>
          <g>
            <g>
              <polygon class="cls-11" points="155.03 13.23 151.88 11.41 151.88 11.03 155.03 12.85 155.03 13.23"/>
              <polygon class="cls-21" points="155.36 12.66 152.21 10.83 151.88 11.03 155.03 12.85 155.36 12.66"/>
            </g>
            <g>
              <polygon class="cls-11" points="148.88 13.23 152.04 11.41 152.04 11.03 148.88 12.85 148.88 13.23"/>
              <polygon class="cls-21" points="148.55 12.66 151.71 10.83 152.04 11.03 148.88 12.85 148.55 12.66"/>
            </g>
            <polygon class="cls-23" points="155.57 16.04 155.03 15.73 155.03 11.11 155.57 11.42 155.57 16.04"/>
            <polygon class="cls-11" points="156.11 15.73 155.57 16.04 155.57 11.42 156.11 11.11 156.11 15.73"/>
            <polygon class="cls-23" points="148.55 16.04 148.01 15.73 148.01 11.11 148.55 11.42 148.55 16.04"/>
            <polygon class="cls-11" points="149.09 15.73 148.55 16.04 148.55 11.42 149.09 11.11 149.09 15.73"/>
            <polygon class="cls-21" points="156.11 10.28 152.06 12.62 148.01 10.28 152.06 7.94 156.11 10.28"/>
            <polygon class="cls-23" points="152.06 13.45 148.01 11.11 148.01 10.28 152.06 12.62 152.06 13.45"/>
            <polygon class="cls-11" points="156.11 11.11 152.06 13.45 152.06 12.62 156.11 10.28 156.11 11.11"/>
            <g>
              <polygon class="cls-23" points="151.83 15.59 148.67 13.76 148.67 13.38 151.83 15.21 151.83 15.59"/>
              <polygon class="cls-21" points="152.15 15.02 149 13.19 148.67 13.38 151.83 15.21 152.15 15.02"/>
            </g>
            <g>
              <polygon class="cls-11" points="152.3 15.59 155.46 13.76 155.46 13.38 152.3 15.21 152.3 15.59"/>
              <polygon class="cls-21" points="151.97 15.02 155.13 13.19 155.46 13.38 152.3 15.21 151.97 15.02"/>
            </g>
            <polygon class="cls-23" points="152.06 18.07 151.52 17.76 151.52 13.14 152.06 13.45 152.06 18.07"/>
            <polygon class="cls-11" points="152.6 17.76 152.06 18.07 152.06 13.45 152.6 13.14 152.6 17.76"/>
            <polygon class="cls-11" points="156.11 10.28 155.57 10.6 156.7 3.65 157.24 3.34 156.11 10.28"/>
            <polygon class="cls-23" points="152.06 8.57 151.52 8.26 152.65 1.32 153.19 1.63 152.06 8.57"/>
            <polygon class="cls-11" points="152.61 8.26 152.06 8.57 153.19 1.63 153.73 1.32 152.61 8.26"/>
            <polygon class="cls-21" points="155.93 7.75 155.62 7.94 152.57 6.18 152.87 5.99 155.93 7.75"/>
            <polygon class="cls-21" points="157.24 3.34 156.7 3.65 152.65 1.32 153.19 1.01 157.24 3.34"/>
            <polygon class="cls-23" points="156.15 7.01 152.11 4.67 152.65 1.32 156.7 3.65 156.15 7.01"/>
            <polygon class="cls-23" points="155.52 8.58 152.46 6.81 152.57 6.18 155.62 7.94 155.52 8.58"/>
            <polygon class="cls-23" points="155.57 10.6 155.03 10.28 156.16 3.34 156.7 3.65 155.57 10.6"/>
            <path class="cls-29" d="m155.06,10.65l-2.88,1.66c-.08.05-.19.05-.27,0l-3.34-1.93c-.18-.11-.18-.37,0-.47l2.88-1.66c.08-.05.19-.05.27,0l3.34,1.93c.18.11.18.37,0,.47Z"/>
            <path class="cls-1" d="m155.52,6.45l-3.11-1.8c-.1-.05-.15-.16-.13-.27l.39-2.43c.03-.18.23-.28.39-.19l3.11,1.8c.1.05.15.16.13.27l-.39,2.43c-.03.18-.23.28-.39.19Z"/>
          </g>
          <g>
            <g>
              <polygon class="cls-6" points="137.88 20.43 137.21 20.05 137.21 10.8 137.88 11.18 137.88 20.43"/>
              <polygon class="cls-19" points="138.54 20.05 137.88 20.43 137.88 11.18 138.54 10.8 138.54 20.05"/>
            </g>
            <g>
              <polygon class="cls-6" points="157.82 20.38 157.16 20 157.16 10.75 157.82 11.13 157.82 20.38"/>
              <polygon class="cls-19" points="158.48 20 157.82 20.38 157.82 11.13 158.48 10.75 158.48 20"/>
            </g>
            <g>
              <polygon class="cls-14" points="158.91 9.6 147.78 15.96 136.87 9.65 148 3.3 158.91 9.6"/>
              <polygon class="cls-23" points="147.78 16.92 136.87 10.62 136.87 9.65 147.78 15.96 147.78 16.92"/>
              <polygon class="cls-11" points="158.91 10.57 147.78 16.92 147.78 15.96 158.91 9.6 158.91 10.57"/>
            </g>
            <polygon class="cls-23" points="147.78 16.92 136.87 10.62 136.87 9.65 147.78 15.96 147.78 16.92"/>
            <polygon class="cls-6" points="147.78 16.92 147.12 16.54 147.12 16.54 147.12 18.15 147.12 25.79 147.78 26.17 147.78 18.53 147.78 16.92 147.78 16.92"/>
            <polygon class="cls-19" points="148.44 16.54 147.78 16.92 147.78 16.92 147.78 18.53 147.78 26.17 148.44 25.79 148.44 18.92 148.44 17.3 148.44 16.54"/>
          </g>
          <g>
            <polygon class="cls-23" points="145.64 23.91 146.2 23.59 146.2 18.88 145.64 19.2 145.64 23.91"/>
            <g>
              <polygon class="cls-11" points="139.04 21.05 142.25 19.18 142.25 18.8 139.04 20.66 139.04 21.05"/>
              <polygon class="cls-21" points="138.7 20.47 141.92 18.6 142.25 18.8 139.04 20.66 138.7 20.47"/>
            </g>
            <g>
              <polygon class="cls-11" points="145.31 21.05 142.09 19.18 142.09 18.8 145.31 20.66 145.31 21.05"/>
              <polygon class="cls-21" points="145.64 20.47 142.43 18.6 142.09 18.8 145.31 20.66 145.64 20.47"/>
            </g>
            <polygon class="cls-23" points="138.49 23.91 139.04 23.59 139.04 18.88 138.49 19.2 138.49 23.91"/>
            <polygon class="cls-11" points="137.94 23.59 138.49 23.91 138.49 19.2 137.94 18.88 137.94 23.59"/>
            <polygon class="cls-11" points="145.09 23.59 145.64 23.91 145.64 19.2 145.09 18.88 145.09 23.59"/>
            <polygon class="cls-21" points="137.94 18.04 142.07 20.42 146.2 18.04 142.07 15.66 137.94 18.04"/>
            <polygon class="cls-23" points="142.07 21.27 146.2 18.88 146.2 18.04 142.07 20.42 142.07 21.27"/>
            <polygon class="cls-11" points="137.94 18.88 142.07 21.27 142.07 20.42 137.94 18.04 137.94 18.88"/>
            <g>
              <polygon class="cls-23" points="142.31 23.45 145.53 21.59 145.53 21.2 142.31 23.06 142.31 23.45"/>
              <polygon class="cls-21" points="141.97 22.87 145.19 21.01 145.53 21.2 142.31 23.06 141.97 22.87"/>
            </g>
            <g>
              <polygon class="cls-11" points="141.83 23.45 138.61 21.59 138.61 21.2 141.83 23.06 141.83 23.45"/>
              <polygon class="cls-21" points="142.16 22.87 138.94 21.01 138.61 21.2 141.83 23.06 142.16 22.87"/>
            </g>
            <polygon class="cls-23" points="142.07 25.97 142.62 25.66 142.62 20.95 142.07 21.27 142.07 25.97"/>
            <polygon class="cls-11" points="141.52 25.66 142.07 25.97 142.07 21.27 141.52 20.95 141.52 25.66"/>
            <polygon class="cls-23" points="137.94 18.04 138.45 17.75 137.61 12.44 137.11 12.82 137.94 18.04"/>
            <path class="cls-1" d="m138.94,18.21l3.02,1.74c.09.05.2.05.29,0l3.2-1.84c.19-.11.19-.39,0-.5l-3.02-1.74c-.09-.05-.2-.05-.29,0l-3.2,1.84c-.19.11-.19.39,0,.5Z"/>
            <g>
              <polygon class="cls-23" points="138.5 18.36 139.01 18.07 138.04 12.05 137.54 12.43 138.5 18.36"/>
              <polygon class="cls-11" points="138.5 18.36 137.94 18.04 136.98 12.11 137.54 12.43 138.5 18.36"/>
              <polygon class="cls-21" points="141.56 17.41 141.34 17.54 138.18 15.81 138.4 15.69 141.56 17.41"/>
              <polygon class="cls-23" points="141.4 18.04 138.25 16.32 138.18 15.81 141.34 17.54 141.4 18.04"/>
              <polygon class="cls-11" points="142.07 20.42 141.51 20.1 140.54 14.17 141.11 14.49 142.07 20.42"/>
              <polygon class="cls-23" points="142.07 20.42 142.58 20.13 141.61 14.11 141.11 14.49 142.07 20.42"/>
              <polygon class="cls-21" points="136.98 12.11 137.48 11.72 141.61 14.11 141.11 14.49 136.98 12.11"/>
              <polygon class="cls-11" points="136.98 12.11 137.34 14.42 141.47 16.8 141.11 14.49 136.98 12.11"/>
            </g>
          </g>
        </g>
        <g>
          <g>
            <g>
              <polygon class="cls-11" points="104.12 67.23 101.29 65.59 101.29 65.25 104.12 66.89 104.12 67.23"/>
              <polygon class="cls-21" points="104.42 66.72 101.59 65.08 101.29 65.25 104.12 66.89 104.42 66.72"/>
            </g>
            <g>
              <polygon class="cls-11" points="98.6 67.23 101.43 65.59 101.43 65.25 98.6 66.89 98.6 67.23"/>
              <polygon class="cls-21" points="98.31 66.72 101.14 65.08 101.43 65.25 98.6 66.89 98.31 66.72"/>
            </g>
            <polygon class="cls-23" points="104.61 69.75 104.12 69.47 104.12 65.33 104.61 65.61 104.61 69.75"/>
            <polygon class="cls-11" points="105.09 69.47 104.61 69.75 104.61 65.61 105.09 65.33 105.09 69.47"/>
            <polygon class="cls-23" points="98.31 69.75 97.82 69.47 97.82 65.33 98.31 65.61 98.31 69.75"/>
            <polygon class="cls-11" points="98.79 69.47 98.31 69.75 98.31 65.61 98.79 65.33 98.79 69.47"/>
            <polygon class="cls-21" points="105.09 64.59 101.46 66.69 97.82 64.59 101.46 62.49 105.09 64.59"/>
            <polygon class="cls-23" points="101.46 67.43 97.82 65.33 97.82 64.59 101.46 66.69 101.46 67.43"/>
            <polygon class="cls-11" points="105.09 65.33 101.46 67.43 101.46 66.69 105.09 64.59 105.09 65.33"/>
            <g>
              <polygon class="cls-23" points="101.24 69.35 98.41 67.71 98.41 67.37 101.24 69.01 101.24 69.35"/>
              <polygon class="cls-21" points="101.54 68.84 98.71 67.2 98.41 67.37 101.24 69.01 101.54 68.84"/>
            </g>
            <g>
              <polygon class="cls-11" points="101.67 69.35 104.5 67.71 104.5 67.37 101.67 69.01 101.67 69.35"/>
              <polygon class="cls-21" points="101.37 68.84 104.21 67.2 104.5 67.37 101.67 69.01 101.37 68.84"/>
            </g>
            <polygon class="cls-23" points="101.46 71.57 100.97 71.29 100.97 67.15 101.46 67.43 101.46 71.57"/>
            <polygon class="cls-11" points="101.94 71.29 101.46 71.57 101.46 67.43 101.94 67.15 101.94 71.29"/>
            <polygon class="cls-11" points="105.09 64.59 104.61 64.87 105.61 58.64 106.1 58.36 105.09 64.59"/>
            <polygon class="cls-23" points="101.46 63.05 100.97 62.77 101.98 56.54 102.47 56.82 101.46 63.05"/>
            <polygon class="cls-11" points="101.94 62.77 101.46 63.05 102.47 56.82 102.95 56.54 101.94 62.77"/>
            <polygon class="cls-21" points="104.93 62.31 104.65 62.49 101.91 60.91 102.18 60.73 104.93 62.31"/>
            <polygon class="cls-21" points="106.1 58.36 105.61 58.64 101.98 56.54 102.47 56.26 106.1 58.36"/>
            <polygon class="cls-23" points="105.13 61.65 101.5 59.55 101.98 56.54 105.61 58.64 105.13 61.65"/>
            <polygon class="cls-23" points="104.56 63.06 101.82 61.47 101.91 60.91 104.65 62.49 104.56 63.06"/>
            <polygon class="cls-23" points="104.61 64.87 104.12 64.59 105.13 58.36 105.61 58.64 104.61 64.87"/>
            <path class="cls-29" d="m104.14,64.92l-2.59,1.49c-.08.04-.17.04-.25,0l-2.99-1.73c-.16-.09-.16-.33,0-.43l2.59-1.49c.08-.04.17-.04.25,0l2.99,1.73c.16.09.16.33,0,.43Z"/>
            <path class="cls-29" d="m104.55,61.15l-2.79-1.61c-.09-.05-.13-.15-.12-.24l.35-2.18c.03-.16.21-.25.35-.17l2.79,1.61c.09.05.13.15.12.24l-.35,2.18c-.03.16-.21.25-.35.17Z"/>
          </g>
          <g>
            <g>
              <polygon class="cls-11" points="90.44 67.33 93.2 65.74 93.2 65.41 90.44 67 90.44 67.33"/>
              <polygon class="cls-21" points="90.16 66.84 92.91 65.24 93.2 65.41 90.44 67 90.16 66.84"/>
            </g>
            <g>
              <polygon class="cls-11" points="95.81 67.33 93.06 65.74 93.06 65.41 95.81 67 95.81 67.33"/>
              <polygon class="cls-21" points="96.09 66.84 93.34 65.24 93.06 65.41 95.81 67 96.09 66.84"/>
            </g>
            <polygon class="cls-23" points="89.98 69.78 90.45 69.51 90.45 65.48 89.98 65.76 89.98 69.78"/>
            <polygon class="cls-11" points="89.5 69.51 89.98 69.78 89.98 65.76 89.5 65.48 89.5 69.51"/>
            <polygon class="cls-23" points="96.09 69.78 96.56 69.51 96.56 65.48 96.09 65.76 96.09 69.78"/>
            <polygon class="cls-11" points="95.62 69.51 96.09 69.78 96.09 65.76 95.62 65.48 95.62 69.51"/>
            <polygon class="cls-21" points="89.5 64.76 93.03 66.8 96.56 64.76 93.03 62.73 89.5 64.76"/>
            <polygon class="cls-23" points="93.03 67.52 96.56 65.49 96.56 64.76 93.03 66.8 93.03 67.52"/>
            <polygon class="cls-11" points="89.5 65.49 93.03 67.52 93.03 66.8 89.5 64.76 89.5 65.49"/>
            <g>
              <polygon class="cls-23" points="93.24 69.39 95.99 67.8 95.99 67.46 93.24 69.06 93.24 69.39"/>
              <polygon class="cls-21" points="92.95 68.89 95.71 67.3 95.99 67.46 93.24 69.06 92.95 68.89"/>
            </g>
            <g>
              <polygon class="cls-11" points="92.83 69.39 90.08 67.8 90.08 67.46 92.83 69.06 92.83 69.39"/>
              <polygon class="cls-21" points="93.12 68.89 90.36 67.3 90.08 67.46 92.83 69.06 93.12 68.89"/>
            </g>
            <polygon class="cls-23" points="93.03 71.55 93.51 71.27 93.51 67.25 93.03 67.52 93.03 71.55"/>
            <polygon class="cls-11" points="92.56 71.27 93.03 71.55 93.03 67.52 92.56 67.25 92.56 71.27"/>
            <polygon class="cls-11" points="89.5 64.76 89.98 65.04 89 58.99 88.53 58.72 89.5 64.76"/>
            <polygon class="cls-23" points="93.03 63.27 93.5 63 92.52 56.95 92.05 57.22 93.03 63.27"/>
            <polygon class="cls-11" points="92.56 63 93.03 63.27 92.05 57.22 91.58 56.95 92.56 63"/>
            <polygon class="cls-21" points="89.66 62.56 89.93 62.73 92.6 61.19 92.33 61.02 89.66 62.56"/>
            <polygon class="cls-21" points="88.53 58.72 89 58.99 92.52 56.95 92.05 56.68 88.53 58.72"/>
            <polygon class="cls-23" points="89.47 61.91 93 59.87 92.52 56.95 89 58.99 89.47 61.91"/>
            <polygon class="cls-23" points="90.02 63.28 92.69 61.74 92.6 61.19 89.93 62.73 90.02 63.28"/>
            <polygon class="cls-23" points="89.98 65.04 90.45 64.76 89.47 58.72 89 58.99 89.98 65.04"/>
            <path class="cls-29" d="m90.42,65.09l2.51,1.44c.07.04.16.04.24,0l2.91-1.68c.16-.09.16-.32,0-.41l-2.51-1.44c-.07-.04-.16-.04-.24,0l-2.91,1.68c-.16.09-.16.32,0,.41Z"/>
            <path class="cls-1" d="m90.03,61.43l2.71-1.57c.08-.05.13-.14.11-.24l-.34-2.11c-.03-.16-.2-.24-.34-.16l-2.71,1.57c-.08.05-.13.14-.11.24l.34,2.11c.03.16.2.24.34.16Z"/>
          </g>
          <g>
            <g>
              <polygon class="cls-6" points="105.4 73.61 105.97 73.27 105.97 65.22 105.4 65.55 105.4 73.61"/>
              <polygon class="cls-19" points="104.82 73.27 105.4 73.61 105.4 65.55 104.82 65.22 104.82 73.27"/>
            </g>
            <g>
              <polygon class="cls-6" points="88.02 73.56 88.6 73.23 88.6 65.17 88.02 65.51 88.02 73.56"/>
              <polygon class="cls-19" points="87.44 73.23 88.02 73.56 88.02 65.51 87.44 65.17 87.44 73.23"/>
            </g>
            <g>
              <polygon class="cls-14" points="87.07 64.17 96.76 69.71 106.27 64.21 96.57 58.68 87.07 64.17"/>
              <polygon class="cls-23" points="96.76 70.55 106.27 65.05 106.27 64.21 96.76 69.71 96.76 70.55"/>
              <polygon class="cls-11" points="87.07 65.01 96.76 70.55 96.76 69.71 87.07 64.17 87.07 65.01"/>
            </g>
            <polygon class="cls-23" points="96.76 70.55 106.27 65.05 106.27 64.21 96.76 69.71 96.76 70.55"/>
            <polygon class="cls-6" points="96.76 70.55 97.34 70.21 97.34 70.21 97.34 71.62 97.34 78.27 96.76 78.61 96.76 71.95 96.76 70.55 96.76 70.55"/>
            <polygon class="cls-19" points="96.19 70.21 96.76 70.55 96.76 70.55 96.76 71.95 96.76 78.61 96.19 78.27 96.19 72.29 96.19 70.88 96.19 70.21"/>
          </g>
          <polygon class="cls-23" points="94.42 76.52 94.9 76.24 94.9 72.07 94.42 72.35 94.42 76.52"/>
          <g>
            <polygon class="cls-11" points="88.56 73.98 91.41 72.33 91.41 71.99 88.56 73.64 88.56 73.98"/>
            <polygon class="cls-21" points="88.26 73.47 91.11 71.82 91.41 71.99 88.56 73.64 88.26 73.47"/>
          </g>
          <g>
            <polygon class="cls-11" points="94.12 73.98 91.27 72.33 91.27 71.99 94.12 73.64 94.12 73.98"/>
            <polygon class="cls-21" points="94.42 73.47 91.56 71.82 91.27 71.99 94.12 73.64 94.42 73.47"/>
          </g>
          <polygon class="cls-23" points="88.07 76.52 88.56 76.24 88.56 72.07 88.07 72.35 88.07 76.52"/>
          <polygon class="cls-11" points="87.58 76.24 88.07 76.52 88.07 72.35 87.58 72.07 87.58 76.24"/>
          <polygon class="cls-11" points="93.93 76.24 94.42 76.52 94.42 72.35 93.93 72.07 93.93 76.24"/>
          <polygon class="cls-21" points="87.58 71.32 91.24 73.43 94.9 71.32 91.24 69.2 87.58 71.32"/>
          <polygon class="cls-23" points="91.24 74.18 94.9 72.07 94.9 71.32 91.24 73.43 91.24 74.18"/>
          <polygon class="cls-11" points="87.58 72.07 91.24 74.18 91.24 73.43 87.58 71.32 87.58 72.07"/>
          <g>
            <polygon class="cls-23" points="91.46 76.11 94.31 74.46 94.31 74.12 91.46 75.77 91.46 76.11"/>
            <polygon class="cls-21" points="91.16 75.6 94.01 73.95 94.31 74.12 91.46 75.77 91.16 75.6"/>
          </g>
          <g>
            <polygon class="cls-11" points="91.03 76.11 88.18 74.46 88.18 74.12 91.03 75.77 91.03 76.11"/>
            <polygon class="cls-21" points="91.33 75.6 88.47 73.95 88.18 74.12 91.03 75.77 91.33 75.6"/>
          </g>
          <polygon class="cls-23" points="91.24 78.35 91.73 78.07 91.73 73.9 91.24 74.18 91.24 78.35"/>
          <polygon class="cls-11" points="90.76 78.07 91.24 78.35 91.24 74.18 90.76 73.9 90.76 78.07"/>
          <polygon class="cls-23" points="87.58 71.32 88.04 71.06 87.29 66.35 86.85 66.69 87.58 71.32"/>
          <path class="cls-1" d="m88.47,71.47l2.68,1.54c.08.05.18.05.25,0l2.84-1.63c.17-.1.17-.34,0-.44l-2.68-1.54c-.08-.05-.18-.05-.25,0l-2.84,1.63c-.17.1-.17.34,0,.44Z"/>
          <g>
            <polygon class="cls-23" points="88.08 71.61 88.53 71.34 87.67 66.01 87.23 66.35 88.08 71.61"/>
            <polygon class="cls-11" points="88.08 71.61 87.58 71.32 86.73 66.06 87.23 66.35 88.08 71.61"/>
            <polygon class="cls-21" points="90.79 70.76 90.6 70.87 87.8 69.34 88 69.23 90.79 70.76"/>
            <polygon class="cls-23" points="90.66 71.32 87.86 69.79 87.8 69.34 90.6 70.87 90.66 71.32"/>
            <polygon class="cls-11" points="91.24 73.43 90.75 73.14 89.9 67.89 90.39 68.17 91.24 73.43"/>
            <polygon class="cls-23" points="91.24 73.43 91.7 73.17 90.84 67.83 90.39 68.17 91.24 73.43"/>
            <polygon class="cls-23" points="86.73 66.06 87.17 65.72 90.84 67.83 90.39 68.17 86.73 66.06"/>
            <polygon class="cls-11" points="86.73 66.06 87.06 68.11 90.72 70.22 90.39 68.17 86.73 66.06"/>
          </g>
        </g>
        <g>
          <g>
            <g>
              <polygon class="cls-11" points="164.61 25.2 167.44 23.55 167.44 23.21 164.61 24.85 164.61 25.2"/>
              <polygon class="cls-21" points="164.31 24.68 167.15 23.04 167.44 23.21 164.61 24.85 164.31 24.68"/>
            </g>
            <g>
              <polygon class="cls-11" points="170.13 25.2 167.3 23.55 167.3 23.21 170.13 24.85 170.13 25.2"/>
              <polygon class="cls-21" points="170.43 24.68 167.59 23.04 167.3 23.21 170.13 24.85 170.43 24.68"/>
            </g>
            <polygon class="cls-23" points="164.12 27.72 164.61 27.44 164.61 23.29 164.12 23.57 164.12 27.72"/>
            <polygon class="cls-11" points="163.64 27.44 164.12 27.72 164.12 23.57 163.64 23.29 163.64 27.44"/>
            <polygon class="cls-23" points="170.43 27.71 170.91 27.43 170.91 23.29 170.43 23.57 170.43 27.71"/>
            <polygon class="cls-11" points="169.94 27.43 170.43 27.71 170.43 23.57 169.94 23.29 169.94 27.43"/>
            <polygon class="cls-21" points="163.64 22.55 167.28 24.65 170.91 22.55 167.28 20.45 163.64 22.55"/>
            <polygon class="cls-23" points="167.28 25.39 170.91 23.29 170.91 22.55 167.28 24.65 167.28 25.39"/>
            <polygon class="cls-11" points="163.64 23.29 167.28 25.39 167.28 24.65 163.64 22.55 163.64 23.29"/>
            <g>
              <polygon class="cls-23" points="167.49 27.31 170.32 25.67 170.32 25.33 167.49 26.97 167.49 27.31"/>
              <polygon class="cls-21" points="167.19 26.8 170.03 25.16 170.32 25.33 167.49 26.97 167.19 26.8"/>
            </g>
            <g>
              <polygon class="cls-11" points="167.06 27.31 164.23 25.67 164.23 25.33 167.06 26.97 167.06 27.31"/>
              <polygon class="cls-21" points="167.36 26.8 164.52 25.16 164.23 25.33 167.06 26.97 167.36 26.8"/>
            </g>
            <polygon class="cls-23" points="167.28 29.54 167.76 29.26 167.76 25.11 167.28 25.39 167.28 29.54"/>
            <polygon class="cls-11" points="166.79 29.26 167.28 29.54 167.28 25.39 166.79 25.11 166.79 29.26"/>
            <polygon class="cls-11" points="163.64 22.55 164.12 22.83 163.11 16.6 162.63 16.32 163.64 22.55"/>
            <polygon class="cls-23" points="167.27 21.01 167.76 20.73 166.75 14.5 166.26 14.78 167.27 21.01"/>
            <polygon class="cls-11" points="166.79 20.73 167.27 21.01 166.26 14.78 165.78 14.5 166.79 20.73"/>
            <polygon class="cls-21" points="163.8 20.27 164.08 20.45 166.82 18.86 166.55 18.69 163.8 20.27"/>
            <polygon class="cls-21" points="162.63 16.32 163.11 16.6 166.75 14.5 166.26 14.22 162.63 16.32"/>
            <polygon class="cls-23" points="163.6 19.61 167.24 17.51 166.75 14.5 163.11 16.6 163.6 19.61"/>
            <polygon class="cls-23" points="164.17 21.02 166.92 19.43 166.82 18.86 164.08 20.45 164.17 21.02"/>
            <polygon class="cls-23" points="164.12 22.83 164.61 22.55 163.6 16.32 163.11 16.6 164.12 22.83"/>
            <path class="cls-29" d="m164.58,22.88l2.59,1.49c.08.04.17.04.25,0l3-1.73c.16-.09.16-.33,0-.43l-2.59-1.49c-.08-.04-.17-.04-.25,0l-3,1.73c-.16.09-.16.33,0,.43Z"/>
            <path class="cls-1" d="m164.17,19.11l2.8-1.61c.09-.05.13-.15.12-.24l-.35-2.18c-.03-.16-.21-.25-.35-.17l-2.8,1.61c-.09.05-.13.15-.12.24l.35,2.18c.03.16.21.25.35.17Z"/>
          </g>
          <g>
            <g>
              <polygon class="cls-6" points="162.23 32.32 161.64 31.98 161.64 23.68 162.23 24.02 162.23 32.32"/>
              <polygon class="cls-19" points="162.83 31.98 162.23 32.32 162.23 24.02 162.83 23.68 162.83 31.98"/>
            </g>
            <g>
              <polygon class="cls-6" points="180.14 32.28 179.54 31.93 179.54 23.63 180.14 23.98 180.14 32.28"/>
              <polygon class="cls-19" points="180.73 31.93 180.14 32.28 180.14 23.98 180.73 23.63 180.73 31.93"/>
            </g>
            <g>
              <polygon class="cls-14" points="181.12 22.6 171.13 28.3 161.33 22.64 171.33 16.94 181.12 22.6"/>
              <polygon class="cls-23" points="171.13 29.17 161.33 23.51 161.33 22.64 171.13 28.3 171.13 29.17"/>
              <polygon class="cls-11" points="181.12 23.46 171.13 29.17 171.13 28.3 181.12 22.6 181.12 23.46"/>
            </g>
            <polygon class="cls-23" points="171.13 29.17 161.33 23.51 161.33 22.64 171.13 28.3 171.13 29.17"/>
            <polygon class="cls-6" points="171.13 29.17 170.53 28.83 170.53 28.83 170.53 30.27 170.53 37.13 171.13 37.47 171.13 30.62 171.13 29.17 171.13 29.17"/>
            <polygon class="cls-19" points="171.72 28.83 171.13 29.17 171.13 29.17 171.13 30.62 171.13 37.47 171.72 37.13 171.72 30.96 171.72 29.51 171.72 28.83"/>
          </g>
          <polygon class="cls-23" points="173.75 35.21 173.24 34.92 173.24 30.62 173.75 30.92 173.75 35.21"/>
          <g>
            <polygon class="cls-11" points="179.78 32.6 176.84 30.9 176.84 30.55 179.78 32.25 179.78 32.6"/>
            <polygon class="cls-21" points="180.09 32.07 177.15 30.37 176.84 30.55 179.78 32.25 180.09 32.07"/>
          </g>
          <g>
            <polygon class="cls-11" points="174.05 32.6 176.99 30.9 176.99 30.55 174.05 32.25 174.05 32.6"/>
            <polygon class="cls-21" points="173.75 32.07 176.69 30.37 176.99 30.55 174.05 32.25 173.75 32.07"/>
          </g>
          <polygon class="cls-23" points="180.28 35.21 179.78 34.92 179.78 30.63 180.28 30.92 180.28 35.21"/>
          <polygon class="cls-11" points="180.79 34.92 180.28 35.21 180.28 30.92 180.79 30.63 180.79 34.92"/>
          <polygon class="cls-11" points="174.25 34.92 173.75 35.21 173.75 30.92 174.25 30.62 174.25 34.92"/>
          <polygon class="cls-21" points="180.79 29.86 177.02 32.03 173.24 29.86 177.02 27.68 180.79 29.86"/>
          <polygon class="cls-23" points="177.01 32.8 173.24 30.63 173.24 29.86 177.02 32.03 177.01 32.8"/>
          <polygon class="cls-11" points="180.79 30.63 177.02 32.8 177.02 32.03 180.79 29.86 180.79 30.63"/>
          <g>
            <polygon class="cls-23" points="176.79 34.8 173.86 33.1 173.86 32.74 176.79 34.44 176.79 34.8"/>
            <polygon class="cls-21" points="177.1 34.27 174.16 32.56 173.86 32.74 176.79 34.44 177.1 34.27"/>
          </g>
          <g>
            <polygon class="cls-11" points="177.24 34.8 180.17 33.1 180.17 32.74 177.24 34.44 177.24 34.8"/>
            <polygon class="cls-21" points="176.93 34.27 179.87 32.56 180.17 32.74 177.24 34.44 176.93 34.27"/>
          </g>
          <polygon class="cls-23" points="177.01 37.1 176.51 36.81 176.51 32.51 177.01 32.8 177.01 37.1"/>
          <polygon class="cls-11" points="177.52 36.81 177.02 37.1 177.01 32.8 177.52 32.51 177.52 36.81"/>
          <polygon class="cls-23" points="180.79 29.86 180.32 29.59 181.09 24.74 181.54 25.09 180.79 29.86"/>
          <g>
            <polygon class="cls-23" points="180.28 30.15 179.81 29.88 180.7 24.38 181.15 24.73 180.28 30.15"/>
            <polygon class="cls-11" points="180.27 30.15 180.79 29.85 181.66 24.44 181.15 24.73 180.27 30.15"/>
            <polygon class="cls-21" points="177.48 29.28 177.68 29.4 180.56 27.82 180.36 27.7 177.48 29.28"/>
            <polygon class="cls-23" points="177.62 29.86 180.5 28.28 180.56 27.82 177.68 29.4 177.62 29.86"/>
            <polygon class="cls-11" points="177.02 32.03 177.53 31.74 178.4 26.32 177.89 26.62 177.02 32.03"/>
            <polygon class="cls-23" points="177.02 32.03 176.55 31.76 177.44 26.26 177.89 26.62 177.02 32.03"/>
            <polygon class="cls-23" points="181.66 24.44 181.21 24.09 177.44 26.26 177.89 26.62 181.66 24.44"/>
            <polygon class="cls-11" points="181.66 24.44 181.33 26.55 177.56 28.73 177.89 26.62 181.66 24.44"/>
          </g>
        </g>
        <g>
          <g>
            <g>
              <polygon class="cls-11" points="152.73 40.41 149.9 38.77 149.9 38.43 152.73 40.07 152.73 40.41"/>
              <polygon class="cls-21" points="153.02 39.9 150.19 38.26 149.9 38.43 152.73 40.07 153.02 39.9"/>
            </g>
            <g>
              <polygon class="cls-11" points="147.21 40.41 150.04 38.77 150.04 38.43 147.21 40.07 147.21 40.41"/>
              <polygon class="cls-21" points="146.91 39.9 149.74 38.26 150.04 38.43 147.21 40.07 146.91 39.9"/>
            </g>
            <polygon class="cls-23" points="153.21 42.93 152.73 42.65 152.73 38.51 153.21 38.79 153.21 42.93"/>
            <polygon class="cls-11" points="153.7 42.65 153.21 42.93 153.21 38.79 153.7 38.51 153.7 42.65"/>
            <polygon class="cls-23" points="146.91 42.93 146.43 42.65 146.43 38.51 146.91 38.79 146.91 42.93"/>
            <polygon class="cls-11" points="147.4 42.65 146.91 42.93 146.91 38.79 147.4 38.51 147.4 42.65"/>
            <polygon class="cls-21" points="153.7 37.77 150.06 39.87 146.43 37.77 150.06 35.67 153.7 37.77"/>
            <polygon class="cls-23" points="150.06 40.61 146.43 38.51 146.43 37.77 150.06 39.87 150.06 40.61"/>
            <polygon class="cls-11" points="153.7 38.51 150.06 40.61 150.06 39.87 153.7 37.77 153.7 38.51"/>
            <g>
              <polygon class="cls-23" points="149.85 42.53 147.02 40.89 147.02 40.55 149.85 42.19 149.85 42.53"/>
              <polygon class="cls-21" points="150.15 42.02 147.31 40.38 147.02 40.55 149.85 42.19 150.15 42.02"/>
            </g>
            <g>
              <polygon class="cls-11" points="150.27 42.53 153.11 40.89 153.11 40.55 150.27 42.19 150.27 42.53"/>
              <polygon class="cls-21" points="149.98 42.02 152.81 40.38 153.11 40.55 150.27 42.19 149.98 42.02"/>
            </g>
            <polygon class="cls-23" points="150.06 44.75 149.58 44.47 149.58 40.33 150.06 40.61 150.06 44.75"/>
            <polygon class="cls-11" points="150.55 44.47 150.06 44.75 150.06 40.61 150.55 40.33 150.55 44.47"/>
            <polygon class="cls-11" points="153.7 37.77 153.21 38.05 154.22 31.82 154.71 31.54 153.7 37.77"/>
            <polygon class="cls-23" points="150.07 36.23 149.58 35.95 150.59 29.72 151.07 30 150.07 36.23"/>
            <polygon class="cls-11" points="150.55 35.95 150.07 36.23 151.07 30 151.56 29.72 150.55 35.95"/>
            <polygon class="cls-21" points="153.53 35.49 153.26 35.67 150.51 34.09 150.79 33.91 153.53 35.49"/>
            <polygon class="cls-21" points="154.71 31.54 154.22 31.82 150.59 29.72 151.07 29.44 154.71 31.54"/>
            <polygon class="cls-23" points="153.73 34.83 150.1 32.73 150.59 29.72 154.22 31.82 153.73 34.83"/>
            <polygon class="cls-23" points="153.17 36.24 150.42 34.65 150.51 34.09 153.26 35.67 153.17 36.24"/>
            <polygon class="cls-23" points="153.21 38.05 152.73 37.77 153.74 31.54 154.22 31.82 153.21 38.05"/>
            <path class="cls-29" d="m152.75,38.1l-2.59,1.49c-.08.04-.17.04-.25,0l-2.99-1.73c-.16-.09-.16-.33,0-.43l2.59-1.49c.08-.04.17-.04.25,0l2.99,1.73c.16.09.16.33,0,.43Z"/>
            <path class="cls-29" d="m153.16,34.33l-2.79-1.61c-.09-.05-.13-.15-.12-.24l.35-2.18c.03-.16.21-.25.35-.17l2.79,1.61c.09.05.13.15.12.24l-.35,2.18c-.03.16-.21.25-.35.17Z"/>
          </g>
          <g>
            <g>
              <polygon class="cls-11" points="139.05 40.51 141.8 38.92 141.8 38.59 139.05 40.18 139.05 40.51"/>
              <polygon class="cls-21" points="138.76 40.02 141.52 38.43 141.8 38.59 139.05 40.18 138.76 40.02"/>
            </g>
            <g>
              <polygon class="cls-11" points="144.41 40.51 141.66 38.92 141.66 38.59 144.41 40.18 144.41 40.51"/>
              <polygon class="cls-21" points="144.7 40.02 141.95 38.43 141.66 38.59 144.41 40.18 144.7 40.02"/>
            </g>
            <polygon class="cls-23" points="138.58 42.96 139.05 42.69 139.05 38.67 138.58 38.94 138.58 42.96"/>
            <polygon class="cls-11" points="138.11 42.69 138.58 42.96 138.58 38.94 138.11 38.67 138.11 42.69"/>
            <polygon class="cls-23" points="144.7 42.96 145.17 42.69 145.17 38.66 144.7 38.94 144.7 42.96"/>
            <polygon class="cls-11" points="144.23 42.69 144.7 42.96 144.7 38.94 144.23 38.66 144.23 42.69"/>
            <polygon class="cls-21" points="138.11 37.94 141.64 39.98 145.17 37.94 141.64 35.91 138.11 37.94"/>
            <polygon class="cls-23" points="141.64 40.7 145.17 38.67 145.17 37.94 141.64 39.98 141.64 40.7"/>
            <polygon class="cls-11" points="138.11 38.67 141.64 40.7 141.64 39.98 138.11 37.94 138.11 38.67"/>
            <g>
              <polygon class="cls-23" points="141.85 42.57 144.6 40.98 144.6 40.65 141.85 42.24 141.85 42.57"/>
              <polygon class="cls-21" points="141.56 42.07 144.31 40.48 144.6 40.65 141.85 42.24 141.56 42.07"/>
            </g>
            <g>
              <polygon class="cls-11" points="141.44 42.57 138.68 40.98 138.68 40.65 141.44 42.24 141.44 42.57"/>
              <polygon class="cls-21" points="141.72 42.07 138.97 40.48 138.68 40.65 141.44 42.24 141.72 42.07"/>
            </g>
            <polygon class="cls-23" points="141.64 44.73 142.11 44.46 142.11 40.43 141.64 40.7 141.64 44.73"/>
            <polygon class="cls-11" points="141.17 44.46 141.64 44.73 141.64 40.7 141.17 40.43 141.17 44.46"/>
            <polygon class="cls-11" points="138.11 37.94 138.58 38.22 137.6 32.17 137.13 31.9 138.11 37.94"/>
            <polygon class="cls-23" points="141.64 36.45 142.11 36.18 141.13 30.13 140.66 30.4 141.64 36.45"/>
            <polygon class="cls-11" points="141.17 36.18 141.64 36.45 140.66 30.4 140.19 30.13 141.17 36.18"/>
            <polygon class="cls-21" points="138.27 35.74 138.54 35.91 141.2 34.37 140.94 34.2 138.27 35.74"/>
            <polygon class="cls-21" points="137.13 31.9 137.6 32.17 141.13 30.13 140.66 29.86 137.13 31.9"/>
            <polygon class="cls-23" points="138.08 35.09 141.6 33.05 141.13 30.13 137.6 32.17 138.08 35.09"/>
            <polygon class="cls-23" points="138.63 36.46 141.29 34.92 141.2 34.37 138.54 35.91 138.63 36.46"/>
            <polygon class="cls-23" points="138.58 38.22 139.05 37.94 138.07 31.9 137.6 32.17 138.58 38.22"/>
            <path class="cls-29" d="m139.03,38.27l2.51,1.44c.07.04.16.04.24,0l2.91-1.68c.16-.09.16-.32,0-.41l-2.51-1.44c-.07-.04-.16-.04-.24,0l-2.91,1.68c-.16.09-.16.32,0,.41Z"/>
            <path class="cls-1" d="m138.63,34.61l2.71-1.57c.08-.05.13-.14.11-.24l-.34-2.11c-.03-.16-.2-.24-.34-.16l-2.71,1.57c-.08.05-.13.14-.11.24l.34,2.11c.03.16.2.24.34.16Z"/>
          </g>
          <g>
            <g>
              <polygon class="cls-6" points="154 46.79 154.58 46.45 154.58 38.4 154 38.73 154 46.79"/>
              <polygon class="cls-19" points="153.42 46.45 154 46.79 154 38.73 153.42 38.4 153.42 46.45"/>
            </g>
            <g>
              <polygon class="cls-6" points="136.63 46.74 137.2 46.41 137.2 38.35 136.63 38.69 136.63 46.74"/>
              <polygon class="cls-19" points="136.05 46.41 136.63 46.74 136.63 38.69 136.05 38.35 136.05 46.41"/>
            </g>
            <g>
              <polygon class="cls-14" points="135.67 37.35 145.37 42.89 154.88 37.39 145.18 31.86 135.67 37.35"/>
              <polygon class="cls-23" points="145.37 43.73 154.88 38.23 154.88 37.39 145.37 42.89 145.37 43.73"/>
              <polygon class="cls-11" points="135.67 38.19 145.37 43.73 145.37 42.89 135.67 37.35 135.67 38.19"/>
            </g>
            <polygon class="cls-23" points="145.37 43.73 154.88 38.23 154.88 37.39 145.37 42.89 145.37 43.73"/>
            <polygon class="cls-6" points="145.37 43.73 145.95 43.39 145.95 43.39 145.95 44.8 145.95 51.45 145.37 51.79 145.37 45.13 145.37 43.73 145.37 43.73"/>
            <polygon class="cls-19" points="144.79 43.39 145.37 43.73 145.37 43.73 145.37 45.13 145.37 51.79 144.79 51.45 144.79 45.47 144.79 44.06 144.79 43.39"/>
          </g>
          <polygon class="cls-23" points="143.02 49.7 143.51 49.42 143.51 45.25 143.02 45.53 143.02 49.7"/>
          <g>
            <polygon class="cls-11" points="137.16 47.16 140.02 45.51 140.02 45.17 137.16 46.82 137.16 47.16"/>
            <polygon class="cls-21" points="136.87 46.65 139.72 45 140.02 45.17 137.16 46.82 136.87 46.65"/>
          </g>
          <g>
            <polygon class="cls-11" points="142.73 47.16 139.87 45.51 139.87 45.17 142.73 46.82 142.73 47.16"/>
            <polygon class="cls-21" points="143.02 46.65 140.17 45 139.87 45.17 142.73 46.82 143.02 46.65"/>
          </g>
          <polygon class="cls-23" points="136.68 49.7 137.17 49.42 137.17 45.25 136.68 45.53 136.68 49.7"/>
          <polygon class="cls-11" points="136.19 49.42 136.68 49.7 136.68 45.53 136.19 45.25 136.19 49.42"/>
          <polygon class="cls-11" points="142.53 49.42 143.02 49.7 143.02 45.53 142.54 45.25 142.53 49.42"/>
          <polygon class="cls-21" points="136.19 44.5 139.85 46.61 143.51 44.5 139.85 42.39 136.19 44.5"/>
          <polygon class="cls-23" points="139.85 47.36 143.51 45.25 143.51 44.5 139.85 46.61 139.85 47.36"/>
          <polygon class="cls-11" points="136.19 45.25 139.85 47.36 139.85 46.61 136.19 44.5 136.19 45.25"/>
          <g>
            <polygon class="cls-23" points="140.06 49.3 142.92 47.64 142.92 47.3 140.06 48.95 140.06 49.3"/>
            <polygon class="cls-21" points="139.77 48.78 142.62 47.13 142.92 47.3 140.06 48.95 139.77 48.78"/>
          </g>
          <g>
            <polygon class="cls-11" points="139.64 49.3 136.78 47.64 136.78 47.3 139.64 48.95 139.64 49.3"/>
            <polygon class="cls-21" points="139.93 48.78 137.08 47.13 136.78 47.3 139.64 48.95 139.93 48.78"/>
          </g>
          <polygon class="cls-23" points="139.85 51.53 140.34 51.25 140.34 47.08 139.85 47.36 139.85 51.53"/>
          <polygon class="cls-11" points="139.36 51.25 139.85 51.53 139.85 47.36 139.36 47.08 139.36 51.25"/>
          <polygon class="cls-23" points="136.19 44.5 136.64 44.24 135.9 39.53 135.46 39.87 136.19 44.5"/>
          <path class="cls-1" d="m137.08,44.65l2.68,1.54c.08.05.18.05.25,0l2.84-1.63c.17-.1.17-.34,0-.44l-2.68-1.54c-.08-.05-.18-.05-.25,0l-2.84,1.63c-.17.1-.17.34,0,.44Z"/>
          <g>
            <polygon class="cls-23" points="136.69 44.79 137.14 44.52 136.28 39.19 135.83 39.53 136.69 44.79"/>
            <polygon class="cls-11" points="136.69 44.79 136.19 44.5 135.34 39.24 135.84 39.53 136.69 44.79"/>
            <polygon class="cls-21" points="139.4 43.94 139.2 44.05 136.41 42.53 136.6 42.41 139.4 43.94"/>
            <polygon class="cls-23" points="139.26 44.5 136.47 42.97 136.41 42.53 139.2 44.05 139.26 44.5"/>
            <polygon class="cls-11" points="139.85 46.61 139.35 46.33 138.5 41.07 139 41.35 139.85 46.61"/>
            <polygon class="cls-23" points="139.85 46.61 140.3 46.35 139.44 41.01 139 41.35 139.85 46.61"/>
            <polygon class="cls-23" points="135.34 39.24 135.78 38.9 139.44 41.01 139 41.35 135.34 39.24"/>
            <polygon class="cls-11" points="135.34 39.24 135.66 41.29 139.33 43.4 139 41.35 135.34 39.24"/>
          </g>
        </g>
        <g>
          <polygon class="cls-23" points="43.94 107.59 15.32 91.06 15.32 71.96 43.94 88.49 43.94 107.59"/>
          <path class="cls-9" d="m79.3,68.07v19.1l-35.36,20.42v-19.1c2.28-8.6,9.49-17.77,17.68-22.5,2.82-1.63,5.53-2.6,7.96-2.92,2.48-.33,4.67,0,6.39,1l.04.03c1.47.85,2.6,2.18,3.29,3.98Z"/>
          <polygon class="cls-25" points="15.32 86.8 14.96 87.01 43.94 103.73 44.3 103.53 15.32 86.8"/>
          <polygon class="cls-26" points="79.3 82.9 79.66 83.11 43.94 103.73 43.94 103.32 79.3 82.9"/>
          <g>
            <g>
              <polygon class="cls-13" points="77.61 71.95 77.61 82.54 71.04 86.33 71.03 86.33 70 86.92 69.69 87.11 67.12 88.59 59.57 92.88 59.57 82.28 72.4 74.96 74.95 73.48 75.27 73.29 76.3 72.69 76.31 72.69 77.61 71.95"/>
              <path class="cls-12" d="m77.61,71.95v10.59l-6.57,3.79h0l-1.03.59-.32.19-2.56,1.48-7.55,4.29v-10.59l12.82-7.33,2.55-1.48.32-.19,1.03-.6h0l1.3-.75h0Zm.38-.66l-.57.33-1.21.7h0l-.1.05-1.03.6-.32.19-2.55,1.48-12.82,7.33-.19.11v11.48l7.18-4.08.94-.54,2.56-1.48.32-.19.94-.54h0l.1-.05,6.57-3.79.19-.11v-11.48h0Z"/>
            </g>
            <g class="cls-32">
              <polygon class="cls-8" points="76.59 72.53 76.59 81.95 77.6 82.54 77.6 71.95 76.59 72.53"/>
            </g>
            <g class="cls-33">
              <polygon class="cls-8" points="77.61 82.54 59.57 92.88 59.57 91.71 76.6 81.95 77.61 82.54"/>
            </g>
            <g class="cls-30">
              <polygon class="cls-12" points="72.61 74.79 67.34 88.42 64.78 89.9 70.06 76.27 72.61 74.79"/>
              <polygon class="cls-12" points="73.96 74.01 68.69 87.64 67.66 88.24 72.93 74.6 73.96 74.01"/>
            </g>
          </g>
          <g>
            <g>
              <polygon class="cls-13" points="38.41 85.6 38.41 98.35 25.72 91.02 24.42 90.27 24.02 90.04 21.43 88.55 20.48 88 20.48 75.25 21.7 75.96 32.68 82.3 35.29 83.8 35.68 84.03 36.98 84.78 38.41 85.6"/>
              <path class="cls-12" d="m20.48,75.25l1.21.7,10.98,6.34,2.6,1.5.4.23,1.3.75,1.43.82v12.75l-12.69-7.33-1.3-.75-.4-.23-2.59-1.49-.94-.55v-12.75h0Zm-.46-.8v13.81l.23.13.94.55,2.6,1.49.39.23,1.3.75,12.69,7.33.69.4v-13.81l-.23-.13-1.43-.82-1.3-.75-.4-.23-2.6-1.5-10.98-6.34-1.21-.7-.69-.4h0Z"/>
            </g>
            <g class="cls-33">
              <polygon class="cls-8" points="38.41 96.94 38.41 98.35 20.48 88 21.7 87.3 38.41 96.94"/>
            </g>
            <g class="cls-32">
              <polygon class="cls-8" points="21.7 75.96 21.7 87.3 20.48 88 20.48 75.25 21.7 75.96"/>
            </g>
            <g class="cls-30">
              <polygon class="cls-12" points="35.29 83.8 24.02 90.04 21.43 88.55 32.68 82.3 35.29 83.8"/>
              <polygon class="cls-12" points="36.98 84.78 25.72 91.02 24.42 90.27 35.68 84.03 36.98 84.78"/>
            </g>
          </g>
          <g>
            <path class="cls-7" d="m79.3,68.68v-.61c-.69-1.79-1.82-3.12-3.29-3.98l4.54,2.62.69,3.09-1.94-1.12Z"/>
            <g>
              <path class="cls-5" d="m47.57,46.72c-1.01-.58-2.19-.96-3.51-1.12-3.36-.39-7.36.68-11.55,3.1-4.19,2.42-8.19,5.96-11.55,10.24-3.4,4.33-5.83,9-7.03,13.5l.9-.15c2.29-8.6,9.49-17.76,17.68-22.49,8.19-4.73,15.39-3.88,17.68,2.08l.9-.88c-.73-1.91-1.93-3.35-3.52-4.27Z"/>
              <path class="cls-2" d="m79.07,64.9l-31.5-18.18c-1.01-.58-2.19-.96-3.51-1.12-3.36-.39-7.36.68-11.55,3.1-4.19,2.42-8.19,5.96-11.55,10.24-3.4,4.33-5.83,9-7.03,13.5l31.05,17.93c3.3-7.95,14.94-31,34.09-25.47Z"/>
              <path class="cls-5" d="m81.24,69.8c-2.29-5.96-9.49-6.8-17.68-2.08-8.19,4.73-15.39,13.89-17.68,22.49l-.9.15c1.2-4.5,3.63-9.17,7.03-13.5,3.36-4.28,7.36-7.82,11.55-10.24,4.19-2.42,8.19-3.49,11.55-3.09,3.4.4,5.83,2.26,7.03,5.39l-.9.89Z"/>
            </g>
          </g>
          <g>
            <polygon class="cls-27" points="56.28 100.46 48.35 105.04 48.35 87.36 56.28 82.79 56.28 100.46"/>
            <polygon class="cls-25" points="49.29 103.41 49.29 87.91 55.34 84.41 55.34 99.92 49.29 103.41"/>
          </g>
          <g>
            <polygon class="cls-25" points="48.71 100.98 48.71 105.28 43.94 108.03 43.94 103.73 48.26 101.24 48.71 100.98"/>
            <polygon class="cls-25" points="79.66 83.11 56.63 96.4 56.63 100.7 79.66 87.41 79.66 83.11"/>
            <polygon class="cls-20" points="14.96 87.01 14.96 91.3 43.94 108.03 43.94 103.73 14.96 87.01"/>
          </g>
          <polygon class="cls-26" points="48.71 100.98 48.26 101.24 47.91 101.03 48.35 100.78 48.71 100.98"/>
          <polygon class="cls-20" points="56.63 100.7 56.63 96.4 56.28 96.2 56.28 100.49 56.63 100.7"/>
          <g>
            <g>
              <polygon class="cls-13" points="54.5 85.93 54.5 92.09 50.31 94.51 50.31 88.34 51.47 87.68 52.95 86.82 53.14 86.71 53.74 86.37 53.74 86.37 54.5 85.93"/>
              <path class="cls-12" d="m54.5,85.93v6.16l-4.19,2.41v-6.16l1.16-.66,2.28-1.32.75-.43h0Zm.22-.39l-4.64,2.67v6.67l4.64-2.67v-6.68h0Z"/>
            </g>
            <g class="cls-32">
              <polygon class="cls-8" points="53.91 86.27 53.91 91.75 54.5 92.09 54.5 85.93 53.91 86.27"/>
            </g>
            <g class="cls-33">
              <polygon class="cls-8" points="54.5 92.09 50.31 94.51 50.31 93.82 53.91 91.75 54.5 92.09"/>
            </g>
            <g class="cls-30">
              <polygon class="cls-12" points="53.71 86.39 51.8 93.67 50.31 94.53 52.22 87.25 53.71 86.39"/>
              <polygon class="cls-12" points="54.5 85.93 52.58 93.22 52.58 93.22 51.98 93.56 53.9 86.28 54.5 85.93"/>
            </g>
          </g>
          <g>
            <g>
              <polygon class="cls-13" points="54.5 93.23 54.5 99.39 50.31 101.81 50.31 95.64 51.47 94.98 52.95 94.12 53.14 94.01 53.74 93.67 53.74 93.67 54.5 93.23"/>
              <path class="cls-12" d="m54.5,93.23v6.16l-4.19,2.41v-6.16l1.16-.66,2.28-1.32.75-.43h0Zm.22-.39l-4.64,2.67v6.67l4.64-2.67v-6.68h0Z"/>
            </g>
            <g class="cls-32">
              <polygon class="cls-8" points="53.91 93.57 53.91 99.05 54.5 99.39 54.5 93.23 53.91 93.57"/>
            </g>
            <g class="cls-33">
              <polygon class="cls-8" points="54.5 99.39 50.31 101.81 50.31 101.12 53.91 99.05 54.5 99.39"/>
            </g>
            <g class="cls-30">
              <polygon class="cls-12" points="53.71 93.69 51.8 100.97 50.31 101.83 52.22 94.55 53.71 93.69"/>
              <polygon class="cls-12" points="54.5 93.23 52.58 100.52 52.58 100.52 51.98 100.86 53.9 93.58 54.5 93.23"/>
            </g>
          </g>
          <g>
            <polygon class="cls-17" points="55.62 91.53 54.81 92 54.81 94.96 55.06 95.1 55.87 91.67 55.62 91.53"/>
            <polygon class="cls-25" points="55.87 91.67 55.06 92.14 55.06 95.1 55.87 94.64 55.87 91.67"/>
          </g>
          <g>
            <rect class="cls-15" x="67.11" y="70.22" width=".37" height="1.02" transform="translate(-27.61 93.63) rotate(-60)"/>
            <g>
              <path class="cls-2" d="m60.46,74.48c0-.36.11-.74.33-1.13.22-.39.49-.67.81-.85l-.06.63-1.08-.63v-.66c0-.27.08-.56.25-.85.17-.29.37-.5.61-.64l1.14-.66c.24-.14.44-.16.61-.06.17.1.25.28.25.56v3.3s1.08.63,1.08.63l-2.86,2.64-1.08-.63v-1.65Z"/>
              <path class="cls-2" d="m65.46,71.93l-.49,1.53-1.08-.63v-.99l1.29-3.71,1.43-.82,1.08.63-1.08,2.34.14-.08v.99l-.14.08v1.32l-.06,1.29-1.08-.63v-1.32Z"/>
            </g>
            <rect class="cls-2" x="63.01" y="69.67" width=".8" height="1.25" transform="translate(-29.17 90.07) rotate(-60)"/>
            <g>
              <path class="cls-12" d="m61.54,75.11c0-.36.11-.74.33-1.13.22-.39.49-.67.81-.85l.29-.16c.08-.04.14-.12.2-.21s.08-.19.08-.28v-.99l-.57.33v.66l-1.14.66v-.66c0-.27.08-.56.25-.85s.37-.5.61-.64l1.14-.66c.24-.14.44-.16.61-.06s.25.28.25.56v1.32c0,.27-.08.56-.25.85s-.37.5-.61.64l-.57.33c-.08.04-.14.12-.2.21-.06.1-.08.19-.08.28v.66l1.71-.99v.99l-2.86,1.65v-1.65Z"/>
              <path class="cls-12" d="m66.54,72.55l-1.57.91v-.99l1.29-3.71,1.43-.82v2.97s.14-.08.14-.08v.99l-.14.08v1.32l-1.14.66v-1.32Zm0-2.31l-.57,1.65.57-.33v-1.32Z"/>
            </g>
          </g>
          <g>
            <g>
              <path class="cls-3" d="m37.14,63.64c-.57.15-1.18.15-1.75,0-.9-.24-1.34-.71-1.34-1.18v4.97h0c0,.07.05.17.15.27.63.71,1.77.63,2.33-.13.72-.98,1.57-1.93,1.96-2.22v-2.87c-.01.47-.46.93-1.35,1.17Z"/>
              <path class="cls-10" d="m34.7,63.36c.87.5,2.27.5,3.14,0,.43-.25.64-.57.65-.89,0-.33-.21-.67-.65-.92-.87-.5-2.27-.5-3.14,0-.43.25-.65.58-.65.91s.22.66.65.91Zm.58-1.48c.55-.32,1.43-.32,1.98,0,.55.32.55.83,0,1.14-.55.32-1.43.32-1.98,0-.55-.32-.55-.83,0-1.14Z"/>
              <path class="cls-27" d="m35.28,63.03c.55.32,1.43.32,1.98,0,.55-.32.55-.83,0-1.14-.55-.32-1.43-.32-1.98,0-.55.32-.55.83,0,1.14Z"/>
            </g>
            <g>
              <path class="cls-3" d="m59.8,54.15c.25.03.5.07.74.12v-4.47c-.01.47-.46.93-1.35,1.17-.57.15-1.18.15-1.75,0-.9-.24-1.34-.71-1.34-1.18v2.87c0,.83.7,1.49,1.54,1.44.75-.04,1.47-.03,2.16.06Z"/>
              <path class="cls-10" d="m56.75,50.69c.87.5,2.27.5,3.14,0,.43-.25.64-.57.65-.89,0-.33-.21-.67-.65-.92-.87-.5-2.27-.5-3.14,0-.43.25-.65.58-.65.91s.22.66.65.91Zm.58-1.48c.55-.32,1.43-.32,1.98,0,.55.32.55.83,0,1.14-.55.32-1.43.32-1.98,0-.55-.32-.55-.83,0-1.14Z"/>
              <path class="cls-27" d="m57.33,50.36c.55.32,1.43.32,1.98,0,.55-.32.55-.83,0-1.14-.55-.32-1.43-.32-1.98,0-.55.32-.55.83,0,1.14Z"/>
            </g>
          </g>
          <g>
            <g>
              <path class="cls-21" d="m73.71,96.98c.15,0,.27.08.27.18s-.12.18-.27.18-.27-.08-.27-.18.12-.18.27-.18Z"/>
              <path class="cls-21" d="m73.71,94.05c.15,0,.27.08.27.18s-.12.18-.27.18-.27-.08-.27-.18.12-.18.27-.18Z"/>
              <path class="cls-21" d="m75.58,95.7c0-.1.12-.18.27-.18s.27.08.27.18-.12.18-.27.18-.27-.08-.27-.18Z"/>
              <path class="cls-21" d="m71.3,95.7c0-.1.12-.18.27-.18s.27.08.27.18-.12.18-.27.18-.27-.08-.27-.18Z"/>
              <path class="cls-21" d="m73.71,90.59c.19,0,.35.11.35.24s-.16.24-.35.24-.35-.11-.35-.24.16-.24.35-.24Z"/>
              <path class="cls-21" d="m74.85,89.81c0-.13.16-.24.35-.24s.35.11.35.24-.16.24-.35.24-.35-.11-.35-.24Z"/>
              <path class="cls-21" d="m71.87,89.81c0-.13.16-.24.35-.24s.35.11.35.24-.16.24-.35.24-.35-.11-.35-.24Z"/>
              <polygon class="cls-21" points="71.83 95.7 71.3 95.7 71.87 89.81 72.56 89.81 71.83 95.7"/>
              <polygon class="cls-21" points="75.58 95.7 76.11 95.7 75.54 89.81 74.85 89.81 75.58 95.7"/>
              <polygon class="cls-21" points="73.97 97.17 73.45 97.17 73.36 90.83 74.05 90.83 73.97 97.17"/>
            </g>
            <path class="cls-16" d="m75.52,89.12c1,.58,1,1.52,0,2.1s-2.63.58-3.63,0-1-1.52,0-2.1c1-.58,2.63-.58,3.63,0Z"/>
            <path class="cls-21" d="m75.52,88.69c1,.58,1,1.52,0,2.1-1,.58-2.63.58-3.63,0-1-.58-1-1.52,0-2.1,1-.58,2.63-.58,3.63,0Z"/>
          </g>
          <g>
            <path class="cls-28" d="m71.09,96.11c1.18.68,1.18,1.79,0,2.47-1.18.68-3.1.68-4.29,0-1.18-.68-1.18-1.79,0-2.47,1.18-.68,3.1-.68,4.29,0Z"/>
            <path class="cls-21" d="m71.09,95.81c1.18.68,1.18,1.79,0,2.47-1.18.68-3.1.68-4.29,0-1.18-.68-1.18-1.79,0-2.47,1.18-.68,3.1-.68,4.29,0Z"/>
            <ellipse class="cls-16" cx="68.95" cy="97.05" rx=".94" ry=".54"/>
            <ellipse class="cls-21" cx="68.95" cy="96.81" rx=".94" ry=".54"/>
            <path class="cls-6" d="m69.46,96.33c.28.16.28.43,0,.59-.28.16-.74.16-1.02,0-.28-.16-.28-.43,0-.59s.74-.16,1.02,0Z"/>
            <rect class="cls-6" x="68.22" y="90.74" width="1.45" height="5.92"/>
            <path class="cls-28" d="m73.24,87.78c2.37,1.37,2.37,3.59,0,4.95-2.37,1.37-6.21,1.37-8.58,0-2.37-1.37-2.37-3.59,0-4.95,2.37-1.37,6.21-1.37,8.58,0Z"/>
            <path class="cls-24" d="m73.24,87.43c2.37,1.37,2.37,3.59,0,4.95-2.37,1.37-6.21,1.37-8.58,0-2.37-1.37-2.37-3.59,0-4.95,2.37-1.37,6.21-1.37,8.58,0Z"/>
          </g>
          <g>
            <g>
              <path class="cls-21" d="m63.69,102.29c.15,0,.27.08.27.18s-.12.18-.27.18-.27-.08-.27-.18.12-.18.27-.18Z"/>
              <path class="cls-21" d="m63.69,99.36c.15,0,.27.08.27.18s-.12.18-.27.18-.27-.08-.27-.18.12-.18.27-.18Z"/>
              <path class="cls-21" d="m65.56,101c0-.1.12-.18.27-.18s.27.08.27.18-.12.18-.27.18-.27-.08-.27-.18Z"/>
              <path class="cls-21" d="m61.28,101c0-.1.12-.18.27-.18s.27.08.27.18-.12.18-.27.18-.27-.08-.27-.18Z"/>
              <path class="cls-21" d="m63.69,95.9c.19,0,.35.11.35.24s-.16.24-.35.24-.35-.11-.35-.24.16-.24.35-.24Z"/>
              <ellipse class="cls-21" cx="65.18" cy="95.11" rx=".35" ry=".24"/>
              <ellipse class="cls-21" cx="62.2" cy="95.11" rx=".35" ry=".24"/>
              <polygon class="cls-21" points="61.81 101 61.28 101 61.85 95.11 62.54 95.11 61.81 101"/>
              <polygon class="cls-21" points="65.56 101 66.09 101 65.52 95.11 64.83 95.11 65.56 101"/>
              <polygon class="cls-21" points="63.95 102.47 63.43 102.47 63.34 96.13 64.03 96.13 63.95 102.47"/>
            </g>
            <path class="cls-16" d="m65.5,94.42c1,.58,1,1.52,0,2.1-1,.58-2.63.58-3.64,0-1-.58-1-1.52,0-2.1,1-.58,2.63-.58,3.64,0Z"/>
            <path class="cls-21" d="m65.5,93.99c1,.58,1,1.52,0,2.1-1,.58-2.63.58-3.64,0-1-.58-1-1.52,0-2.1,1-.58,2.63-.58,3.64,0Z"/>
          </g>
          <g>
            <g>
              <path class="cls-21" d="m85.56,90.46c.15,0,.27.08.27.18s-.12.18-.27.18-.27-.08-.27-.18.12-.18.27-.18Z"/>
              <path class="cls-21" d="m85.56,87.52c.15,0,.27.08.27.18s-.12.18-.27.18-.27-.08-.27-.18.12-.18.27-.18Z"/>
              <path class="cls-21" d="m87.43,89.17c0-.1.12-.18.27-.18s.27.08.27.18-.12.18-.27.18-.27-.08-.27-.18Z"/>
              <path class="cls-21" d="m83.16,89.17c0-.1.12-.18.27-.18s.27.08.27.18-.12.18-.27.18-.27-.08-.27-.18Z"/>
              <path class="cls-21" d="m85.56,84.06c.19,0,.35.11.35.24s-.16.24-.35.24-.35-.11-.35-.24.16-.24.35-.24Z"/>
              <ellipse class="cls-21" cx="87.05" cy="83.28" rx=".35" ry=".24"/>
              <path class="cls-21" d="m83.72,83.28c0-.13.16-.24.35-.24s.35.11.35.24-.16.24-.35.24-.35-.11-.35-.24Z"/>
              <polygon class="cls-21" points="83.69 89.17 83.16 89.17 83.72 83.28 84.42 83.28 83.69 89.17"/>
              <polygon class="cls-21" points="87.43 89.17 87.97 89.17 87.4 83.28 86.71 83.28 87.43 89.17"/>
              <polygon class="cls-21" points="85.82 90.64 85.3 90.64 85.21 84.3 85.91 84.3 85.82 90.64"/>
            </g>
            <path class="cls-16" d="m87.38,82.59c1,.58,1,1.52,0,2.1-1,.58-2.63.58-3.63,0-1-.58-1-1.52,0-2.1,1-.58,2.63-.58,3.63,0Z"/>
            <path class="cls-21" d="m87.38,82.16c1,.58,1,1.52,0,2.1-1,.58-2.63.58-3.63,0-1-.58-1-1.52,0-2.1,1-.58,2.63-.58,3.63,0Z"/>
          </g>
          <g>
            <path class="cls-28" d="m82.95,89.59c1.18.68,1.18,1.79,0,2.47-1.18.68-3.1.68-4.29,0-1.18-.68-1.18-1.79,0-2.47,1.18-.68,3.1-.68,4.29,0Z"/>
            <path class="cls-21" d="m82.95,89.28c1.18.68,1.18,1.79,0,2.47-1.18.68-3.1.68-4.29,0-1.18-.68-1.18-1.79,0-2.47,1.18-.68,3.1-.68,4.29,0Z"/>
            <path class="cls-16" d="m81.47,90.13c.37.21.37.56,0,.77s-.97.21-1.33,0c-.37-.21-.37-.56,0-.77.37-.21.97-.21,1.33,0Z"/>
            <path class="cls-21" d="m81.47,89.89c.37.21.37.56,0,.77s-.97.21-1.33,0c-.37-.21-.37-.56,0-.77.37-.21.97-.21,1.33,0Z"/>
            <ellipse class="cls-6" cx="80.8" cy="90.1" rx=".72" ry=".42"/>
            <rect class="cls-6" x="80.08" y="84.21" width="1.45" height="5.92"/>
            <path class="cls-28" d="m85.09,81.25c2.37,1.37,2.37,3.59,0,4.95-2.37,1.37-6.21,1.37-8.58,0-2.37-1.37-2.37-3.59,0-4.95,2.37-1.37,6.21-1.37,8.58,0Z"/>
            <path class="cls-24" d="m85.09,80.9c2.37,1.37,2.37,3.59,0,4.95-2.37,1.37-6.21,1.37-8.58,0-2.37-1.37-2.37-3.59,0-4.95,2.37-1.37,6.21-1.37,8.58,0Z"/>
          </g>
          <g>
            <g>
              <ellipse class="cls-21" cx="82.99" cy="98.12" rx=".27" ry=".18"/>
              <ellipse class="cls-21" cx="82.99" cy="95.19" rx=".27" ry=".18"/>
              <path class="cls-21" d="m84.86,96.66c0-.1.12-.18.27-.18s.27.08.27.18-.12.18-.27.18-.27-.08-.27-.18Z"/>
              <path class="cls-21" d="m80.58,96.66c0-.1.12-.18.27-.18s.27.08.27.18-.12.18-.27.18-.27-.08-.27-.18Z"/>
              <path class="cls-21" d="m82.99,91.55c.19,0,.35.11.35.24s-.16.24-.35.24-.35-.11-.35-.24.16-.24.35-.24Z"/>
              <path class="cls-21" d="m84.13,90.76c0-.13.16-.24.35-.24s.35.11.35.24-.16.24-.35.24-.35-.11-.35-.24Z"/>
              <path class="cls-21" d="m81.15,90.76c0-.13.16-.24.35-.24s.35.11.35.24-.16.24-.35.24-.35-.11-.35-.24Z"/>
              <polygon class="cls-21" points="81.12 96.66 80.58 96.66 81.15 90.76 81.85 90.76 81.12 96.66"/>
              <polygon class="cls-21" points="84.86 96.66 85.4 96.66 84.83 90.76 84.13 90.76 84.86 96.66"/>
              <polygon class="cls-21" points="83.25 98.12 82.73 98.12 82.64 91.79 83.34 91.79 83.25 98.12"/>
            </g>
            <path class="cls-16" d="m84.81,90.08c1,.58,1,1.52,0,2.1-1,.58-2.63.58-3.63,0-1-.58-1-1.52,0-2.1,1-.58,2.63-.58,3.63,0Z"/>
            <path class="cls-21" d="m84.81,89.64c1,.58,1,1.52,0,2.1-1,.58-2.63.58-3.63,0-1-.58-1-1.52,0-2.1,1-.58,2.63-.58,3.63,0Z"/>
          </g>
          <g>
            <g>
              <path class="cls-21" d="m74.05,102.98c.15,0,.27.08.27.18s-.12.18-.27.18-.27-.08-.27-.18.12-.18.27-.18Z"/>
              <path class="cls-21" d="m74.05,100.05c.15,0,.27.08.27.18s-.12.18-.27.18-.27-.08-.27-.18.12-.18.27-.18Z"/>
              <path class="cls-21" d="m75.93,101.69c0-.1.12-.18.27-.18s.27.08.27.18-.12.18-.27.18-.27-.08-.27-.18Z"/>
              <path class="cls-21" d="m71.65,101.69c0-.1.12-.18.27-.18s.27.08.27.18-.12.18-.27.18-.27-.08-.27-.18Z"/>
              <path class="cls-21" d="m74.05,96.59c.19,0,.35.11.35.24s-.16.24-.35.24-.35-.11-.35-.24.16-.24.35-.24Z"/>
              <path class="cls-21" d="m75.2,95.8c0-.13.16-.24.35-.24s.35.11.35.24-.16.24-.35.24-.35-.11-.35-.24Z"/>
              <ellipse class="cls-21" cx="72.56" cy="95.8" rx=".35" ry=".24"/>
              <polygon class="cls-21" points="72.18 101.69 71.65 101.69 72.22 95.8 72.91 95.8 72.18 101.69"/>
              <polygon class="cls-21" points="75.93 101.69 76.46 101.69 75.89 95.8 75.2 95.8 75.93 101.69"/>
              <polygon class="cls-21" points="74.31 103.16 73.79 103.16 73.71 96.82 74.4 96.82 74.31 103.16"/>
            </g>
            <path class="cls-16" d="m75.87,95.12c1,.58,1,1.52,0,2.1-1,.58-2.63.58-3.63,0-1-.58-1-1.52,0-2.1,1-.58,2.63-.58,3.63,0Z"/>
            <path class="cls-21" d="m75.87,94.68c1,.58,1,1.52,0,2.1-1,.58-2.63.58-3.63,0-1-.58-1-1.52,0-2.1,1-.58,2.63-.58,3.63,0Z"/>
          </g>
          <g>
            <polygon class="cls-22" points="69.01 88.93 58.46 82.83 58.46 79.66 69.01 88.93"/>
            <g>
              <polygon class="cls-3" points="58.46 79.66 61.1 78.13 70.63 86.51 71.65 87.4 69.01 88.93 58.46 79.66"/>
              <path class="cls-4" d="m69.01,88.93l2.64-1.52c0,.84-.59,1.86-1.32,2.28-.73.42-1.32.08-1.32-.76Z"/>
              <g>
                <polygon class="cls-22" points="61.1 78.13 63.74 76.61 73.27 84.99 74.29 85.88 71.65 87.4 61.1 78.13"/>
                <path class="cls-10" d="m71.65,87.4l2.64-1.52c0,.84-.59,1.86-1.32,2.28-.73.42-1.32.08-1.32-.76Z"/>
              </g>
            </g>
            <g>
              <polygon class="cls-3" points="63.74 76.61 66.38 75.08 75.91 83.46 76.93 84.35 74.29 85.88 63.74 76.61"/>
              <path class="cls-4" d="m74.29,85.88l2.64-1.52c0,.84-.59,1.86-1.32,2.28s-1.32.08-1.32-.76Z"/>
              <g>
                <polygon class="cls-22" points="66.38 75.08 69.02 73.56 78.55 81.94 79.57 82.83 76.93 84.35 66.38 75.08"/>
                <path class="cls-10" d="m76.93,84.35l2.64-1.52c0,.84-.59,1.86-1.32,2.28s-1.32.08-1.32-.76Z"/>
              </g>
            </g>
            <g>
              <polygon class="cls-3" points="69.02 73.56 71.66 72.03 81.2 80.41 82.21 81.3 79.58 82.83 69.02 73.56"/>
              <path class="cls-4" d="m79.58,82.83l2.64-1.52c0,.84-.59,1.86-1.32,2.28s-1.32.08-1.32-.76Z"/>
              <g>
                <polygon class="cls-22" points="71.66 72.03 74.3 70.51 83.83 78.89 84.85 79.78 82.21 81.3 71.66 72.03"/>
                <path class="cls-10" d="m82.21,81.3l2.64-1.52c0,.84-.59,1.86-1.32,2.28s-1.32.08-1.32-.76Z"/>
              </g>
            </g>
            <g>
              <polygon class="cls-3" points="74.3 70.51 76.94 68.98 86.48 77.36 87.5 78.26 84.86 79.78 74.3 70.51"/>
              <path class="cls-4" d="m84.86,79.78l2.64-1.52c0,.84-.59,1.86-1.32,2.28s-1.32.08-1.32-.76Z"/>
            </g>
          </g>
        </g>
      </g>
    </g>
  </g>
</svg>